<svg width="60" height="36" viewBox="0 0 60 36" fill="none" xmlns="http://www.w3.org/2000/svg">
<path d="M11.5898 21.7533C11.5898 21.1099 11.5968 19.3902 11.581 19.1783C11.5948 16.6192 9.73413 14.814 8.55865 14.9547C7.74526 15.0253 7.06358 15.357 6.69756 16.3111C6.35832 17.2003 6.66162 18.3831 7.78951 18.6606C8.99555 18.9586 9.69978 19.2066 10.2094 19.5565C10.8339 19.9848 11.3437 20.8031 11.3573 21.7544" fill="#0060AF"/>
<path fill-rule="evenodd" clip-rule="evenodd" d="M5.57657 24.0835C7.75914 25.1194 9.94463 25.6432 12.0712 25.6432C14.3242 25.6432 16.5663 25.145 18.5544 24.2039L18.61 24.1783L18.6364 24.123C19.6357 22.0187 20.1412 19.8523 20.1412 17.685C20.1412 15.5092 19.6148 13.2485 18.6166 11.1429L18.5911 11.087L18.5358 11.0625C16.3822 10.0393 14.1273 9.5 12.0159 9.5C9.74932 9.5 7.57737 9.98448 5.55838 10.9409L5.5038 10.9683L5.47688 11.0232C4.49671 13.0878 4 15.2524 4 17.4614C4 19.6738 4.51796 21.9352 5.4974 24.0026L5.52301 24.0572L5.57657 24.0835ZM12.0712 25.3011C10.0135 25.3011 7.89886 24.7974 5.77857 23.8C4.83915 21.7952 4.34201 19.6037 4.34201 17.4614C4.34201 15.3232 4.82038 13.2262 5.76023 11.225C7.71825 10.3068 9.82151 9.84142 12.0159 9.84142C14.0597 9.84142 16.2425 10.3624 18.3325 11.3449C19.2927 13.3885 19.8003 15.5791 19.8003 17.685C19.8003 19.7824 19.314 21.881 18.3545 23.9201C16.4229 24.8241 14.253 25.3011 12.0712 25.3011Z" fill="#0060AF"/>
<path d="M11.0856 21.7541C11.0896 20.9294 10.6293 20.2001 10.0276 19.8082C9.49394 19.4618 8.77748 19.2342 7.62165 18.9411C7.26436 18.8497 6.89063 18.6467 6.77493 18.3879C6.46887 18.6963 6.41328 19.3896 6.46713 19.7948C6.52971 20.2637 7.07764 21.0365 7.90268 21.0668C8.40651 21.087 9.04352 20.9584 9.34899 20.8935C9.87597 20.7796 10.7097 21.1097 10.8425 21.7531" fill="#0060AF"/>
<path d="M12.016 10.9663C10.6171 10.9663 9.40873 11.8888 9.4131 13.4852C9.41747 14.8276 10.497 15.5463 10.8823 16.0596C11.4644 16.8331 11.7795 17.7486 11.8122 19.1495C11.8377 20.2645 11.8364 21.3654 11.8421 21.7556H12.1509C12.1455 21.3474 12.1315 20.1786 12.1475 19.115C12.1685 17.7137 12.4949 16.8331 13.0773 16.0596C13.4659 15.5463 14.5446 14.8276 14.547 13.4852C14.5522 11.8888 13.3445 10.9663 11.9468 10.9663" fill="#0060AF"/>
<path d="M12.3711 21.7533C12.3711 21.1099 12.3638 19.3902 12.3794 19.1783C12.3657 16.6192 14.2252 14.814 15.4017 14.9547C16.2151 15.0253 16.896 15.357 17.2631 16.3111C17.602 17.2003 17.297 18.3831 16.1704 18.6606C14.9638 18.9586 14.2604 19.2066 13.7494 19.5565C13.1257 19.9848 12.6515 20.8031 12.637 21.7544" fill="#0060AF"/>
<path d="M12.8745 21.7541C12.8702 20.9294 13.3304 20.2001 13.9302 19.8082C14.4661 19.4618 15.1834 19.2342 16.3383 18.9411C16.6963 18.8497 17.0696 18.6467 17.1832 18.3879C17.4907 18.6963 17.5462 19.3896 17.4923 19.7948C17.4284 20.2637 16.882 21.0365 16.0584 21.0668C15.5547 21.087 14.9143 20.9584 14.6102 20.8935C14.0852 20.7796 13.2491 21.1097 13.1158 21.7531" fill="#0060AF"/>
<path fill-rule="evenodd" clip-rule="evenodd" d="M13.3062 24.4168L13.1272 23.1106L13.5593 23.0451C13.6645 23.0307 13.7926 23.0491 13.8438 23.115C13.9004 23.1838 13.9177 23.2407 13.9287 23.331C13.945 23.4426 13.9126 23.5717 13.7869 23.636V23.6399C13.9273 23.6399 14.0122 23.7408 14.0368 23.911L14.0377 23.9203C14.0419 23.9603 14.0502 24.0395 14.0404 24.1064C14.0119 24.2788 13.909 24.3343 13.7354 24.3586L13.3062 24.4168ZM13.5843 24.1829L13.6089 24.1797C13.6518 24.1741 13.694 24.1687 13.7281 24.147C13.7903 24.1064 13.7846 24.0195 13.776 23.955C13.7543 23.8133 13.7173 23.7594 13.567 23.7817L13.4725 23.7962L13.5324 24.1902L13.5843 24.1829ZM13.5101 23.5768C13.5045 23.5777 13.4991 23.5785 13.4938 23.5794L13.4459 23.5843L13.4014 23.2496L13.5145 23.2314C13.6358 23.2084 13.6676 23.2676 13.6852 23.3633C13.6977 23.4341 13.6825 23.465 13.6671 23.496C13.665 23.5003 13.6629 23.5046 13.6609 23.5089C13.6315 23.5582 13.5649 23.5684 13.5101 23.5768Z" fill="#0060AF"/>
<path d="M15.1778 23.6311C15.1812 23.6554 15.1851 23.6825 15.1866 23.7068C15.2215 23.945 15.1778 24.1422 14.91 24.1965C14.5142 24.2728 14.4384 24.0268 14.3687 23.6825L14.3315 23.4962C14.277 23.1667 14.2535 22.9173 14.6395 22.8404C14.8571 22.8007 15.0008 22.8873 15.0607 23.1038C15.07 23.1361 15.0816 23.1682 15.086 23.2006L14.8492 23.2495C14.8218 23.1682 14.7856 23.0228 14.6791 23.035C14.4878 23.058 14.551 23.2959 14.5707 23.3953L14.6418 23.7529C14.6632 23.861 14.7057 24.0338 14.8712 24.0005C15.0055 23.9735 14.947 23.7643 14.9351 23.6785" fill="#0060AF"/>
<path fill-rule="evenodd" clip-rule="evenodd" d="M15.4758 22.6747L15.5578 24.0264L15.8103 23.9526L15.7743 23.613L16.0524 23.5294L16.2105 23.8282L16.4609 23.7533L15.794 22.5776L15.4758 22.6747ZM15.952 23.3365L15.751 23.3947L15.6851 22.7895L15.952 23.3365Z" fill="#0060AF"/>
<path d="M7.70009 23.0045C7.79963 22.6857 7.88885 22.4511 8.26869 22.5553C8.472 22.6121 8.59803 22.7017 8.59207 22.9379C8.59108 22.9905 8.57373 23.044 8.56238 23.096L8.32588 23.0306C8.35688 22.9002 8.37653 22.7968 8.21586 22.7473C8.03016 22.6964 7.9849 22.9215 7.95929 23.0187L7.86309 23.3731C7.83253 23.4783 7.79585 23.6522 7.95929 23.697C8.09434 23.7334 8.17628 23.6008 8.22518 23.4073L8.0597 23.3635L8.1169 23.1584L8.50591 23.2836L8.32123 23.9666L8.14222 23.918L8.18253 23.7736H8.17744C8.09507 23.8916 7.9945 23.904 7.90645 23.8871C7.51744 23.7819 7.55804 23.5276 7.6509 23.188" fill="#0060AF"/>
<path fill-rule="evenodd" clip-rule="evenodd" d="M9.03104 24.137L9.1482 23.5813L9.21907 23.5956C9.23544 23.5994 9.24922 23.6022 9.26152 23.6047C9.30153 23.6128 9.32597 23.6177 9.37305 23.6428C9.44924 23.6826 9.42844 23.7864 9.41304 23.8632C9.41256 23.8657 9.41208 23.868 9.41161 23.8704C9.40846 23.8885 9.40431 23.9095 9.39982 23.9324C9.38254 24.0201 9.36011 24.1341 9.36912 24.2038L9.64199 24.275L9.64025 24.2361C9.59398 24.1892 9.65156 23.919 9.6697 23.8339C9.67136 23.8262 9.67269 23.8199 9.67357 23.8155C9.69774 23.6949 9.68664 23.6242 9.55264 23.575C9.71526 23.5834 9.78223 23.436 9.80325 23.2991C9.8405 23.058 9.76104 22.9408 9.49791 22.8841L9.04836 22.7825L8.76733 24.0799L9.03104 24.137ZM9.37072 23.4282L9.19317 23.3803L9.26695 23.0297L9.45731 23.0683C9.55409 23.0914 9.57898 23.1382 9.55977 23.2576C9.53852 23.3879 9.47856 23.4438 9.37072 23.4282Z" fill="#0060AF"/>
<path d="M10.8396 23.0725L11.1004 23.1028L10.9881 24.0149C10.9335 24.304 10.8217 24.4305 10.5036 24.3909C10.1799 24.35 10.1031 24.2026 10.1227 23.9111L10.2358 22.9998L10.4986 23.0299L10.3859 23.9208C10.3739 24.0176 10.3515 24.161 10.5237 24.1783C10.6763 24.1899 10.711 24.0888 10.7282 23.963" fill="#0060AF"/>
<path fill-rule="evenodd" clip-rule="evenodd" d="M11.4664 23.1365L11.3879 24.4408L11.6444 24.4576L11.677 23.911L11.8403 23.92C11.9359 23.9247 12.0389 23.911 12.1191 23.8532C12.2169 23.7853 12.252 23.66 12.2588 23.5478C12.2662 23.3632 12.2042 23.1698 11.9675 23.1582L11.4664 23.1365ZM11.8171 23.7195L11.6844 23.7121L11.7086 23.3349L11.8138 23.3385C11.9535 23.3446 12.011 23.3704 12.0057 23.5224C11.9964 23.6808 11.925 23.7234 11.8171 23.7195Z" fill="#0060AF"/>
<path d="M46.7283 12.2268L44.7368 15.8414C43.9851 15.231 43.0672 14.7818 41.8961 14.7818C39.1247 14.7818 37.999 16.8476 37.999 18.3028C37.999 19.383 38.7063 20.9767 41.1722 20.9767C42.2072 20.9767 43.6787 20.2566 44.1022 19.929L42.1326 24.1226C41.1937 24.3099 40.8854 24.426 40.0906 24.4506C35.677 24.5823 33.8935 21.871 33.8948 19.1005C33.8977 15.438 37.154 10.9838 42.5522 10.9838C42.883 10.9838 43.2875 11.0982 43.6335 11.2249L43.983 10.7778" fill="#0060AF"/>
<path fill-rule="evenodd" clip-rule="evenodd" d="M55.5095 24.029L54.9455 10.8914H48.6791L46.6403 14.6406L47.7134 14.6476L42.9548 24.029H47.5064L48.4483 21.7758H51.3101L51.3126 24.029H55.5095ZM49.6648 18.7317L51.2829 14.9104L51.3316 18.7317H49.6648Z" fill="#0060AF"/>
<path fill-rule="evenodd" clip-rule="evenodd" d="M31.2451 10.8914C33.3234 10.903 34.4979 12.0312 34.4979 13.6609C34.4979 15.1633 33.2593 16.4932 31.8995 17.1808C33.2994 17.6954 33.4205 18.9586 33.4205 19.8524C33.4205 22.0115 31.254 24.0291 28.4377 24.0291H22.2959L24.6917 14.7783L23.7076 14.7727L25.7193 10.8914C25.7193 10.8914 29.555 10.8798 31.2451 10.8914ZM29.206 16.2179C29.6359 16.2179 30.395 16.1091 30.5848 15.2771C30.7928 14.3739 30.0804 14.3496 29.7387 14.3496L28.5176 14.3442L28.0918 16.218L29.206 16.2179ZM26.9175 20.6987L27.4797 18.5395H28.9647C29.5284 18.5395 30.0673 19.0106 29.8807 19.7153C29.6918 20.4179 28.9209 20.6987 28.3552 20.6987H26.9175Z" fill="#0060AF"/>
</svg>
