<svg width="60" height="36" viewBox="0 0 60 36" fill="none" xmlns="http://www.w3.org/2000/svg">
<path fill-rule="evenodd" clip-rule="evenodd" d="M8.80219 21.9005L10.9337 24.5879H5.65642L8.80219 21.9005ZM8.1319 21.0704L4.00372 24.5961L4.00203 15.9249L8.1319 21.0704ZM18.0647 12.3391C18.0647 12.3391 17.1584 11.9022 16.1056 11.966C14.902 12.0382 13.895 12.5081 13.3161 13.1282C12.9519 13.5178 12.5492 13.9931 12.3469 14.5092C12.0536 15.2559 11.991 16.2425 11.991 16.2425C11.991 16.2425 11.5698 15.8787 11.0426 14.8188C10.4293 13.5861 10.2616 12.8389 10.1785 11.987C10.1045 11.2393 10.2206 10.5 10.2206 10.5H18.0647V12.3391ZM18.0647 14.7972V20.2647C18.0647 20.2647 17.577 20.4554 17.1792 20.4554C16.7815 20.4554 16.1041 20.3954 15.3173 19.955C14.5363 19.5182 14.104 18.9898 13.7689 18.5109C13.429 18.0238 13.1484 17.3488 13.0649 16.8621C12.9979 16.4729 12.9256 15.502 13.3161 14.7127C13.528 14.2847 14.0968 13.5508 15.1917 13.5088C16.0843 13.474 16.5792 13.7129 17.0327 13.9662C17.8961 14.4497 18.0647 14.7972 18.0647 14.7972ZM9.52342 19.8808L10.9383 18.68C10.4874 18.0936 10.3682 17.8727 9.86415 17.1156C9.34807 16.3407 8.91577 15.4883 8.54609 14.4878C8.14595 13.4043 8.0493 12.7959 8.09348 11.987C8.14883 10.9578 8.37869 10.5 8.37869 10.5H4L4.00203 12.9028C4.00203 12.9028 7.3538 17.1792 9.52342 19.8808ZM13.5663 24.5838H18.0647V21.2445C18.0647 21.2445 16.9489 21.7656 16.2236 21.8077C15.7918 21.8331 15.3727 21.8502 14.6965 21.6671C13.9448 21.4637 13.5177 21.2655 12.821 20.6805C12.2614 20.2112 11.6216 19.5182 11.6216 19.5182L10.1984 20.7263C10.8587 21.5486 11.3464 22.1471 11.4957 22.3082C12.1375 22.9988 12.4095 23.2526 12.8418 23.4987C13.274 23.7453 14.7178 23.732 14.7178 23.732L13.5663 24.5838Z" fill="#D74B2B"/>
<path fill-rule="evenodd" clip-rule="evenodd" d="M51.2034 24.5801V24.6445H55.2456V24.5801C54.182 24.1717 54.3096 22.6024 54.3096 21.6348V13.5306C54.3096 12.5635 54.182 10.9727 55.2456 10.5645V10.5H51.2034V10.5645C52.2884 10.9727 52.1396 12.542 52.1396 13.5306V21.6348C52.1396 22.6024 52.2676 24.1929 51.2034 24.5801ZM44.6147 22.8818C45.5505 24.1068 46.2105 24.8166 47.7213 25.3322V13.2729C47.7213 12.0691 47.7213 11.209 48.8278 10.5645V10.5H45.0828V10.5645C46.2105 11.209 46.189 12.0691 46.189 13.2729V21.42L38.4022 11.4885L38.1039 11.0586C37.9555 10.8867 37.8705 10.7793 37.7852 10.5214V10.5H34.6783V10.5645C35.7848 11.209 35.7848 12.0691 35.7848 13.2729V21.8502C35.7848 23.0537 35.7848 23.9134 34.6575 24.5801V24.6445H38.4237V24.5801C37.2957 23.9134 37.3168 23.0537 37.3168 21.8502V13.5306L44.6147 22.8818ZM25.4213 11.9833L26.8465 11.8324C28.1233 11.7035 29.4846 12.4775 29.4846 13.9609C29.4846 15.7238 27.506 16.1965 26.1232 16.1965H25.4213V11.9833ZM25.4213 17.6149L26.9103 17.5291C28.7825 17.4215 30.7826 18.3247 30.7826 20.4097C30.7826 22.4519 29.017 23.2687 27.272 23.0968L25.4213 22.9248V17.6149ZM22.3145 24.5801V24.6445H25.8252C27.4208 24.6445 29.1021 24.7092 30.5911 23.9782C32.0167 23.2902 33.1443 21.8713 33.1443 20.216C33.1443 18.1099 31.591 16.8199 29.6761 16.411C30.889 15.8738 31.8036 15.057 31.8036 13.6167C31.8036 11.7035 30.1656 10.5 27.3573 10.5H22.3145V10.5645C23.4001 10.9727 23.2508 12.542 23.2508 13.5091V21.6134C23.2508 22.6024 23.3784 24.1717 22.3145 24.5801Z" fill="#19525B"/>
</svg>
