<svg width="60" height="36" viewBox="0 0 60 36" fill="none" xmlns="http://www.w3.org/2000/svg">
<path fill-rule="evenodd" clip-rule="evenodd" d="M4.52648 19.9258L4.14974 19.9251L5.08799 17.2747H5.46228C5.97015 17.2747 6.36673 17.5864 6.36673 18.0856C6.36673 19.1937 5.6669 19.9258 4.52648 19.9258ZM48.8214 21.0211L50.8638 21.0153L52.2768 17.1122L53.4654 21.0198L55.4446 21.0136L57.9882 14.0952C57.3863 14.0952 56.7805 14.1017 56.1788 14.0949C55.9095 14.0916 55.9689 14.0557 55.9103 14.2628C55.8776 14.3779 55.8119 14.513 55.7805 14.601C55.693 14.847 55.6256 15.0522 55.5441 15.3003C55.4056 15.7216 54.594 17.7759 54.5883 18.0253L54.5388 18.0215L53.3719 14.0952L51.3558 14.0994L48.8214 21.0211ZM43.6399 15.8108L45.8439 15.818L43.983 21.0198H46.1354C46.1409 20.7738 46.9148 18.8007 47.0535 18.382C47.2029 17.9312 47.3767 17.5258 47.5254 17.0761C47.584 16.8987 47.9288 15.8108 48.038 15.8108L50.0819 15.8053L50.6894 14.0952H44.3262C44.2228 14.0952 44.0161 14.786 43.9644 14.9186C43.8657 15.171 43.7017 15.5794 43.6399 15.8108ZM37.785 18.1536L38.5556 18.1502C38.987 18.1502 40.0218 18.1026 40.0218 18.4933C40.0218 19.1319 39.6677 19.113 39.3354 19.3354L38.962 19.3745L37.3315 19.3638L37.785 18.1536ZM38.6597 15.7208L40.2088 15.7171C40.3653 15.7171 40.6143 15.7588 40.6143 15.9043V16.0604C40.6143 16.4445 40.1969 16.6529 39.8034 16.6529L38.3249 16.6485L38.6597 15.7208ZM34.6431 20.9837L39.2107 20.9886C39.9268 20.9886 40.8325 20.5705 41.244 20.2459C41.7288 19.8633 42.1428 19.2317 42.1428 18.3684C42.1428 18.0824 41.91 17.5184 41.706 17.464V17.3703C42.2405 17.2458 42.7979 16.3204 42.7979 15.5924C42.7979 14.3216 41.7065 14.0952 40.4273 14.0952L37.1615 14.0986L34.6431 20.9837ZM26.4396 20.2916V19.3496V16.3954L28.9778 15.0044L31.512 16.453L31.5177 19.3335V20.2916L32.3481 19.8285V16.012C32.3481 15.9412 30.857 15.1036 30.6809 14.9966C30.5333 14.9069 28.9967 14 28.9946 14C28.9232 14 27.4954 14.8876 27.3116 14.9995C27.076 15.1429 25.7589 15.9765 25.6253 16.012L25.6291 19.8221L26.4396 20.2916ZM27.2861 18.8704V19.8127L27.2908 20.763L28.0845 21.2339L28.1004 20.2916V19.3335V18.3915V17.4334L28.9773 16.8881L29.8211 17.4079L29.825 18.3276V19.3177V20.2916V21.2499L30.6076 20.7708V19.7807V18.8066V16.9542L29.0116 15.9625L27.2891 16.9437L27.2861 18.8704ZM19.717 14.4673L19.6859 14.6545H19.7794C19.9523 14.6545 20.0602 14.6978 20.0602 14.8727V14.9976C20.0602 15.1136 19.2273 17.2864 19.1111 17.6357C18.9811 18.0272 18.7841 18.5914 18.6257 18.9594C18.5362 19.1678 18.1742 20.0976 18.1574 20.3003H19.3116C19.3154 20.1267 19.6194 19.4297 19.6857 19.2085C19.7382 19.0333 19.8051 18.8204 19.9404 18.7144C20.0535 18.6258 20.2417 18.4323 20.3721 18.3975C20.3721 18.591 20.4868 19.3452 20.5334 19.5775C20.6037 19.9258 20.6944 20.3627 21.1207 20.3627C21.6635 20.3627 22.2585 19.5618 22.4689 19.1705L22.3371 19.0526C22.2144 19.1425 22.0381 19.5516 21.8692 19.5516H21.8381C21.6249 19.5516 21.3703 17.8402 21.3703 17.4929C21.5754 17.3843 21.9172 17.0553 22.1687 16.8877C22.317 16.7891 22.4377 16.7045 22.6178 16.6506C22.8328 16.5864 23.0355 16.5987 23.0546 16.37L21.2153 16.3702L21.183 16.5259C21.3364 16.5259 21.6822 16.5886 21.6822 16.7131C21.6822 16.9837 20.2563 18.1619 19.9954 18.3342L21.4638 14.2802H20.8711C20.5438 14.2802 20.1012 14.4673 19.717 14.4673ZM13.8862 16.4766L13.8224 16.6448L14.1961 16.682C14.239 16.7462 14.2896 16.7628 14.2896 16.8379V16.9316C14.2896 17.0927 13.7827 18.4285 13.6969 18.6159C13.6297 18.7633 13.0797 20.2223 13.0731 20.3003H14.1647C14.2874 20.3003 14.519 19.472 14.5823 19.3141C14.7527 18.8893 14.8517 18.7627 15.0877 18.4158C15.2878 18.1215 16.1675 17.0563 16.5353 17.0563H16.6291C16.7124 17.0563 16.7212 17.1012 16.7537 17.1498C16.6304 17.6798 15.7868 19.407 15.7868 19.7388V19.9572C15.7868 20.1333 16.0165 20.3315 16.1922 20.3315H16.5353C16.9138 20.3315 17.7415 19.5518 17.8116 19.2462L17.6272 19.1773C17.5573 19.3095 17.2293 19.7388 17.0657 19.7388C17.023 19.7388 16.9913 19.6736 16.9722 19.6453C17.0612 19.2629 17.3444 18.6226 17.5023 18.2726C17.6435 17.9607 17.9703 17.2133 17.9703 16.8067C17.9703 16.5093 17.7236 16.214 17.44 16.214C16.9034 16.214 16.3523 16.6285 16.0751 16.9078C15.8846 17.0995 15.2026 17.9237 15.0896 17.9879L15.7244 16.214L15.536 16.2068L13.8862 16.4766ZM10.0474 19.5827H10.0163C9.94124 19.5827 9.82919 19.4707 9.82919 19.3957V18.9902C9.82919 18.4043 10.7508 16.4947 11.264 16.4947H11.3263C11.4641 16.4947 11.5759 16.7347 11.5759 16.9002V17.0251C11.5759 17.7772 10.6137 19.5827 10.0474 19.5827ZM8.61263 19.3957V19.5516C8.61263 19.9276 8.84805 20.3939 9.20533 20.3939H9.29884C9.73341 20.3939 10.0344 20.1439 10.2583 19.9185C10.4117 19.7639 10.8274 19.2088 10.9209 19.1461C10.8991 19.4061 10.7025 19.6487 10.7025 19.9572V20.0507C10.7025 20.2259 10.9088 20.3939 11.0767 20.3939H11.3887C11.8877 20.3939 12.5102 19.6897 12.6988 19.3333C12.6797 19.3048 12.6479 19.2398 12.6053 19.2398C12.48 19.2398 12.223 19.77 11.9502 19.77C11.9122 19.77 11.8567 19.7055 11.8567 19.6453V19.6141C11.8567 19.5075 12.3808 18.1204 12.4594 17.9397C12.5754 17.673 12.6542 17.3737 12.7566 17.1141C12.8458 16.8885 13.0202 16.504 13.0732 16.2812L12.0148 16.3086L11.7941 16.8067C11.7227 16.4995 11.6453 16.214 11.264 16.214H11.0767C10.4937 16.214 9.706 17.0043 9.42885 17.3733C9.09291 17.8201 8.61263 18.6333 8.61263 19.3957ZM6.06801 14.628L6.33555 14.6233C6.76387 14.6233 7.05296 14.9103 7.05296 15.3407C7.05296 16.1431 6.30797 16.9316 5.49346 16.9316L5.23612 16.9287L6.06801 14.628ZM3.99613 14.4673H4.12101C4.36739 14.4673 4.65117 14.5713 4.65117 14.8104V14.9039C4.65117 15.083 3.80265 17.3795 3.67494 17.7021C3.49619 18.1534 3.32502 18.6337 3.16784 19.0976C3.00477 19.5784 2.88254 20.0819 2.2494 20.0819L2.03231 20.0821L2 20.2378H5.11917C5.93803 20.2378 6.44703 20.1486 6.95905 19.8319C7.33636 19.5984 7.80171 19.0397 7.80171 18.4287V18.3975C7.80171 17.6265 7.03254 17.2352 6.3981 17.0874C6.53564 16.9918 7.40853 16.819 7.75824 16.6073C8.08095 16.4122 8.48792 15.9606 8.48792 15.4654V15.3719C8.48792 14.5937 7.68021 14.3114 6.8659 14.3114H4.08984C3.98763 14.3114 3.99613 14.3673 3.99613 14.4673Z" fill="#07387C"/>
<path fill-rule="evenodd" clip-rule="evenodd" d="M38.1814 25.6362C38.2981 24.2334 44.9848 23.2061 46.881 22.9819C47.717 22.8831 48.6047 22.7969 49.4174 22.6798C50.223 22.5638 51.1755 22.4528 51.9688 22.3927C52.3635 22.3629 52.8885 22.3088 53.255 22.2441C53.6649 22.1717 54.1079 22.176 54.5182 22.1037C54.9022 22.036 55.3829 22.0244 55.7771 21.9589C56.1416 21.8984 56.6546 21.8308 57.0526 21.8308V21.7996C55.9795 21.7996 54.9045 21.7872 53.9025 21.8622C52.8822 21.9386 51.7388 21.811 50.754 21.9266C50.2818 21.982 49.6622 21.9291 49.19 21.9845C48.7441 22.0368 48.1135 22.0183 47.6326 22.0179C47.1101 22.0175 46.6246 22.0803 46.073 22.0803C45.7079 22.0803 44.8854 22.0954 44.557 22.1551C44.2903 22.2037 43.3069 22.2377 43.016 22.2361C42.5677 22.2338 42.0233 22.3426 41.5506 22.3615C41.0577 22.3811 40.5444 22.4594 40.0812 22.514C39.8265 22.5441 39.6035 22.5559 39.3543 22.5982C39.1517 22.6326 38.8312 22.6929 38.68 22.7037C37.5964 22.7809 33.9705 23.5577 33.9705 24.4197V24.5133C33.9705 25.4222 37.0424 25.6362 38.1814 25.6362Z" fill="#EE1E26"/>
</svg>
