<svg id="svg" version="1.1" xmlns="http://www.w3.org/2000/svg" xmlns:xlink="http://www.w3.org/1999/xlink" width="400" height="153.125" viewBox="0, 0, 400,153.125"><g id="svgg"><path id="path0" d="M79.162 9.326 C 79.021 9.408,77.521 9.512,75.828 9.557 C 71.167 9.681,70.553 9.733,70.215 10.040 C 70.022 10.214,69.467 10.348,68.665 10.414 C 67.011 10.549,66.474 10.647,66.214 10.863 C 66.096 10.961,65.382 11.104,64.627 11.180 C 63.639 11.280,63.198 11.398,63.047 11.605 C 62.840 11.888,62.388 11.997,61.417 11.997 C 61.126 11.997,60.719 12.168,60.445 12.405 C 60.185 12.629,59.874 12.774,59.753 12.728 C 59.632 12.682,59.489 12.717,59.433 12.806 C 59.378 12.896,59.190 12.931,59.015 12.886 C 58.827 12.836,58.555 12.945,58.349 13.151 C 58.134 13.366,57.786 13.500,57.441 13.500 C 57.134 13.500,56.552 13.676,56.148 13.891 C 55.744 14.105,55.143 14.332,54.812 14.394 C 54.481 14.456,54.038 14.655,53.829 14.837 C 53.620 15.018,53.338 15.167,53.203 15.167 C 52.836 15.167,51.215 16.135,51.105 16.419 C 51.052 16.559,50.801 16.667,50.530 16.667 C 50.248 16.667,49.863 16.839,49.599 17.083 C 49.352 17.313,48.970 17.500,48.751 17.500 C 48.532 17.500,48.254 17.638,48.134 17.806 C 48.015 17.975,47.724 18.160,47.489 18.219 C 47.254 18.277,46.889 18.474,46.678 18.657 C 46.466 18.840,46.156 19.034,45.989 19.087 C 45.821 19.140,45.638 19.328,45.582 19.505 C 45.526 19.682,45.428 19.819,45.365 19.810 C 44.922 19.747,44.469 19.879,44.215 20.146 C 44.051 20.318,43.744 20.512,43.533 20.577 C 43.195 20.681,42.937 20.883,41.819 21.921 C 41.674 22.056,41.513 22.167,41.461 22.167 C 41.176 22.167,39.185 23.698,37.993 24.833 C 37.752 25.063,37.356 25.356,37.112 25.486 C 36.868 25.616,36.543 25.914,36.389 26.148 C 36.065 26.643,35.096 27.667,34.951 27.667 C 34.772 27.667,30.667 31.887,30.667 32.072 C 30.667 32.124,30.367 32.458,30.000 32.814 C 29.633 33.170,29.333 33.540,29.333 33.636 C 29.333 33.732,29.178 33.860,28.987 33.921 C 28.797 33.981,28.684 34.073,28.737 34.126 C 28.789 34.178,28.624 34.415,28.368 34.652 C 28.113 34.889,27.808 35.305,27.690 35.576 C 27.572 35.847,27.331 36.170,27.155 36.294 C 26.978 36.418,26.833 36.602,26.833 36.704 C 26.833 36.805,26.719 37.007,26.580 37.153 C 26.036 37.718,25.333 38.723,25.333 38.936 C 25.333 39.059,25.146 39.282,24.917 39.432 C 24.687 39.582,24.500 39.811,24.500 39.941 C 24.500 40.071,24.391 40.219,24.258 40.270 C 24.125 40.321,23.926 40.637,23.816 40.973 C 23.706 41.309,23.472 41.685,23.297 41.809 C 23.121 41.933,23.017 42.137,23.065 42.262 C 23.113 42.387,23.079 42.534,22.990 42.590 C 22.901 42.645,22.866 42.751,22.913 42.827 C 22.959 42.902,22.810 43.086,22.582 43.236 C 22.354 43.385,22.167 43.658,22.167 43.842 C 22.167 44.027,22.062 44.217,21.933 44.267 C 21.720 44.348,21.562 44.670,21.409 45.329 C 21.378 45.464,21.242 45.654,21.108 45.752 C 20.975 45.850,20.779 46.250,20.674 46.640 C 20.569 47.031,20.376 47.391,20.246 47.441 C 20.116 47.491,19.958 47.806,19.897 48.141 C 19.835 48.476,19.608 49.011,19.392 49.330 C 19.176 49.650,19.000 50.113,19.000 50.360 C 19.000 50.607,18.881 50.929,18.735 51.075 C 18.589 51.221,18.445 51.470,18.414 51.628 C 18.384 51.787,18.348 51.917,18.334 51.917 C 18.320 51.917,18.275 52.100,18.234 52.325 C 18.192 52.549,18.049 52.854,17.914 53.003 C 17.780 53.152,17.594 53.672,17.501 54.160 C 17.409 54.648,17.213 55.135,17.066 55.242 C 16.905 55.360,16.778 55.742,16.747 56.203 C 16.719 56.623,16.617 57.115,16.520 57.295 C 16.424 57.475,16.392 57.670,16.450 57.728 C 16.508 57.786,16.475 57.833,16.377 57.833 C 16.129 57.833,15.901 58.596,15.853 59.583 C 15.831 60.042,15.719 60.492,15.604 60.583 C 15.280 60.843,15.183 61.231,15.074 62.710 C 15.009 63.596,14.881 64.185,14.714 64.371 C 14.453 64.661,14.379 65.220,14.252 67.869 C 14.202 68.893,14.093 69.457,13.883 69.779 C 13.356 70.582,13.456 86.261,13.992 86.906 C 14.118 87.059,14.226 87.935,14.274 89.197 C 14.336 90.827,14.417 91.346,14.672 91.759 C 14.856 92.057,15.032 92.730,15.086 93.347 C 15.138 93.935,15.200 94.620,15.224 94.867 C 15.248 95.115,15.392 95.455,15.544 95.623 C 15.712 95.809,15.847 96.315,15.890 96.922 C 15.929 97.474,16.113 98.213,16.305 98.583 C 16.494 98.950,16.688 99.578,16.735 99.979 C 16.782 100.381,16.935 100.836,17.075 100.991 C 17.216 101.146,17.407 101.675,17.500 102.167 C 17.593 102.658,17.772 103.178,17.897 103.322 C 18.022 103.466,18.172 103.848,18.230 104.172 C 18.287 104.496,18.484 104.889,18.667 105.045 C 18.864 105.213,19.000 105.537,19.000 105.834 C 19.000 106.334,19.226 106.863,19.625 107.297 C 19.837 107.528,19.895 107.748,19.844 108.132 C 19.828 108.250,20.007 108.575,20.241 108.853 C 20.475 109.131,20.667 109.466,20.667 109.596 C 20.667 110.032,20.685 110.082,20.976 110.417 C 21.135 110.600,21.374 110.975,21.508 111.250 C 21.641 111.525,21.844 111.849,21.958 111.970 C 22.073 112.091,22.167 112.287,22.167 112.406 C 22.167 112.524,22.343 112.800,22.558 113.019 C 22.773 113.238,23.001 113.626,23.063 113.882 C 23.126 114.138,23.307 114.401,23.467 114.466 C 23.626 114.530,23.765 114.696,23.776 114.833 C 23.810 115.288,24.036 115.833,24.190 115.833 C 24.273 115.833,24.416 116.028,24.506 116.266 C 24.597 116.504,24.819 116.738,25.000 116.785 C 25.181 116.832,25.289 116.938,25.238 117.019 C 25.188 117.100,25.231 117.167,25.333 117.167 C 25.436 117.167,25.487 117.223,25.446 117.292 C 25.326 117.496,25.651 118.196,25.818 118.093 C 25.903 118.040,26.023 118.226,26.085 118.506 C 26.146 118.786,26.377 119.210,26.598 119.448 C 26.819 119.687,27.000 119.941,27.000 120.012 C 27.000 120.084,27.337 120.495,27.750 120.926 C 28.162 121.356,28.502 121.755,28.505 121.813 C 28.514 122.001,29.492 123.000,29.668 123.000 C 29.763 123.000,29.926 123.188,30.030 123.417 C 30.203 123.796,30.370 123.905,30.702 123.855 C 30.768 123.845,30.781 123.941,30.733 124.068 C 30.684 124.195,30.787 124.400,30.962 124.524 C 31.137 124.648,31.370 124.919,31.479 125.125 C 31.589 125.331,31.801 125.500,31.950 125.500 C 32.100 125.500,32.176 125.546,32.119 125.603 C 32.063 125.660,32.274 125.978,32.590 126.311 C 32.906 126.644,33.164 126.970,33.165 127.035 C 33.168 127.266,33.886 127.820,34.051 127.718 C 34.143 127.662,34.167 127.697,34.105 127.798 C 34.043 127.898,34.111 128.078,34.256 128.198 C 34.400 128.318,35.068 128.942,35.740 129.583 C 36.832 130.626,37.363 131.030,38.369 131.582 C 38.534 131.673,38.712 131.879,38.763 132.040 C 38.814 132.201,38.923 132.333,39.005 132.333 C 39.087 132.333,39.288 132.477,39.452 132.653 C 39.616 132.829,39.851 132.998,39.975 133.028 C 40.099 133.058,40.411 133.271,40.668 133.500 C 41.491 134.234,42.197 134.722,42.435 134.722 C 42.562 134.722,42.667 134.823,42.667 134.947 C 42.667 135.071,42.948 135.302,43.292 135.461 C 43.635 135.620,44.018 135.886,44.142 136.053 C 44.266 136.219,44.470 136.316,44.595 136.268 C 44.720 136.220,44.869 136.256,44.925 136.347 C 44.982 136.439,45.172 136.468,45.347 136.412 C 45.533 136.353,45.667 136.389,45.667 136.499 C 45.667 136.602,45.573 136.633,45.458 136.569 C 45.344 136.504,45.416 136.612,45.618 136.809 C 45.820 137.006,46.035 137.167,46.094 137.167 C 46.153 137.167,46.425 137.354,46.697 137.583 C 46.969 137.813,47.311 138.000,47.457 138.000 C 47.603 138.000,47.673 138.049,47.614 138.109 C 47.496 138.226,48.248 138.667,48.565 138.667 C 48.672 138.667,48.886 138.815,49.041 138.995 C 49.196 139.176,49.531 139.375,49.786 139.438 C 50.041 139.500,50.429 139.689,50.647 139.859 C 50.866 140.028,51.137 140.167,51.250 140.167 C 51.363 140.167,51.666 140.333,51.925 140.536 C 52.183 140.739,52.549 140.929,52.739 140.958 C 52.928 140.986,53.443 141.198,53.883 141.427 C 54.322 141.657,54.772 141.830,54.883 141.812 C 55.086 141.779,55.579 141.986,56.333 142.421 C 56.563 142.554,56.948 142.663,57.191 142.664 C 57.433 142.666,57.672 142.773,57.722 142.903 C 57.771 143.032,58.237 143.227,58.756 143.334 C 59.275 143.442,59.936 143.668,60.225 143.836 C 60.514 144.005,61.216 144.183,61.785 144.232 C 62.520 144.295,62.920 144.420,63.160 144.660 C 63.484 144.984,63.923 145.052,65.792 145.067 C 65.998 145.069,66.167 145.162,66.167 145.274 C 66.167 145.514,66.756 145.734,66.999 145.584 C 67.091 145.527,67.167 145.551,67.167 145.636 C 67.167 145.722,67.762 145.797,68.489 145.802 C 69.407 145.808,69.935 145.893,70.218 146.078 C 70.833 146.481,71.130 146.513,75.000 146.603 C 77.096 146.651,78.788 146.765,79.076 146.877 C 79.743 147.137,82.297 147.134,82.917 146.872 C 83.343 146.693,87.157 146.509,90.603 146.501 C 91.027 146.500,91.445 146.377,91.699 146.177 C 92.024 145.922,92.442 145.841,93.682 145.793 C 94.741 145.752,95.416 145.642,95.752 145.455 C 96.404 145.093,97.315 144.868,97.821 144.945 C 98.292 145.017,99.333 144.707,99.333 144.495 C 99.333 144.415,99.794 144.298,100.358 144.234 C 101.053 144.155,101.491 144.009,101.722 143.778 C 101.943 143.557,102.331 143.419,102.822 143.387 C 103.251 143.358,103.777 143.191,104.033 143.002 C 104.283 142.817,104.666 142.667,104.885 142.667 C 105.104 142.667,105.636 142.479,106.067 142.250 C 106.498 142.021,106.987 141.833,107.153 141.833 C 107.319 141.833,107.634 141.694,107.853 141.523 C 108.236 141.224,108.765 141.005,109.294 140.927 C 109.433 140.907,109.629 140.777,109.731 140.639 C 109.833 140.501,110.142 140.333,110.417 140.265 C 110.692 140.197,111.067 140.002,111.250 139.832 C 111.433 139.661,111.796 139.483,112.056 139.436 C 112.316 139.389,112.719 139.160,112.951 138.928 C 113.183 138.695,113.443 138.548,113.527 138.600 C 113.690 138.701,114.273 138.369,114.721 137.922 C 114.868 137.775,115.047 137.639,115.119 137.619 C 115.191 137.599,115.233 137.534,115.213 137.473 C 115.182 137.378,116.025 136.983,116.365 136.934 C 116.429 136.924,116.640 136.746,116.834 136.538 C 117.028 136.330,117.247 136.197,117.321 136.242 C 117.395 136.288,117.586 136.181,117.745 136.006 C 117.904 135.830,118.252 135.638,118.519 135.579 C 118.785 135.521,119.080 135.329,119.174 135.153 C 119.268 134.977,119.445 134.833,119.566 134.833 C 119.775 134.833,120.580 134.277,121.485 133.508 C 121.706 133.320,121.949 133.167,122.026 133.167 C 122.104 133.167,122.167 133.059,122.167 132.928 C 122.167 132.797,122.307 132.644,122.479 132.590 C 122.651 132.535,123.052 132.249,123.370 131.954 C 123.688 131.658,124.166 131.252,124.432 131.051 C 124.699 130.850,125.265 130.362,125.692 129.968 C 126.118 129.573,126.531 129.250,126.608 129.250 C 126.686 129.250,126.824 129.081,126.915 128.875 C 127.005 128.669,127.127 128.500,127.185 128.500 C 127.371 128.500,128.833 127.031,128.833 126.845 C 128.833 126.747,128.901 126.685,128.983 126.708 C 129.066 126.731,129.124 126.712,129.114 126.667 C 129.103 126.621,129.519 126.177,130.039 125.679 C 130.559 125.182,130.944 124.712,130.896 124.634 C 130.848 124.556,130.870 124.502,130.946 124.516 C 131.325 124.581,131.525 124.460,131.712 124.051 C 131.824 123.804,132.143 123.373,132.420 123.093 C 132.697 122.813,133.205 122.208,133.549 121.750 C 133.894 121.292,134.432 120.617,134.745 120.250 C 135.495 119.372,136.120 118.502,136.319 118.058 C 136.407 117.861,136.560 117.649,136.658 117.588 C 136.921 117.426,138.000 115.697,138.000 115.439 C 138.000 115.318,138.148 115.084,138.329 114.921 C 138.510 114.757,138.706 114.464,138.765 114.270 C 138.824 114.076,139.021 113.754,139.203 113.555 C 139.385 113.356,139.545 112.999,139.558 112.763 C 139.572 112.527,139.644 112.334,139.718 112.333 C 139.792 112.333,139.807 112.258,139.750 112.167 C 139.693 112.075,139.756 112.000,139.889 112.000 C 140.022 112.000,140.245 111.715,140.384 111.366 C 140.524 111.017,140.757 110.632,140.902 110.512 C 141.048 110.391,141.167 110.129,141.167 109.929 C 141.167 109.729,141.354 109.311,141.583 109.000 C 141.813 108.689,142.000 108.286,142.000 108.103 C 142.000 107.921,142.147 107.615,142.328 107.423 C 142.511 107.228,142.678 106.782,142.706 106.412 C 142.740 105.966,142.837 105.748,143.003 105.742 C 143.139 105.738,143.231 105.645,143.208 105.534 C 143.185 105.424,143.233 105.333,143.314 105.333 C 143.453 105.333,143.763 103.915,143.691 103.613 C 143.673 103.537,143.732 103.520,143.821 103.576 C 144.036 103.709,144.333 103.133,144.333 102.585 C 144.333 102.344,144.508 101.833,144.722 101.449 C 144.941 101.055,145.100 100.510,145.085 100.200 C 145.070 99.898,145.121 99.612,145.198 99.564 C 145.276 99.516,145.288 99.396,145.227 99.296 C 145.165 99.195,145.192 99.163,145.288 99.222 C 145.528 99.370,145.813 98.592,145.915 97.513 C 145.962 97.016,146.120 96.477,146.266 96.316 C 146.412 96.155,146.555 95.766,146.584 95.451 C 146.613 95.137,146.796 94.531,146.990 94.105 C 147.196 93.654,147.371 92.863,147.411 92.207 C 147.448 91.589,147.607 90.783,147.764 90.417 C 148.029 89.798,148.118 88.947,148.235 85.913 C 148.260 85.270,148.381 84.557,148.504 84.330 C 148.987 83.438,148.999 72.745,148.518 71.861 C 148.319 71.495,148.135 69.527,148.168 68.106 C 148.186 67.287,147.855 65.655,147.609 65.352 C 147.505 65.225,147.445 64.939,147.474 64.716 C 147.552 64.120,147.163 62.000,146.975 62.000 C 146.886 62.000,146.857 61.930,146.910 61.845 C 146.962 61.760,146.939 61.649,146.858 61.599 C 146.777 61.548,146.663 61.211,146.605 60.849 C 146.547 60.487,146.390 60.081,146.256 59.946 C 146.122 59.812,145.970 59.266,145.918 58.732 C 145.866 58.198,145.672 57.504,145.486 57.190 C 145.301 56.875,145.120 56.279,145.085 55.864 C 145.048 55.438,144.863 54.896,144.659 54.620 C 144.458 54.349,144.282 53.841,144.264 53.482 C 144.245 53.125,144.113 52.740,143.969 52.625 C 143.724 52.431,143.493 51.799,143.421 51.127 C 143.403 50.968,143.265 50.701,143.113 50.533 C 142.962 50.365,142.791 49.995,142.733 49.709 C 142.676 49.424,142.459 49.030,142.250 48.833 C 142.012 48.610,141.902 48.356,141.956 48.152 C 142.007 47.956,141.853 47.555,141.570 47.147 C 141.311 46.773,141.075 46.310,141.045 46.118 C 141.016 45.925,140.887 45.651,140.759 45.509 C 140.631 45.366,140.474 45.042,140.411 44.788 C 140.347 44.534,140.142 44.218,139.954 44.087 C 139.767 43.955,139.591 43.638,139.564 43.382 C 139.537 43.126,139.371 42.800,139.196 42.657 C 139.020 42.515,138.827 42.243,138.767 42.054 C 138.707 41.865,138.510 41.577,138.329 41.413 C 138.148 41.249,138.000 41.014,138.000 40.891 C 138.000 40.768,137.866 40.533,137.703 40.369 C 137.539 40.206,137.271 39.812,137.106 39.494 C 136.412 38.158,136.294 37.974,136.068 37.888 C 135.938 37.838,135.720 37.561,135.583 37.274 C 135.446 36.986,135.034 36.422,134.667 36.021 C 134.300 35.619,134.000 35.197,134.000 35.083 C 134.000 34.968,133.873 34.771,133.718 34.645 C 133.478 34.451,133.457 34.451,133.577 34.651 C 133.674 34.811,133.656 34.847,133.523 34.764 C 133.416 34.698,133.367 34.580,133.415 34.502 C 133.464 34.424,133.404 34.260,133.284 34.138 C 133.163 34.016,133.013 33.781,132.950 33.614 C 132.884 33.440,132.754 33.363,132.642 33.432 C 132.526 33.504,132.493 33.479,132.561 33.369 C 132.688 33.163,129.012 29.333,128.688 29.333 C 128.574 29.333,128.520 29.269,128.569 29.190 C 128.618 29.111,128.453 28.852,128.204 28.614 C 127.954 28.376,127.664 28.095,127.558 27.990 C 127.237 27.671,126.622 27.114,125.887 26.476 C 125.502 26.142,125.226 25.829,125.274 25.781 C 125.323 25.733,125.208 25.611,125.020 25.511 C 124.831 25.410,124.479 25.144,124.237 24.919 C 123.994 24.694,123.655 24.466,123.481 24.411 C 123.308 24.356,123.167 24.203,123.167 24.072 C 123.167 23.941,123.101 23.833,123.021 23.833 C 122.941 23.833,122.420 23.477,121.862 23.042 C 121.305 22.606,120.578 22.063,120.246 21.833 C 119.915 21.604,119.434 21.250,119.178 21.046 C 118.922 20.843,118.665 20.724,118.606 20.782 C 118.548 20.841,118.500 20.797,118.500 20.685 C 118.500 20.572,118.436 20.520,118.358 20.568 C 118.279 20.617,118.041 20.471,117.829 20.245 C 117.616 20.019,117.366 19.833,117.273 19.833 C 117.181 19.833,116.932 19.671,116.720 19.472 C 116.509 19.274,116.188 19.100,116.008 19.087 C 115.827 19.074,115.493 18.861,115.265 18.615 C 114.962 18.288,114.686 18.167,114.248 18.167 C 113.918 18.167,113.688 18.100,113.738 18.019 C 113.862 17.819,113.521 17.571,112.924 17.428 C 112.653 17.363,112.330 17.165,112.206 16.988 C 112.082 16.811,111.875 16.667,111.746 16.667 C 111.415 16.667,110.333 16.133,110.333 15.969 C 110.333 15.894,110.183 15.833,110.000 15.833 C 109.816 15.833,109.667 15.722,109.667 15.585 C 109.667 15.424,109.428 15.299,108.984 15.228 C 108.609 15.168,108.159 14.966,107.984 14.778 C 107.810 14.591,107.667 14.498,107.667 14.572 C 107.667 14.647,107.573 14.638,107.458 14.553 C 107.344 14.469,107.000 14.378,106.695 14.352 C 106.390 14.327,105.873 14.124,105.547 13.903 C 105.221 13.681,104.736 13.500,104.470 13.500 C 104.204 13.500,103.835 13.359,103.650 13.187 C 103.465 13.015,103.046 12.830,102.720 12.777 C 102.393 12.724,101.995 12.563,101.835 12.418 C 101.675 12.274,101.067 12.078,100.484 11.985 C 99.901 11.891,99.385 11.754,99.337 11.682 C 99.227 11.515,98.438 11.317,97.615 11.251 C 96.513 11.162,95.793 10.984,95.547 10.738 C 95.417 10.607,95.034 10.496,94.696 10.490 C 93.068 10.465,91.908 10.285,91.547 10.001 C 91.288 9.798,90.852 9.693,90.207 9.679 C 85.468 9.575,82.891 9.452,82.758 9.322 C 82.556 9.124,79.500 9.128,79.162 9.326 M91.574 42.301 C 91.844 42.419,92.609 42.585,93.273 42.670 C 93.938 42.754,94.766 42.975,95.113 43.161 C 95.461 43.348,95.841 43.500,95.958 43.500 C 96.982 43.500,100.089 45.804,101.381 47.521 C 102.799 49.406,104.155 52.909,103.970 54.210 C 103.827 55.215,104.942 55.170,80.644 55.162 L 58.539 55.155 57.929 55.515 C 56.711 56.233,56.357 57.693,57.095 58.952 C 57.804 60.161,56.040 60.074,81.917 60.180 C 106.733 60.282,107.593 60.310,108.719 61.048 C 108.959 61.205,109.259 61.333,109.386 61.333 C 111.047 61.333,115.640 65.331,116.948 67.917 C 118.815 71.605,118.946 72.078,119.505 77.167 C 119.695 78.892,119.694 82.249,119.504 84.833 C 119.427 85.888,119.279 88.063,119.176 89.667 C 118.733 96.575,118.556 97.877,117.731 100.333 C 117.230 101.827,115.882 104.571,115.464 104.949 C 115.301 105.097,115.167 105.314,115.167 105.431 C 115.167 106.154,109.347 111.167,108.507 111.167 C 108.394 111.167,108.102 111.307,107.859 111.479 C 107.616 111.651,107.154 111.848,106.833 111.916 C 106.513 111.984,106.030 112.153,105.761 112.290 C 105.493 112.427,104.705 112.610,104.011 112.695 C 103.318 112.781,102.368 112.961,101.901 113.096 C 101.435 113.231,99.747 113.414,98.151 113.502 C 96.556 113.590,94.950 113.740,94.583 113.834 C 92.201 114.449,70.290 114.449,67.917 113.835 C 67.550 113.740,65.750 113.592,63.917 113.506 C 61.723 113.403,60.338 113.262,59.865 113.095 C 59.470 112.956,58.542 112.765,57.801 112.673 C 57.061 112.580,56.367 112.430,56.258 112.340 C 56.149 112.250,55.653 112.089,55.155 111.982 C 54.657 111.876,53.989 111.649,53.669 111.478 C 53.350 111.307,52.970 111.167,52.827 111.167 C 52.683 111.167,52.311 110.979,52.000 110.750 C 51.689 110.521,51.343 110.333,51.230 110.333 C 51.116 110.333,50.921 110.231,50.795 110.105 C 50.670 109.979,50.346 109.759,50.075 109.616 C 48.915 109.002,45.833 105.715,45.833 105.093 C 45.833 104.973,45.721 104.781,45.584 104.667 C 44.894 104.095,43.602 100.418,43.415 98.500 C 43.358 97.904,43.203 96.779,43.071 96.000 C 42.341 91.664,42.410 64.496,43.165 59.482 C 43.688 56.013,44.723 52.880,45.584 52.166 C 45.721 52.052,45.833 51.867,45.833 51.753 C 45.833 51.131,49.077 47.501,50.431 46.609 C 50.790 46.372,51.383 45.967,51.750 45.708 C 52.518 45.165,54.539 44.167,54.869 44.167 C 54.992 44.167,55.252 44.055,55.447 43.918 C 55.642 43.782,56.240 43.561,56.776 43.429 C 57.312 43.296,58.050 43.073,58.417 42.934 C 58.783 42.795,59.383 42.678,59.750 42.673 C 60.117 42.669,60.692 42.588,61.029 42.495 C 62.511 42.083,64.341 42.034,77.333 42.059 C 88.180 42.079,91.187 42.130,91.574 42.301 M102.600 79.841 C 100.161 80.255,99.197 83.584,100.863 85.838 C 101.209 86.306,101.254 86.590,101.340 88.886 C 101.464 92.203,101.827 92.828,103.630 92.832 C 105.279 92.836,105.730 92.029,105.833 88.889 C 105.907 86.662,105.958 86.305,106.266 85.889 C 108.613 82.712,106.475 79.183,102.600 79.841 " stroke="none" fill="#04acd4" fill-rule="evenodd"></path><path id="path1" d="M61.824 42.998 C 60.948 43.068,59.748 43.276,59.157 43.460 C 58.566 43.644,57.783 43.873,57.417 43.968 C 56.484 44.209,54.822 44.804,54.601 44.975 C 54.500 45.054,54.178 45.199,53.886 45.297 C 53.594 45.395,52.778 45.874,52.072 46.362 C 51.367 46.851,50.550 47.411,50.257 47.609 C 48.908 48.519,45.338 53.100,45.332 53.928 C 45.332 54.013,45.216 54.304,45.075 54.575 C 43.691 57.229,43.084 65.611,43.210 80.333 C 43.395 101.915,44.528 105.643,52.247 110.082 C 55.390 111.889,61.438 112.958,70.667 113.336 C 80.927 113.757,96.187 113.486,98.750 112.837 C 99.117 112.744,100.354 112.561,101.500 112.429 C 103.612 112.187,106.004 111.595,107.290 110.996 C 107.678 110.815,108.035 110.667,108.083 110.667 C 108.439 110.667,111.343 108.514,112.525 107.374 C 116.078 103.949,117.669 100.122,118.155 93.833 C 118.258 92.504,118.412 90.667,118.499 89.750 C 119.207 82.249,118.747 73.115,117.542 70.760 C 117.405 70.490,117.231 70.059,117.158 69.802 C 116.660 68.065,113.516 64.234,111.821 63.298 C 111.441 63.088,110.745 62.705,110.273 62.447 C 109.802 62.188,108.779 61.740,108.000 61.451 L 106.583 60.924 82.333 60.837 C 58.186 60.750,58.081 60.749,57.548 60.406 C 55.484 59.078,55.549 55.942,57.662 54.875 L 58.404 54.500 80.598 54.500 C 105.643 54.500,103.288 54.646,103.107 53.104 C 102.620 48.959,98.965 44.986,94.417 43.657 C 93.775 43.470,92.987 43.233,92.667 43.131 C 91.979 42.913,64.391 42.794,61.824 42.998 M105.353 79.365 C 107.734 80.367,108.623 83.416,107.208 85.728 L 106.583 86.750 106.492 89.190 C 106.353 92.909,104.788 94.500,102.428 93.321 C 100.964 92.590,100.776 92.150,100.696 89.258 C 100.639 87.220,100.571 86.672,100.335 86.333 C 97.508 82.288,100.949 77.510,105.353 79.365 " stroke="none" fill="#fafbfb" fill-rule="evenodd"></path><path id="path2" d="M82.707 9.208 C 82.745 9.323,82.984 9.441,83.239 9.471 C 83.554 9.508,83.664 9.465,83.584 9.335 C 83.519 9.230,83.361 9.184,83.233 9.233 C 83.105 9.283,83.000 9.250,83.000 9.161 C 83.000 9.073,82.919 9.000,82.819 9.000 C 82.720 9.000,82.670 9.094,82.707 9.208 M95.599 10.730 C 95.651 10.866,95.834 10.967,96.006 10.954 C 96.286 10.933,96.304 10.754,96.028 10.747 C 95.967 10.746,95.824 10.686,95.710 10.614 C 95.570 10.525,95.534 10.562,95.599 10.730 M55.833 13.843 C 55.833 13.940,55.767 13.979,55.686 13.928 C 55.604 13.878,55.436 13.967,55.311 14.127 C 55.113 14.379,55.116 14.391,55.333 14.223 C 55.471 14.116,55.656 14.028,55.746 14.027 C 55.835 14.026,55.935 13.944,55.968 13.846 C 56.001 13.747,55.984 13.667,55.931 13.667 C 55.877 13.667,55.833 13.746,55.833 13.843 M195.134 50.151 C 194.186 50.347,194.000 50.585,194.000 51.604 C 194.000 52.623,193.376 52.889,192.696 52.160 C 192.522 51.973,192.088 51.775,191.731 51.721 C 191.375 51.666,190.970 51.524,190.831 51.404 C 190.520 51.136,189.296 50.843,188.463 50.837 C 188.122 50.835,187.576 50.683,187.250 50.500 C 186.725 50.205,186.348 50.167,183.987 50.167 C 181.658 50.167,181.229 50.209,180.627 50.500 C 180.248 50.683,179.670 50.835,179.344 50.837 C 178.493 50.843,177.278 51.143,177.083 51.396 C 176.992 51.514,176.625 51.658,176.269 51.716 C 175.912 51.773,175.478 51.973,175.304 52.160 C 175.128 52.349,174.776 52.500,174.511 52.500 C 174.236 52.500,173.994 52.609,173.937 52.758 C 173.882 52.899,173.556 53.132,173.211 53.275 C 172.584 53.535,172.493 53.600,171.617 54.405 C 171.361 54.641,171.114 54.833,171.069 54.833 C 171.024 54.833,170.621 55.205,170.173 55.660 C 169.725 56.115,169.175 56.533,168.950 56.590 C 168.726 56.646,168.459 56.874,168.358 57.096 C 168.257 57.318,168.098 57.500,168.006 57.500 C 167.913 57.500,167.722 57.778,167.579 58.118 C 167.437 58.458,167.174 58.874,166.994 59.041 C 166.814 59.209,166.667 59.494,166.667 59.674 C 166.667 59.855,166.479 60.165,166.250 60.364 C 166.021 60.564,165.833 60.839,165.833 60.975 C 165.833 61.112,165.725 61.343,165.593 61.489 C 165.461 61.635,165.256 62.128,165.137 62.585 C 165.018 63.043,164.794 63.511,164.639 63.626 C 164.461 63.758,164.316 64.189,164.246 64.793 C 164.185 65.319,163.979 66.082,163.789 66.487 C 163.249 67.637,163.264 75.098,163.808 75.834 C 164.005 76.101,164.167 76.567,164.168 76.868 C 164.169 77.566,164.470 78.676,164.746 79.000 C 164.863 79.137,165.062 79.550,165.187 79.917 C 165.312 80.283,165.500 80.639,165.605 80.706 C 165.710 80.773,165.843 81.082,165.901 81.391 C 165.959 81.701,166.155 82.089,166.337 82.253 C 166.518 82.417,166.667 82.648,166.667 82.766 C 166.667 82.884,166.805 83.079,166.975 83.199 C 167.145 83.319,167.410 83.661,167.564 83.960 C 167.784 84.388,169.307 86.060,171.015 87.750 C 171.637 88.366,172.378 88.833,172.730 88.833 C 172.859 88.833,173.005 88.938,173.054 89.067 C 173.103 89.195,173.430 89.392,173.780 89.504 C 174.130 89.616,174.567 89.842,174.750 90.007 C 174.933 90.172,175.365 90.358,175.708 90.422 C 176.052 90.485,176.333 90.585,176.333 90.645 C 176.333 90.837,177.230 91.131,178.166 91.245 C 178.670 91.306,179.221 91.482,179.392 91.636 C 179.861 92.061,188.139 92.061,188.608 91.636 C 188.779 91.482,189.330 91.306,189.834 91.245 C 190.777 91.130,191.667 90.837,191.667 90.641 C 191.667 90.579,191.960 90.480,192.318 90.419 C 192.677 90.359,193.101 90.165,193.261 89.988 C 193.421 89.811,193.645 89.667,193.760 89.667 C 194.048 89.667,193.867 92.324,193.557 92.633 C 193.434 92.756,193.285 93.058,193.226 93.303 C 193.104 93.810,193.061 93.866,191.660 95.292 C 191.098 95.865,190.572 96.333,190.491 96.333 C 190.411 96.333,190.265 96.483,190.167 96.667 C 190.053 96.879,189.818 97.000,189.517 97.000 C 189.257 97.000,188.866 97.141,188.647 97.312 C 188.429 97.484,187.838 97.673,187.333 97.733 C 186.829 97.792,185.756 97.967,184.948 98.121 C 183.777 98.344,183.414 98.360,183.156 98.199 C 182.978 98.088,182.251 97.916,181.541 97.819 C 180.688 97.701,180.133 97.532,179.906 97.320 C 179.717 97.144,179.385 97.000,179.170 97.000 C 178.954 97.000,178.659 96.890,178.514 96.755 C 177.924 96.206,177.180 95.560,176.688 95.168 C 176.401 94.940,176.167 94.657,176.167 94.538 C 176.167 94.420,176.059 94.282,175.928 94.231 C 175.797 94.181,175.614 93.921,175.520 93.653 C 175.427 93.386,175.252 93.167,175.132 93.167 C 175.011 93.167,174.838 92.998,174.748 92.792 C 174.478 92.176,172.333 92.277,172.333 92.905 C 172.333 93.029,172.151 93.176,171.928 93.232 C 171.705 93.288,171.475 93.484,171.417 93.667 C 171.358 93.850,171.206 94.000,171.078 94.000 C 170.950 94.000,170.765 94.150,170.667 94.333 C 170.569 94.517,170.392 94.667,170.274 94.667 C 170.156 94.667,169.808 94.892,169.500 95.167 C 169.192 95.442,168.887 95.667,168.822 95.667 C 168.757 95.667,168.362 96.004,167.943 96.417 C 167.525 96.829,167.109 97.167,167.019 97.167 C 166.929 97.167,166.808 97.317,166.750 97.500 C 166.692 97.683,166.551 97.833,166.437 97.833 C 165.285 97.833,164.558 100.427,165.495 101.193 C 165.681 101.346,165.833 101.538,165.833 101.621 C 165.833 101.703,166.058 101.987,166.333 102.250 C 166.608 102.513,166.833 102.796,166.833 102.878 C 166.833 103.070,168.147 104.333,168.347 104.333 C 168.431 104.333,168.500 104.428,168.500 104.543 C 168.500 104.658,168.708 104.844,168.962 104.957 C 169.217 105.069,169.798 105.500,170.254 105.913 C 170.710 106.327,171.145 106.666,171.219 106.666 C 171.294 106.666,171.594 106.845,171.886 107.064 C 172.178 107.283,172.585 107.513,172.792 107.575 C 172.998 107.638,173.167 107.751,173.167 107.826 C 173.167 107.902,173.514 108.065,173.938 108.190 C 174.362 108.315,174.743 108.506,174.785 108.616 C 174.828 108.726,175.287 108.902,175.806 109.008 C 176.325 109.114,177.050 109.361,177.417 109.558 C 178.478 110.129,189.415 110.114,190.385 109.542 C 190.734 109.335,191.212 109.167,191.449 109.167 C 192.094 109.167,193.190 108.800,193.285 108.552 C 193.331 108.432,193.507 108.333,193.677 108.333 C 194.060 108.333,194.833 107.990,194.833 107.820 C 194.833 107.750,195.049 107.646,195.313 107.588 C 195.576 107.530,196.041 107.299,196.345 107.075 C 196.649 106.850,196.996 106.667,197.116 106.667 C 197.235 106.667,197.333 106.599,197.333 106.516 C 197.333 106.343,198.921 105.167,199.155 105.167 C 199.240 105.167,199.457 104.979,199.637 104.750 C 199.817 104.521,200.043 104.333,200.138 104.333 C 200.233 104.333,200.356 104.191,200.411 104.018 C 200.466 103.845,200.658 103.664,200.838 103.617 C 201.018 103.570,201.218 103.393,201.282 103.224 C 201.346 103.055,201.572 102.780,201.783 102.613 C 201.994 102.446,202.167 102.220,202.167 102.111 C 202.167 102.003,202.307 101.826,202.479 101.718 C 202.651 101.611,202.844 101.315,202.907 101.061 C 202.971 100.806,203.165 100.499,203.338 100.378 C 203.512 100.256,203.705 99.878,203.769 99.537 C 203.832 99.196,204.023 98.819,204.192 98.699 C 204.361 98.579,204.500 98.302,204.500 98.083 C 204.500 97.864,204.688 97.332,204.917 96.901 C 205.284 96.210,205.333 95.912,205.333 94.392 C 205.333 92.889,205.376 92.624,205.667 92.333 C 205.996 92.004,206.000 91.779,205.998 71.625 C 205.995 49.775,206.021 50.648,205.361 50.320 C 204.855 50.069,196.220 49.926,195.134 50.151 M226.524 50.146 C 226.027 50.211,225.546 50.377,225.440 50.521 C 225.326 50.677,224.869 50.818,224.293 50.878 C 223.761 50.932,223.131 51.118,222.876 51.297 C 222.623 51.473,222.125 51.663,221.768 51.719 C 221.411 51.775,220.956 51.973,220.757 52.160 C 220.558 52.347,220.228 52.500,220.023 52.500 C 219.818 52.500,219.477 52.688,219.265 52.917 C 219.052 53.146,218.798 53.333,218.699 53.333 C 218.600 53.333,218.421 53.470,218.301 53.638 C 218.181 53.806,217.841 54.026,217.545 54.128 C 217.249 54.230,216.699 54.618,216.324 54.990 C 215.948 55.362,215.576 55.667,215.498 55.667 C 215.420 55.667,215.307 55.821,215.247 56.010 C 215.187 56.198,214.957 56.421,214.736 56.505 C 214.514 56.590,214.333 56.743,214.333 56.846 C 214.333 56.949,214.007 57.344,213.608 57.725 C 213.209 58.105,212.834 58.620,212.773 58.869 C 212.713 59.118,212.495 59.502,212.290 59.723 C 211.422 60.655,211.167 61.053,211.167 61.474 C 211.167 61.729,211.033 62.003,210.854 62.115 C 210.682 62.222,210.488 62.597,210.423 62.947 C 210.358 63.297,210.206 63.696,210.086 63.833 C 209.785 64.177,209.502 65.275,209.501 66.107 C 209.500 66.544,209.414 66.831,209.267 66.887 C 208.537 67.167,208.422 74.195,209.131 75.154 C 209.396 75.512,209.500 75.888,209.500 76.482 C 209.500 77.384,209.718 78.119,210.070 78.403 C 210.192 78.502,210.337 78.883,210.391 79.250 C 210.450 79.654,210.623 80.007,210.828 80.145 C 211.034 80.285,211.167 80.558,211.167 80.844 C 211.167 81.109,211.300 81.409,211.471 81.532 C 211.639 81.652,211.864 82.006,211.972 82.318 C 212.080 82.630,212.317 82.991,212.501 83.119 C 212.684 83.247,212.833 83.450,212.833 83.569 C 212.833 83.824,213.904 85.000,214.136 85.000 C 214.223 85.000,214.334 85.150,214.382 85.333 C 214.430 85.517,214.576 85.667,214.708 85.667 C 214.839 85.667,215.032 85.854,215.136 86.083 C 215.241 86.313,215.440 86.500,215.580 86.500 C 215.719 86.500,215.833 86.585,215.833 86.689 C 215.833 86.919,216.956 88.000,217.196 88.000 C 217.291 88.000,217.516 88.187,217.696 88.417 C 217.877 88.646,218.131 88.833,218.262 88.833 C 218.393 88.833,218.500 88.900,218.500 88.982 C 218.500 89.064,218.799 89.250,219.164 89.396 C 219.530 89.543,219.974 89.808,220.152 89.986 C 220.330 90.164,220.838 90.363,221.280 90.429 C 221.768 90.502,222.169 90.670,222.301 90.858 C 222.426 91.035,222.721 91.167,222.993 91.167 C 223.254 91.167,223.868 91.353,224.358 91.582 C 225.065 91.910,225.518 91.997,226.538 91.998 C 227.529 92.000,227.951 92.077,228.371 92.333 C 229.161 92.814,233.365 92.831,234.211 92.355 C 234.595 92.140,235.223 92.021,236.258 91.968 C 237.369 91.911,237.919 91.799,238.414 91.529 C 238.780 91.330,239.293 91.167,239.555 91.167 C 239.817 91.167,240.232 91.024,240.476 90.851 C 240.720 90.677,241.242 90.448,241.635 90.342 C 242.029 90.236,242.392 90.041,242.443 89.908 C 242.494 89.775,242.634 89.667,242.755 89.667 C 242.876 89.667,243.197 89.479,243.470 89.250 C 243.742 89.021,244.072 88.833,244.203 88.833 C 244.335 88.833,244.618 88.646,244.833 88.417 C 245.049 88.188,245.327 88.000,245.451 88.000 C 245.575 88.000,245.722 87.884,245.776 87.743 C 245.830 87.601,246.146 87.347,246.479 87.177 C 246.996 86.913,247.484 86.463,249.179 84.691 C 249.323 84.540,249.565 84.146,249.717 83.815 C 249.869 83.484,250.108 83.118,250.247 83.003 C 250.386 82.887,250.500 82.687,250.500 82.558 C 250.500 82.429,250.603 82.283,250.729 82.235 C 250.855 82.187,251.098 81.833,251.268 81.449 C 251.438 81.064,251.672 80.651,251.788 80.530 C 251.905 80.409,252.043 80.109,252.097 79.863 C 252.151 79.618,252.376 79.069,252.597 78.644 C 252.867 78.127,253.000 77.595,253.000 77.037 C 253.000 76.465,253.075 76.173,253.240 76.110 C 254.079 75.788,254.099 66.742,253.261 66.083 C 253.144 65.990,253.012 65.484,252.969 64.956 C 252.912 64.280,252.783 63.884,252.528 63.613 C 252.329 63.402,252.167 63.068,252.167 62.872 C 252.167 62.675,251.979 62.239,251.750 61.901 C 251.521 61.563,251.333 61.152,251.333 60.986 C 251.333 60.821,251.185 60.582,251.003 60.454 C 250.822 60.327,250.558 59.948,250.418 59.612 C 250.277 59.275,250.088 59.000,249.998 59.000 C 249.907 59.000,249.833 58.893,249.833 58.762 C 249.833 58.631,249.646 58.377,249.417 58.196 C 249.188 58.016,249.000 57.828,249.000 57.779 C 249.000 57.593,246.250 54.833,246.064 54.833 C 245.957 54.833,245.825 54.720,245.772 54.581 C 245.719 54.442,245.486 54.256,245.254 54.168 C 245.023 54.080,244.833 53.928,244.833 53.829 C 244.833 53.730,244.553 53.533,244.211 53.390 C 243.869 53.247,243.490 52.988,243.368 52.815 C 243.228 52.615,242.948 52.500,242.600 52.500 C 242.265 52.500,241.935 52.371,241.753 52.170 C 241.589 51.988,241.183 51.789,240.852 51.727 C 240.521 51.665,240.175 51.513,240.083 51.390 C 239.992 51.266,239.467 51.081,238.917 50.978 C 238.367 50.876,237.617 50.634,237.250 50.442 C 236.542 50.070,228.743 49.855,226.524 50.146 M276.461 50.113 C 275.957 50.159,275.597 50.292,275.461 50.482 C 275.323 50.677,274.933 50.816,274.333 50.885 C 273.706 50.958,273.329 51.097,273.140 51.329 C 272.988 51.515,272.675 51.667,272.444 51.667 C 272.214 51.667,271.812 51.847,271.550 52.066 C 270.747 52.742,270.114 52.707,269.934 51.977 C 269.661 50.875,269.416 50.833,263.244 50.833 C 258.045 50.833,257.820 50.846,257.498 51.169 C 257.062 51.604,257.043 105.866,257.479 106.391 C 257.778 106.752,268.455 106.813,269.210 106.458 C 270.133 106.024,270.167 105.685,270.167 96.869 C 270.167 89.764,270.196 88.833,270.422 88.833 C 270.562 88.833,270.719 88.942,270.770 89.075 C 270.821 89.208,271.137 89.405,271.473 89.512 C 271.809 89.620,272.238 89.848,272.426 90.019 C 272.615 90.191,273.140 90.379,273.593 90.437 C 274.046 90.496,274.567 90.676,274.750 90.838 C 274.981 91.042,275.515 91.169,276.485 91.253 C 277.256 91.319,278.135 91.476,278.438 91.603 C 279.192 91.918,282.519 91.918,283.133 91.603 C 283.381 91.476,284.296 91.318,285.167 91.252 C 286.316 91.165,286.841 91.052,287.083 90.838 C 287.267 90.676,287.753 90.492,288.165 90.430 C 288.576 90.368,289.064 90.180,289.248 90.012 C 289.432 89.845,289.870 89.616,290.220 89.504 C 290.570 89.392,290.897 89.195,290.946 89.067 C 290.995 88.938,291.168 88.833,291.331 88.833 C 291.493 88.833,291.724 88.715,291.843 88.571 C 291.963 88.427,292.329 88.167,292.656 87.993 C 292.982 87.819,293.509 87.412,293.825 87.088 C 294.142 86.765,294.482 86.500,294.582 86.500 C 294.772 86.500,296.667 84.597,296.667 84.407 C 296.667 84.347,296.854 84.075,297.083 83.803 C 297.313 83.531,297.500 83.207,297.500 83.084 C 297.500 82.962,297.564 82.836,297.642 82.806 C 297.765 82.757,298.571 81.618,298.848 81.100 C 298.902 80.999,299.068 80.692,299.218 80.417 C 299.711 79.510,299.811 79.257,299.942 78.583 C 300.041 78.073,300.094 78.455,300.169 80.205 C 300.252 82.153,300.317 82.563,300.607 82.955 C 300.794 83.209,301.040 83.698,301.153 84.042 C 301.267 84.385,301.423 84.667,301.502 84.667 C 301.580 84.667,301.697 84.835,301.762 85.042 C 301.827 85.248,302.094 85.637,302.357 85.907 C 302.619 86.176,302.833 86.454,302.833 86.525 C 302.833 86.816,305.099 88.833,305.427 88.833 C 305.530 88.833,305.744 88.976,305.902 89.150 C 306.059 89.324,306.436 89.513,306.738 89.570 C 307.040 89.627,307.418 89.817,307.577 89.993 C 307.762 90.197,308.205 90.356,308.796 90.430 C 309.307 90.493,309.993 90.704,310.321 90.898 C 311.494 91.591,322.167 91.359,322.167 90.640 C 322.167 90.563,322.345 90.500,322.563 90.500 C 323.329 90.500,323.958 90.297,324.419 89.901 C 324.675 89.680,324.983 89.500,325.103 89.500 C 325.223 89.500,325.394 89.364,325.483 89.198 C 325.572 89.032,325.903 88.817,326.218 88.720 L 326.791 88.544 326.883 89.553 C 327.044 91.331,327.236 91.381,333.608 91.304 C 337.780 91.254,338.160 91.225,338.483 90.933 L 338.833 90.615 338.833 76.896 C 338.833 63.486,338.826 63.163,338.500 62.583 C 338.278 62.187,338.167 61.681,338.167 61.061 C 338.167 60.402,338.045 59.890,337.750 59.302 C 337.521 58.846,337.333 58.338,337.333 58.173 C 337.333 58.009,337.214 57.775,337.069 57.655 C 336.924 57.534,336.653 57.112,336.467 56.718 C 336.282 56.323,336.061 56.000,335.976 56.000 C 335.892 56.000,335.769 55.861,335.703 55.691 C 335.568 55.341,334.567 54.167,334.404 54.167 C 334.346 54.167,334.150 53.979,333.970 53.750 C 333.790 53.521,333.577 53.333,333.496 53.333 C 333.416 53.333,333.148 53.146,332.901 52.917 C 332.654 52.687,332.324 52.500,332.168 52.500 C 332.012 52.500,331.748 52.349,331.581 52.164 C 331.414 51.979,330.994 51.783,330.649 51.728 C 330.303 51.673,329.983 51.530,329.938 51.411 C 329.892 51.293,329.419 51.106,328.886 50.997 C 328.353 50.888,327.584 50.638,327.178 50.441 C 325.764 49.756,313.833 49.960,313.833 50.670 C 313.833 50.734,313.365 50.834,312.792 50.892 C 312.079 50.964,311.670 51.095,311.496 51.304 C 311.356 51.473,310.952 51.658,310.597 51.716 C 310.242 51.773,309.789 51.973,309.590 52.160 C 309.391 52.347,309.066 52.500,308.868 52.500 C 308.670 52.500,308.390 52.680,308.245 52.901 C 308.101 53.121,307.812 53.344,307.603 53.397 C 307.395 53.449,307.031 53.663,306.795 53.871 C 306.559 54.079,306.168 54.400,305.926 54.583 C 305.685 54.767,305.396 55.014,305.285 55.133 C 305.174 55.252,304.986 55.439,304.867 55.550 C 304.748 55.660,304.561 55.851,304.450 55.974 C 304.340 56.097,304.081 56.368,303.875 56.576 C 303.669 56.785,303.500 57.042,303.500 57.149 C 303.500 57.256,303.385 57.388,303.245 57.442 C 303.105 57.495,302.841 57.868,302.658 58.270 C 302.475 58.671,302.258 59.000,302.175 59.000 C 302.093 59.000,301.934 59.281,301.821 59.625 C 301.708 59.969,301.477 60.348,301.308 60.468 C 301.139 60.588,301.000 60.796,301.000 60.931 C 301.000 61.067,300.888 61.220,300.752 61.272 C 300.454 61.386,300.109 62.566,300.213 63.112 C 300.254 63.325,300.231 63.500,300.161 63.500 C 300.005 63.500,299.833 63.070,299.833 62.677 C 299.833 62.349,298.774 60.234,298.403 59.820 C 298.273 59.675,298.167 59.470,298.167 59.363 C 298.167 59.257,298.017 59.076,297.833 58.961 C 297.650 58.847,297.500 58.669,297.500 58.566 C 297.500 58.039,294.032 54.167,293.560 54.167 C 293.448 54.167,293.310 54.022,293.254 53.845 C 293.198 53.668,292.939 53.477,292.680 53.420 C 292.421 53.363,292.036 53.132,291.825 52.908 C 291.596 52.664,291.255 52.500,290.977 52.500 C 290.683 52.500,290.446 52.378,290.334 52.168 C 290.221 51.958,289.908 51.796,289.480 51.728 C 289.109 51.668,288.766 51.519,288.719 51.396 C 288.628 51.158,287.663 50.836,287.035 50.834 C 286.825 50.834,286.428 50.667,286.154 50.464 C 285.656 50.096,279.202 49.863,276.461 50.113 M339.500 50.118 C 338.686 50.272,338.108 51.405,338.667 51.750 C 338.758 51.807,338.833 51.999,338.833 52.177 C 338.833 52.354,338.905 52.500,338.992 52.500 C 339.080 52.500,339.226 52.771,339.318 53.103 C 339.409 53.435,339.587 53.828,339.713 53.978 C 339.839 54.128,340.031 54.561,340.139 54.941 C 340.248 55.321,340.448 55.675,340.585 55.728 C 340.722 55.780,340.833 55.972,340.833 56.154 C 340.833 56.556,341.172 57.333,341.347 57.333 C 341.417 57.333,341.563 57.615,341.672 57.958 C 341.781 58.302,341.959 58.658,342.067 58.750 C 342.175 58.842,342.354 59.227,342.466 59.605 C 342.577 59.984,342.780 60.387,342.917 60.501 C 343.055 60.614,343.167 60.871,343.167 61.071 C 343.167 61.271,343.354 61.689,343.583 62.000 C 343.813 62.311,344.000 62.700,344.000 62.866 C 344.000 63.031,344.150 63.317,344.333 63.500 C 344.517 63.683,344.667 63.935,344.667 64.060 C 344.667 64.185,344.884 64.728,345.150 65.268 C 345.416 65.808,345.725 66.494,345.837 66.792 C 345.949 67.090,346.106 67.333,346.187 67.333 C 346.267 67.333,346.333 67.491,346.333 67.683 C 346.333 67.875,346.486 68.246,346.673 68.509 C 346.859 68.771,347.095 69.232,347.196 69.534 C 347.298 69.836,347.473 70.196,347.586 70.333 C 347.700 70.471,347.895 70.874,348.021 71.229 C 348.146 71.585,348.343 71.911,348.458 71.955 C 348.573 72.000,348.667 72.166,348.667 72.326 C 348.667 72.711,349.150 73.667,349.346 73.667 C 349.430 73.667,349.500 73.812,349.500 73.991 C 349.500 74.169,349.639 74.412,349.808 74.532 C 349.977 74.652,350.166 75.021,350.228 75.352 C 350.289 75.683,350.488 76.089,350.670 76.253 C 350.851 76.417,351.000 76.761,351.000 77.016 C 351.000 77.279,351.134 77.576,351.308 77.699 C 351.477 77.819,351.668 78.197,351.732 78.540 C 351.799 78.901,351.984 79.236,352.174 79.337 C 352.377 79.446,352.500 79.686,352.500 79.973 C 352.500 80.227,352.688 80.689,352.917 81.000 C 353.146 81.311,353.333 81.714,353.333 81.897 C 353.333 82.079,353.472 82.383,353.642 82.573 C 353.811 82.762,354.047 83.275,354.165 83.713 C 354.283 84.151,354.466 84.563,354.572 84.630 C 354.678 84.696,354.866 85.065,354.989 85.450 C 355.113 85.834,355.316 86.188,355.440 86.236 C 355.823 86.383,355.742 88.213,355.337 88.580 C 355.155 88.745,354.960 89.126,354.904 89.428 C 354.847 89.730,354.699 90.016,354.576 90.063 C 354.452 90.111,354.265 90.469,354.159 90.861 C 354.054 91.252,353.825 91.753,353.651 91.975 C 353.476 92.197,353.333 92.553,353.333 92.767 C 353.333 92.980,353.190 93.232,353.015 93.325 C 352.824 93.427,352.652 93.759,352.586 94.151 C 352.525 94.512,352.370 94.848,352.242 94.897 C 352.113 94.946,351.922 95.327,351.818 95.743 C 351.713 96.159,351.564 96.500,351.487 96.500 C 351.410 96.500,351.254 96.819,351.140 97.208 C 351.026 97.598,350.849 97.969,350.746 98.034 C 350.643 98.098,350.456 98.473,350.330 98.867 C 350.205 99.261,349.966 99.762,349.801 99.981 C 349.635 100.199,349.500 100.478,349.500 100.599 C 349.500 100.721,349.359 100.955,349.186 101.119 C 349.013 101.282,348.818 101.668,348.752 101.975 C 348.687 102.283,348.495 102.672,348.326 102.841 C 348.157 103.010,347.970 103.410,347.910 103.729 C 347.850 104.049,347.695 104.351,347.567 104.400 C 347.203 104.540,347.275 105.457,347.667 105.667 C 347.850 105.765,348.000 105.952,348.000 106.083 C 348.000 106.626,348.621 106.680,354.328 106.631 C 360.702 106.577,360.334 106.657,360.697 105.250 C 360.816 104.792,361.036 104.325,361.187 104.212 C 361.338 104.100,361.509 103.754,361.567 103.444 C 361.626 103.133,361.822 102.745,362.003 102.580 C 362.185 102.416,362.333 102.080,362.333 101.833 C 362.333 101.587,362.479 101.253,362.657 101.092 C 362.835 100.931,363.031 100.563,363.092 100.274 C 363.153 99.986,363.335 99.600,363.496 99.417 C 363.658 99.233,363.839 98.875,363.899 98.621 C 363.959 98.366,364.157 98.010,364.338 97.829 C 364.519 97.648,364.667 97.324,364.667 97.109 C 364.667 96.894,364.809 96.589,364.983 96.432 C 365.158 96.274,365.349 95.885,365.409 95.567 C 365.468 95.250,365.701 94.719,365.925 94.388 C 366.150 94.057,366.335 93.666,366.337 93.518 C 366.339 93.371,366.487 93.063,366.667 92.833 C 366.846 92.604,366.994 92.289,366.996 92.132 C 366.998 91.976,367.188 91.572,367.417 91.234 C 367.646 90.896,367.833 90.481,367.833 90.310 C 367.833 90.140,367.890 90.000,367.958 89.999 C 368.164 89.997,368.667 89.001,368.667 88.596 C 368.667 88.388,368.815 88.084,368.997 87.920 C 369.178 87.755,369.373 87.374,369.430 87.071 C 369.487 86.769,369.676 86.393,369.850 86.235 C 370.024 86.077,370.167 85.783,370.167 85.580 C 370.167 85.377,370.317 85.021,370.500 84.788 C 370.683 84.555,370.833 84.315,370.833 84.254 C 370.833 84.194,371.021 83.899,371.250 83.598 C 371.479 83.298,371.667 82.894,371.667 82.701 C 371.667 82.508,371.760 82.290,371.875 82.217 C 372.171 82.027,372.500 81.395,372.500 81.016 C 372.500 80.839,372.563 80.669,372.639 80.639 C 372.819 80.567,373.934 78.221,374.066 77.636 C 374.122 77.390,374.467 76.738,374.834 76.186 C 375.200 75.634,375.500 75.084,375.500 74.963 C 375.500 74.843,375.676 74.483,375.892 74.164 C 376.108 73.844,376.334 73.312,376.395 72.981 C 376.456 72.650,376.655 72.245,376.837 72.080 C 377.018 71.916,377.167 71.580,377.167 71.333 C 377.167 71.087,377.315 70.751,377.497 70.586 C 377.678 70.422,377.873 70.041,377.930 69.739 C 377.986 69.437,378.134 69.151,378.257 69.104 C 378.380 69.056,378.573 68.695,378.686 68.300 C 378.799 67.906,378.985 67.471,379.099 67.333 C 379.214 67.196,379.361 66.858,379.427 66.583 C 379.493 66.308,379.683 65.952,379.849 65.792 C 380.015 65.632,380.201 65.239,380.261 64.917 C 380.321 64.596,380.436 64.333,380.516 64.333 C 380.692 64.333,381.167 63.242,381.167 62.839 C 381.167 62.681,381.315 62.417,381.497 62.253 C 381.678 62.089,381.877 61.683,381.939 61.352 C 382.000 61.021,382.189 60.652,382.359 60.532 C 382.528 60.412,382.667 60.146,382.667 59.940 C 382.667 59.733,382.854 59.311,383.083 59.000 C 383.313 58.689,383.500 58.243,383.500 58.008 C 383.500 57.764,383.640 57.493,383.825 57.377 C 384.004 57.266,384.199 56.915,384.258 56.598 C 384.318 56.281,384.509 55.893,384.683 55.735 C 384.857 55.577,385.000 55.283,385.000 55.080 C 385.000 54.877,385.145 54.527,385.323 54.301 C 385.501 54.075,385.698 53.671,385.762 53.404 C 385.825 53.136,386.009 52.767,386.171 52.583 C 386.586 52.111,386.736 51.237,386.500 50.666 C 386.228 50.009,385.713 49.963,379.400 50.029 C 373.965 50.086,373.667 50.128,373.667 50.836 C 373.667 50.998,373.569 51.169,373.449 51.214 C 373.330 51.260,373.127 51.625,372.998 52.024 C 372.870 52.423,372.681 52.803,372.578 52.867 C 372.476 52.931,372.288 53.306,372.161 53.700 C 372.034 54.094,371.886 54.454,371.832 54.500 C 371.777 54.546,371.600 54.883,371.439 55.250 C 371.277 55.617,371.000 56.189,370.823 56.523 C 370.645 56.856,370.500 57.216,370.500 57.323 C 370.500 57.430,370.313 57.794,370.083 58.131 C 369.854 58.468,369.667 58.952,369.667 59.205 C 369.667 59.499,369.578 59.667,369.423 59.667 C 369.280 59.667,369.097 59.957,368.978 60.375 C 368.867 60.765,368.639 61.238,368.472 61.427 C 368.304 61.617,368.167 61.956,368.167 62.182 C 368.167 62.408,368.021 62.717,367.843 62.870 C 367.665 63.023,367.468 63.420,367.405 63.754 C 367.342 64.087,367.187 64.400,367.060 64.449 C 366.933 64.498,366.747 64.861,366.647 65.257 C 366.548 65.653,366.363 66.017,366.236 66.066 C 366.110 66.114,365.957 66.463,365.896 66.841 C 365.836 67.219,365.695 67.564,365.584 67.606 C 365.472 67.649,365.281 67.988,365.158 68.360 C 365.035 68.731,364.836 69.073,364.715 69.120 C 364.594 69.166,364.414 69.528,364.314 69.924 C 364.214 70.320,364.029 70.684,363.903 70.732 C 363.776 70.781,363.623 71.130,363.563 71.508 C 363.502 71.886,363.356 72.232,363.238 72.278 C 363.120 72.323,362.945 72.585,362.849 72.859 C 362.673 73.365,362.333 73.375,362.333 72.875 C 362.333 72.582,361.193 70.138,360.992 70.000 C 360.925 69.954,360.773 69.590,360.654 69.191 C 360.534 68.792,360.339 68.428,360.218 68.381 C 360.098 68.335,360.000 68.155,360.000 67.980 C 360.000 67.671,359.694 67.002,359.476 66.833 C 359.416 66.787,359.281 66.427,359.175 66.033 C 359.069 65.639,358.882 65.277,358.758 65.230 C 358.635 65.183,358.452 64.820,358.353 64.424 C 358.253 64.028,358.058 63.661,357.919 63.607 C 357.780 63.554,357.667 63.331,357.667 63.111 C 357.667 62.891,357.516 62.520,357.332 62.286 C 357.148 62.052,356.952 61.633,356.896 61.355 C 356.841 61.078,356.655 60.724,356.484 60.569 C 356.313 60.414,356.126 60.034,356.067 59.723 C 356.009 59.413,355.832 59.067,355.673 58.954 C 355.514 58.842,355.294 58.475,355.184 58.140 C 355.074 57.804,354.875 57.488,354.742 57.437 C 354.609 57.386,354.500 57.195,354.500 57.013 C 354.500 56.613,354.162 55.833,353.988 55.833 C 353.919 55.833,353.811 55.529,353.749 55.158 C 353.683 54.769,353.500 54.399,353.317 54.285 C 353.133 54.170,353.000 53.898,353.000 53.639 C 353.000 53.393,352.813 52.969,352.583 52.697 C 352.354 52.425,352.167 52.050,352.167 51.865 C 352.167 51.680,352.016 51.353,351.831 51.139 C 351.646 50.925,351.390 50.600,351.261 50.417 C 351.034 50.093,340.980 49.837,339.500 50.118 M324.461 60.292 C 324.623 60.452,324.975 60.659,325.244 60.751 C 326.427 61.157,326.498 62.298,325.399 63.254 C 325.134 63.484,324.799 63.783,324.654 63.918 C 324.510 64.053,324.135 64.253,323.821 64.362 C 323.507 64.472,323.151 64.660,323.030 64.780 C 322.904 64.906,322.437 65.000,321.940 65.000 C 321.424 65.000,320.825 65.125,320.468 65.307 C 320.046 65.522,319.299 65.649,317.984 65.729 C 315.780 65.863,315.333 65.954,315.333 66.268 C 315.333 66.437,315.093 66.500,314.447 66.500 C 313.207 66.500,311.609 66.819,311.450 67.099 C 311.367 67.245,311.040 67.333,310.583 67.333 C 309.860 67.333,309.000 67.608,309.000 67.838 C 309.000 67.903,308.548 68.046,307.996 68.154 C 307.332 68.285,306.923 68.462,306.789 68.676 C 306.678 68.854,306.501 69.000,306.397 69.000 C 306.293 69.000,306.113 69.113,305.998 69.252 C 305.883 69.391,305.462 69.649,305.061 69.826 C 304.661 70.003,304.333 70.227,304.333 70.324 C 304.333 70.421,304.226 70.500,304.095 70.500 C 303.965 70.500,303.721 70.673,303.554 70.884 C 303.387 71.095,303.119 71.318,302.958 71.379 C 302.798 71.440,302.667 71.596,302.667 71.726 C 302.667 71.855,302.479 72.085,302.250 72.235 C 302.021 72.385,301.833 72.648,301.833 72.819 C 301.833 72.991,301.740 73.167,301.625 73.210 C 301.464 73.272,301.414 72.629,301.404 70.353 C 301.392 67.691,301.357 67.347,301.029 66.677 C 300.476 65.549,300.514 64.284,301.094 64.504 C 301.329 64.594,301.763 64.667,302.059 64.667 C 302.354 64.667,302.873 64.808,303.212 64.980 C 303.550 65.153,304.260 65.346,304.788 65.409 C 305.317 65.472,306.050 65.663,306.417 65.832 C 306.861 66.038,307.666 66.175,308.833 66.244 C 310.934 66.368,311.338 66.225,311.533 65.286 C 311.649 64.725,312.082 63.957,312.599 63.394 C 312.699 63.284,312.877 62.964,312.994 62.681 C 313.111 62.398,313.308 62.167,313.431 62.167 C 313.554 62.167,313.735 62.017,313.833 61.833 C 313.931 61.650,314.149 61.500,314.317 61.500 C 314.484 61.500,314.805 61.356,315.028 61.180 C 315.252 61.005,315.717 60.808,316.062 60.743 C 316.407 60.678,316.778 60.485,316.885 60.313 C 317.174 59.850,323.996 59.831,324.461 60.292 M186.498 61.082 C 186.650 61.219,187.175 61.407,187.667 61.500 C 188.158 61.593,188.678 61.775,188.822 61.905 C 188.966 62.035,189.295 62.193,189.553 62.258 C 189.811 62.322,190.356 62.703,190.762 63.104 C 191.169 63.505,191.577 63.833,191.668 63.833 C 191.759 63.833,191.833 63.941,191.833 64.072 C 191.833 64.203,191.983 64.358,192.167 64.417 C 192.350 64.475,192.500 64.626,192.500 64.752 C 192.500 64.878,192.635 65.079,192.800 65.199 C 192.965 65.319,193.205 65.679,193.332 66.000 C 193.460 66.321,193.644 66.637,193.741 66.702 C 194.150 66.980,193.964 75.794,193.542 76.090 C 193.335 76.234,193.167 76.435,193.167 76.537 C 193.167 76.737,193.131 76.780,191.778 78.208 C 191.278 78.735,190.787 79.167,190.686 79.167 C 190.585 79.167,190.409 79.317,190.295 79.500 C 190.180 79.683,190.023 79.833,189.945 79.833 C 189.866 79.833,189.629 79.970,189.418 80.136 C 189.206 80.303,188.613 80.540,188.100 80.663 C 187.587 80.786,187.167 80.957,187.167 81.043 C 187.167 81.269,182.607 81.129,182.317 80.894 C 182.188 80.790,181.821 80.650,181.500 80.582 C 181.179 80.514,180.718 80.318,180.474 80.146 C 180.231 79.974,179.917 79.833,179.777 79.833 C 179.637 79.833,179.475 79.683,179.417 79.500 C 179.358 79.317,179.217 79.167,179.102 79.167 C 178.987 79.167,178.733 78.998,178.536 78.792 C 178.340 78.585,177.951 78.192,177.672 77.917 C 177.393 77.642,177.122 77.285,177.071 77.125 C 177.020 76.965,176.873 76.833,176.746 76.833 C 176.613 76.833,176.468 76.581,176.404 76.238 C 176.342 75.911,176.151 75.556,175.979 75.448 C 175.807 75.341,175.667 75.074,175.667 74.854 C 175.667 74.305,175.312 73.167,175.140 73.167 C 174.868 73.167,174.974 69.304,175.255 68.994 C 175.395 68.839,175.556 68.324,175.613 67.849 C 175.683 67.251,175.810 66.935,176.024 66.820 C 176.194 66.729,176.333 66.540,176.333 66.400 C 176.333 66.259,176.521 65.899,176.750 65.598 C 176.979 65.298,177.167 64.993,177.167 64.921 C 177.167 64.741,178.319 63.667,178.512 63.667 C 178.597 63.667,178.667 63.571,178.667 63.455 C 178.667 63.338,178.929 63.101,179.250 62.928 C 179.571 62.756,179.833 62.557,179.833 62.487 C 179.833 62.417,180.058 62.310,180.332 62.250 C 180.607 62.190,180.892 62.032,180.966 61.900 C 181.045 61.760,181.481 61.616,182.009 61.556 C 182.508 61.499,183.104 61.316,183.333 61.148 C 183.879 60.750,186.080 60.703,186.498 61.082 M280.917 61.167 C 281.084 61.352,281.430 61.500,281.695 61.500 C 282.300 61.500,283.713 62.297,284.603 63.141 C 284.980 63.498,285.355 63.819,285.436 63.854 C 285.756 63.990,286.984 65.630,287.094 66.065 C 287.157 66.319,287.305 66.563,287.421 66.608 C 287.537 66.653,287.681 67.015,287.741 67.414 C 287.801 67.813,287.958 68.230,288.092 68.340 C 288.501 68.680,288.431 72.571,288.000 73.417 C 287.817 73.776,287.667 74.309,287.667 74.601 C 287.667 74.921,287.567 75.169,287.414 75.228 C 287.275 75.281,287.090 75.514,287.002 75.746 C 286.914 75.977,286.770 76.167,286.682 76.167 C 286.594 76.167,286.475 76.316,286.417 76.498 C 286.322 76.798,285.407 77.833,285.237 77.833 C 285.198 77.833,285.017 77.965,284.833 78.125 C 284.109 78.759,283.881 78.934,283.207 79.375 C 282.822 79.627,282.392 79.833,282.252 79.833 C 282.112 79.833,281.868 79.983,281.711 80.167 C 281.326 80.617,276.491 80.681,276.051 80.242 C 275.909 80.100,275.581 79.941,275.322 79.889 C 275.062 79.837,274.722 79.654,274.566 79.481 C 274.410 79.308,274.187 79.167,274.070 79.167 C 273.954 79.167,273.636 78.979,273.364 78.750 C 273.091 78.521,272.786 78.333,272.684 78.333 C 272.583 78.333,272.500 78.252,272.500 78.154 C 272.500 78.055,272.198 77.683,271.828 77.328 C 271.459 76.973,271.051 76.430,270.921 76.120 C 270.792 75.810,270.569 75.460,270.426 75.341 C 269.976 74.968,270.044 66.496,270.500 66.083 C 270.683 65.917,270.833 65.681,270.833 65.558 C 270.833 65.435,271.340 64.803,271.958 64.153 C 272.577 63.504,273.148 62.836,273.226 62.670 C 273.305 62.504,273.600 62.322,273.882 62.265 C 274.164 62.209,274.528 62.042,274.691 61.894 C 274.855 61.747,275.345 61.559,275.782 61.478 C 276.218 61.396,276.687 61.218,276.823 61.081 C 277.243 60.662,280.522 60.730,280.917 61.167 M233.333 61.825 C 233.333 62.010,234.390 62.331,235.002 62.332 C 235.239 62.333,235.510 62.478,235.628 62.667 C 235.742 62.850,235.948 63.000,236.085 63.000 C 236.221 63.000,236.333 63.079,236.333 63.175 C 236.333 63.271,236.615 63.477,236.958 63.634 C 237.663 63.954,239.128 65.350,239.486 66.043 C 239.617 66.294,239.780 66.500,239.849 66.500 C 239.918 66.500,240.061 66.762,240.167 67.083 C 240.273 67.404,240.425 67.667,240.505 67.667 C 240.586 67.667,240.698 67.948,240.755 68.292 C 240.891 69.113,241.171 69.833,241.354 69.833 C 241.686 69.833,241.519 72.814,241.167 73.167 C 240.965 73.368,240.833 73.722,240.833 74.061 C 240.833 74.369,240.683 74.812,240.500 75.045 C 240.317 75.279,240.167 75.540,240.167 75.627 C 240.167 75.714,239.978 76.002,239.747 76.267 C 238.976 77.154,238.902 77.248,238.604 77.722 C 238.441 77.982,238.058 78.299,237.752 78.426 C 237.447 78.554,237.172 78.716,237.140 78.788 C 237.042 79.010,235.687 79.833,235.419 79.833 C 235.278 79.833,235.035 79.983,234.878 80.167 C 234.446 80.671,228.645 80.671,228.000 80.167 C 227.771 79.987,227.456 79.839,227.300 79.837 C 227.144 79.835,226.957 79.733,226.883 79.610 C 226.810 79.487,226.512 79.306,226.222 79.207 C 225.680 79.022,225.396 78.810,224.457 77.885 C 223.571 77.012,223.000 76.338,223.000 76.164 C 223.000 76.074,222.887 76.000,222.750 76.000 C 222.598 76.000,222.500 75.845,222.500 75.606 C 222.500 75.389,222.354 75.026,222.176 74.800 C 221.998 74.573,221.801 74.004,221.739 73.535 C 221.672 73.027,221.499 72.566,221.313 72.398 C 220.999 72.114,220.840 70.500,221.126 70.500 C 221.328 70.500,221.655 69.635,221.770 68.791 C 221.830 68.355,222.014 67.888,222.188 67.730 C 222.360 67.575,222.500 67.310,222.500 67.141 C 222.500 66.972,222.577 66.833,222.670 66.833 C 222.764 66.833,222.933 66.631,223.045 66.384 C 223.525 65.330,224.946 63.984,226.563 63.049 C 226.754 62.938,226.987 62.744,227.080 62.618 C 227.174 62.492,227.623 62.338,228.079 62.276 C 228.536 62.213,229.020 62.051,229.157 61.915 C 229.445 61.627,233.333 61.544,233.333 61.825 M14.586 64.286 L 14.293 64.750 14.679 64.380 C 14.891 64.176,15.023 63.967,14.972 63.916 C 14.920 63.865,14.747 64.032,14.586 64.286 M13.372 73.667 C 13.372 73.987,13.406 74.119,13.448 73.958 C 13.490 73.798,13.490 73.535,13.448 73.375 C 13.406 73.215,13.372 73.346,13.372 73.667 M326.773 74.196 C 326.714 74.762,326.559 75.343,326.429 75.487 C 326.299 75.632,326.139 75.975,326.073 76.250 C 326.007 76.525,325.814 76.884,325.643 77.048 C 325.473 77.212,325.333 77.456,325.333 77.590 C 325.333 77.724,325.263 77.833,325.176 77.833 C 325.090 77.833,324.659 78.174,324.218 78.591 C 322.932 79.805,322.898 79.833,322.696 79.833 C 322.590 79.833,322.409 79.983,322.295 80.167 C 322.177 80.356,321.905 80.500,321.668 80.501 C 321.057 80.502,320.000 80.824,320.000 81.008 C 320.000 81.215,314.593 81.219,314.206 81.012 C 314.047 80.927,313.554 80.692,313.112 80.491 C 312.658 80.284,312.228 79.952,312.127 79.729 C 312.028 79.511,311.884 79.333,311.807 79.333 C 311.002 79.333,312.194 77.059,313.158 76.753 C 313.346 76.693,313.500 76.574,313.500 76.489 C 313.500 76.403,314.021 76.333,314.658 76.333 C 315.895 76.333,317.500 76.057,317.500 75.843 C 317.500 75.772,318.269 75.663,319.208 75.600 C 320.823 75.491,322.000 75.234,322.000 74.990 C 322.000 74.929,322.426 74.836,322.947 74.782 C 323.512 74.724,324.081 74.546,324.357 74.342 C 324.612 74.154,324.901 74.000,325.001 74.000 C 325.100 74.000,325.534 73.813,325.965 73.583 C 326.395 73.354,326.777 73.167,326.814 73.167 C 326.851 73.167,326.832 73.630,326.773 74.196 M13.375 82.583 C 13.377 82.950,13.411 83.080,13.451 82.873 C 13.491 82.666,13.490 82.366,13.448 82.206 C 13.406 82.047,13.374 82.217,13.375 82.583 " stroke="none" fill="#0b0404" fill-rule="evenodd"></path><path id="path3" d="M72.129 9.640 C 72.329 9.767,73.333 9.704,73.333 9.564 C 73.333 9.529,73.015 9.501,72.625 9.503 C 72.200 9.504,72.002 9.559,72.129 9.640 M88.532 9.588 C 88.663 9.719,89.818 9.737,89.945 9.610 C 90.006 9.550,89.693 9.500,89.250 9.500 C 88.807 9.500,88.484 9.539,88.532 9.588 M96.333 11.064 C 96.333 11.100,96.554 11.161,96.825 11.201 C 97.095 11.241,97.278 11.212,97.231 11.137 C 97.149 11.003,96.333 10.937,96.333 11.064 M103.418 13.002 C 103.474 13.093,103.621 13.167,103.746 13.167 C 103.870 13.167,104.010 13.244,104.057 13.338 C 104.104 13.431,104.125 13.420,104.104 13.312 C 104.083 13.204,103.897 13.053,103.691 12.976 C 103.453 12.888,103.354 12.898,103.418 13.002 M105.734 13.958 C 105.909 14.165,106.209 14.325,106.401 14.314 C 106.737 14.295,106.737 14.292,106.417 14.213 C 106.233 14.169,105.933 14.009,105.750 13.858 C 105.419 13.586,105.419 13.586,105.734 13.958 M45.105 19.580 C 44.805 19.807,44.807 19.815,45.143 19.789 C 45.334 19.775,45.528 19.666,45.574 19.548 C 45.680 19.271,45.497 19.283,45.105 19.580 M33.000 29.285 C 32.483 29.816,32.469 29.850,32.882 29.585 C 33.138 29.421,33.421 29.147,33.513 28.976 C 33.738 28.554,33.676 28.592,33.000 29.285 M133.458 34.277 C 133.573 34.323,133.667 34.434,133.667 34.524 C 133.667 34.613,133.580 34.633,133.474 34.567 C 133.350 34.491,133.327 34.522,133.410 34.655 C 133.495 34.793,133.593 34.807,133.704 34.696 C 133.901 34.499,133.733 34.161,133.448 34.180 C 133.305 34.189,133.308 34.216,133.458 34.277 M24.734 39.358 C 24.419 39.713,24.419 39.714,24.782 39.523 C 25.188 39.311,25.437 39.000,25.202 39.000 C 25.119 39.000,24.909 39.161,24.734 39.358 M62.613 42.179 C 62.079 42.259,61.367 42.401,61.029 42.495 C 60.692 42.588,60.117 42.669,59.750 42.673 C 59.383 42.678,58.783 42.795,58.417 42.934 C 58.050 43.073,57.312 43.296,56.776 43.429 C 56.240 43.561,55.642 43.782,55.447 43.918 C 55.252 44.055,54.992 44.167,54.869 44.167 C 54.539 44.167,52.518 45.165,51.750 45.708 C 51.383 45.967,50.790 46.372,50.431 46.609 C 49.077 47.501,45.833 51.131,45.833 51.753 C 45.833 51.867,45.721 52.052,45.584 52.166 C 44.723 52.880,43.688 56.013,43.165 59.482 C 42.410 64.496,42.341 91.664,43.071 96.000 C 43.203 96.779,43.358 97.904,43.415 98.500 C 43.602 100.418,44.894 104.095,45.584 104.667 C 45.721 104.781,45.833 104.973,45.833 105.093 C 45.833 105.715,48.915 109.002,50.075 109.616 C 50.346 109.759,50.670 109.979,50.795 110.105 C 50.921 110.231,51.116 110.333,51.230 110.333 C 51.343 110.333,51.689 110.521,52.000 110.750 C 52.311 110.979,52.683 111.167,52.827 111.167 C 52.970 111.167,53.350 111.307,53.669 111.478 C 53.989 111.649,54.657 111.876,55.155 111.982 C 55.653 112.089,56.149 112.250,56.258 112.340 C 56.367 112.430,57.061 112.580,57.801 112.673 C 58.542 112.765,59.470 112.956,59.865 113.095 C 60.338 113.262,61.723 113.403,63.917 113.506 C 65.750 113.592,67.550 113.740,67.917 113.835 C 70.290 114.449,92.201 114.449,94.583 113.834 C 94.950 113.740,96.556 113.590,98.151 113.502 C 99.747 113.414,101.435 113.231,101.901 113.096 C 102.368 112.961,103.318 112.781,104.011 112.695 C 104.705 112.610,105.493 112.427,105.761 112.290 C 106.030 112.153,106.513 111.984,106.833 111.916 C 107.154 111.848,107.616 111.651,107.859 111.479 C 108.102 111.307,108.394 111.167,108.507 111.167 C 109.347 111.167,115.167 106.154,115.167 105.431 C 115.167 105.314,115.301 105.097,115.464 104.949 C 115.882 104.571,117.230 101.827,117.731 100.333 C 118.556 97.877,118.733 96.575,119.176 89.667 C 119.279 88.063,119.427 85.888,119.504 84.833 C 119.694 82.249,119.695 78.892,119.505 77.167 C 118.946 72.078,118.815 71.605,116.948 67.917 C 115.640 65.331,111.047 61.333,109.386 61.333 C 109.259 61.333,108.959 61.205,108.719 61.048 C 107.593 60.310,106.733 60.282,81.917 60.180 C 56.040 60.074,57.804 60.161,57.095 58.952 C 56.357 57.693,56.711 56.233,57.929 55.515 L 58.539 55.155 80.644 55.162 C 104.942 55.170,103.827 55.215,103.970 54.210 C 104.155 52.909,102.799 49.406,101.381 47.521 C 100.089 45.804,96.982 43.500,95.958 43.500 C 95.841 43.500,95.461 43.348,95.113 43.161 C 94.766 42.975,93.938 42.754,93.273 42.670 C 92.609 42.585,91.844 42.419,91.574 42.301 C 90.990 42.044,64.259 41.931,62.613 42.179 M22.605 42.771 C 22.301 43.189,22.301 43.197,22.605 43.139 C 22.776 43.106,22.918 43.005,22.919 42.914 C 22.921 42.824,22.981 42.656,23.054 42.542 C 23.305 42.146,22.916 42.345,22.605 42.771 M92.667 43.131 C 92.987 43.233,93.775 43.470,94.417 43.657 C 98.965 44.986,102.620 48.959,103.107 53.104 C 103.288 54.646,105.643 54.500,80.598 54.500 L 58.404 54.500 57.662 54.875 C 55.549 55.942,55.484 59.078,57.548 60.406 C 58.081 60.749,58.186 60.750,82.333 60.837 L 106.583 60.924 108.000 61.451 C 108.779 61.740,109.802 62.188,110.273 62.447 C 110.745 62.705,111.441 63.088,111.821 63.298 C 113.516 64.234,116.660 68.065,117.158 69.802 C 117.231 70.059,117.405 70.490,117.542 70.760 C 118.747 73.115,119.207 82.249,118.499 89.750 C 118.412 90.667,118.258 92.504,118.155 93.833 C 117.669 100.122,116.078 103.949,112.525 107.374 C 111.343 108.514,108.439 110.667,108.083 110.667 C 108.035 110.667,107.678 110.815,107.290 110.996 C 106.004 111.595,103.612 112.187,101.500 112.429 C 100.354 112.561,99.117 112.744,98.750 112.837 C 96.187 113.486,80.927 113.757,70.667 113.336 C 58.021 112.818,52.059 111.171,48.247 107.143 C 44.101 102.761,43.369 98.868,43.210 80.333 C 43.084 65.611,43.691 57.229,45.075 54.575 C 45.216 54.304,45.332 54.013,45.332 53.928 C 45.338 53.100,48.908 48.519,50.257 47.609 C 50.550 47.411,51.367 46.851,52.072 46.362 C 52.778 45.874,53.594 45.395,53.886 45.297 C 54.178 45.199,54.500 45.054,54.601 44.975 C 54.822 44.804,56.484 44.209,57.417 43.968 C 57.783 43.873,58.566 43.644,59.157 43.460 C 59.748 43.276,60.948 43.068,61.824 42.998 C 64.391 42.794,91.979 42.913,92.667 43.131 M144.251 53.854 C 144.424 54.425,144.640 54.603,144.543 54.094 C 144.497 53.856,144.386 53.616,144.296 53.560 C 144.193 53.497,144.176 53.608,144.251 53.854 M16.611 56.444 C 16.550 56.506,16.505 56.712,16.511 56.903 C 16.520 57.222,16.534 57.218,16.681 56.851 C 16.844 56.443,16.810 56.245,16.611 56.444 M14.167 66.490 C 14.167 66.862,14.196 67.167,14.232 67.167 C 14.365 67.167,14.430 65.977,14.301 65.897 C 14.227 65.851,14.167 66.118,14.167 66.490 M148.135 69.083 C 148.172 69.404,148.232 69.667,148.268 69.667 C 148.304 69.667,148.333 69.404,148.333 69.083 C 148.333 68.762,148.273 68.500,148.200 68.500 C 148.127 68.500,148.098 68.762,148.135 69.083 M13.991 69.124 C 13.620 69.865,13.614 69.885,13.822 69.757 C 14.031 69.628,14.386 68.831,14.282 68.726 C 14.248 68.693,14.117 68.872,13.991 69.124 M148.897 75.583 C 148.897 76.683,148.924 77.112,148.957 76.535 C 148.990 75.959,148.989 75.059,148.956 74.535 C 148.923 74.012,148.897 74.483,148.897 75.583 M13.392 78.083 C 13.392 78.908,13.420 79.267,13.455 78.880 C 13.490 78.493,13.490 77.818,13.456 77.380 C 13.422 76.942,13.393 77.258,13.392 78.083 M148.897 80.583 C 148.897 81.683,148.924 82.112,148.957 81.535 C 148.990 80.959,148.989 80.059,148.956 79.535 C 148.923 79.012,148.897 79.483,148.897 80.583 M102.789 79.015 C 99.395 79.813,98.222 83.310,100.335 86.333 C 100.571 86.672,100.639 87.220,100.696 89.258 C 100.776 92.150,100.964 92.590,102.428 93.321 C 104.788 94.500,106.353 92.909,106.492 89.190 L 106.583 86.750 107.208 85.728 C 109.197 82.478,106.364 78.175,102.789 79.015 M105.181 79.981 C 107.298 80.796,107.841 83.756,106.266 85.889 C 105.958 86.305,105.907 86.662,105.833 88.889 C 105.730 92.029,105.279 92.836,103.630 92.832 C 101.827 92.828,101.464 92.203,101.340 88.886 C 101.254 86.590,101.209 86.306,100.863 85.838 C 98.467 82.598,101.455 78.547,105.181 79.981 M148.179 86.917 C 148.158 87.100,148.115 87.391,148.082 87.563 C 148.042 87.774,148.078 87.822,148.191 87.709 C 148.284 87.616,148.327 87.325,148.288 87.062 C 148.241 86.747,148.204 86.697,148.179 86.917 M14.212 89.667 C 14.212 90.079,14.245 90.248,14.284 90.042 C 14.324 89.835,14.324 89.498,14.284 89.292 C 14.245 89.085,14.212 89.254,14.212 89.667 M116.582 136.836 C 116.524 136.929,116.412 136.965,116.333 136.917 C 116.254 136.868,116.143 136.904,116.085 136.997 C 115.919 137.266,116.437 137.194,116.667 136.917 C 116.781 136.779,116.832 136.667,116.780 136.667 C 116.729 136.667,116.639 136.743,116.582 136.836 M97.000 145.014 C 96.610 145.126,96.617 145.134,97.115 145.150 C 97.408 145.159,97.686 145.104,97.733 145.028 C 97.837 144.859,97.560 144.854,97.000 145.014 M64.542 145.115 C 64.702 145.157,64.965 145.157,65.125 145.115 C 65.285 145.073,65.154 145.039,64.833 145.039 C 64.512 145.039,64.381 145.073,64.542 145.115 M68.980 145.880 C 69.060 145.960,69.341 145.999,69.605 145.966 C 70.045 145.911,70.034 145.900,69.458 145.820 C 69.100 145.771,68.896 145.796,68.980 145.880 M92.208 145.948 C 92.369 145.990,92.631 145.990,92.792 145.948 C 92.952 145.906,92.821 145.872,92.500 145.872 C 92.179 145.872,92.048 145.906,92.208 145.948 M89.667 146.514 C 89.307 146.617,89.335 146.636,89.875 146.650 C 90.219 146.659,90.500 146.604,90.500 146.528 C 90.500 146.359,90.224 146.355,89.667 146.514 M71.794 146.618 C 72.001 146.658,72.301 146.656,72.460 146.615 C 72.620 146.573,72.450 146.540,72.083 146.542 C 71.717 146.544,71.586 146.578,71.794 146.618 " stroke="none" fill="#39c0e0" fill-rule="evenodd"></path><path id="path4" d="M79.082 9.169 C 79.024 9.263,78.896 9.288,78.796 9.227 C 78.688 9.160,78.663 9.193,78.734 9.308 C 78.846 9.489,79.500 9.292,79.500 9.077 C 79.500 8.931,79.186 9.000,79.082 9.169 M80.711 9.120 C 80.964 9.158,81.339 9.157,81.544 9.117 C 81.749 9.078,81.542 9.046,81.083 9.048 C 80.625 9.049,80.457 9.081,80.711 9.120 M13.390 75.417 C 13.391 76.150,13.420 76.429,13.456 76.037 C 13.491 75.645,13.490 75.045,13.454 74.704 C 13.419 74.363,13.390 74.683,13.390 75.417 M13.390 80.750 C 13.391 81.483,13.420 81.763,13.456 81.371 C 13.491 80.979,13.490 80.379,13.454 80.037 C 13.419 79.696,13.390 80.017,13.390 80.750 " stroke="none" fill="#40a8d8" fill-rule="evenodd"></path></g></svg>