<svg id="svg"  version="1.1" xmlns="http://www.w3.org/2000/svg" xmlns:xlink="http://www.w3.org/1999/xlink" width="400" height="239.84375" viewBox="0, 0, 400,239.84375"><g id="svgg"><path id="path0" d="M80.384 49.429 C 80.183 49.560,78.006 49.664,75.451 49.666 C 71.805 49.669,70.783 49.742,70.412 50.022 C 70.125 50.240,69.388 50.378,68.492 50.382 C 67.596 50.387,66.860 50.525,66.573 50.742 C 66.316 50.936,65.824 51.098,65.479 51.102 C 65.134 51.106,64.577 51.326,64.242 51.590 C 63.833 51.911,63.268 52.070,62.530 52.070 C 61.710 52.070,61.428 52.162,61.428 52.430 C 61.428 52.700,61.137 52.789,60.254 52.789 C 59.431 52.789,59.038 52.897,58.941 53.149 C 58.850 53.388,58.474 53.509,57.828 53.509 C 57.220 53.509,56.806 53.634,56.726 53.841 C 56.656 54.023,56.170 54.241,55.645 54.325 C 55.120 54.409,54.629 54.638,54.554 54.833 C 54.471 55.051,54.102 55.189,53.604 55.189 C 53.040 55.189,52.789 55.300,52.789 55.549 C 52.789 55.789,52.549 55.909,52.070 55.909 C 51.590 55.909,51.350 56.029,51.350 56.269 C 51.350 56.508,51.111 56.629,50.638 56.629 C 50.202 56.629,49.839 56.794,49.698 57.056 C 49.572 57.291,49.225 57.502,48.926 57.524 C 48.627 57.547,48.289 57.732,48.174 57.937 C 48.060 58.141,47.714 58.308,47.404 58.308 C 47.095 58.308,46.780 58.470,46.704 58.668 C 46.628 58.866,46.400 59.028,46.198 59.028 C 45.996 59.028,45.831 59.190,45.831 59.388 C 45.831 59.586,45.632 59.748,45.388 59.748 C 45.145 59.748,44.750 59.964,44.511 60.228 C 44.272 60.492,43.932 60.708,43.754 60.708 C 43.577 60.708,43.431 60.870,43.431 61.068 C 43.431 61.281,43.211 61.428,42.891 61.428 C 42.305 61.428,40.312 63.055,40.312 63.533 C 40.312 63.700,40.000 63.827,39.592 63.827 C 39.112 63.827,38.872 63.947,38.872 64.187 C 38.872 64.385,38.707 64.547,38.505 64.547 C 38.303 64.547,38.075 64.709,37.999 64.907 C 37.923 65.105,37.711 65.267,37.527 65.267 C 37.343 65.267,37.193 65.429,37.193 65.627 C 37.193 65.825,37.038 65.987,36.849 65.987 C 36.660 65.987,36.437 66.203,36.353 66.467 C 36.269 66.731,36.046 66.947,35.857 66.947 C 35.668 66.947,35.513 67.109,35.513 67.307 C 35.513 67.504,35.351 67.666,35.153 67.666 C 34.955 67.666,34.793 67.828,34.793 68.026 C 34.793 68.224,34.631 68.386,34.433 68.386 C 34.235 68.386,34.073 68.548,34.073 68.746 C 34.073 68.944,33.929 69.106,33.753 69.106 C 33.407 69.106,31.674 70.923,31.674 71.285 C 31.674 71.407,31.512 71.506,31.314 71.506 C 31.116 71.506,30.954 71.664,30.954 71.857 C 30.954 72.051,30.761 72.312,30.524 72.438 C 30.288 72.565,29.946 72.947,29.764 73.287 C 29.582 73.627,29.279 73.905,29.091 73.905 C 28.903 73.905,28.695 74.114,28.628 74.369 C 28.562 74.623,28.356 74.890,28.171 74.961 C 27.986 75.032,27.834 75.233,27.834 75.409 C 27.834 75.584,27.460 76.101,27.002 76.556 C 26.545 77.012,26.167 77.473,26.162 77.582 C 26.158 77.690,25.993 77.941,25.795 78.139 C 25.597 78.337,25.435 78.707,25.435 78.961 C 25.435 79.216,25.273 79.424,25.075 79.424 C 24.877 79.424,24.715 79.586,24.715 79.784 C 24.715 79.982,24.627 80.144,24.520 80.144 C 24.412 80.144,24.144 80.522,23.924 80.984 C 23.703 81.446,23.407 81.824,23.265 81.824 C 23.123 81.824,23.066 81.919,23.138 82.035 C 23.210 82.152,23.054 82.520,22.792 82.853 C 22.530 83.186,22.316 83.672,22.316 83.932 C 22.316 84.192,22.154 84.539,21.956 84.703 C 21.758 84.867,21.596 85.142,21.596 85.312 C 21.596 85.483,21.514 85.659,21.414 85.703 C 21.164 85.812,19.916 88.273,19.916 88.655 C 19.916 88.825,19.754 89.098,19.556 89.262 C 19.358 89.426,19.196 89.926,19.196 90.371 C 19.196 90.932,19.085 91.182,18.836 91.182 C 18.596 91.182,18.476 91.422,18.476 91.902 C 18.476 92.302,18.263 92.835,17.996 93.101 C 17.725 93.373,17.516 93.901,17.516 94.318 C 17.516 94.724,17.355 95.217,17.157 95.415 C 16.959 95.613,16.797 96.186,16.797 96.688 C 16.797 97.208,16.641 97.731,16.437 97.900 C 16.206 98.092,16.077 98.623,16.077 99.377 C 16.077 100.203,15.969 100.596,15.717 100.693 C 15.447 100.797,15.357 101.230,15.357 102.432 C 15.357 103.736,15.268 104.109,14.877 104.443 C 14.466 104.795,14.396 105.157,14.389 106.956 C 14.384 108.391,14.274 109.201,14.041 109.508 C 13.537 110.174,13.502 126.570,14.004 126.860 C 14.249 127.001,14.368 127.736,14.439 129.536 C 14.518 131.563,14.611 132.060,14.946 132.248 C 15.266 132.427,15.357 132.812,15.357 133.996 C 15.357 135.053,15.466 135.605,15.717 135.813 C 15.947 136.004,16.077 136.535,16.077 137.289 C 16.077 138.115,16.184 138.509,16.437 138.605 C 16.682 138.699,16.797 139.083,16.797 139.805 C 16.797 140.528,16.912 140.911,17.157 141.005 C 17.379 141.090,17.516 141.455,17.516 141.957 C 17.516 142.452,17.705 142.960,17.996 143.251 C 18.295 143.550,18.476 144.051,18.476 144.579 C 18.476 145.110,18.610 145.477,18.836 145.564 C 19.043 145.643,19.196 146.002,19.196 146.404 C 19.196 146.806,19.350 147.165,19.556 147.244 C 19.761 147.322,19.916 147.680,19.916 148.076 C 19.916 148.533,20.039 148.770,20.276 148.770 C 20.474 148.770,20.636 148.977,20.636 149.231 C 20.636 149.946,20.895 150.450,21.261 150.450 C 21.473 150.450,21.596 150.714,21.596 151.170 C 21.596 151.611,21.710 151.866,21.890 151.830 C 22.052 151.797,22.224 152.040,22.272 152.370 C 22.320 152.699,22.485 153.131,22.639 153.329 C 22.793 153.527,23.186 154.202,23.512 154.829 C 23.838 155.456,24.242 155.969,24.410 155.969 C 24.578 155.969,24.715 156.242,24.715 156.576 C 24.715 156.910,24.877 157.246,25.075 157.322 C 25.273 157.398,25.435 157.610,25.435 157.794 C 25.435 157.978,25.549 158.128,25.687 158.128 C 25.826 158.128,26.050 158.444,26.184 158.829 C 26.318 159.214,26.583 159.589,26.771 159.661 C 26.960 159.734,27.115 159.958,27.115 160.160 C 27.115 160.363,27.277 160.528,27.475 160.528 C 27.672 160.528,27.834 160.678,27.834 160.862 C 27.834 161.046,27.996 161.259,28.194 161.335 C 28.392 161.410,28.554 161.638,28.554 161.840 C 28.554 162.042,28.716 162.208,28.914 162.208 C 29.112 162.208,29.275 162.343,29.275 162.507 C 29.276 162.672,29.654 163.218,30.115 163.721 C 30.576 164.223,30.954 164.724,30.954 164.835 C 30.954 164.945,31.116 165.098,31.314 165.174 C 31.512 165.250,31.674 165.477,31.674 165.679 C 31.674 165.881,31.782 166.047,31.914 166.047 C 32.226 166.047,34.073 167.894,34.073 168.206 C 34.073 168.338,34.208 168.451,34.373 168.456 C 34.538 168.462,34.938 168.786,35.262 169.176 C 35.585 169.567,35.990 169.886,36.162 169.886 C 36.333 169.886,36.473 170.048,36.473 170.246 C 36.473 170.444,36.611 170.606,36.779 170.606 C 36.948 170.606,37.271 170.822,37.497 171.086 C 37.723 171.350,38.059 171.566,38.244 171.566 C 38.429 171.566,38.643 171.728,38.719 171.926 C 38.795 172.124,39.023 172.286,39.225 172.286 C 39.427 172.286,39.592 172.448,39.592 172.645 C 39.592 172.843,39.754 173.005,39.952 173.005 C 40.150 173.005,40.312 173.167,40.312 173.365 C 40.312 173.563,40.457 173.725,40.635 173.725 C 40.812 173.725,41.153 173.941,41.392 174.205 C 41.631 174.469,42.025 174.685,42.269 174.685 C 42.512 174.685,42.711 174.847,42.711 175.045 C 42.711 175.245,42.925 175.405,43.191 175.405 C 43.455 175.405,43.671 175.528,43.671 175.678 C 43.671 176.069,44.295 176.514,46.011 177.349 C 46.836 177.751,47.510 178.179,47.510 178.302 C 47.510 178.424,47.834 178.524,48.230 178.524 C 48.716 178.524,48.950 178.644,48.950 178.890 C 48.950 179.103,49.245 179.315,49.655 179.397 C 50.042 179.475,50.417 179.688,50.487 179.871 C 50.557 180.054,50.942 180.204,51.342 180.204 C 51.829 180.204,52.070 180.323,52.070 180.564 C 52.070 180.805,52.310 180.924,52.797 180.924 C 53.222 180.924,53.582 181.073,53.662 181.284 C 53.738 181.482,54.069 181.644,54.397 181.644 C 54.725 181.644,55.268 181.860,55.603 182.124 C 55.939 182.388,56.477 182.603,56.798 182.603 C 57.120 182.603,57.545 182.765,57.743 182.963 C 57.941 183.161,58.476 183.323,58.933 183.323 C 59.450 183.323,59.815 183.459,59.901 183.683 C 59.978 183.883,60.335 184.043,60.704 184.043 C 61.070 184.043,61.503 184.205,61.668 184.403 C 61.864 184.640,62.400 184.763,63.231 184.763 C 64.102 184.763,64.536 184.869,64.627 185.104 C 64.708 185.315,65.286 185.505,66.152 185.603 C 66.919 185.691,67.887 185.915,68.303 186.103 C 68.764 186.310,69.853 186.443,71.093 186.443 C 72.375 186.443,73.451 186.578,74.005 186.810 C 75.130 187.280,87.349 187.315,88.166 186.851 C 88.439 186.696,89.774 186.512,91.133 186.442 C 92.494 186.371,93.680 186.198,93.773 186.055 C 93.865 185.913,94.639 185.725,95.492 185.638 C 96.486 185.536,97.115 185.351,97.244 185.121 C 97.384 184.872,97.843 184.763,98.760 184.763 C 99.708 184.763,100.114 184.662,100.213 184.403 C 100.292 184.197,100.651 184.043,101.053 184.043 C 101.455 184.043,101.814 183.890,101.893 183.683 C 101.982 183.451,102.353 183.323,102.936 183.323 C 103.447 183.323,103.970 183.167,104.139 182.963 C 104.303 182.765,104.668 182.602,104.948 182.600 C 105.837 182.594,106.539 182.319,106.539 181.976 C 106.539 181.756,106.823 181.644,107.379 181.644 C 107.965 181.644,108.218 181.535,108.218 181.284 C 108.218 181.044,108.458 180.924,108.938 180.924 C 109.418 180.924,109.658 180.804,109.658 180.564 C 109.658 180.326,109.896 180.204,110.361 180.204 C 110.747 180.204,111.225 180.042,111.423 179.844 C 111.621 179.646,111.949 179.484,112.152 179.484 C 112.355 179.484,112.636 179.268,112.777 179.004 C 112.929 178.721,113.280 178.524,113.633 178.524 C 113.963 178.524,114.294 178.362,114.370 178.164 C 114.446 177.966,114.770 177.804,115.090 177.804 C 115.410 177.804,115.734 177.642,115.810 177.445 C 115.886 177.247,116.035 177.085,116.141 177.085 C 116.454 177.085,118.296 175.817,118.296 175.602 C 118.296 175.494,118.570 175.405,118.904 175.405 C 119.238 175.405,119.573 175.243,119.649 175.045 C 119.725 174.847,119.896 174.685,120.028 174.685 C 120.362 174.685,121.407 173.665,121.412 173.333 C 121.414 173.184,121.643 173.002,121.920 172.930 C 122.197 172.857,122.353 172.683,122.266 172.542 C 122.170 172.387,122.340 172.286,122.697 172.286 C 123.100 172.286,123.796 171.789,124.886 170.726 C 125.765 169.868,126.586 169.166,126.710 169.166 C 126.833 169.166,126.935 169.004,126.935 168.806 C 126.935 168.608,127.097 168.446,127.295 168.446 C 127.493 168.446,127.654 168.284,127.654 168.086 C 127.654 167.888,127.809 167.726,127.998 167.726 C 128.187 167.726,128.411 167.510,128.494 167.247 C 128.578 166.983,128.801 166.767,128.990 166.767 C 129.179 166.767,129.334 166.605,129.334 166.407 C 129.334 166.209,129.496 166.047,129.694 166.047 C 129.892 166.047,130.054 165.885,130.054 165.687 C 130.054 165.489,130.216 165.327,130.414 165.327 C 130.612 165.327,130.774 165.191,130.774 165.026 C 130.774 164.860,131.152 164.409,131.614 164.024 C 132.076 163.639,132.454 163.230,132.454 163.116 C 132.454 163.001,132.666 162.680,132.925 162.401 C 133.184 162.123,133.338 161.801,133.267 161.685 C 133.196 161.570,133.278 161.505,133.450 161.542 C 133.621 161.578,133.797 161.376,133.841 161.092 C 133.885 160.809,134.141 160.519,134.411 160.449 C 134.681 160.378,134.830 160.205,134.743 160.064 C 134.656 159.923,134.756 159.808,134.966 159.808 C 135.176 159.808,135.420 159.619,135.507 159.388 C 135.594 159.157,135.807 158.826,135.979 158.651 C 136.152 158.477,136.293 158.126,136.293 157.871 C 136.293 157.617,136.455 157.409,136.653 157.409 C 136.851 157.409,137.013 157.243,137.013 157.041 C 137.013 156.839,137.168 156.614,137.358 156.541 C 137.548 156.468,137.772 156.094,137.857 155.709 C 137.941 155.324,138.164 155.009,138.351 155.009 C 138.556 155.009,138.692 154.766,138.692 154.402 C 138.692 154.068,138.854 153.732,139.052 153.656 C 139.250 153.580,139.412 153.325,139.412 153.089 C 139.412 152.854,139.574 152.599,139.772 152.523 C 139.970 152.447,140.132 152.123,140.132 151.803 C 140.132 151.483,140.280 151.164,140.461 151.095 C 140.642 151.025,140.863 150.677,140.953 150.320 C 141.042 149.964,141.272 149.515,141.464 149.324 C 141.655 149.133,141.812 148.760,141.812 148.496 C 141.812 148.232,141.974 147.854,142.172 147.656 C 142.370 147.458,142.531 146.926,142.531 146.474 C 142.531 145.902,142.641 145.651,142.891 145.651 C 143.123 145.651,143.253 145.416,143.255 144.991 C 143.258 144.388,143.714 143.297,143.731 143.851 C 143.750 144.460,144.204 143.283,144.207 142.617 C 144.210 142.171,144.358 141.807,144.571 141.725 C 144.816 141.631,144.931 141.247,144.931 140.525 C 144.931 139.803,145.046 139.419,145.291 139.325 C 145.556 139.224,145.651 138.805,145.651 137.740 C 145.651 136.614,145.731 136.293,146.011 136.293 C 146.254 136.293,146.371 136.049,146.371 135.539 C 146.371 135.119,146.544 134.659,146.763 134.499 C 147.041 134.296,147.205 133.638,147.328 132.240 C 147.424 131.155,147.625 130.143,147.776 129.992 C 147.944 129.824,148.050 128.818,148.050 127.394 C 148.050 125.794,148.163 124.856,148.410 124.383 C 148.921 123.406,148.922 112.244,148.411 111.733 C 148.174 111.495,148.063 110.687,148.033 108.977 C 148.007 107.468,147.867 106.319,147.661 105.921 C 147.479 105.571,147.331 104.663,147.331 103.904 C 147.331 102.888,147.204 102.364,146.851 101.914 C 146.587 101.579,146.371 101.021,146.371 100.674 C 146.371 100.328,146.209 99.983,146.011 99.907 C 145.759 99.810,145.651 99.417,145.651 98.595 C 145.651 97.711,145.562 97.421,145.291 97.421 C 145.019 97.421,144.931 97.127,144.931 96.221 C 144.931 95.314,144.843 95.021,144.571 95.021 C 144.303 95.021,144.211 94.739,144.211 93.919 C 144.211 93.018,144.123 92.794,143.731 92.691 C 143.343 92.590,143.251 92.364,143.251 91.514 C 143.251 90.739,143.157 90.462,142.891 90.462 C 142.651 90.462,142.531 90.221,142.531 89.735 C 142.531 89.309,142.382 88.950,142.172 88.869 C 141.971 88.792,141.812 88.435,141.812 88.062 C 141.812 87.695,141.665 87.338,141.486 87.269 C 141.307 87.200,141.093 86.811,141.012 86.403 C 140.924 85.964,140.715 85.663,140.498 85.663 C 140.254 85.663,140.132 85.431,140.132 84.969 C 140.132 84.573,139.977 84.215,139.772 84.136 C 139.574 84.060,139.412 83.722,139.412 83.383 C 139.412 83.045,139.250 82.706,139.052 82.630 C 138.854 82.554,138.692 82.353,138.692 82.184 C 138.692 82.014,138.540 81.817,138.355 81.746 C 138.169 81.674,137.945 81.285,137.856 80.880 C 137.767 80.475,137.541 80.144,137.353 80.144 C 137.149 80.144,137.013 79.901,137.013 79.537 C 137.013 79.202,136.851 78.867,136.653 78.791 C 136.455 78.715,136.293 78.502,136.293 78.319 C 136.293 78.135,136.181 77.984,136.045 77.984 C 135.909 77.984,135.728 77.804,135.644 77.583 C 135.559 77.362,135.292 76.957,135.051 76.683 C 134.154 75.663,133.973 75.419,133.822 75.027 C 133.738 74.806,133.557 74.625,133.421 74.625 C 133.285 74.625,133.173 74.463,133.173 74.265 C 133.173 74.067,133.011 73.905,132.813 73.905 C 132.615 73.905,132.454 73.797,132.454 73.665 C 132.454 73.412,132.104 72.975,130.834 71.644 C 130.405 71.194,130.054 70.764,130.054 70.689 C 130.054 70.503,126.544 66.947,126.361 66.947 C 126.280 66.947,125.999 66.731,125.735 66.467 C 125.471 66.203,125.093 65.987,124.895 65.987 C 124.697 65.987,124.535 65.825,124.535 65.627 C 124.535 65.429,124.400 65.262,124.235 65.257 C 124.070 65.251,123.670 64.927,123.347 64.537 C 123.023 64.147,122.618 63.827,122.447 63.827 C 122.276 63.827,122.136 63.674,122.136 63.486 C 122.136 63.299,121.812 63.074,121.416 62.987 C 121.020 62.900,120.696 62.676,120.696 62.488 C 120.696 62.301,120.545 62.148,120.362 62.148 C 120.178 62.148,119.965 61.986,119.889 61.788 C 119.813 61.590,119.597 61.428,119.409 61.428 C 119.221 61.428,119.008 61.274,118.936 61.085 C 118.864 60.897,118.501 60.708,118.131 60.665 C 117.760 60.623,117.460 60.480,117.464 60.348 C 117.475 59.954,116.226 59.028,115.682 59.028 C 115.393 59.028,115.177 58.874,115.177 58.668 C 115.177 58.428,114.937 58.308,114.457 58.308 C 114.061 58.308,113.737 58.202,113.737 58.072 C 113.737 57.941,113.386 57.669,112.957 57.465 C 111.887 56.958,111.108 56.495,110.790 56.177 C 110.642 56.029,110.166 55.909,109.730 55.909 C 109.186 55.909,108.938 55.796,108.938 55.549 C 108.938 55.298,108.685 55.189,108.098 55.189 C 107.533 55.189,107.259 55.078,107.259 54.848 C 107.259 54.658,106.913 54.432,106.479 54.338 C 106.050 54.244,105.486 54.020,105.226 53.839 C 104.965 53.657,104.464 53.509,104.111 53.509 C 103.759 53.509,103.409 53.347,103.333 53.149 C 103.239 52.905,102.856 52.789,102.136 52.789 C 101.489 52.789,100.963 52.650,100.780 52.430 C 100.582 52.191,100.045 52.070,99.191 52.070 C 98.257 52.070,97.900 51.979,97.900 51.740 C 97.900 51.540,97.513 51.349,96.910 51.253 C 96.366 51.166,95.694 50.936,95.417 50.742 C 95.097 50.518,94.332 50.390,93.308 50.390 C 92.236 50.390,91.669 50.290,91.602 50.090 C 91.528 49.868,90.196 49.758,86.483 49.667 C 83.722 49.599,81.302 49.465,81.104 49.369 C 80.906 49.274,80.582 49.300,80.384 49.429 M91.782 82.530 C 93.136 82.645,94.495 82.901,94.901 83.117 C 95.297 83.328,95.750 83.501,95.907 83.502 C 96.324 83.504,97.900 84.473,97.900 84.727 C 97.900 84.846,98.126 84.943,98.402 84.943 C 98.880 84.943,101.740 87.621,101.740 88.068 C 101.740 88.178,101.879 88.411,102.049 88.585 C 102.578 89.127,103.419 90.929,103.419 91.520 C 103.419 91.830,103.581 92.471,103.779 92.944 C 104.809 95.410,106.098 95.281,80.672 95.256 C 65.616 95.242,58.683 95.315,58.176 95.495 C 56.884 95.953,56.114 98.134,56.989 98.860 C 57.187 99.025,57.349 99.291,57.349 99.452 C 57.349 100.242,59.010 100.300,81.612 100.304 C 102.611 100.308,107.856 100.439,108.538 100.974 C 108.692 101.095,109.134 101.269,109.520 101.362 C 110.329 101.556,112.777 103.120,112.777 103.443 C 112.777 103.562,112.903 103.659,113.057 103.659 C 113.332 103.659,113.679 103.928,114.517 104.788 C 115.431 105.726,115.897 106.309,115.897 106.513 C 115.897 106.631,116.040 106.782,116.215 106.849 C 116.548 106.977,118.291 110.359,118.304 110.903 C 118.308 111.076,118.470 111.427,118.664 111.684 C 118.858 111.940,119.016 112.588,119.016 113.123 C 119.016 113.659,119.176 114.853,119.372 115.777 C 119.784 117.722,119.842 123.455,119.477 126.215 C 119.347 127.205,119.151 130.045,119.043 132.527 C 118.920 135.341,118.742 137.142,118.571 137.314 C 118.420 137.465,118.296 137.918,118.295 138.320 C 118.294 138.723,118.132 139.361,117.935 139.739 C 117.738 140.117,117.576 140.631,117.576 140.880 C 117.576 141.129,117.361 141.736,117.097 142.229 C 116.833 142.721,116.617 143.255,116.617 143.416 C 116.617 143.576,116.482 143.794,116.317 143.899 C 115.992 144.107,115.583 144.705,115.119 145.651 C 114.440 147.034,109.578 151.170,108.629 151.170 C 108.490 151.170,108.206 151.311,107.997 151.485 C 106.863 152.427,103.270 153.294,99.247 153.595 C 97.648 153.714,95.801 153.913,95.141 154.036 C 93.025 154.432,69.097 154.345,66.587 153.932 C 65.399 153.737,63.617 153.571,62.627 153.563 C 61.638 153.555,60.342 153.439,59.748 153.306 C 59.154 153.173,58.074 152.956,57.349 152.824 C 56.623 152.693,55.742 152.428,55.392 152.237 C 55.042 152.046,54.542 151.890,54.282 151.890 C 54.021 151.890,53.674 151.728,53.509 151.530 C 53.345 151.332,53.035 151.165,52.820 151.159 C 52.605 151.154,51.998 150.884,51.470 150.561 C 50.942 150.238,50.240 149.837,49.910 149.672 C 48.804 149.116,45.831 145.842,45.831 145.181 C 45.831 145.043,45.728 144.931,45.602 144.931 C 45.328 144.931,44.509 143.142,44.268 142.017 C 44.173 141.574,44.003 141.096,43.890 140.955 C 43.776 140.813,43.576 139.842,43.444 138.795 C 43.312 137.749,43.098 136.407,42.968 135.813 C 42.654 134.373,42.652 101.990,42.966 100.540 C 43.095 99.946,43.301 98.755,43.423 97.893 C 43.545 97.032,43.812 96.006,44.016 95.614 C 44.221 95.222,44.389 94.680,44.390 94.409 C 44.390 94.139,44.512 93.797,44.659 93.649 C 44.958 93.350,45.446 92.537,45.815 91.722 C 45.949 91.425,46.170 91.182,46.305 91.182 C 46.440 91.182,46.551 91.042,46.551 90.871 C 46.551 90.038,51.140 85.663,52.014 85.663 C 52.144 85.663,52.385 85.501,52.549 85.303 C 52.714 85.105,53.096 84.943,53.399 84.943 C 53.701 84.943,53.985 84.857,54.029 84.752 C 54.182 84.388,56.160 83.507,57.171 83.353 C 57.731 83.268,58.340 83.078,58.525 82.931 C 59.220 82.379,86.211 82.053,91.782 82.530 M102.544 119.890 C 100.517 120.333,99.131 124.527,100.646 125.634 C 101.024 125.911,101.125 126.413,101.260 128.670 C 101.446 131.783,101.720 132.535,102.783 132.854 C 104.884 133.485,105.750 132.307,105.874 128.648 C 105.936 126.795,106.050 126.092,106.318 125.888 C 107.429 125.044,107.351 121.846,106.196 120.880 C 105.922 120.652,105.567 120.353,105.405 120.217 C 105.063 119.928,103.294 119.726,102.544 119.890 " stroke="none" fill="#04acd4" fill-rule="evenodd"></path><path id="path1" d="M62.268 83.018 C 59.730 83.282,56.102 84.205,54.772 84.924 C 54.539 85.050,53.863 85.382,53.269 85.662 C 49.371 87.501,45.642 92.130,44.375 96.702 C 42.721 102.668,42.729 133.277,44.386 140.132 C 45.630 145.281,48.983 149.176,53.629 150.872 C 54.025 151.017,54.943 151.360,55.669 151.634 C 63.462 154.582,103.261 154.305,107.019 151.277 C 107.217 151.117,107.648 150.905,107.978 150.805 C 110.642 149.998,114.509 146.134,116.135 142.656 C 117.626 139.465,117.845 138.256,118.547 129.334 C 118.818 125.889,118.891 116.690,118.659 115.284 C 117.425 107.814,113.940 103.455,107.618 101.475 C 106.250 101.046,105.000 101.023,82.460 101.022 C 61.075 101.020,58.660 100.981,57.920 100.630 C 55.850 99.648,55.447 97.054,57.117 95.465 L 58.086 94.544 80.573 94.482 L 103.059 94.421 103.139 93.723 C 103.580 89.859,99.035 84.969,93.581 83.440 C 91.681 82.907,66.579 82.569,62.268 83.018 M105.043 119.388 C 107.709 120.501,108.598 123.006,107.262 125.641 C 106.714 126.721,106.541 127.395,106.527 128.494 C 106.482 132.259,105.665 133.653,103.504 133.653 C 101.506 133.653,100.780 132.560,100.780 129.553 C 100.780 127.346,100.726 127.072,100.060 125.892 C 97.923 122.105,101.227 117.793,105.043 119.388 " stroke="none" fill="#f9fbfb" fill-rule="evenodd"></path><path id="path2" d="M81.824 49.310 C 81.824 49.539,82.054 49.670,82.453 49.670 C 82.985 49.670,83.036 49.615,82.783 49.310 C 82.619 49.112,82.336 48.950,82.154 48.950 C 81.972 48.950,81.824 49.112,81.824 49.310 M60.948 52.430 C 60.703 52.724,60.720 52.789,61.038 52.789 C 61.253 52.789,61.428 52.627,61.428 52.430 C 61.428 52.232,61.387 52.070,61.337 52.070 C 61.287 52.070,61.112 52.232,60.948 52.430 M42.951 61.068 C 42.707 61.363,42.723 61.428,43.042 61.428 C 43.256 61.428,43.431 61.266,43.431 61.068 C 43.431 60.870,43.391 60.708,43.341 60.708 C 43.291 60.708,43.116 60.870,42.951 61.068 M180.771 90.572 C 180.497 90.764,179.555 90.995,178.678 91.085 C 177.573 91.198,177.085 91.348,177.085 91.575 C 177.085 91.788,176.793 91.902,176.245 91.902 C 175.658 91.902,175.405 92.010,175.405 92.262 C 175.405 92.501,175.165 92.621,174.685 92.621 C 174.205 92.621,173.965 92.741,173.965 92.981 C 173.965 93.179,173.758 93.341,173.505 93.341 C 172.790 93.341,172.286 93.600,172.286 93.967 C 172.286 94.151,172.124 94.301,171.926 94.301 C 171.728 94.301,171.566 94.463,171.566 94.661 C 171.566 94.859,171.400 95.021,171.198 95.021 C 170.996 95.021,170.769 95.183,170.693 95.381 C 170.617 95.579,170.453 95.741,170.328 95.741 C 170.007 95.741,168.449 97.480,168.447 97.840 C 168.447 98.005,168.311 98.142,168.146 98.145 C 167.695 98.151,166.864 99.134,166.680 99.880 C 166.591 100.243,166.412 100.540,166.282 100.540 C 166.153 100.540,166.047 100.710,166.047 100.917 C 166.047 101.124,165.885 101.456,165.687 101.654 C 165.489 101.852,165.327 102.372,165.327 102.809 C 165.327 103.401,165.205 103.635,164.847 103.729 C 164.462 103.830,164.366 104.060,164.359 104.897 C 164.355 105.470,164.193 106.148,164.000 106.405 C 163.501 107.063,163.479 115.774,163.975 116.065 C 164.158 116.172,164.355 116.825,164.422 117.549 C 164.502 118.401,164.677 118.916,164.935 119.061 C 165.159 119.186,165.327 119.582,165.327 119.988 C 165.327 120.457,165.448 120.696,165.687 120.696 C 165.924 120.696,166.047 120.933,166.047 121.390 C 166.047 121.786,166.202 122.144,166.407 122.222 C 166.605 122.298,166.767 122.575,166.767 122.836 C 166.767 123.098,167.145 123.679,167.606 124.128 C 168.068 124.576,168.446 125.068,168.446 125.219 C 168.446 125.371,168.608 125.495,168.806 125.495 C 169.004 125.495,169.166 125.657,169.166 125.855 C 169.166 126.053,169.328 126.215,169.526 126.215 C 169.724 126.215,169.886 126.377,169.886 126.575 C 169.886 126.773,170.010 126.935,170.162 126.935 C 170.313 126.935,170.804 127.313,171.253 127.774 C 171.702 128.236,172.279 128.614,172.537 128.614 C 172.795 128.614,173.005 128.776,173.005 128.974 C 173.005 129.226,173.259 129.334,173.845 129.334 C 174.432 129.334,174.685 129.443,174.685 129.694 C 174.685 129.934,174.925 130.054,175.405 130.054 C 175.875 130.054,176.125 130.175,176.125 130.403 C 176.125 130.611,176.458 130.815,176.948 130.907 C 177.401 130.991,177.829 131.212,177.900 131.397 C 177.994 131.640,178.484 131.734,179.669 131.734 C 180.595 131.734,181.429 131.855,181.587 132.013 C 182.068 132.494,185.562 132.580,186.020 132.122 C 186.303 131.839,186.860 131.734,188.076 131.734 C 189.232 131.734,189.831 131.628,190.029 131.389 C 190.186 131.200,190.632 130.975,191.018 130.890 C 191.405 130.805,191.722 130.582,191.722 130.395 C 191.722 130.165,191.996 130.054,192.561 130.054 C 193.148 130.054,193.401 129.945,193.401 129.694 C 193.401 129.496,193.563 129.334,193.761 129.334 C 194.044 129.334,194.121 129.668,194.121 130.901 C 194.121 132.073,194.030 132.503,193.761 132.607 C 193.556 132.685,193.401 133.043,193.401 133.439 C 193.401 133.896,193.278 134.133,193.041 134.133 C 192.843 134.133,192.681 134.295,192.681 134.493 C 192.681 134.691,192.519 134.853,192.322 134.853 C 192.124 134.853,191.962 135.015,191.962 135.213 C 191.962 135.411,191.842 135.573,191.695 135.573 C 191.327 135.573,190.291 136.587,190.286 136.953 C 190.284 137.125,189.976 137.253,189.562 137.253 C 189.106 137.253,188.842 137.375,188.842 137.587 C 188.842 137.793,188.494 137.969,187.942 138.043 C 187.448 138.109,186.315 138.304,185.427 138.476 C 184.119 138.729,183.569 138.731,182.547 138.487 C 181.852 138.321,180.937 138.126,180.512 138.054 C 180.088 137.981,179.616 137.771,179.463 137.587 C 179.310 137.403,179.037 137.253,178.855 137.253 C 178.673 137.253,178.524 137.091,178.524 136.893 C 178.524 136.695,178.426 136.533,178.306 136.533 C 177.788 136.533,176.125 135.214,176.125 134.803 C 176.125 134.558,175.963 134.296,175.765 134.220 C 175.567 134.144,175.403 133.958,175.401 133.808 C 175.385 132.750,173.556 132.143,172.765 132.933 C 172.501 133.197,172.124 133.413,171.926 133.413 C 171.728 133.413,171.566 133.575,171.566 133.773 C 171.566 133.971,171.415 134.133,171.231 134.133 C 171.048 134.133,170.835 134.295,170.759 134.493 C 170.683 134.691,170.456 134.853,170.253 134.853 C 170.051 134.853,169.886 135.015,169.886 135.213 C 169.886 135.411,169.681 135.573,169.430 135.573 C 169.180 135.573,168.423 136.113,167.750 136.773 C 167.076 137.433,166.417 137.972,166.286 137.972 C 166.154 137.972,166.047 138.134,166.047 138.332 C 166.047 138.530,165.885 138.692,165.687 138.692 C 165.416 138.692,165.327 138.983,165.327 139.866 C 165.327 140.689,165.435 141.082,165.687 141.179 C 165.885 141.255,166.047 141.539,166.047 141.812 C 166.047 142.084,166.209 142.369,166.407 142.445 C 166.605 142.521,166.767 142.674,166.767 142.786 C 166.767 143.065,167.934 144.211,168.217 144.211 C 168.343 144.211,168.446 144.373,168.446 144.571 C 168.446 144.769,168.608 144.931,168.806 144.931 C 169.004 144.931,169.166 145.093,169.166 145.291 C 169.166 145.491,169.379 145.651,169.646 145.651 C 169.910 145.651,170.126 145.804,170.126 145.992 C 170.126 146.179,170.450 146.404,170.846 146.491 C 171.242 146.578,171.566 146.802,171.566 146.990 C 171.566 147.194,171.808 147.331,172.173 147.331 C 172.507 147.331,172.843 147.493,172.919 147.690 C 173.004 147.913,173.369 148.050,173.871 148.050 C 174.404 148.050,174.685 148.165,174.685 148.382 C 174.685 148.743,175.395 149.002,176.399 149.007 C 176.748 149.009,177.095 149.172,177.171 149.370 C 177.289 149.678,178.263 149.730,183.899 149.730 C 189.436 149.730,190.545 149.673,190.848 149.370 C 191.046 149.172,191.539 149.010,191.944 149.010 C 192.362 149.010,192.890 148.802,193.161 148.530 C 193.425 148.266,193.891 148.050,194.195 148.050 C 194.500 148.050,194.959 147.892,195.215 147.698 C 195.471 147.504,195.816 147.342,195.981 147.338 C 196.146 147.334,196.497 147.142,196.761 146.911 C 197.025 146.680,197.457 146.302,197.720 146.071 C 197.984 145.840,198.308 145.651,198.440 145.651 C 198.911 145.651,202.040 142.587,202.040 142.126 C 202.040 141.953,202.202 141.812,202.400 141.812 C 202.625 141.812,202.759 141.584,202.759 141.204 C 202.759 140.870,202.921 140.535,203.119 140.459 C 203.317 140.383,203.479 140.128,203.479 139.892 C 203.479 139.656,203.641 139.401,203.839 139.325 C 204.072 139.236,204.199 138.865,204.199 138.278 C 204.199 137.628,204.336 137.282,204.679 137.068 C 205.098 136.807,205.159 136.509,205.159 134.723 C 205.159 133.127,205.238 132.648,205.519 132.540 C 206.001 132.355,206.072 90.991,205.591 90.510 C 205.183 90.102,194.817 90.102,194.409 90.510 C 194.251 90.668,194.121 91.240,194.121 91.781 C 194.121 92.764,194.121 92.765,193.281 92.667 C 192.771 92.607,192.442 92.438,192.442 92.235 C 192.442 92.027,192.180 91.902,191.747 91.902 C 191.366 91.902,190.997 91.755,190.928 91.575 C 190.851 91.376,190.215 91.182,189.299 91.078 C 188.472 90.985,187.575 90.754,187.306 90.565 C 186.606 90.075,181.473 90.080,180.771 90.572 M225.572 90.561 C 225.417 90.748,224.762 90.973,224.115 91.062 C 223.469 91.151,222.813 91.376,222.658 91.563 C 222.503 91.749,222.063 91.902,221.679 91.902 C 221.280 91.902,220.922 92.056,220.843 92.262 C 220.767 92.460,220.508 92.621,220.267 92.621 C 220.027 92.621,219.688 92.762,219.513 92.935 C 219.339 93.107,219.007 93.320,218.776 93.407 C 218.545 93.495,218.356 93.732,218.356 93.934 C 218.356 94.167,218.134 94.301,217.749 94.301 C 217.415 94.301,217.079 94.463,217.003 94.661 C 216.927 94.859,216.711 95.021,216.523 95.021 C 216.336 95.021,216.120 95.183,216.044 95.381 C 215.968 95.579,215.755 95.741,215.571 95.741 C 215.387 95.741,215.237 95.891,215.237 96.075 C 215.237 96.259,215.075 96.472,214.877 96.547 C 214.679 96.623,214.517 96.851,214.517 97.053 C 214.517 97.255,214.355 97.421,214.157 97.421 C 213.959 97.421,213.797 97.570,213.797 97.752 C 213.797 97.935,213.581 98.141,213.317 98.210 C 213.027 98.286,212.837 98.537,212.837 98.845 C 212.837 99.126,212.675 99.417,212.478 99.493 C 212.280 99.569,212.118 99.836,212.118 100.086 C 212.118 100.335,211.956 100.540,211.758 100.540 C 211.518 100.540,211.398 100.780,211.398 101.260 C 211.398 101.720,211.275 101.980,211.059 101.980 C 210.851 101.980,210.658 102.346,210.560 102.926 C 210.472 103.446,210.247 103.999,210.059 104.155 C 209.858 104.322,209.718 104.875,209.718 105.505 C 209.718 106.134,209.570 106.721,209.358 106.933 C 209.068 107.223,208.998 108.039,208.998 111.132 C 208.998 114.225,209.068 115.041,209.358 115.331 C 209.590 115.563,209.718 116.156,209.718 116.994 C 209.718 117.953,209.807 118.296,210.055 118.296 C 210.278 118.296,210.449 118.703,210.558 119.496 C 210.667 120.289,210.837 120.696,211.060 120.696 C 211.261 120.696,211.398 120.941,211.398 121.303 C 211.398 121.637,211.560 121.973,211.758 122.049 C 211.956 122.125,212.118 122.391,212.118 122.641 C 212.118 122.891,212.271 123.095,212.458 123.095 C 212.646 123.095,212.870 123.419,212.957 123.815 C 213.044 124.211,213.269 124.535,213.456 124.535 C 213.644 124.535,213.797 124.639,213.797 124.765 C 213.797 125.077,215.582 126.935,215.882 126.935 C 216.014 126.935,216.318 127.151,216.557 127.415 C 216.796 127.678,217.136 127.894,217.314 127.894 C 217.491 127.894,217.636 128.056,217.636 128.254 C 217.636 128.452,217.785 128.614,217.967 128.614 C 218.149 128.614,218.432 128.776,218.596 128.974 C 218.761 129.172,219.152 129.334,219.465 129.334 C 219.813 129.334,220.036 129.475,220.036 129.694 C 220.036 129.945,220.289 130.054,220.876 130.054 C 221.338 130.054,221.716 130.164,221.716 130.299 C 221.716 130.434,222.013 130.675,222.376 130.834 C 222.738 130.993,223.122 131.261,223.227 131.429 C 223.340 131.607,223.904 131.734,224.590 131.734 C 225.311 131.734,225.899 131.872,226.120 132.094 C 226.417 132.390,227.347 132.454,231.399 132.454 C 235.452 132.454,236.382 132.390,236.678 132.094 C 236.894 131.878,237.481 131.734,238.143 131.734 C 238.882 131.734,239.291 131.620,239.380 131.388 C 239.453 131.198,239.827 130.974,240.212 130.889 C 240.597 130.805,240.912 130.582,240.912 130.395 C 240.912 130.165,241.186 130.054,241.752 130.054 C 242.338 130.054,242.591 129.945,242.591 129.694 C 242.591 129.454,242.831 129.334,243.311 129.334 C 243.791 129.334,244.031 129.214,244.031 128.974 C 244.031 128.776,244.193 128.614,244.391 128.614 C 244.589 128.614,244.967 128.398,245.231 128.134 C 245.495 127.870,245.873 127.654,246.071 127.654 C 246.269 127.654,246.431 127.493,246.431 127.295 C 246.431 127.097,246.593 126.935,246.791 126.935 C 246.989 126.935,247.151 126.773,247.151 126.575 C 247.151 126.377,247.270 126.215,247.417 126.215 C 247.785 126.215,248.821 125.201,248.826 124.835 C 248.828 124.670,248.992 124.535,249.190 124.535 C 249.388 124.535,249.550 124.373,249.550 124.175 C 249.550 123.977,249.771 123.572,250.041 123.275 C 250.311 122.978,250.689 122.564,250.881 122.355 C 251.073 122.146,251.230 121.687,251.230 121.336 C 251.230 120.927,251.360 120.696,251.590 120.696 C 251.841 120.696,251.950 120.443,251.950 119.856 C 251.950 119.269,252.058 119.016,252.310 119.016 C 252.584 119.016,252.669 118.716,252.669 117.750 C 252.669 116.768,252.781 116.388,253.164 116.060 C 253.861 115.463,253.795 106.708,253.089 106.193 C 252.794 105.977,252.669 105.556,252.669 104.773 C 252.669 103.943,252.578 103.659,252.310 103.659 C 252.061 103.659,251.950 103.409,251.950 102.849 C 251.950 102.403,251.788 101.904,251.590 101.740 C 251.392 101.575,251.230 101.238,251.230 100.990 C 251.230 100.743,251.076 100.540,250.889 100.540 C 250.701 100.540,250.479 100.225,250.394 99.840 C 250.310 99.455,250.085 99.081,249.895 99.008 C 249.705 98.935,249.550 98.710,249.550 98.508 C 249.550 98.306,249.388 98.140,249.190 98.140 C 248.992 98.140,248.830 97.978,248.830 97.780 C 248.830 97.582,248.681 97.421,248.498 97.421 C 248.316 97.421,248.110 97.205,248.041 96.941 C 247.972 96.677,247.743 96.461,247.533 96.461 C 247.323 96.461,247.151 96.299,247.151 96.101 C 247.151 95.903,246.989 95.741,246.791 95.741 C 246.593 95.741,246.431 95.579,246.431 95.381 C 246.431 95.183,246.265 95.021,246.063 95.021 C 245.861 95.021,245.634 94.859,245.558 94.661 C 245.482 94.463,245.216 94.301,244.967 94.301 C 244.719 94.301,244.380 94.085,244.215 93.821 C 244.051 93.557,243.791 93.341,243.639 93.341 C 243.487 93.341,243.301 93.179,243.225 92.981 C 243.144 92.771,242.784 92.621,242.359 92.621 C 241.872 92.621,241.632 92.502,241.632 92.262 C 241.632 92.025,241.395 91.902,240.937 91.902 C 240.556 91.902,240.187 91.755,240.118 91.575 C 240.049 91.395,239.459 91.178,238.798 91.091 C 238.141 91.003,237.471 90.772,237.308 90.577 C 236.882 90.063,225.998 90.048,225.572 90.561 M275.429 90.600 C 275.221 90.808,274.604 91.039,274.058 91.112 C 273.443 91.194,273.065 91.370,273.065 91.573 C 273.065 91.778,272.795 91.902,272.346 91.902 C 271.891 91.902,271.626 92.025,271.626 92.235 C 271.626 93.018,269.975 92.825,269.898 92.033 C 269.839 91.440,269.691 91.275,269.106 91.151 C 268.173 90.953,258.715 90.904,258.008 91.093 L 257.469 91.238 257.469 118.924 L 257.469 146.611 263.227 146.611 C 270.805 146.611,269.946 147.823,269.946 137.133 C 269.946 129.721,269.993 128.614,270.306 128.614 C 270.504 128.614,270.666 128.776,270.666 128.974 C 270.666 129.226,270.919 129.334,271.506 129.334 C 272.092 129.334,272.346 129.443,272.346 129.694 C 272.346 129.934,272.585 130.054,273.065 130.054 C 273.465 130.054,273.999 130.267,274.265 130.534 C 274.529 130.798,274.934 131.017,275.165 131.021 C 275.396 131.026,275.794 131.188,276.051 131.381 C 276.742 131.904,285.108 131.898,285.543 131.374 C 285.707 131.176,286.108 131.014,286.435 131.014 C 286.826 131.014,287.070 130.850,287.153 130.534 C 287.254 130.146,287.480 130.054,288.330 130.054 C 289.105 130.054,289.382 129.959,289.382 129.694 C 289.382 129.443,289.635 129.334,290.222 129.334 C 290.809 129.334,291.062 129.226,291.062 128.974 C 291.062 128.761,291.282 128.614,291.603 128.614 C 291.915 128.614,292.471 128.259,292.916 127.774 C 293.340 127.313,293.786 126.935,293.908 126.935 C 294.030 126.935,294.192 126.773,294.268 126.575 C 294.344 126.377,294.629 126.215,294.901 126.215 C 295.173 126.215,295.467 126.031,295.553 125.805 C 295.717 125.379,296.166 124.775,296.881 124.019 C 297.112 123.775,297.301 123.479,297.301 123.361 C 297.301 123.243,297.463 123.085,297.660 123.009 C 297.858 122.933,298.020 122.664,298.020 122.412 C 298.020 122.161,298.182 121.820,298.380 121.656 C 298.578 121.491,298.740 121.208,298.740 121.026 C 298.740 120.845,298.956 120.480,299.220 120.216 C 299.484 119.952,299.700 119.458,299.700 119.119 C 299.700 118.780,299.862 118.340,300.060 118.142 C 300.380 117.822,300.420 118.105,300.420 120.686 C 300.420 123.046,300.487 123.616,300.780 123.728 C 300.978 123.804,301.140 124.017,301.140 124.201 C 301.140 124.385,301.246 124.535,301.377 124.535 C 301.507 124.535,301.771 124.913,301.964 125.375 C 302.157 125.837,302.429 126.215,302.567 126.215 C 302.706 126.215,302.819 126.377,302.819 126.575 C 302.819 126.773,302.981 126.935,303.179 126.935 C 303.377 126.935,303.539 127.048,303.539 127.186 C 303.539 127.613,304.829 128.599,305.399 128.607 C 305.715 128.611,305.939 128.763,305.939 128.974 C 305.939 129.214,306.179 129.334,306.659 129.334 C 307.139 129.334,307.379 129.454,307.379 129.694 C 307.379 129.966,307.672 130.054,308.578 130.054 C 309.440 130.054,309.778 130.148,309.778 130.386 C 309.778 130.736,310.483 131.005,311.415 131.011 C 311.721 131.012,312.134 131.176,312.332 131.374 C 312.618 131.660,313.393 131.734,316.125 131.734 C 318.883 131.734,319.616 131.663,319.856 131.374 C 320.020 131.176,320.384 131.012,320.665 131.011 C 321.554 131.005,322.256 130.729,322.256 130.386 C 322.256 130.154,322.572 130.054,323.310 130.054 C 324.025 130.054,324.408 129.938,324.502 129.694 C 324.578 129.496,324.908 129.334,325.235 129.334 C 325.563 129.334,325.917 129.191,326.023 129.016 C 326.572 128.105,327.055 128.370,327.055 129.582 C 327.055 130.437,327.148 130.774,327.387 130.774 C 327.569 130.774,327.775 130.990,327.844 131.254 C 327.971 131.740,336.428 132.012,338.032 131.582 L 338.572 131.438 338.572 116.941 C 338.572 104.277,338.527 102.427,338.212 102.306 C 337.945 102.204,337.852 101.779,337.852 100.660 C 337.852 99.540,337.760 99.116,337.493 99.013 C 337.295 98.937,337.133 98.599,337.133 98.260 C 337.133 97.922,336.981 97.587,336.796 97.516 C 336.611 97.445,336.405 97.179,336.339 96.924 C 336.272 96.669,336.046 96.461,335.835 96.461 C 335.586 96.461,335.453 96.249,335.453 95.853 C 335.453 95.519,335.291 95.184,335.093 95.108 C 334.895 95.032,334.733 94.819,334.733 94.635 C 334.733 94.452,334.571 94.301,334.373 94.301 C 334.175 94.301,334.013 94.139,334.013 93.941 C 334.013 93.743,333.922 93.581,333.810 93.581 C 333.698 93.581,333.358 93.365,333.053 93.101 C 332.749 92.837,332.301 92.621,332.057 92.621 C 331.813 92.621,331.614 92.460,331.614 92.262 C 331.614 92.010,331.360 91.902,330.774 91.902 C 330.187 91.902,329.934 91.793,329.934 91.542 C 329.934 91.295,329.687 91.182,329.151 91.182 C 328.720 91.182,327.964 90.966,327.472 90.702 C 326.311 90.080,314.733 89.950,314.500 90.556 C 314.421 90.762,313.812 90.956,312.915 91.060 C 311.905 91.177,311.458 91.332,311.458 91.565 C 311.458 91.788,311.182 91.902,310.644 91.902 C 310.141 91.902,309.776 92.039,309.691 92.262 C 309.615 92.460,309.280 92.621,308.946 92.621 C 308.590 92.621,308.338 92.758,308.338 92.951 C 308.338 93.133,308.022 93.345,307.636 93.422 C 307.184 93.512,306.820 93.801,306.614 94.232 C 306.432 94.612,306.062 94.934,305.757 94.978 C 305.461 95.020,305.219 95.209,305.219 95.398 C 305.219 95.586,305.057 95.741,304.859 95.741 C 304.661 95.741,304.499 95.832,304.499 95.944 C 304.499 96.056,304.283 96.396,304.019 96.701 C 303.755 97.005,303.539 97.453,303.539 97.697 C 303.539 97.941,303.377 98.140,303.179 98.140 C 302.981 98.140,302.819 98.302,302.819 98.500 C 302.819 98.698,302.669 98.860,302.485 98.860 C 302.118 98.860,301.860 99.364,301.860 100.080 C 301.860 100.333,301.698 100.540,301.500 100.540 C 301.302 100.540,301.140 100.690,301.140 100.874 C 301.140 101.058,300.978 101.271,300.780 101.347 C 300.533 101.441,300.420 101.827,300.420 102.572 C 300.420 103.378,300.327 103.659,300.060 103.659 C 299.828 103.659,299.699 103.425,299.697 102.999 C 299.692 101.972,299.436 101.260,299.072 101.260 C 298.877 101.260,298.740 101.010,298.740 100.652 C 298.740 100.318,298.578 99.983,298.380 99.907 C 298.182 99.831,298.020 99.564,298.020 99.314 C 298.020 99.065,297.858 98.860,297.660 98.860 C 297.463 98.860,297.301 98.715,297.301 98.537 C 297.301 98.360,297.085 98.019,296.821 97.780 C 296.557 97.542,296.341 97.198,296.341 97.016 C 296.341 96.834,296.179 96.623,295.981 96.547 C 295.783 96.472,295.621 96.259,295.621 96.075 C 295.621 95.891,295.470 95.741,295.287 95.741 C 295.103 95.741,294.890 95.579,294.814 95.381 C 294.738 95.183,294.532 95.021,294.356 95.021 C 294.179 95.021,293.622 94.643,293.118 94.181 C 292.614 93.719,292.118 93.341,292.017 93.341 C 291.916 93.341,291.771 93.179,291.695 92.981 C 291.614 92.771,291.255 92.621,290.829 92.621 C 290.343 92.621,290.102 92.502,290.102 92.262 C 290.102 92.022,289.862 91.902,289.382 91.902 C 288.932 91.902,288.662 91.778,288.662 91.573 C 288.662 91.360,288.247 91.188,287.486 91.088 C 286.784 90.994,286.255 90.789,286.174 90.577 C 285.964 90.030,275.978 90.052,275.429 90.600 M338.731 90.568 C 338.509 91.147,338.848 92.621,339.204 92.621 C 339.409 92.621,339.532 92.892,339.532 93.341 C 339.532 93.821,339.652 94.061,339.892 94.061 C 340.133 94.061,340.252 94.302,340.252 94.789 C 340.252 95.214,340.401 95.573,340.612 95.654 C 340.817 95.733,340.972 96.091,340.972 96.486 C 340.972 96.934,341.096 97.181,341.321 97.181 C 341.530 97.181,341.733 97.518,341.827 98.020 C 341.918 98.501,342.127 98.860,342.318 98.860 C 342.529 98.860,342.651 99.126,342.651 99.580 C 342.651 100.060,342.771 100.300,343.011 100.300 C 343.261 100.300,343.371 100.550,343.371 101.114 C 343.371 101.616,343.509 101.981,343.731 102.066 C 343.929 102.142,344.091 102.463,344.091 102.780 C 344.091 103.096,344.307 103.629,344.571 103.965 C 344.835 104.300,345.051 104.750,345.051 104.964 C 345.051 105.179,345.213 105.416,345.411 105.492 C 345.617 105.571,345.771 105.930,345.771 106.332 C 345.771 106.734,345.924 107.093,346.131 107.172 C 346.329 107.248,346.491 107.494,346.491 107.718 C 346.491 107.943,346.649 108.336,346.843 108.592 C 347.037 108.849,347.199 109.248,347.203 109.480 C 347.207 109.713,347.427 110.088,347.690 110.314 C 347.957 110.541,348.170 111.021,348.170 111.391 C 348.170 111.824,348.297 112.058,348.530 112.058 C 348.782 112.058,348.890 112.311,348.890 112.897 C 348.890 113.484,348.999 113.737,349.250 113.737 C 349.448 113.737,349.610 113.899,349.610 114.097 C 349.610 114.295,349.772 114.457,349.970 114.457 C 350.212 114.457,350.330 114.700,350.330 115.199 C 350.330 115.740,350.460 115.976,350.810 116.067 C 351.144 116.155,351.290 116.395,351.290 116.855 C 351.290 117.220,351.452 117.652,351.650 117.816 C 351.848 117.981,352.010 118.359,352.010 118.656 C 352.010 118.954,352.172 119.332,352.370 119.496 C 352.567 119.660,352.729 120.160,352.729 120.605 C 352.729 121.166,352.840 121.416,353.089 121.416 C 353.332 121.416,353.449 121.658,353.449 122.158 C 353.449 122.699,353.580 122.934,353.929 123.026 C 354.264 123.113,354.409 123.353,354.409 123.818 C 354.409 124.188,354.569 124.545,354.769 124.622 C 354.979 124.703,355.129 125.062,355.129 125.487 C 355.129 125.974,355.248 126.215,355.489 126.215 C 355.761 126.215,355.849 126.508,355.849 127.415 C 355.849 128.321,355.761 128.614,355.489 128.614 C 355.248 128.614,355.129 128.855,355.129 129.342 C 355.129 129.767,354.979 130.126,354.769 130.207 C 354.564 130.286,354.409 130.644,354.409 131.039 C 354.409 131.473,354.284 131.734,354.075 131.734 C 353.708 131.734,353.449 132.238,353.449 132.953 C 353.449 133.206,353.287 133.413,353.089 133.413 C 352.852 133.413,352.729 133.650,352.729 134.108 C 352.729 134.503,352.575 134.861,352.370 134.940 C 352.159 135.021,352.010 135.380,352.010 135.805 C 352.010 136.292,351.890 136.533,351.650 136.533 C 351.384 136.533,351.290 136.810,351.290 137.584 C 351.290 138.434,351.198 138.660,350.810 138.762 C 350.460 138.853,350.330 139.089,350.330 139.630 C 350.330 140.129,350.212 140.372,349.970 140.372 C 349.772 140.372,349.610 140.534,349.610 140.732 C 349.610 140.930,349.448 141.092,349.250 141.092 C 348.999 141.092,348.890 141.345,348.890 141.932 C 348.890 142.518,348.782 142.771,348.530 142.771 C 348.294 142.771,348.170 143.008,348.170 143.462 C 348.170 143.842,348.020 144.277,347.837 144.429 C 347.341 144.841,347.219 145.865,347.618 146.264 C 347.901 146.547,349.011 146.610,353.646 146.607 C 360.029 146.604,360.306 146.568,360.519 145.719 C 360.603 145.386,360.828 144.956,361.020 144.765 C 361.211 144.573,361.368 144.166,361.368 143.860 C 361.368 143.553,361.530 143.241,361.728 143.165 C 361.926 143.089,362.088 142.765,362.088 142.445 C 362.088 142.125,362.250 141.801,362.448 141.725 C 362.692 141.631,362.807 141.248,362.807 140.527 C 362.807 139.670,362.899 139.444,363.287 139.343 C 363.605 139.260,363.767 139.015,363.767 138.620 C 363.767 138.292,363.929 137.962,364.127 137.886 C 364.338 137.805,364.487 137.445,364.487 137.020 C 364.487 136.534,364.606 136.293,364.847 136.293 C 365.087 136.293,365.207 136.053,365.207 135.573 C 365.207 135.093,365.327 134.853,365.567 134.853 C 365.818 134.853,365.927 134.600,365.927 134.013 C 365.927 133.421,366.035 133.173,366.293 133.173 C 366.506 133.173,366.718 132.879,366.800 132.469 C 366.877 132.081,367.090 131.707,367.273 131.637 C 367.457 131.566,367.606 131.193,367.606 130.807 C 367.606 130.405,367.760 130.046,367.966 129.967 C 368.177 129.886,368.326 129.527,368.326 129.102 C 368.326 128.615,368.445 128.374,368.686 128.374 C 368.920 128.374,369.046 128.140,369.046 127.708 C 369.046 127.338,369.260 126.858,369.526 126.630 C 369.790 126.404,370.006 125.962,370.006 125.647 C 370.006 125.332,370.168 124.939,370.366 124.775 C 370.564 124.611,370.726 124.339,370.726 124.171 C 370.726 124.004,370.888 123.804,371.086 123.728 C 371.284 123.652,371.446 123.314,371.446 122.975 C 371.446 122.637,371.608 122.298,371.806 122.222 C 372.011 122.144,372.166 121.786,372.166 121.390 C 372.166 120.950,372.290 120.696,372.506 120.696 C 372.695 120.696,372.923 120.353,373.016 119.930 C 373.108 119.508,373.333 119.015,373.515 118.833 C 373.696 118.651,373.845 118.307,373.845 118.069 C 373.845 117.830,374.007 117.501,374.205 117.337 C 374.403 117.172,374.565 116.781,374.565 116.467 C 374.565 116.120,374.706 115.897,374.925 115.897 C 375.149 115.897,375.285 115.670,375.285 115.297 C 375.285 114.967,375.501 114.481,375.765 114.217 C 376.029 113.953,376.248 113.548,376.252 113.317 C 376.257 113.086,376.419 112.688,376.612 112.432 C 376.806 112.175,376.965 111.817,376.965 111.635 C 376.965 111.452,377.127 111.141,377.325 110.944 C 377.522 110.746,377.684 110.389,377.684 110.150 C 377.684 109.912,377.846 109.582,378.044 109.418 C 378.242 109.254,378.404 108.767,378.404 108.337 C 378.404 107.756,378.528 107.522,378.884 107.429 C 379.234 107.338,379.364 107.102,379.364 106.561 C 379.364 106.061,379.482 105.819,379.724 105.819 C 379.961 105.819,380.084 105.582,380.084 105.125 C 380.084 104.729,380.239 104.371,380.444 104.292 C 380.654 104.212,380.804 103.852,380.804 103.427 C 380.804 102.940,380.923 102.699,381.164 102.699 C 381.388 102.699,381.524 102.473,381.524 102.100 C 381.524 101.770,381.740 101.284,382.004 101.020 C 382.268 100.756,382.484 100.335,382.484 100.086 C 382.484 99.836,382.645 99.569,382.843 99.493 C 383.070 99.406,383.203 99.039,383.203 98.500 C 383.203 97.962,383.337 97.594,383.563 97.507 C 383.782 97.423,383.923 97.060,383.923 96.583 C 383.923 95.999,384.046 95.765,384.403 95.671 C 384.721 95.588,384.883 95.344,384.883 94.949 C 384.883 94.621,385.045 94.290,385.243 94.214 C 385.453 94.134,385.603 93.774,385.603 93.349 C 385.603 92.862,385.722 92.621,385.963 92.621 C 386.235 92.621,386.323 92.328,386.323 91.422 L 386.323 90.222 380.084 90.222 C 374.123 90.222,373.845 90.242,373.845 90.676 C 373.845 90.926,373.683 91.193,373.485 91.269 C 373.287 91.345,373.125 91.675,373.125 92.002 C 373.125 92.330,372.956 92.693,372.748 92.809 C 372.541 92.925,372.310 93.470,372.237 94.020 C 372.153 94.642,371.978 95.021,371.774 95.021 C 371.569 95.021,371.446 95.292,371.446 95.741 C 371.446 96.221,371.326 96.461,371.086 96.461 C 370.834 96.461,370.726 96.714,370.726 97.301 C 370.726 97.887,370.617 98.140,370.366 98.140 C 370.126 98.140,370.006 98.380,370.006 98.860 C 370.006 99.316,369.883 99.580,369.672 99.580 C 369.305 99.580,369.046 100.084,369.046 100.799 C 369.046 101.053,368.884 101.260,368.686 101.260 C 368.445 101.260,368.326 101.501,368.326 101.987 C 368.326 102.412,368.177 102.772,367.966 102.853 C 367.761 102.931,367.606 103.289,367.606 103.685 C 367.606 104.142,367.484 104.379,367.247 104.379 C 367.007 104.379,366.887 104.619,366.887 105.099 C 366.887 105.499,366.673 106.032,366.407 106.299 C 366.143 106.563,365.927 106.995,365.927 107.259 C 365.927 107.522,365.829 107.738,365.710 107.738 C 365.591 107.738,365.381 108.062,365.243 108.458 C 365.105 108.854,364.878 109.178,364.740 109.178 C 364.601 109.178,364.487 109.502,364.487 109.898 C 364.487 110.378,364.367 110.618,364.127 110.618 C 363.876 110.618,363.767 110.871,363.767 111.458 C 363.767 112.023,363.656 112.298,363.426 112.298 C 363.239 112.298,363.014 112.621,362.927 113.017 C 362.686 114.118,362.088 113.942,362.088 112.770 C 362.088 112.131,361.965 111.756,361.728 111.664 C 361.530 111.588,361.368 111.376,361.368 111.191 C 361.368 111.007,361.152 110.453,360.888 109.961 C 360.624 109.468,360.408 108.940,360.408 108.787 C 360.408 108.635,360.246 108.447,360.048 108.372 C 359.838 108.291,359.688 107.931,359.688 107.506 C 359.688 107.019,359.569 106.779,359.328 106.779 C 359.109 106.779,358.968 106.555,358.968 106.208 C 358.968 105.894,358.806 105.503,358.608 105.339 C 358.410 105.175,358.248 104.845,358.248 104.607 C 358.248 104.368,358.100 104.025,357.918 103.843 C 357.736 103.661,357.510 103.160,357.415 102.730 C 357.321 102.299,357.092 101.889,356.906 101.818 C 356.720 101.747,356.569 101.443,356.569 101.143 C 356.569 100.844,356.407 100.464,356.209 100.300 C 356.011 100.136,355.849 99.798,355.849 99.551 C 355.849 99.303,355.633 98.884,355.369 98.620 C 355.105 98.356,354.889 97.978,354.889 97.780 C 354.889 97.582,354.790 97.421,354.668 97.421 C 354.547 97.421,354.374 97.089,354.286 96.684 C 354.197 96.280,353.972 95.890,353.787 95.819 C 353.601 95.748,353.449 95.377,353.449 94.995 C 353.449 94.538,353.326 94.301,353.089 94.301 C 352.838 94.301,352.729 94.048,352.729 93.461 C 352.729 92.875,352.621 92.621,352.370 92.621 C 352.130 92.621,352.010 92.382,352.010 91.902 C 352.010 91.449,351.887 91.182,351.678 91.182 C 351.495 91.182,351.289 90.966,351.220 90.702 C 351.054 90.066,338.973 89.937,338.731 90.568 M322.884 99.928 C 322.959 100.124,323.503 100.350,324.119 100.442 C 325.411 100.636,326.430 101.540,326.194 102.284 C 325.991 102.925,325.333 103.659,324.962 103.659 C 324.793 103.659,324.655 103.821,324.655 104.019 C 324.655 104.257,324.417 104.379,323.955 104.379 C 323.570 104.379,323.214 104.504,323.163 104.656 C 323.024 105.073,320.615 105.785,319.284 105.803 C 318.172 105.818,316.711 106.118,315.657 106.547 C 315.393 106.655,314.490 106.796,313.650 106.860 C 312.809 106.925,312.005 107.095,311.862 107.238 C 311.719 107.381,311.203 107.499,310.716 107.499 C 310.149 107.499,309.780 107.628,309.691 107.858 C 309.606 108.081,309.241 108.218,308.735 108.218 C 308.285 108.218,307.789 108.373,307.631 108.563 C 307.474 108.752,307.029 108.977,306.642 109.062 C 306.255 109.147,305.939 109.370,305.939 109.557 C 305.939 109.773,305.684 109.898,305.245 109.898 C 304.849 109.898,304.491 110.053,304.412 110.258 C 304.336 110.456,304.109 110.618,303.907 110.618 C 303.705 110.618,303.539 110.780,303.539 110.978 C 303.539 111.176,303.377 111.338,303.179 111.338 C 302.979 111.338,302.819 111.551,302.819 111.818 C 302.819 112.082,302.668 112.298,302.483 112.298 C 302.298 112.298,302.034 112.621,301.896 113.017 C 301.358 114.559,301.140 113.762,301.140 110.258 C 301.140 107.325,301.083 106.779,300.780 106.779 C 300.508 106.779,300.420 106.485,300.420 105.579 L 300.420 104.379 301.620 104.379 C 302.526 104.379,302.819 104.467,302.819 104.739 C 302.819 105.021,303.150 105.099,304.353 105.099 C 305.496 105.099,305.923 105.191,306.026 105.459 C 306.129 105.728,306.558 105.819,307.717 105.819 C 308.571 105.819,309.337 105.927,309.418 106.059 C 309.897 106.834,311.218 106.095,311.218 105.051 C 311.218 104.608,311.343 104.379,311.585 104.379 C 311.787 104.379,312.024 104.190,312.111 103.959 C 312.306 103.444,313.778 101.980,314.102 101.980 C 314.231 101.980,314.337 101.818,314.337 101.620 C 314.337 101.401,314.560 101.260,314.908 101.260 C 315.221 101.260,315.603 101.110,315.755 100.927 C 315.907 100.743,316.628 100.519,317.359 100.428 C 318.160 100.327,318.738 100.127,318.817 99.921 C 319.007 99.426,322.694 99.432,322.884 99.928 M187.796 101.620 C 187.881 101.842,188.246 101.980,188.748 101.980 C 189.312 101.980,189.562 102.090,189.562 102.340 C 189.562 102.579,189.802 102.699,190.282 102.699 C 190.678 102.699,191.002 102.819,191.002 102.966 C 191.002 103.334,192.016 104.370,192.382 104.375 C 192.546 104.377,192.681 104.541,192.681 104.739 C 192.681 104.937,192.843 105.099,193.041 105.099 C 193.281 105.099,193.401 105.339,193.401 105.819 C 193.401 106.299,193.521 106.539,193.761 106.539 C 194.069 106.539,194.121 107.203,194.121 111.081 C 194.121 114.798,194.056 115.688,193.761 115.983 C 193.563 116.180,193.401 116.462,193.401 116.607 C 193.401 116.753,193.239 116.934,193.041 117.010 C 192.836 117.089,192.681 117.446,192.681 117.842 C 192.681 118.376,192.571 118.536,192.202 118.536 C 191.935 118.536,191.722 118.696,191.722 118.896 C 191.722 119.094,191.519 119.256,191.271 119.256 C 191.023 119.256,190.692 119.411,190.535 119.601 C 190.377 119.790,189.932 120.015,189.546 120.100 C 189.159 120.185,188.842 120.353,188.842 120.475 C 188.842 120.596,188.535 120.696,188.160 120.696 C 187.782 120.696,187.283 120.910,187.043 121.176 C 186.680 121.576,186.304 121.656,184.763 121.656 C 183.223 121.656,182.846 121.576,182.484 121.176 C 182.245 120.912,181.793 120.696,181.479 120.696 C 181.165 120.696,180.847 120.534,180.771 120.336 C 180.692 120.131,180.334 119.976,179.938 119.976 C 179.481 119.976,179.244 119.853,179.244 119.616 C 179.244 119.418,179.141 119.256,179.014 119.256 C 178.680 119.256,176.845 117.461,176.845 117.134 C 176.845 116.981,176.683 116.857,176.485 116.857 C 176.245 116.857,176.125 116.617,176.125 116.137 C 176.125 115.657,176.005 115.417,175.765 115.417 C 175.517 115.417,175.405 115.169,175.405 114.623 C 175.405 114.186,175.246 113.619,175.053 113.363 C 174.549 112.697,174.543 109.218,175.045 109.025 C 175.289 108.931,175.405 108.548,175.405 107.833 C 175.405 107.056,175.500 106.779,175.765 106.779 C 175.965 106.779,176.125 106.565,176.125 106.299 C 176.125 106.032,176.285 105.819,176.485 105.819 C 176.725 105.819,176.845 105.579,176.845 105.099 C 176.845 104.539,176.951 104.379,177.325 104.379 C 177.591 104.379,177.804 104.219,177.804 104.019 C 177.804 103.821,177.965 103.659,178.162 103.659 C 178.359 103.659,178.655 103.443,178.820 103.179 C 178.985 102.915,179.310 102.699,179.542 102.699 C 179.774 102.699,179.964 102.537,179.964 102.340 C 179.964 102.088,180.217 101.980,180.804 101.980 C 181.390 101.980,181.644 101.871,181.644 101.620 C 181.644 101.319,182.138 101.260,184.651 101.260 C 187.102 101.260,187.683 101.326,187.796 101.620 M281.790 101.620 C 281.866 101.818,282.205 101.980,282.543 101.980 C 282.882 101.980,283.221 102.142,283.297 102.340 C 283.373 102.537,283.612 102.701,283.829 102.702 C 284.271 102.706,286.263 104.462,286.263 104.849 C 286.263 104.987,286.479 105.099,286.743 105.099 C 287.116 105.099,287.223 105.259,287.223 105.819 C 287.223 106.299,287.343 106.539,287.582 106.539 C 287.834 106.539,287.942 106.792,287.942 107.379 C 287.942 107.965,288.051 108.218,288.302 108.218 C 288.598 108.218,288.662 108.642,288.662 110.592 C 288.662 112.481,288.589 112.994,288.302 113.104 C 288.056 113.199,287.942 113.584,287.942 114.330 C 287.942 115.136,287.849 115.417,287.582 115.417 C 287.343 115.417,287.223 115.657,287.223 116.137 C 287.223 116.697,287.116 116.857,286.743 116.857 C 286.476 116.857,286.263 117.017,286.263 117.217 C 286.263 117.415,286.112 117.576,285.928 117.576 C 285.745 117.576,285.531 117.740,285.455 117.940 C 285.378 118.140,285.043 118.407,284.709 118.534 C 284.376 118.661,284.103 118.875,284.103 119.010 C 284.103 119.145,283.938 119.256,283.736 119.256 C 283.534 119.256,283.306 119.418,283.230 119.616 C 283.153 119.818,282.795 119.976,282.415 119.976 C 282.043 119.976,281.576 120.138,281.378 120.336 C 281.109 120.605,280.446 120.696,278.751 120.696 C 277.028 120.696,276.412 120.609,276.185 120.336 C 276.020 120.138,275.521 119.976,275.076 119.976 C 274.630 119.976,274.265 119.870,274.265 119.741 C 274.265 119.611,273.995 119.437,273.665 119.355 C 273.335 119.272,273.065 119.054,273.065 118.870 C 273.065 118.687,272.903 118.536,272.705 118.536 C 272.507 118.536,272.346 118.364,272.346 118.154 C 272.346 117.944,272.130 117.715,271.866 117.646 C 271.602 117.577,271.386 117.371,271.386 117.189 C 271.386 117.006,271.224 116.857,271.026 116.857 C 270.786 116.857,270.666 116.617,270.666 116.137 C 270.666 115.657,270.546 115.417,270.306 115.417 C 269.999 115.417,269.946 114.752,269.946 110.875 C 269.946 107.158,270.011 106.268,270.306 105.973 C 270.504 105.775,270.666 105.497,270.666 105.356 C 270.666 105.215,270.828 105.099,271.026 105.099 C 271.224 105.099,271.386 104.991,271.386 104.859 C 271.386 104.547,273.233 102.699,273.545 102.699 C 273.677 102.699,273.785 102.537,273.785 102.340 C 273.785 102.099,274.026 101.980,274.513 101.980 C 274.938 101.980,275.297 101.830,275.378 101.620 C 275.491 101.326,276.078 101.260,278.584 101.260 C 281.090 101.260,281.678 101.326,281.790 101.620 M234.673 102.340 C 234.837 102.537,235.270 102.699,235.634 102.699 C 236.095 102.699,236.335 102.846,236.422 103.179 C 236.494 103.455,236.750 103.659,237.021 103.659 C 237.281 103.659,237.628 103.821,237.792 104.019 C 237.957 104.217,238.240 104.379,238.422 104.379 C 238.604 104.379,238.752 104.541,238.752 104.739 C 238.752 104.937,238.914 105.099,239.112 105.099 C 239.337 105.099,239.472 105.326,239.472 105.706 C 239.472 106.040,239.634 106.376,239.832 106.452 C 240.030 106.528,240.192 106.794,240.192 107.044 C 240.192 107.294,240.340 107.499,240.520 107.499 C 240.725 107.499,240.900 107.880,240.984 108.510 C 241.059 109.066,241.289 109.645,241.496 109.796 C 242.007 110.170,242.040 113.017,241.533 113.017 C 241.325 113.017,241.132 113.384,241.034 113.963 C 240.946 114.484,240.721 115.037,240.533 115.193 C 240.345 115.348,240.192 115.786,240.192 116.166 C 240.192 116.620,240.069 116.857,239.832 116.857 C 239.634 116.857,239.472 117.019,239.472 117.217 C 239.472 117.415,239.310 117.576,239.112 117.576 C 238.912 117.576,238.752 117.790,238.752 118.056 C 238.752 118.367,238.592 118.536,238.298 118.536 C 238.048 118.536,237.782 118.698,237.706 118.896 C 237.630 119.094,237.294 119.256,236.960 119.256 C 236.580 119.256,236.353 119.391,236.353 119.616 C 236.353 119.853,236.116 119.976,235.662 119.976 C 235.282 119.976,234.837 120.138,234.673 120.336 C 234.437 120.620,233.755 120.696,231.434 120.696 C 229.113 120.696,228.430 120.620,228.194 120.336 C 228.030 120.138,227.598 119.976,227.235 119.976 C 226.871 119.976,226.439 119.814,226.275 119.616 C 226.110 119.418,225.827 119.256,225.645 119.256 C 225.464 119.256,225.315 119.094,225.315 118.896 C 225.315 118.698,225.102 118.536,224.841 118.536 C 224.580 118.536,224.176 118.239,223.944 117.876 C 223.712 117.513,223.385 117.074,223.218 116.899 C 223.052 116.725,222.915 116.482,222.915 116.360 C 222.915 116.237,222.753 116.137,222.555 116.137 C 222.315 116.137,222.196 115.896,222.196 115.409 C 222.196 114.984,222.046 114.625,221.836 114.544 C 221.591 114.450,221.476 114.067,221.476 113.352 C 221.476 112.575,221.381 112.298,221.116 112.298 C 220.875 112.298,220.756 112.057,220.756 111.570 C 220.756 111.145,220.905 110.785,221.116 110.705 C 221.368 110.608,221.476 110.215,221.476 109.392 C 221.476 108.509,221.565 108.218,221.836 108.218 C 222.056 108.218,222.196 107.994,222.196 107.639 C 222.196 107.314,222.538 106.698,222.975 106.237 C 223.404 105.785,223.914 105.181,224.108 104.897 C 224.302 104.612,224.573 104.379,224.710 104.379 C 224.846 104.379,225.305 104.001,225.729 103.539 C 226.221 103.004,226.720 102.699,227.107 102.699 C 227.487 102.699,227.714 102.565,227.714 102.340 C 227.714 102.037,228.244 101.980,231.044 101.980 C 233.712 101.980,234.434 102.051,234.673 102.340 M327.055 114.217 C 327.055 115.083,326.961 115.417,326.720 115.417 C 326.374 115.417,326.095 115.914,326.095 116.533 C 326.095 116.730,325.933 117.053,325.735 117.251 C 325.537 117.449,325.375 117.819,325.375 118.074 C 325.375 118.328,325.213 118.536,325.015 118.536 C 324.817 118.536,324.652 118.671,324.649 118.836 C 324.643 119.125,323.086 119.976,322.563 119.976 C 322.422 119.976,322.245 120.138,322.169 120.336 C 322.078 120.573,321.702 120.696,321.065 120.696 C 320.360 120.696,320.019 120.825,319.800 121.176 C 319.414 121.794,315.084 121.907,314.590 121.311 C 314.433 121.122,314.013 120.903,313.657 120.825 C 312.076 120.477,310.916 118.838,311.698 118.056 C 311.962 117.792,312.178 117.415,312.178 117.217 C 312.178 116.991,312.405 116.857,312.785 116.857 C 313.119 116.857,313.455 116.695,313.531 116.497 C 313.636 116.223,314.083 116.137,315.405 116.137 C 316.837 116.137,317.218 116.053,317.576 115.657 C 317.948 115.246,318.316 115.177,320.133 115.177 C 321.860 115.177,322.256 115.110,322.256 114.817 C 322.256 114.550,322.536 114.457,323.343 114.457 C 324.088 114.457,324.474 114.344,324.568 114.097 C 324.653 113.876,325.017 113.737,325.511 113.737 C 325.954 113.737,326.455 113.579,326.625 113.386 C 327.059 112.894,327.055 112.886,327.055 114.217 M148.334 124.587 C 147.998 124.923,147.964 125.255,148.265 125.255 C 148.485 125.255,148.846 124.531,148.700 124.385 C 148.655 124.340,148.491 124.431,148.334 124.587 M13.920 127.180 C 14.218 127.736,14.397 127.789,14.397 127.320 C 14.397 127.136,14.233 126.923,14.032 126.846 C 13.733 126.731,13.713 126.793,13.920 127.180 M145.651 136.682 C 145.651 137.001,145.716 137.017,146.011 136.773 C 146.209 136.608,146.371 136.433,146.371 136.383 C 146.371 136.334,146.209 136.293,146.011 136.293 C 145.813 136.293,145.651 136.468,145.651 136.682 M142.531 146.040 C 142.531 146.359,142.597 146.375,142.891 146.131 C 143.089 145.966,143.251 145.791,143.251 145.741 C 143.251 145.692,143.089 145.651,142.891 145.651 C 142.693 145.651,142.531 145.826,142.531 146.040 M118.210 175.765 C 118.134 175.963,118.163 176.125,118.274 176.125 C 118.386 176.125,118.612 175.963,118.776 175.765 C 119.019 175.472,119.007 175.405,118.711 175.405 C 118.511 175.405,118.286 175.567,118.210 175.765 M97.291 185.019 C 97.204 185.160,97.190 185.332,97.261 185.403 C 97.432 185.575,97.900 185.272,97.900 184.989 C 97.900 184.682,97.486 184.703,97.291 185.019 M88.549 186.673 C 88.355 186.796,88.255 186.955,88.327 187.027 C 88.399 187.099,88.665 187.000,88.920 186.808 C 89.426 186.425,89.118 186.313,88.549 186.673 " stroke="none" fill="#0b0404" fill-rule="evenodd"></path><path id="path3" d="M44.125 60.288 C 43.843 60.825,43.844 60.825,44.356 60.371 C 44.928 59.863,44.980 59.748,44.640 59.748 C 44.512 59.748,44.281 59.991,44.125 60.288 M39.969 63.244 C 39.506 63.708,39.496 63.827,39.924 63.827 C 40.107 63.827,40.312 63.611,40.381 63.347 C 40.533 62.769,40.462 62.751,39.969 63.244 M61.165 82.523 C 59.898 82.600,58.710 82.784,58.525 82.931 C 58.340 83.078,57.731 83.268,57.171 83.353 C 56.160 83.507,54.182 84.388,54.029 84.752 C 53.985 84.857,53.701 84.943,53.399 84.943 C 53.096 84.943,52.714 85.105,52.549 85.303 C 52.385 85.501,52.144 85.663,52.014 85.663 C 51.140 85.663,46.551 90.038,46.551 90.871 C 46.551 91.042,46.440 91.182,46.305 91.182 C 46.170 91.182,45.949 91.425,45.815 91.722 C 45.446 92.537,44.958 93.350,44.659 93.649 C 44.512 93.797,44.390 94.139,44.390 94.409 C 44.389 94.680,44.221 95.222,44.016 95.614 C 43.812 96.006,43.545 97.032,43.423 97.893 C 43.301 98.755,43.095 99.946,42.966 100.540 C 42.652 101.990,42.654 134.373,42.968 135.813 C 43.098 136.407,43.312 137.749,43.444 138.795 C 43.576 139.842,43.776 140.813,43.890 140.955 C 44.003 141.096,44.173 141.574,44.268 142.017 C 44.509 143.142,45.328 144.931,45.602 144.931 C 45.728 144.931,45.831 145.043,45.831 145.181 C 45.831 145.842,48.804 149.116,49.910 149.672 C 50.240 149.837,50.942 150.238,51.470 150.561 C 51.998 150.884,52.605 151.154,52.820 151.159 C 53.035 151.165,53.345 151.332,53.509 151.530 C 53.674 151.728,54.021 151.890,54.282 151.890 C 54.542 151.890,55.042 152.046,55.392 152.237 C 55.742 152.428,56.623 152.693,57.349 152.824 C 58.074 152.956,59.154 153.173,59.748 153.306 C 60.342 153.439,61.638 153.555,62.627 153.563 C 63.617 153.571,65.399 153.737,66.587 153.932 C 69.097 154.345,93.025 154.432,95.141 154.036 C 95.801 153.913,97.648 153.714,99.247 153.595 C 103.270 153.294,106.863 152.427,107.997 151.485 C 108.206 151.311,108.490 151.170,108.629 151.170 C 109.578 151.170,114.440 147.034,115.119 145.651 C 115.583 144.705,115.992 144.107,116.317 143.899 C 116.482 143.794,116.617 143.576,116.617 143.416 C 116.617 143.255,116.833 142.721,117.097 142.229 C 117.361 141.736,117.576 141.129,117.576 140.880 C 117.576 140.631,117.738 140.117,117.935 139.739 C 118.132 139.361,118.294 138.723,118.295 138.320 C 118.296 137.918,118.420 137.465,118.571 137.314 C 118.742 137.142,118.920 135.341,119.043 132.527 C 119.151 130.045,119.347 127.205,119.477 126.215 C 119.842 123.455,119.784 117.722,119.372 115.777 C 119.176 114.853,119.016 113.659,119.016 113.123 C 119.016 112.588,118.858 111.940,118.664 111.684 C 118.470 111.427,118.308 111.076,118.304 110.903 C 118.291 110.359,116.548 106.977,116.215 106.849 C 116.040 106.782,115.897 106.631,115.897 106.513 C 115.897 106.309,115.431 105.726,114.517 104.788 C 113.679 103.928,113.332 103.659,113.057 103.659 C 112.903 103.659,112.777 103.562,112.777 103.443 C 112.777 103.120,110.329 101.556,109.520 101.362 C 109.134 101.269,108.692 101.095,108.538 100.974 C 107.856 100.439,102.611 100.308,81.612 100.304 C 59.010 100.300,57.349 100.242,57.349 99.452 C 57.349 99.291,57.187 99.025,56.989 98.860 C 56.114 98.134,56.884 95.953,58.176 95.495 C 58.683 95.315,65.616 95.242,80.672 95.256 C 106.098 95.281,104.809 95.410,103.779 92.944 C 103.581 92.471,103.419 91.830,103.419 91.520 C 103.419 90.929,102.578 89.127,102.049 88.585 C 101.879 88.411,101.740 88.178,101.740 88.068 C 101.740 87.621,98.880 84.943,98.402 84.943 C 98.126 84.943,97.900 84.846,97.900 84.727 C 97.900 84.473,96.324 83.504,95.907 83.502 C 95.750 83.501,95.297 83.328,94.901 83.117 C 93.535 82.391,70.103 81.978,61.165 82.523 M93.581 83.440 C 99.035 84.969,103.580 89.859,103.139 93.723 L 103.059 94.421 80.573 94.482 L 58.086 94.544 57.117 95.465 C 55.447 97.054,55.850 99.648,57.920 100.630 C 58.660 100.981,61.075 101.020,82.460 101.022 C 105.000 101.023,106.250 101.046,107.618 101.475 C 113.940 103.455,117.425 107.814,118.659 115.284 C 119.267 118.964,118.378 135.712,117.385 139.296 C 115.953 144.464,111.689 149.681,107.978 150.805 C 107.648 150.905,107.217 151.117,107.019 151.277 C 103.261 154.305,63.462 154.582,55.669 151.634 C 54.943 151.360,54.025 151.017,53.629 150.872 C 48.983 149.176,45.630 145.281,44.386 140.132 C 42.729 133.277,42.721 102.668,44.375 96.702 C 45.642 92.130,49.371 87.501,53.269 85.662 C 53.863 85.382,54.539 85.050,54.772 84.924 C 56.102 84.205,59.730 83.282,62.268 83.018 C 66.579 82.569,91.681 82.907,93.581 83.440 M101.980 119.418 C 99.428 120.519,98.601 123.307,100.060 125.892 C 100.726 127.072,100.780 127.346,100.780 129.553 C 100.780 132.560,101.506 133.653,103.504 133.653 C 105.665 133.653,106.482 132.259,106.527 128.494 C 106.541 127.395,106.714 126.721,107.262 125.641 C 109.188 121.841,105.750 117.791,101.980 119.418 M105.405 120.217 C 105.567 120.353,105.922 120.652,106.196 120.880 C 107.351 121.846,107.429 125.044,106.318 125.888 C 106.050 126.092,105.936 126.795,105.874 128.648 C 105.750 132.307,104.884 133.485,102.783 132.854 C 101.720 132.535,101.446 131.783,101.260 128.670 C 101.125 126.413,101.024 125.911,100.646 125.634 C 99.695 124.939,100.001 121.756,101.111 120.796 C 102.327 119.744,104.499 119.451,105.405 120.217 " stroke="none" fill="#2ebbde" fill-rule="evenodd"></path><path id="path4" d="M79.715 49.319 C 79.390 49.687,79.604 49.770,80.244 49.524 C 80.453 49.444,80.624 49.282,80.624 49.164 C 80.624 48.833,80.059 48.929,79.715 49.319 M81.104 49.164 C 81.104 49.282,81.266 49.441,81.464 49.517 C 81.683 49.601,81.824 49.517,81.824 49.303 C 81.824 49.109,81.662 48.950,81.464 48.950 C 81.266 48.950,81.104 49.047,81.104 49.164 M33.113 69.149 C 32.783 69.428,32.675 69.586,32.873 69.501 C 33.071 69.416,33.422 69.280,33.653 69.198 C 33.884 69.117,34.073 68.955,34.073 68.838 C 34.073 68.501,33.760 68.603,33.113 69.149 M138.852 153.729 C 138.623 153.959,138.655 154.289,138.907 154.289 C 139.024 154.289,139.183 154.127,139.259 153.929 C 139.399 153.563,139.144 153.438,138.852 153.729 " stroke="none" fill="#40a8d8" fill-rule="evenodd"></path></g></svg>