<svg width="60" height="36" viewBox="0 0 60 36" fill="none" xmlns="http://www.w3.org/2000/svg">
<path fill-rule="evenodd" clip-rule="evenodd" d="M2.07745 20.758C2.07745 19.9531 2.06327 19.2771 2.01929 18.674H3.55306L3.62584 19.7101H3.66853C4.01537 19.1632 4.65203 18.5154 5.83853 18.5154C6.76487 18.5154 7.48763 19.0341 7.79106 19.8092H7.82071C8.06655 19.4213 8.35509 19.1339 8.68774 18.9333C9.07828 18.6603 9.52798 18.5154 10.1056 18.5154C11.2776 18.5154 12.4631 19.3059 12.4631 21.55V25.674H10.7277V21.8074C10.7277 20.6441 10.3228 19.9531 9.4691 19.9531C8.86166 19.9531 8.41282 20.3847 8.22515 20.8881C8.18174 21.059 8.13833 21.276 8.13833 21.4761V25.674H6.40227V21.6195C6.40227 20.6441 6.01231 19.9531 5.18683 19.9531C4.52266 19.9531 4.07425 20.4708 3.91365 20.9591C3.84188 21.1314 3.81265 21.3332 3.81265 21.5336V25.674H2.07745V20.758Z" fill="#13549E"/>
<path fill-rule="evenodd" clip-rule="evenodd" d="M17.4894 22.2542C16.2304 22.225 15.0304 22.4978 15.0304 23.5613C15.0304 24.2511 15.4797 24.568 16.0432 24.568C16.7509 24.568 17.2725 24.1066 17.4315 23.6038C17.4744 23.474 17.4894 23.3314 17.4894 23.2164V22.2542ZM19.2259 23.9927C19.2259 24.6245 19.2545 25.242 19.3263 25.674H17.7205L17.6053 24.8984H17.5615C17.1271 25.4451 16.3894 25.8318 15.4797 25.8318C14.0613 25.8318 13.2659 24.8124 13.2659 23.748C13.2659 21.979 14.8412 21.0892 17.4466 21.1033V20.9884C17.4466 20.5284 17.2577 19.7664 16.0135 19.7664C15.3188 19.7664 14.5959 19.9824 14.1187 20.2837L13.7717 19.1339C14.2925 18.8172 15.2038 18.5154 16.3171 18.5154C18.5745 18.5154 19.2259 19.9396 19.2259 21.462V23.9927Z" fill="#13549E"/>
<path fill-rule="evenodd" clip-rule="evenodd" d="M20.455 20.758C20.455 19.9531 20.44 19.2771 20.3984 18.674H21.9591L22.0458 19.7246H22.0898C22.3934 19.1777 23.1603 18.5154 24.3317 18.5154C25.5618 18.5154 26.8339 19.3059 26.8339 21.5207V25.674H25.0552V21.7224C25.0552 20.7154 24.6783 19.9531 23.7097 19.9531C23.0017 19.9531 22.5086 20.4563 22.3213 20.9884C22.2636 21.1464 22.249 21.362 22.249 21.5624V25.674H20.455V20.758Z" fill="#13549E"/>
<path fill-rule="evenodd" clip-rule="evenodd" d="M32.7688 21.5916C32.7688 21.4487 32.7545 21.276 32.7248 21.1314C32.5658 20.443 32.0027 19.8818 31.1921 19.8818C30.0493 19.8818 29.412 20.8881 29.412 22.196C29.412 23.4741 30.0493 24.4092 31.1782 24.4092C31.8999 24.4092 32.5372 23.9202 32.7104 23.158C32.7545 23.0005 32.7688 22.8272 32.7688 22.6409V21.5916ZM34.5473 15.8623V23.7047C34.5473 24.4231 34.5772 25.2002 34.6053 25.6741H33.0151L32.9426 24.568H32.9131C32.4938 25.3438 31.6401 25.8318 30.6136 25.8318C28.9351 25.8318 27.6053 24.4092 27.6053 22.2543C27.5899 19.9106 29.0651 18.5154 30.7578 18.5154C31.7266 18.5154 32.4214 18.918 32.7393 19.4374H32.7688V15.8623H34.5473Z" fill="#13549E"/>
<path fill-rule="evenodd" clip-rule="evenodd" d="M35.8059 18.6738H37.6006V25.6739H35.8059V18.6738Z" fill="#13549E"/>
<path fill-rule="evenodd" clip-rule="evenodd" d="M38.8577 20.9312C38.8577 19.9824 38.8433 19.3058 38.8008 18.6739H40.3487L40.4053 20.0093H40.4642C40.8115 19.019 41.6351 18.6739 42.3891 18.6739C42.5616 18.6739 42.663 18.6452 42.8068 18.6739V20.2271C42.663 20.1981 42.5044 20.1694 42.2871 20.1694C41.4327 20.1694 40.854 20.7154 40.6954 21.5048C40.6674 21.6634 40.6377 21.8512 40.6377 22.0526V25.674H38.8577V20.9312Z" fill="#13549E"/>
<path fill-rule="evenodd" clip-rule="evenodd" d="M43.6328 18.6738H45.4252V25.6739H43.6328V18.6738Z" fill="#13549E"/>
<path fill-rule="evenodd" clip-rule="evenodd" d="M56.4468 11.1602C55.5592 10.1538 54.6149 10.6092 53.8651 10.9795C53.5498 11.1343 51.2719 12.4175 51.2719 12.4175C50.0239 12.9288 49.052 12.3708 48.6704 11.9012C48.631 11.8515 48.5969 11.8051 48.5711 11.7597L48.483 11.6069C48.3466 11.3779 48.183 11.119 47.9823 10.8637C47.8748 10.7252 47.7551 10.5869 47.6231 10.456C46.7697 9.59909 45.4046 8.99951 43.1232 10.0889C42.0436 10.7108 38.5248 12.7084 38.5248 12.7084C37.2035 13.2495 36.1913 12.5904 35.8634 12.1073C35.8489 12.0891 35.8345 12.0674 35.8252 12.0492L35.782 11.9759L35.5588 11.6139C35.4633 11.4643 35.3575 11.3104 35.2358 11.1526C35.1273 11.0148 35.0067 10.8775 34.8758 10.7454C34.0275 9.89389 32.6702 9.2956 30.4092 10.3642C29.0418 11.1397 25.8619 12.9467 25.8619 12.9467C25.8612 12.9477 25.8612 12.9477 25.8609 12.9477C24.5524 13.6908 23.5332 14.269 23.5332 14.269L24.7375 15.7384C25.244 16.2182 26.1969 17.0053 27.6706 16.3416C27.6706 16.3416 31.7379 14.0014 31.7538 13.9946C35.231 12.0983 36.9476 13.9102 37.7055 15.1177C37.7318 15.1553 37.7536 15.1964 37.777 15.233L37.7788 15.2347C37.7879 15.2494 37.7943 15.2631 37.8019 15.2769L37.8883 15.4165C38.257 15.9734 38.8408 16.3328 39.5354 16.3164C39.9186 16.3088 40.1786 16.1843 40.5574 15.9755L44.4927 13.7075C44.4951 13.7062 44.4971 13.7049 44.501 13.7039C48.0215 11.7847 49.7665 13.7151 50.5117 14.9227C50.5696 15.0272 50.636 15.1265 50.7029 15.2196C51.0718 15.7169 51.5809 16.0424 52.2272 16.0268C52.6538 16.0181 53.1326 15.7636 53.2034 15.7169L57.922 13.0114C57.922 13.0114 57.4394 12.2879 56.4468 11.1602Z" fill="#F5A623"/>
</svg>
