<svg width="160" height="160" viewBox="0 0 160 160" fill="none" xmlns="http://www.w3.org/2000/svg">
<path d="M156 80C156 38.0264 121.974 4 80 4C38.0264 4 4 38.0264 4 80C4 121.974 38.0264 156 80 156C121.974 156 156 121.974 156 80Z" fill="#11142C"/>
<path d="M22.4239 152.563L23.1503 139.923C23.2751 137.754 23.3983 135.55 22.9247 133.43C22.1695 130.042 19.9791 127.19 17.9647 124.355C15.0775 120.284 12.4586 116.029 10.1247 111.618C7.82708 107.266 5.75988 102.616 5.55668 97.6897C5.51188 96.6529 5.65108 95.4321 6.54388 94.9025C7.31668 94.4449 8.35828 94.7505 9.00948 95.3681C9.66068 95.9857 10.0159 96.8449 10.3567 97.6753C11.8207 101.229 13.5567 104.947 16.8095 106.995C14.7295 102.381 12.6287 97.6321 12.3791 92.5793C12.3455 91.8897 12.3535 91.1681 12.6607 90.5505C12.9679 89.9329 13.6575 89.4513 14.3327 89.6017C15.0079 89.7521 15.4079 90.4241 15.7311 91.0417L22.4847 103.842L18.5167 90.7569C18.3423 90.1841 18.1663 89.5857 18.2719 88.9969C18.3775 88.4081 18.6079 86.7841 20.0863 86.9297C21.3375 87.0529 21.6863 88.6305 22.0063 89.1697C24.4463 93.1697 25.7295 97.0241 28.1679 101.029C26.9213 97.5889 25.9811 94.0455 25.3583 90.4401C25.1215 89.0689 24.9519 87.5713 25.6431 86.3649C25.9375 85.8497 26.4223 85.4049 27.0111 85.3345C28.2911 85.1889 29.0175 86.7441 29.3583 87.9921C31.0768 94.2581 33.4493 100.326 36.4367 106.096C36.4895 104.771 36.9343 107.101 37.6719 102.813C37.7807 102.184 36.3007 96.6177 38.1055 95.4449C39.0335 94.8417 39.9679 96.1185 40.5135 97.0817C44.3743 103.899 47.8735 113.597 45.9359 121.562C45.3679 123.896 44.8271 124.17 44.3135 126.522C43.5551 129.994 44.7135 149.062 45.3295 152.563" fill="#FFB877"/>
<path d="M23.107 152.563L23.6046 143.923C23.6889 142.466 23.7726 141.008 23.8558 139.55C23.9579 138.188 23.9713 136.82 23.8958 135.456C23.7022 132.808 22.763 130.405 21.3886 128.152C20.0462 125.952 18.451 123.914 17.011 121.778C15.475 119.498 14.0222 117.166 12.6526 114.781C11.3134 112.45 10.0254 110.077 8.91342 107.627C7.83822 105.258 6.95822 102.779 6.51342 100.21C6.32942 99.1519 5.51182 94.5727 7.91982 95.4767C8.89742 95.8415 9.33262 96.9743 9.69902 97.8607C10.1486 98.9519 10.6094 100.037 11.139 101.096C12.1342 103.114 13.379 105.085 15.0974 106.566C15.5312 106.94 15.9911 107.282 16.4734 107.59C16.6045 107.665 16.7562 107.695 16.9058 107.675C17.0553 107.656 17.1944 107.589 17.3022 107.483C17.4049 107.374 17.4706 107.235 17.4898 107.086C17.5091 106.937 17.4809 106.786 17.4094 106.654C15.6014 102.63 13.7294 98.4799 13.1966 94.0543C13.1294 93.4895 13.0798 92.9215 13.0638 92.3535C13.0494 91.8735 13.0494 91.3663 13.2494 90.9231C13.387 90.6175 13.6878 90.2831 14.0494 90.2591C14.3534 90.2351 14.5966 90.4943 14.7614 90.7215C15.0383 91.1415 15.2843 91.5811 15.4974 92.0367L16.3422 93.6367L18.0622 96.8975L21.9022 104.189C22.2622 104.874 23.3774 104.405 23.1518 103.662L20.8366 96.0303L19.6798 92.2415C19.4862 91.6015 19.2846 90.9615 19.1006 90.3215C18.9481 89.887 18.902 89.4223 18.9662 88.9663C19.0128 88.6865 19.0873 88.4121 19.1886 88.1471C19.1438 88.2575 19.2222 88.0847 19.2382 88.0527C19.2732 87.9878 19.3116 87.9247 19.3534 87.8639C19.4071 87.7841 19.4796 87.7187 19.5646 87.6735C19.6485 87.6325 19.739 87.6065 19.8318 87.5967C19.9658 87.5858 20.1006 87.6038 20.227 87.6495C20.5262 87.7807 20.675 88.0047 20.8414 88.2895C21.0078 88.5743 21.1358 88.9007 21.2766 89.2111C21.4654 89.6319 21.7326 90.0111 21.9614 90.4159C22.5934 91.5231 23.171 92.6559 23.7214 93.8047C24.955 96.3519 26.1086 98.9375 27.579 101.363C27.9662 102.003 29.1006 101.589 28.8286 100.835C27.9009 98.2593 27.143 95.6253 26.5598 92.9503C26.283 91.6799 25.9774 90.3807 25.8766 89.0815C25.8014 88.1215 25.8366 86.7583 26.7374 86.1583C26.8664 86.0572 27.0255 86.0023 27.1894 86.0023C27.3533 86.0023 27.5124 86.0572 27.6414 86.1583C27.9262 86.3551 28.1678 86.7599 28.3422 87.1183C28.5349 87.5531 28.6875 88.0046 28.7982 88.4671C28.9838 89.1327 29.1758 89.7962 29.3742 90.4575C30.1486 93.0239 31.0329 95.5525 32.027 98.0431C33.1673 100.899 34.4425 103.694 35.8526 106.43C36.1806 107.07 37.099 106.725 37.1326 106.085C37.1414 106.017 37.1462 105.948 37.147 105.88C37.1614 106.102 37.1182 105.992 37.147 105.909C37.1918 105.794 37.0558 106.088 37.1102 105.997C37.0333 106.122 36.9149 106.216 36.7758 106.262C36.4414 106.352 36.7758 106.274 36.8814 106.251C36.9919 106.226 37.097 106.181 37.1918 106.118C37.5198 105.907 37.6846 105.541 37.8174 105.19C38.0372 104.556 38.1979 103.902 38.2974 103.238C38.4574 102.4 38.227 101.568 38.1086 100.734C38.0702 100.47 38.0606 100.402 38.0238 100.094C37.987 99.7871 37.955 99.4543 37.9342 99.1343C37.8902 98.5805 37.8902 98.0241 37.9342 97.4703C37.9342 97.4015 37.9454 97.3343 37.9534 97.2671C37.979 97.0495 37.9294 97.3983 37.9662 97.1871C37.987 97.0639 38.011 96.9391 38.043 96.8175C38.067 96.7215 38.0974 96.6271 38.1278 96.5327C38.1358 96.5071 38.2126 96.3343 38.1422 96.4847C38.1726 96.4191 38.2046 96.3551 38.2414 96.2927C38.2672 96.2469 38.2955 96.2026 38.3262 96.1599C38.419 96.0191 38.227 96.2559 38.3454 96.1391C38.3822 96.1023 38.5758 95.9519 38.427 96.0495C38.6318 95.9151 38.691 95.9263 38.9166 96.0879C39.5006 96.5039 39.851 97.2479 40.1886 97.8575C40.595 98.5903 40.9838 99.3327 41.355 100.085C42.9244 103.206 44.1353 106.494 44.9646 109.888C45.755 113.213 46.1326 116.738 45.5518 120.128C45.4138 120.959 45.2126 121.777 44.9502 122.578C44.739 123.21 44.4606 123.816 44.2238 124.438C43.8566 125.376 43.616 126.359 43.5086 127.36C43.3374 129.082 43.3678 130.829 43.3902 132.557C43.4238 134.949 43.515 137.341 43.6318 139.73C43.7486 142.118 43.8894 144.459 44.067 146.821C44.195 148.515 44.3246 150.216 44.547 151.902C44.5838 152.184 44.6222 152.464 44.6718 152.744C44.7342 153.109 45.1806 153.314 45.5118 153.224C45.685 153.173 45.8317 153.057 45.9212 152.9C46.0107 152.743 46.036 152.557 45.9918 152.382C45.9726 152.276 45.955 152.165 45.939 152.051C45.9294 151.987 45.9198 151.923 45.9118 151.859C45.9038 151.795 45.8894 151.677 45.9118 151.904C45.9118 151.856 45.899 151.806 45.8942 151.758C45.8505 151.421 45.8115 151.083 45.7774 150.744C45.683 149.854 45.6046 148.963 45.531 148.07C45.339 145.715 45.1886 143.357 45.0622 140.997C44.931 138.526 44.827 136.054 44.7742 133.581C44.7358 131.67 44.699 129.741 44.835 127.842C44.8446 127.694 44.8574 127.547 44.8702 127.4L44.8942 127.181C44.8942 127.146 44.8942 127.112 44.9054 127.077C44.9262 126.898 44.8814 127.211 44.9054 127.096C44.9952 126.587 45.1138 126.084 45.2606 125.589C45.4574 124.949 45.7278 124.331 45.9758 123.707C46.2787 122.939 46.5179 122.147 46.691 121.339C47.4606 117.819 47.2318 114.154 46.5118 110.645C45.7758 107.059 44.5054 103.589 42.9422 100.283C42.5774 99.5119 42.195 98.7498 41.795 97.9967C41.4389 97.2735 41.0286 96.5782 40.5678 95.9167C40.0878 95.2767 39.4334 94.5999 38.5678 94.6143C37.915 94.6239 37.3582 95.0783 37.043 95.6223C36.4798 96.5919 36.4798 97.8479 36.5406 98.9327C36.603 100.053 36.7902 101.157 36.9486 102.266L36.9678 102.403C36.939 102.197 36.9678 102.342 36.9678 102.387L36.987 102.563C36.9867 102.617 36.9893 102.67 36.995 102.723C36.995 102.723 36.995 102.782 36.995 102.784C37.0238 102.59 37.0222 102.584 36.995 102.763C36.9806 102.845 36.9662 102.923 36.9502 103.01C36.8476 103.648 36.6869 104.277 36.4702 104.886C36.5438 104.694 36.4446 104.926 36.4222 104.973C36.3486 105.122 36.3886 105.029 36.4222 104.992C36.3678 105.051 36.2798 105.088 36.4766 104.962C36.3534 105.042 36.6686 104.904 36.5406 104.939C36.4126 104.974 36.7406 104.939 36.6462 104.926C36.6062 104.917 36.3262 104.979 36.4174 104.955C36.274 104.989 36.1427 105.062 36.0382 105.166C35.7934 105.414 35.7646 105.771 35.7502 106.099L37.0302 105.754C34.3838 100.634 32.2244 95.2772 30.5806 89.7535C30.051 87.9679 29.4606 84.2239 26.7918 84.6927C25.467 84.9247 24.7278 86.3423 24.5518 87.5551C24.3502 88.9407 24.6462 90.3423 24.9054 91.6991C25.5249 94.9343 26.3991 98.1154 27.5198 101.213L28.7694 100.685C27.3598 98.3679 26.2398 95.9039 25.0718 93.4639C24.4846 92.2431 23.8766 91.0319 23.2078 89.8527C22.955 89.4047 22.6574 88.9759 22.4462 88.5071C22.3127 88.1782 22.1593 87.8576 21.987 87.5471C21.4702 86.6831 20.6222 86.1183 19.587 86.2671C18.6718 86.3951 18.1022 87.1087 17.8174 87.9391C17.5179 88.8318 17.5056 89.7959 17.7822 90.6959C18.1774 92.0671 18.6094 93.4271 19.0238 94.7919L21.8238 104.027L23.075 103.501L19.3598 96.4399L17.515 92.9423L16.5774 91.1647C16.3485 90.6877 16.0776 90.232 15.7678 89.8031C15.0654 88.9055 13.8702 88.5887 12.8878 89.2783C11.8478 90.0159 11.6398 91.2687 11.6878 92.4639C11.7854 94.8943 12.3278 97.2991 13.0734 99.6063C13.9358 102.254 15.0766 104.803 16.2174 107.341L17.1534 106.405C15.2334 105.178 13.8638 103.315 12.7918 101.334C12.2414 100.317 11.7598 99.2543 11.3086 98.1967C10.8382 97.0879 10.4558 95.8863 9.60462 94.9967C8.75342 94.1071 7.40142 93.6863 6.28142 94.2639C5.23502 94.8031 4.90702 96.0399 4.86862 97.1279C4.82222 98.4271 5.02862 99.7695 5.27822 101.042C5.5422 102.364 5.90263 103.666 6.35662 104.936C7.26382 107.496 8.46702 109.958 9.74862 112.358C11.0745 114.839 12.4894 117.269 13.9934 119.648C15.4574 121.966 17.0334 124.198 18.6142 126.44C20.0542 128.483 21.4638 130.627 22.1342 133.062C22.8814 135.808 22.5422 138.725 22.3806 141.525L21.8718 150.368L21.7454 152.563C21.6958 153.442 23.0638 153.438 23.1134 152.563H23.107Z" fill="#FFB877"/>
<path d="M44.5822 144.415C43.8478 144.784 43.1038 145.189 42.3118 145.207C41.8046 145.218 41.3102 145.067 40.8078 144.995C38.259 144.624 35.899 146.227 33.4478 147.037C30.4455 148.015 27.1832 147.809 24.3278 146.461C23.8478 146.229 23.3454 145.959 22.8094 145.981H22.7998C22.675 148.173 22.5491 150.366 22.4222 152.56H45.3294C45.1198 151.328 44.827 148.16 44.5822 144.415Z" fill="#F96632"/>
<path d="M44.2381 143.824C44.0637 143.91 43.8909 144 43.7165 144.085C43.6413 144.123 43.5565 144.158 43.4877 144.195L43.3549 144.254C43.3117 144.274 43.3117 144.274 43.3549 144.254L43.2877 144.282C43.1236 144.347 42.9559 144.403 42.7853 144.45C42.6941 144.472 42.6045 144.493 42.5117 144.509H42.5213C42.4525 144.517 42.3821 144.522 42.3133 144.523C42.1597 144.527 42.006 144.517 41.8541 144.493C41.6525 144.459 41.4541 144.416 41.2541 144.379C40.8534 144.302 40.4464 144.26 40.0381 144.256C38.5085 144.256 37.0717 144.824 35.6877 145.411L34.7421 145.814L34.6637 145.848L34.5341 145.901L34.3101 145.994C34.1277 146.067 33.9453 146.138 33.7613 146.206C33.0861 146.46 32.3902 146.653 31.6813 146.786L31.4109 146.832L31.2749 146.853C31.2557 146.853 31.1405 146.874 31.2509 146.853C31.0701 146.878 30.8861 146.896 30.7037 146.912C30.3373 146.944 29.9709 146.958 29.6029 146.958C29.2349 146.958 28.8685 146.939 28.5037 146.907C28.3437 146.891 28.1837 146.875 28.0237 146.854C28.1357 146.869 28.0237 146.854 28.0013 146.854L27.8653 146.834L27.5597 146.782C26.7577 146.636 25.9724 146.409 25.2157 146.106L25.0877 146.053L25.0285 146.027C24.9341 145.986 24.8413 145.944 24.7469 145.899C24.5549 145.81 24.3677 145.714 24.1725 145.629C23.7581 145.446 23.2765 145.253 22.8109 145.299C22.6311 145.305 22.4601 145.378 22.3331 145.506C22.206 145.633 22.1326 145.804 22.1277 145.984L21.7485 152.563C21.751 152.744 21.824 152.917 21.952 153.044C22.0799 153.172 22.2526 153.244 22.4333 153.246H42.5181C43.4397 153.246 44.3661 153.269 45.2893 153.246H45.3293C45.8093 153.246 46.0637 152.811 45.9885 152.381C45.9645 152.245 45.9437 152.11 45.9245 151.974C45.9245 151.933 45.9133 151.893 45.9069 151.853C45.8893 151.733 45.9277 152.013 45.9069 151.886L45.8685 151.587C45.8157 151.155 45.7709 150.722 45.7277 150.288C45.6109 149.122 45.5149 147.954 45.4285 146.784C45.3688 145.996 45.3155 145.206 45.2685 144.414C45.2445 144.058 44.9709 143.712 44.5837 143.73C44.2333 143.746 43.8749 144.032 43.9005 144.414C44.0605 146.779 44.2205 149.149 44.4973 151.502C44.5469 151.918 44.5997 152.333 44.6717 152.744L45.3309 151.878H25.2349C24.3133 151.878 23.3837 151.842 22.4637 151.878H22.4237L23.1069 152.563L23.4861 145.984L22.8013 146.667C22.8737 146.661 22.9465 146.661 23.0189 146.667C22.8989 146.656 23.1501 146.698 23.1789 146.706C23.2689 146.73 23.3576 146.76 23.4445 146.794C23.4445 146.794 23.5501 146.835 23.4925 146.811C23.4349 146.787 23.5917 146.856 23.6061 146.862C23.9757 147.035 24.3405 147.211 24.7181 147.368C25.3971 147.648 26.0996 147.867 26.8173 148.022C28.3247 148.346 29.8767 148.406 31.4045 148.2C32.1497 148.103 32.8845 147.938 33.5997 147.707C34.3373 147.466 35.0509 147.158 35.7629 146.853L36.2429 146.646L36.3709 146.592C36.2797 146.63 36.3885 146.592 36.3997 146.579L36.6893 146.461C37.0301 146.322 37.3725 146.189 37.7213 146.07C38.0627 145.954 38.4098 145.854 38.7613 145.773C38.9357 145.733 39.1101 145.706 39.2861 145.674C39.3661 145.658 39.2861 145.674 39.2685 145.674L39.3997 145.659C39.4989 145.648 39.5981 145.64 39.6989 145.634C39.8988 145.623 40.0991 145.623 40.2989 145.634C40.3997 145.634 40.5005 145.646 40.6013 145.656C40.7405 145.669 40.6525 145.656 40.6221 145.656C40.6845 145.656 40.7469 145.675 40.8093 145.686C41.2893 145.771 41.7693 145.896 42.2685 145.893C43.2285 145.893 44.0893 145.427 44.9229 145.006C45.0787 144.914 45.1918 144.764 45.2379 144.589C45.284 144.414 45.2594 144.228 45.1693 144.07C45.075 143.918 44.926 143.808 44.7528 143.762C44.5796 143.716 44.3954 143.738 44.2381 143.824Z" fill="#F96632"/>
<path d="M47.8209 149.717C47.6737 149.003 47.4017 148.155 46.6929 147.987C45.9553 147.813 44.6833 148.669 44.0209 149.035C42.3857 149.939 40.3697 148.891 38.5057 149.013C37.4625 149.08 36.4849 149.518 35.4913 149.845C33.5529 150.47 31.5063 150.689 29.4796 150.487C27.4528 150.286 25.4894 149.668 23.7121 148.674C22.6449 148.07 21.2833 147.333 20.3121 148.082C19.6433 148.597 19.5697 149.56 19.5537 150.405C19.5233 151.958 19.1329 154.446 19.1041 156.005H48.3985C48.3985 154.043 48.2305 151.68 47.8209 149.717Z" fill="#1574FF"/>
<path d="M48.4802 149.536C48.3522 148.931 48.1521 148.318 47.733 147.85C47.277 147.339 46.613 147.21 45.973 147.344C45.3954 147.469 44.853 147.771 44.341 148.061C44.1314 148.181 43.9234 148.307 43.7122 148.426C43.653 148.458 43.5938 148.49 43.533 148.518C43.517 148.518 43.3954 148.576 43.4706 148.547C43.5458 148.518 43.4402 148.557 43.4338 148.558C43.2771 148.613 43.1167 148.656 42.9538 148.686L42.8306 148.707C42.9618 148.694 42.8594 148.707 42.8306 148.707L42.6114 148.722C42.4514 148.722 42.2914 148.722 42.1314 148.722C41.9714 148.722 41.8114 148.698 41.6514 148.68L41.5538 148.667H41.5394L41.2434 148.622C40.5441 148.485 39.838 148.384 39.1282 148.32C38.3733 148.296 37.6201 148.405 36.9026 148.64C36.2162 148.851 35.549 149.12 34.8594 149.326C34.2129 149.516 33.5543 149.66 32.8882 149.76C32.749 149.779 32.8402 149.76 32.8706 149.76L32.7362 149.778L32.5026 149.803C32.325 149.822 32.1458 149.838 31.9666 149.85C31.6306 149.872 31.2946 149.883 30.9586 149.883C30.6226 149.883 30.286 149.872 29.949 149.85C29.781 149.838 29.613 149.824 29.4466 149.806L29.2114 149.781L29.0786 149.765C28.9554 149.75 29.2386 149.789 29.0258 149.765C28.3597 149.668 27.7007 149.528 27.053 149.346C26.733 149.253 26.413 149.15 26.093 149.037C25.933 148.979 25.773 148.92 25.613 148.858L25.3954 148.768C25.4946 148.81 25.2802 148.717 25.2498 148.704C24.6322 148.427 24.0546 148.083 23.4546 147.77C22.8146 147.435 22.1314 147.144 21.4002 147.098C21.0519 147.073 20.7027 147.131 20.3812 147.267C20.0597 147.404 19.7751 147.614 19.5506 147.882C18.7394 148.896 18.901 150.259 18.805 151.477C18.7058 152.725 18.5378 153.966 18.4498 155.214C18.4322 155.48 18.4178 155.746 18.4114 156.014C18.4139 156.195 18.4868 156.368 18.6147 156.496C18.7426 156.624 18.9153 156.697 19.0962 156.699H47.2002C47.581 156.699 47.9618 156.707 48.3426 156.699H48.3922C48.5727 156.696 48.7451 156.623 48.8726 156.495C49.0002 156.367 49.0729 156.195 49.0754 156.014C49.0953 153.84 48.8959 151.67 48.4802 149.536C48.4315 149.361 48.3158 149.213 48.1582 149.123C48.0005 149.033 47.8138 149.009 47.6386 149.056C47.4658 149.108 47.3196 149.224 47.2302 149.381C47.1409 149.537 47.1152 149.722 47.1586 149.898C47.261 150.395 47.3458 150.894 47.4162 151.398C47.4482 151.629 47.4002 151.266 47.4306 151.498C47.4386 151.57 47.4482 151.64 47.4562 151.712C47.4706 151.83 47.485 151.95 47.4978 152.069C47.5282 152.344 47.5554 152.621 47.5794 152.896C47.6658 153.927 47.7095 154.962 47.7106 155.998L48.3954 155.315H20.2962C19.9154 155.315 19.533 155.301 19.1522 155.315H19.1042L19.7874 155.998C19.813 154.829 19.9682 153.664 20.085 152.502C20.1426 151.931 20.197 151.36 20.2242 150.789C20.237 150.526 20.237 150.264 20.2514 150.003C20.2594 149.867 20.2722 149.733 20.2866 149.598C20.2706 149.758 20.2866 149.562 20.2994 149.523C20.3154 149.438 20.333 149.363 20.3554 149.272C20.3698 149.219 20.3858 149.165 20.4034 149.112C20.421 149.059 20.4274 149.042 20.4402 149.006C20.4402 149.03 20.3794 149.133 20.4402 149.019C20.4642 148.971 20.4882 148.922 20.517 148.875C20.5458 148.829 20.5554 148.814 20.5746 148.784C20.637 148.675 20.5266 148.824 20.5746 148.771C20.6226 148.718 20.6626 148.678 20.709 148.635C20.717 148.627 20.7874 148.57 20.7282 148.616C20.669 148.662 20.765 148.594 20.781 148.584C20.797 148.574 20.9874 148.478 20.853 148.533C20.924 148.504 20.9973 148.482 21.0722 148.466L21.1554 148.448C21.2546 148.426 21.0434 148.448 21.1442 148.448H21.3474C21.3794 148.448 21.5666 148.47 21.493 148.458C21.4194 148.445 21.5106 148.458 21.5218 148.458C21.5714 148.467 21.6226 148.477 21.6722 148.49C21.816 148.524 21.9576 148.567 22.0962 148.619C22.1682 148.645 22.2386 148.672 22.309 148.701C22.2018 148.656 22.4146 148.752 22.4466 148.766C23.0242 149.04 23.5666 149.382 24.1394 149.662C27.211 151.168 30.6957 151.612 34.0466 150.923C34.7036 150.793 35.3509 150.618 35.9842 150.4C36.6427 150.142 37.3178 149.928 38.005 149.76C38.0882 149.742 38.165 149.728 38.2546 149.714C38.2674 149.714 38.3874 149.698 38.2882 149.714L38.397 149.702C38.557 149.688 38.7314 149.683 38.8978 149.685C39.0642 149.686 39.2066 149.696 39.3602 149.709L39.5922 149.731L39.725 149.747C39.8386 149.76 39.629 149.733 39.7426 149.747C40.4306 149.85 41.1138 149.986 41.8066 150.054C42.4539 150.135 43.111 150.081 43.7362 149.894C44.2706 149.715 44.7346 149.4 45.2226 149.13C45.3378 149.066 45.4546 149.003 45.573 148.944L45.7506 148.858L45.853 148.811C45.9458 148.766 45.7026 148.869 45.8674 148.811C45.981 148.768 46.0962 148.726 46.2146 148.693C46.2626 148.68 46.3106 148.669 46.3586 148.659C46.3586 148.659 46.4498 148.638 46.4514 148.642C46.453 148.645 46.2754 148.651 46.4258 148.651C46.4752 148.657 46.5251 148.657 46.5746 148.651C46.5634 148.651 46.4338 148.614 46.4914 148.642C46.5209 148.654 46.5522 148.662 46.5842 148.666C46.6514 148.666 46.5538 148.65 46.5378 148.642C46.5682 148.658 46.597 148.67 46.6258 148.688C46.645 148.702 46.6654 148.715 46.6866 148.726C46.605 148.64 46.749 148.75 46.6866 148.726C46.7042 148.746 46.8322 148.872 46.7666 148.803C46.701 148.734 46.7666 148.803 46.7746 148.814C46.7826 148.826 46.8114 148.872 46.8306 148.901C46.861 148.954 46.8914 149.006 46.9186 149.061L46.9522 149.133C47.0258 149.293 46.9266 149.05 46.9522 149.144C47.0306 149.395 47.1122 149.64 47.1618 149.898C47.2104 150.072 47.3261 150.221 47.4837 150.311C47.6414 150.401 47.8281 150.425 48.0034 150.378C48.176 150.326 48.3219 150.209 48.4108 150.053C48.4996 149.896 48.5245 149.711 48.4802 149.536Z" fill="#1574FF"/>
<path d="M16.6193 108.122L16.7329 108.032L16.5953 108.137C16.9807 107.841 17.397 107.587 17.8369 107.381C17.9927 107.291 18.1074 107.144 18.1569 106.971C18.2035 106.793 18.1789 106.604 18.0881 106.445C17.9984 106.289 17.8515 106.174 17.6785 106.125L17.4977 106.101C17.3764 106.101 17.2572 106.133 17.1521 106.194C16.6174 106.454 16.1153 106.776 15.6561 107.154C15.5609 107.249 15.4961 107.371 15.4697 107.503C15.4434 107.635 15.4567 107.772 15.5079 107.897C15.5592 108.022 15.6462 108.129 15.7579 108.204C15.8697 108.28 16.0012 108.32 16.1361 108.322L16.3185 108.297C16.4328 108.266 16.5369 108.205 16.6209 108.122H16.6193Z" fill="#F96632"/>
<path d="M22.3298 105.253L23.0946 104.746C23.1724 104.704 23.2385 104.644 23.2866 104.57C23.3467 104.504 23.3886 104.424 23.4082 104.338C23.4371 104.249 23.4415 104.155 23.421 104.064C23.4179 103.973 23.3896 103.885 23.3394 103.81C23.2504 103.654 23.104 103.539 22.9314 103.49L22.749 103.464C22.6275 103.465 22.5083 103.497 22.4034 103.558L21.6386 104.066C21.5612 104.107 21.4956 104.168 21.4482 104.242C21.3876 104.307 21.3451 104.387 21.325 104.474C21.2969 104.562 21.2924 104.656 21.3122 104.747C21.3167 104.838 21.3449 104.925 21.3938 105.002C21.4837 105.157 21.6306 105.272 21.8034 105.322L21.9842 105.346C22.1056 105.346 22.225 105.314 22.3298 105.253V105.253Z" fill="#F96632"/>
<path d="M28.0656 102.093C28.128 102.037 28.192 101.984 28.2576 101.933L28.12 102.04C28.3782 101.84 28.6611 101.675 28.9616 101.547L28.8016 101.616L28.872 101.587C28.9593 101.567 29.0398 101.525 29.1056 101.464C29.1778 101.418 29.2377 101.355 29.28 101.28C29.3709 101.12 29.3956 100.93 29.3488 100.752C29.2989 100.58 29.1842 100.434 29.0288 100.344C28.9507 100.296 28.8636 100.266 28.7729 100.254C28.6823 100.242 28.5901 100.249 28.5024 100.275C28.244 100.373 27.9945 100.494 27.7568 100.635C27.523 100.782 27.3019 100.947 27.0961 101.131C27.0009 101.227 26.936 101.348 26.9097 101.481C26.8833 101.613 26.8966 101.75 26.9479 101.875C26.9992 101.999 27.0861 102.106 27.1979 102.182C27.3096 102.257 27.4412 102.298 27.576 102.299L27.7584 102.274C27.8722 102.243 27.976 102.183 28.0592 102.099L28.0656 102.093Z" fill="#F96632"/>
<path d="M36.8241 102.55C36.8449 102.837 36.8449 103.125 36.8241 103.411C36.8241 103.483 36.8097 103.554 36.8049 103.626C36.8049 103.64 36.7889 103.758 36.8049 103.656C36.7825 103.816 36.7521 103.987 36.7169 104.15C36.5972 104.687 36.429 105.212 36.2145 105.718C35.7921 106.712 35.1569 107.75 34.5953 108.731C33.3435 110.74 32.606 113.026 32.4481 115.387C32.3201 116.667 32.3009 117.968 32.2881 119.261C32.2897 119.442 32.3622 119.615 32.4899 119.743C32.6177 119.871 32.7905 119.944 32.9713 119.946C33.1518 119.942 33.3238 119.869 33.4514 119.741C33.5791 119.613 33.6524 119.441 33.6561 119.261C33.6721 118.102 33.6897 116.942 33.7841 115.787C33.8065 115.509 33.8353 115.23 33.8673 114.952C33.8769 114.88 33.8849 114.808 33.8945 114.736L33.9041 114.666C33.9265 114.506 33.9521 114.354 33.9777 114.198C34.074 113.627 34.2044 113.062 34.3681 112.506C34.4449 112.252 34.5297 112 34.6225 111.75C34.7313 111.461 34.7825 111.338 34.9233 111.038C35.1713 110.507 35.4545 109.994 35.7441 109.485C36.3121 108.491 36.9185 107.514 37.3777 106.462C37.9169 105.23 38.2977 103.902 38.1937 102.55C38.1665 102.195 37.8993 101.85 37.5105 101.867C37.1633 101.883 36.7969 102.17 36.8257 102.55H36.8241Z" fill="#F96632"/>
<path d="M137.576 152.563L136.85 139.923C136.725 137.754 136.602 135.551 137.075 133.431C137.83 130.042 140.021 127.191 142.035 124.355C144.922 120.284 147.541 116.029 149.875 111.618C152.181 107.261 154.242 102.611 154.451 97.6849C154.496 96.6481 154.357 95.4273 153.464 94.8977C152.691 94.4401 151.65 94.7457 150.998 95.3633C150.347 95.9809 149.992 96.8401 149.651 97.6705C148.187 101.224 146.451 104.943 143.198 106.991C145.278 102.376 147.379 97.6273 147.629 92.5745C147.662 91.8849 147.654 91.1633 147.347 90.5457C147.04 89.9281 146.35 89.4465 145.675 89.5969C145 89.7473 144.6 90.4193 144.277 91.0369L137.523 103.837L141.491 90.7521C141.666 90.1793 141.842 89.5809 141.736 88.9921C141.63 88.4033 141.4 86.7793 139.922 86.9249C138.671 87.0481 138.322 88.6257 137.994 89.1649C135.554 93.1649 134.271 97.0193 131.832 101.024C133.079 97.5842 134.019 94.0408 134.642 90.4353C134.879 89.0641 135.048 87.5665 134.357 86.3601C134.063 85.8449 133.578 85.4001 132.989 85.3297C131.709 85.1841 130.983 86.7393 130.642 87.9873C128.923 94.255 126.551 100.325 123.563 106.096C123.511 104.771 123.066 107.101 122.328 102.813C122.219 102.184 123.699 96.6177 121.895 95.4449C120.967 94.8417 120.032 96.1185 119.487 97.0817C115.626 103.899 112.127 113.597 114.064 121.562C114.632 123.896 115.173 124.17 115.687 126.522C116.445 129.994 115.287 149.063 114.671 152.563" fill="#FFB877"/>
<path d="M138.261 152.563L137.747 143.653C137.664 142.198 137.576 140.744 137.498 139.29C137.419 137.864 137.366 136.43 137.51 135.008C137.768 132.448 138.922 130.144 140.314 128.013C141.787 125.754 143.426 123.608 144.907 121.354C146.452 119.007 147.909 116.603 149.278 114.142C150.616 111.742 151.891 109.294 152.944 106.752C153.978 104.254 154.747 101.65 155.032 98.9552C155.157 97.7872 155.266 96.52 154.771 95.4192C154.534 94.8885 154.113 94.4617 153.586 94.218C153.058 93.9744 152.46 93.9305 151.902 94.0944C150.666 94.424 149.878 95.4688 149.371 96.5824C148.882 97.656 148.466 98.7616 147.963 99.8304C147.003 101.882 145.835 103.893 144.136 105.43C143.733 105.792 143.302 106.12 142.845 106.41L143.781 107.346C145.787 102.882 147.818 98.3152 148.25 93.3824C148.349 92.2624 148.461 90.9296 147.77 89.9536C147.112 89.016 145.83 88.5312 144.821 89.2432C143.902 89.8832 143.459 91.1008 142.954 92.0592L141.12 95.552L136.93 103.496L138.181 104.022L140.67 95.8128L141.915 91.7088C142.122 91.0256 142.37 90.344 142.435 89.6288C142.458 89.2104 142.416 88.7911 142.31 88.3856C142.15 87.6448 141.795 86.8624 141.099 86.4832C140.661 86.2587 140.161 86.1864 139.677 86.2776C139.193 86.3689 138.753 86.6185 138.427 86.9872C137.912 87.5664 137.72 88.2912 137.33 88.9408C136.621 90.1184 135.978 91.3408 135.371 92.5648C134.027 95.2848 132.811 98.0816 131.238 100.685L132.488 101.213C133.485 98.4528 134.287 95.6261 134.888 92.7536C135.174 91.3872 135.507 89.9696 135.528 88.5696C135.546 87.2608 135.171 85.8208 134.046 85.032C133.069 84.3456 131.806 84.6368 131.077 85.5248C130.317 86.4448 130.043 87.6048 129.725 88.7248C128.934 91.5045 128.014 94.2421 126.965 96.9376C125.793 99.9459 124.462 102.89 122.978 105.757L124.258 106.102C124.243 105.771 124.214 105.41 123.963 105.163C123.86 105.062 123.731 104.991 123.59 104.958C123.688 104.982 123.402 104.92 123.362 104.93C123.275 104.947 123.592 104.979 123.456 104.939C123.35 104.907 123.653 105.043 123.531 104.965C123.723 105.088 123.643 105.059 123.586 104.995C123.619 105.032 123.659 105.125 123.586 104.976C123.571 104.946 123.554 104.914 123.538 104.882C123.45 104.722 123.56 104.971 123.52 104.845C123.32 104.2 123.16 103.544 123.04 102.88L123.018 102.755C122.989 102.576 122.987 102.582 123.018 102.776C123.018 102.776 123.018 102.72 123.018 102.715C123.023 102.662 123.026 102.609 123.026 102.555L123.045 102.379C123.045 102.334 123.072 102.189 123.045 102.395C123.045 102.333 123.062 102.27 123.07 102.21C123.141 101.73 123.216 101.25 123.282 100.77C123.442 99.5728 123.582 98.3488 123.427 97.1424C123.285 96.032 122.73 94.5712 121.368 94.6016C120.502 94.6208 119.854 95.3392 119.384 95.9856C118.929 96.6551 118.523 97.3561 118.168 98.0832C116.461 101.267 115.102 104.626 114.115 108.101C113.155 111.536 112.608 115.163 112.93 118.73C113.06 120.458 113.443 122.159 114.067 123.776C114.507 124.87 114.918 125.952 115.112 127.122C115.069 126.861 115.112 127.112 115.112 127.174L115.136 127.394C115.15 127.554 115.163 127.714 115.174 127.874C115.202 128.254 115.218 128.637 115.23 129.019C115.262 130.002 115.264 130.986 115.256 131.968C115.235 134.368 115.147 136.768 115.035 139.168C114.837 143.373 114.632 147.606 114.107 151.786C114.08 152.014 114.125 151.682 114.107 151.85C114.099 151.914 114.09 151.978 114.08 152.042C114.064 152.148 114.046 152.259 114.027 152.373C113.984 152.548 114.01 152.733 114.099 152.889C114.189 153.046 114.335 153.162 114.507 153.214C114.837 153.304 115.285 153.102 115.347 152.734C115.602 151.277 115.709 149.786 115.827 148.31C116.014 146.054 116.162 143.797 116.286 141.536C116.422 139.077 116.531 136.614 116.59 134.15C116.638 132.211 116.674 130.262 116.574 128.323C116.553 127.689 116.488 127.057 116.379 126.432C116.114 125.046 115.482 123.818 115.05 122.488C114.002 119.274 114.024 115.749 114.557 112.44C115.117 108.95 116.218 105.542 117.637 102.31C118.317 100.764 119.069 99.2507 119.891 97.7712C120.211 97.184 120.56 96.4912 121.118 96.0928C121.346 95.9328 121.397 95.9184 121.598 96.0528C121.451 95.9584 121.645 96.1072 121.68 96.1424C121.798 96.2592 121.606 96.0224 121.699 96.1632C121.739 96.221 121.776 96.2808 121.81 96.3424C121.837 96.3904 121.859 96.4384 121.883 96.488C121.813 96.3376 121.883 96.5104 121.898 96.536C121.928 96.6304 121.958 96.7248 121.982 96.8208C122.014 96.9424 122.038 97.0672 122.059 97.1904C122.096 97.4016 122.046 97.0528 122.072 97.2704C122.082 97.36 122.091 97.4512 122.098 97.5424C122.133 98.0989 122.127 98.6572 122.08 99.2128C122.003 100.245 121.858 101.019 121.715 102.064C121.647 102.494 121.657 102.933 121.742 103.36C121.842 104 122.002 104.628 122.222 105.237C122.355 105.578 122.522 105.93 122.843 106.13C122.935 106.186 123.036 106.228 123.141 106.253C123.215 106.267 123.29 106.276 123.365 106.282C123.498 106.293 123.162 106.24 123.256 106.266C123.171 106.236 123.093 106.19 123.028 106.128C122.962 106.067 122.91 105.993 122.875 105.91C122.907 105.994 122.864 106.104 122.875 105.882C122.876 105.95 122.881 106.018 122.89 106.086C122.918 106.726 123.837 107.066 124.17 106.432C126.659 101.615 128.728 96.5924 130.352 91.4192C130.738 90.1904 131.035 88.928 131.446 87.7088C131.578 87.2816 131.776 86.8777 132.034 86.512C132.128 86.3897 132.236 86.2776 132.354 86.1776C132.424 86.1235 132.501 86.0778 132.582 86.0416C132.531 86.064 132.814 85.9968 132.754 86.0016C133.765 85.9184 134.13 87.4112 134.166 88.1632C134.229 89.4096 133.931 90.6672 133.686 91.88C133.074 94.9246 132.237 97.9195 131.181 100.84C130.912 101.587 132.04 102.013 132.43 101.368C133.739 99.2112 134.802 96.9264 135.885 94.648C136.418 93.528 136.96 92.408 137.549 91.3248C138.011 90.4704 138.531 89.656 138.931 88.7648C139 88.6128 139.074 88.4608 139.155 88.3152C139.23 88.1688 139.322 88.0322 139.43 87.9088C139.518 87.7956 139.633 87.7068 139.765 87.6507C139.896 87.5947 140.04 87.5734 140.182 87.5888C140.275 87.5982 140.366 87.6242 140.45 87.6656L140.531 87.7184C140.619 87.7792 140.466 87.656 140.542 87.7312C140.565 87.752 140.589 87.7744 140.61 87.7968C140.744 87.9392 140.576 87.7392 140.643 87.8304C140.686 87.89 140.725 87.9526 140.76 88.0176C140.774 88.0432 140.875 88.2592 140.826 88.1392C140.982 88.5489 141.071 88.9811 141.09 89.4192C141.074 90.0208 140.819 90.6272 140.646 91.1968L139.478 95.0368L136.872 103.632C136.65 104.366 137.758 104.851 138.122 104.158C140.387 99.8624 142.618 95.5456 144.92 91.2704C145.227 90.7008 145.734 89.8496 146.443 90.4432C147.178 91.056 146.979 92.3344 146.914 93.1632C146.739 95.368 146.192 97.5312 145.486 99.6224C144.678 102.013 143.65 104.32 142.616 106.619C142.544 106.751 142.516 106.902 142.535 107.051C142.554 107.2 142.62 107.339 142.723 107.448C142.831 107.554 142.97 107.621 143.12 107.641C143.269 107.66 143.421 107.63 143.552 107.555C145.491 106.318 146.958 104.515 148.098 102.544C148.668 101.537 149.182 100.499 149.638 99.4352C150.086 98.408 150.438 97.28 151.053 96.3408C151.483 95.6896 152.525 94.912 153.272 95.5696C153.971 96.184 153.798 97.5088 153.736 98.3248C153.538 100.915 152.803 103.445 151.846 105.845C150.869 108.304 149.634 110.658 148.358 112.973C147.033 115.379 145.621 117.737 144.123 120.045C142.683 122.262 141.115 124.384 139.629 126.568C138.219 128.637 136.93 130.869 136.405 133.342C135.818 136.104 136.128 138.966 136.288 141.755L136.786 150.395L136.909 152.523C136.958 153.398 138.326 153.403 138.277 152.523L138.261 152.563Z" fill="#FFB877"/>
<path d="M115.418 144.414C116.152 144.784 116.896 145.189 117.688 145.206C118.195 145.218 118.69 145.067 119.192 144.995C121.741 144.624 124.101 146.227 126.552 147.037C129.554 148.014 132.817 147.808 135.672 146.461C136.152 146.229 136.654 145.958 137.19 145.981H137.2C137.325 148.173 137.451 150.366 137.578 152.56H114.67C114.888 151.328 115.173 148.16 115.418 144.414Z" fill="#F96632"/>
<path d="M115.072 145.005C115.821 145.384 116.566 145.765 117.411 145.869C117.84 145.904 118.272 145.873 118.691 145.778C118.89 145.741 119.09 145.699 119.29 145.666C119.309 145.666 119.435 145.648 119.318 145.666L119.453 145.651C119.542 145.651 119.632 145.637 119.722 145.634H120.256C120.345 145.634 120.433 145.64 120.52 145.653L120.653 145.667C120.704 145.667 120.741 145.682 120.669 145.667C121.033 145.725 121.393 145.806 121.747 145.907C122.098 146.008 122.442 146.128 122.782 146.258C122.942 146.318 123.102 146.382 123.262 146.446L123.518 146.554L123.648 146.606C123.563 146.571 123.678 146.621 123.709 146.634C125.12 147.227 126.496 147.84 128 148.11C129.524 148.385 131.084 148.394 132.611 148.136C133.427 148.001 134.228 147.784 135 147.488C135.421 147.328 135.832 147.139 136.238 146.944C136.334 146.898 136.43 146.851 136.528 146.81C136.499 146.822 136.432 146.845 136.56 146.798C136.616 146.778 136.67 146.757 136.72 146.739C136.818 146.707 136.919 146.682 137.021 146.666C136.904 146.682 137.165 146.666 137.194 146.666L136.509 145.982L136.888 152.562L137.571 151.877H117.482C116.562 151.877 115.632 151.84 114.71 151.877H114.67L115.33 152.742C115.469 151.942 115.55 151.142 115.63 150.342C115.747 149.171 115.843 147.997 115.933 146.822C115.991 146.021 116.045 145.221 116.093 144.422C116.092 144.241 116.02 144.068 115.892 143.94C115.764 143.811 115.591 143.739 115.41 143.738C115.229 143.742 115.057 143.815 114.93 143.943C114.802 144.07 114.729 144.242 114.725 144.422C114.565 146.765 114.405 149.114 114.136 151.446L114.098 151.766C114.098 151.818 114.083 151.87 114.077 151.926C114.07 151.982 114.093 151.83 114.09 151.837C114.082 151.86 114.079 151.884 114.08 151.909C114.056 152.069 114.032 152.238 114.003 152.402C113.928 152.832 114.184 153.267 114.662 153.267H134.765C135.688 153.267 136.613 153.29 137.536 153.267H137.576C137.757 153.265 137.93 153.193 138.058 153.065C138.186 152.938 138.259 152.765 138.261 152.584L137.882 146.005C137.876 145.825 137.803 145.654 137.676 145.527C137.549 145.4 137.378 145.326 137.198 145.32C136.408 145.24 135.638 145.757 134.949 146.062C134.934 146.062 134.829 146.114 134.922 146.074L134.826 146.114L134.57 146.214C134.398 146.278 134.226 146.339 134.05 146.397C133.701 146.51 133.347 146.61 132.989 146.691C132.829 146.73 132.653 146.765 132.483 146.797L132.213 146.843L132.077 146.866L131.963 146.882H131.917L131.781 146.898C131.69 146.909 131.598 146.917 131.506 146.926C131.323 146.942 131.141 146.955 130.957 146.963C130.223 146.998 129.487 146.968 128.758 146.872C128.877 146.888 128.664 146.858 128.634 146.853L128.362 146.806C128.181 146.774 128.002 146.738 127.822 146.696C127.464 146.614 127.109 146.517 126.76 146.403C126.411 146.29 126.067 146.158 125.726 146.021C125.566 145.957 125.406 145.89 125.246 145.822L125.086 145.755L124.829 145.645C123.432 145.045 122.029 144.435 120.498 144.294C120.108 144.259 119.716 144.263 119.328 144.307C119.07 144.338 118.816 144.379 118.562 144.429C118.45 144.451 118.336 144.474 118.224 144.493C118.174 144.502 118.125 144.512 118.074 144.518C118.024 144.526 118.022 144.525 118.074 144.518L117.998 144.526C117.885 144.526 117.773 144.539 117.661 144.536C117.613 144.536 117.568 144.536 117.522 144.526C117.398 144.517 117.674 144.56 117.461 144.518C117.088 144.444 116.726 144.319 116.387 144.147C116.179 144.048 115.974 143.942 115.768 143.838C115.611 143.75 115.425 143.726 115.251 143.772C115.076 143.817 114.926 143.929 114.832 144.083C114.662 144.381 114.731 144.832 115.072 145.005Z" fill="#F96632"/>
<path d="M112.179 149.717C112.327 149.003 112.599 148.155 113.299 147.987C114.037 147.813 115.309 148.669 115.971 149.035C117.607 149.939 119.623 148.891 121.487 149.013C122.53 149.08 123.507 149.518 124.501 149.845C126.439 150.47 128.486 150.689 130.513 150.487C132.54 150.286 134.503 149.668 136.28 148.674C137.347 148.07 138.709 147.333 139.68 148.082C140.349 148.597 140.423 149.56 140.439 150.405C140.469 151.958 140.859 154.446 140.888 156.005H111.602C111.602 154.043 111.77 151.68 112.179 149.717Z" fill="#1574FF"/>
<path d="M112.838 149.899C112.893 149.642 112.969 149.395 113.048 149.146C113.078 149.051 112.995 149.245 113.048 149.158C113.061 149.136 113.07 149.11 113.081 149.086C113.109 149.032 113.137 148.978 113.168 148.926C113.198 148.875 113.232 148.826 113.267 148.778C113.169 148.914 113.293 148.763 113.325 148.73C113.403 148.646 113.325 148.73 113.299 148.744C113.326 148.726 113.352 148.707 113.381 148.691C113.403 148.681 113.425 148.669 113.446 148.656C113.499 148.614 113.413 148.675 113.397 148.677C113.43 148.67 113.464 148.661 113.496 148.648C113.571 148.619 113.525 148.694 113.432 148.648C113.488 148.655 113.545 148.655 113.601 148.648C113.718 148.648 113.456 148.614 113.625 148.648L113.785 148.686C113.912 148.722 114.035 148.77 114.158 148.816C114.23 148.843 114.128 148.803 114.121 148.8L114.224 148.846L114.403 148.931C114.529 148.995 114.654 149.061 114.777 149.13C114.997 149.251 115.213 149.379 115.43 149.504C115.998 149.842 116.639 150.04 117.299 150.08C117.968 150.096 118.638 150.037 119.294 149.904C119.614 149.851 119.934 149.797 120.254 149.744C120.336 149.733 120.254 149.744 120.238 149.744L120.371 149.728L120.603 149.704C120.763 149.69 120.934 149.68 121.099 149.677C121.264 149.674 121.409 149.677 121.563 149.691L121.709 149.706C121.625 149.694 121.693 149.706 121.709 149.706C121.792 149.717 121.899 149.738 121.993 149.757C122.338 149.83 122.678 149.924 123.011 150.038C123.675 150.259 124.326 150.518 125.001 150.699C128.949 151.768 133.159 151.233 136.713 149.21C136.989 149.05 137.265 148.902 137.55 148.766L137.67 148.71L137.71 148.693L137.779 148.664L137.87 148.63C138.019 148.574 138.17 148.527 138.325 148.49C138.395 148.472 138.465 148.461 138.534 148.446C138.392 148.475 138.579 148.446 138.621 148.446H138.824C138.952 148.446 138.841 148.446 138.813 148.446C138.849 148.446 138.888 148.459 138.925 148.469C138.999 148.485 139.073 148.507 139.144 148.536C139.032 148.491 139.144 148.546 139.19 148.571C139.237 148.597 139.257 148.613 139.291 148.637C139.201 148.554 139.269 148.621 139.291 148.637C139.344 148.686 139.392 148.741 139.451 148.797C139.363 148.704 139.451 148.797 139.485 148.856C139.518 148.915 139.545 148.966 139.574 149.016C139.574 149.029 139.613 149.112 139.584 149.035C139.555 148.958 139.584 149.061 139.598 149.082C139.623 149.152 139.643 149.224 139.661 149.298C139.678 149.362 139.693 149.426 139.704 149.491C139.704 149.522 139.739 149.71 139.728 149.629C139.717 149.547 139.728 149.64 139.728 149.653C139.728 149.691 139.728 149.73 139.741 149.768C139.741 149.845 139.752 149.928 139.757 150C139.785 150.536 139.795 151.07 139.84 151.6C139.941 152.808 140.101 154.01 140.184 155.219C140.201 155.475 140.214 155.731 140.221 155.989L140.904 155.306H112.8C112.421 155.306 112.037 155.293 111.657 155.306H111.608L112.293 155.99C112.293 154.955 112.336 153.921 112.424 152.888C112.446 152.624 112.472 152.36 112.501 152.098C112.515 151.966 112.531 151.835 112.547 151.704C112.547 151.632 112.565 151.562 112.573 151.49L112.582 151.419C112.582 151.474 112.582 151.472 112.582 151.419C112.654 150.904 112.742 150.392 112.845 149.883C112.889 149.708 112.864 149.522 112.774 149.365C112.685 149.209 112.538 149.092 112.365 149.042C112.024 148.963 111.601 149.144 111.523 149.522C111.106 151.651 110.905 153.816 110.923 155.986C110.925 156.166 110.998 156.338 111.126 156.466C111.253 156.594 111.426 156.666 111.606 156.669H139.704C140.085 156.669 140.467 156.677 140.848 156.669H140.896C141.077 156.667 141.25 156.594 141.378 156.466C141.506 156.338 141.578 156.165 141.581 155.984C141.553 154.773 141.39 153.566 141.27 152.362C141.213 151.773 141.157 151.182 141.136 150.59C141.115 149.998 141.112 149.37 140.933 148.787C140.836 148.435 140.66 148.109 140.418 147.836C140.175 147.562 139.873 147.349 139.534 147.211C138.894 146.957 138.163 147.066 137.539 147.293C136.872 147.536 136.27 147.898 135.648 148.23C135.352 148.389 135.05 148.538 134.742 148.675L134.619 148.73L134.577 148.747L134.411 148.816C134.245 148.883 134.077 148.947 133.907 149.008C133.274 149.235 132.626 149.42 131.968 149.56C131.627 149.632 131.285 149.69 130.941 149.739C130.859 149.752 130.941 149.739 130.955 149.739L130.822 149.757L130.587 149.782C130.409 149.802 130.23 149.816 130.051 149.829C129.368 149.875 128.683 149.875 128 149.829C127.84 149.818 127.68 149.803 127.531 149.787L127.296 149.762L127.163 149.746C127.086 149.746 127.238 149.757 127.112 149.746C126.779 149.694 126.448 149.638 126.118 149.566C125.446 149.417 124.784 149.223 124.137 148.987C123.438 148.741 122.739 148.483 122.001 148.379C121.244 148.291 120.478 148.314 119.728 148.45C119.395 148.501 119.064 148.56 118.733 148.61L118.502 148.645L118.429 148.654H118.389C118.216 148.674 118.045 148.691 117.87 148.701C117.723 148.701 117.574 148.712 117.425 148.701C117.342 148.701 117.265 148.691 117.174 148.685C117.04 148.669 117.149 148.685 117.174 148.685L117.051 148.664C116.898 148.637 116.747 148.598 116.6 148.547L116.512 148.515C116.621 148.552 116.523 148.515 116.501 148.515C116.43 148.482 116.361 148.446 116.293 148.41C115.827 148.15 115.377 147.862 114.893 147.642C114.336 147.389 113.694 147.147 113.078 147.322C112.393 147.52 111.987 148.104 111.742 148.738C111.646 148.997 111.572 149.264 111.52 149.536C111.475 149.711 111.5 149.896 111.59 150.053C111.679 150.21 111.826 150.326 112 150.376C112.339 150.454 112.758 150.274 112.838 149.899Z" fill="#1574FF"/>
<path d="M144.349 107.154C143.89 106.776 143.388 106.454 142.853 106.194C142.692 106.106 142.505 106.081 142.327 106.125C142.154 106.175 142.008 106.29 141.917 106.445C141.871 106.524 141.842 106.611 141.83 106.701C141.818 106.791 141.824 106.883 141.848 106.971C141.872 107.057 141.912 107.138 141.967 107.208C142.022 107.278 142.09 107.337 142.168 107.381C142.608 107.588 143.024 107.841 143.41 108.138L143.272 108.032L143.386 108.122C143.446 108.187 143.522 108.236 143.607 108.262C143.688 108.305 143.779 108.326 143.871 108.322C144.052 108.322 144.226 108.25 144.354 108.121C144.482 107.993 144.554 107.82 144.554 107.638C144.554 107.549 144.537 107.461 144.502 107.378C144.468 107.296 144.418 107.221 144.354 107.158L144.349 107.154Z" fill="#F96632"/>
<path d="M138.361 104.072L137.6 103.565C137.523 103.516 137.436 103.488 137.345 103.483C137.255 103.462 137.16 103.467 137.072 103.496C136.902 103.551 136.758 103.665 136.664 103.816C136.617 103.895 136.588 103.982 136.576 104.073C136.564 104.164 136.57 104.256 136.595 104.344L136.664 104.504C136.723 104.605 136.807 104.689 136.908 104.749L137.673 105.256C137.79 105.326 137.926 105.358 138.062 105.349C138.197 105.34 138.327 105.289 138.433 105.203C138.506 105.154 138.567 105.088 138.609 105.011C138.655 104.932 138.685 104.845 138.696 104.754C138.708 104.663 138.702 104.571 138.678 104.483L138.609 104.323C138.55 104.222 138.466 104.138 138.364 104.078L138.361 104.072Z" fill="#F96632"/>
<path d="M132.901 101.12C132.695 100.936 132.474 100.77 132.24 100.624C132.002 100.483 131.753 100.362 131.494 100.264C131.406 100.235 131.312 100.231 131.221 100.251C131.131 100.254 131.043 100.283 130.968 100.333C130.889 100.378 130.819 100.438 130.763 100.511C130.708 100.583 130.667 100.666 130.644 100.754C130.621 100.842 130.616 100.934 130.629 101.025C130.642 101.115 130.673 101.202 130.72 101.28L130.827 101.418C130.911 101.502 131.015 101.563 131.13 101.594L131.2 101.622L131.04 101.554C131.341 101.681 131.623 101.847 131.882 102.046L131.744 101.939C131.81 101.99 131.874 102.043 131.936 102.099C132.066 102.223 132.237 102.294 132.416 102.299C132.596 102.297 132.768 102.225 132.896 102.099C133.023 101.972 133.095 101.799 133.096 101.619C133.096 101.53 133.078 101.442 133.044 101.359C133.01 101.277 132.959 101.202 132.896 101.139L132.901 101.12Z" fill="#F96632"/>
<path d="M121.808 102.55C121.622 104.974 122.907 107.149 124.074 109.166C124.355 109.646 124.634 110.142 124.886 110.643C125.141 111.131 125.355 111.639 125.526 112.162C125.701 112.689 125.842 113.226 125.949 113.771C126.002 114.043 126.05 114.318 126.09 114.594C126.122 114.806 126.154 115.074 126.184 115.394C126.312 116.674 126.331 117.974 126.344 119.267C126.34 119.36 126.354 119.452 126.386 119.539C126.419 119.626 126.468 119.705 126.532 119.773C126.596 119.84 126.673 119.893 126.758 119.93C126.844 119.966 126.935 119.985 127.028 119.985C127.121 119.985 127.213 119.966 127.298 119.93C127.383 119.893 127.46 119.84 127.524 119.773C127.588 119.705 127.637 119.626 127.67 119.539C127.702 119.452 127.717 119.36 127.712 119.267C127.68 116.933 127.64 114.549 126.99 112.288C126.648 111.159 126.175 110.075 125.581 109.056C125.021 108.056 124.406 107.085 123.923 106.043C123.427 104.976 123.082 103.77 123.174 102.557C123.173 102.376 123.101 102.202 122.972 102.074C122.844 101.947 122.671 101.874 122.49 101.874C122.31 101.878 122.138 101.951 122.011 102.078C121.884 102.205 121.811 102.377 121.806 102.557L121.808 102.55Z" fill="#F96632"/>
<path d="M8.8973 82.6608C9.2573 82.3088 9.6253 81.968 10.0061 81.6384C10.1885 81.4816 10.373 81.3274 10.5597 81.176C10.66 81.0928 10.7624 81.0112 10.8669 80.9312L10.9533 80.864C10.9181 80.8896 10.9293 80.8816 10.9869 80.8368L11.0925 80.7584C11.8956 80.1532 12.7362 79.5996 13.6093 79.1008C14.0466 78.8469 14.4909 78.6133 14.9421 78.4C15.1554 78.2933 15.3725 78.1903 15.5933 78.0911L15.8941 77.9567L16.0733 77.8783C16.1485 77.8479 16.1549 77.8447 16.0909 77.8783L16.2125 77.8271C17.1219 77.4497 18.0538 77.1291 19.0029 76.8671C19.5501 76.7167 20.1026 76.5861 20.6605 76.4751C20.9405 76.4191 21.2189 76.3695 21.5005 76.3247L21.8893 76.2655C21.9021 76.2655 22.1165 76.2351 21.9677 76.2543L22.2269 76.2223C22.5821 76.1791 22.9293 75.9375 22.9117 75.5375C22.8973 75.2047 22.6077 74.8079 22.2269 74.8543C16.8358 75.4948 11.8087 77.9028 7.9309 81.7024C7.85559 81.7623 7.7938 81.8374 7.74956 81.9229C7.70532 82.0084 7.67964 82.1022 7.67419 82.1983C7.66874 82.2944 7.68366 82.3905 7.71795 82.4805C7.75225 82.5704 7.80515 82.652 7.8732 82.7201C7.94125 82.7881 8.02291 82.841 8.11282 82.8753C8.20274 82.9096 8.29889 82.9245 8.39497 82.9191C8.49105 82.9136 8.58489 82.888 8.67036 82.8437C8.75582 82.7995 8.83097 82.7377 8.8909 82.6624L8.8973 82.6608Z" fill="white"/>
<path d="M10.2397 74.08C10.544 73.8236 10.8646 73.5874 11.1997 73.3728C11.5727 73.1303 11.9595 72.9096 12.3581 72.712C12.5517 72.616 12.7485 72.5248 12.9485 72.44C12.8797 72.4688 12.9485 72.44 12.9741 72.4304L13.1341 72.3664L13.4541 72.248C13.8732 72.0994 14.3006 71.9754 14.7341 71.8768C14.9087 71.8278 15.057 71.712 15.1468 71.5545C15.2366 71.397 15.2608 71.2104 15.2141 71.0352C15.163 70.862 15.0468 70.7153 14.8899 70.6258C14.733 70.5363 14.5476 70.511 14.3725 70.5552C12.4966 70.9972 10.7517 71.876 9.27969 73.12C9.15421 73.2482 9.08395 73.4205 9.08395 73.6C9.08395 73.7794 9.15421 73.9517 9.27969 74.08C9.40983 74.2018 9.58143 74.2696 9.75969 74.2696C9.93795 74.2696 10.1095 74.2018 10.2397 74.08Z" fill="white"/>
<path d="M95.8327 29.4359C96.3682 28.8069 96.9435 28.2129 97.555 27.6576L97.5964 27.6213L97.6982 27.5336L97.9041 27.3558C98.0772 27.209 98.253 27.0666 98.4301 26.9274C98.7502 26.6745 99.0776 26.4327 99.4124 26.2021C100.092 25.7328 100.801 25.3074 101.535 24.9283L101.607 24.8907L101.71 24.8393L101.955 24.7207C102.149 24.629 102.345 24.5394 102.541 24.4543C102.926 24.287 103.315 24.1326 103.708 23.991C104.134 23.8386 104.565 23.6993 105 23.5778C105.218 23.5163 105.437 23.4589 105.657 23.4055L106.02 23.3217L106.101 23.3038L106.281 23.2677C106.631 23.1985 106.957 22.927 106.903 22.5364C106.862 22.2037 106.541 21.8358 106.171 21.9145C102.742 22.585 99.5486 24.1412 96.9074 26.4285C96.1525 27.0844 95.447 27.7951 94.7967 28.5548C94.6894 28.6942 94.6398 28.8695 94.6582 29.0444C94.6766 29.2193 94.7616 29.3805 94.8956 29.4944C95.0296 29.6083 95.2023 29.6664 95.3779 29.6564C95.5535 29.6465 95.7186 29.5694 95.8388 29.441L95.8327 29.4359Z" fill="white"/>
<path d="M95.7504 20.6809C95.8343 20.5822 95.9293 20.4928 96.0218 20.4013L96.163 20.2673C96.3169 20.1209 96.0578 20.3564 96.2178 20.2152C96.4067 20.0524 96.5984 19.8961 96.7998 19.7482C97.0012 19.6002 97.2071 19.4644 97.419 19.3338C97.5305 19.2669 97.6422 19.2022 97.7563 19.1397L97.927 19.0475C98.1155 18.9494 97.8089 19.1025 98.0024 19.0108C98.4506 18.7959 98.9157 18.6182 99.393 18.4795C99.5183 18.4433 99.6428 18.4105 99.7697 18.3798C99.7697 18.3798 99.9709 18.3409 99.8511 18.3608L100.047 18.3177C100.3 18.2677 100.561 18.2376 100.82 18.2143C100.991 18.1881 101.146 18.0978 101.253 17.9617C101.36 17.8255 101.412 17.6538 101.397 17.4812C101.382 17.3085 101.303 17.1479 101.174 17.0319C101.046 16.9158 100.878 16.8529 100.704 16.8559C98.4143 17.07 96.2818 18.1149 94.7093 19.7935C94.5927 19.9318 94.5355 20.1107 94.5501 20.291C94.5647 20.4714 94.6499 20.6387 94.7872 20.7565C94.9268 20.8705 95.105 20.9261 95.2847 20.9118C95.4644 20.8974 95.6316 20.8143 95.7514 20.6797L95.7504 20.6809Z" fill="white"/>
<path d="M94.8526 123.875C94.2289 124.416 93.5712 124.917 92.8834 125.375L92.8371 125.405L92.7232 125.476L92.4931 125.621C92.2999 125.74 92.1048 125.855 91.9088 125.966C91.5544 126.168 91.1945 126.358 90.829 126.536C90.0865 126.898 89.3218 127.212 88.5393 127.477L88.4626 127.504L88.3535 127.539L88.0927 127.62C87.8877 127.681 87.6805 127.741 87.4737 127.795C87.0685 127.903 86.6608 127.998 86.2506 128.079C85.8068 128.166 85.3594 128.239 84.911 128.294C84.6867 128.322 84.4616 128.346 84.2357 128.366L83.864 128.394L83.7819 128.4L83.5987 128.408C83.2415 128.424 82.8791 128.644 82.8743 129.038C82.8645 129.373 83.1272 129.785 83.5042 129.763C86.9949 129.613 90.3857 128.553 93.3396 126.687C94.1842 126.152 94.9882 125.555 95.7449 124.901C95.8719 124.779 95.9472 124.613 95.9553 124.438C95.9633 124.262 95.9033 124.09 95.7879 123.957C95.6725 123.824 95.5105 123.741 95.3353 123.725C95.1602 123.708 94.9855 123.76 94.8473 123.869L94.8526 123.875Z" fill="white"/>
<path d="M93.6227 132.543C93.5249 132.628 93.4177 132.702 93.3125 132.779L93.1528 132.89C92.9787 133.012 93.2701 132.818 93.0908 132.934C92.8797 133.066 92.6667 133.192 92.4454 133.308C92.2241 133.424 92.0003 133.528 91.7712 133.625C91.6509 133.675 91.5308 133.722 91.4086 133.767L91.226 133.832C91.025 133.901 91.351 133.795 91.146 133.857C90.6707 134.003 90.1842 134.109 89.6915 134.174C89.5621 134.191 89.4341 134.205 89.3041 134.216C89.3041 134.216 89.0993 134.225 89.2208 134.223L89.0203 134.236C88.7632 134.248 88.5007 134.238 88.241 134.223C88.0677 134.223 87.901 134.289 87.7747 134.408C87.6483 134.526 87.5717 134.688 87.5604 134.861C87.549 135.034 87.6038 135.205 87.7136 135.339C87.8234 135.473 87.98 135.56 88.1517 135.583C90.448 135.714 92.713 135.001 94.5192 133.577C94.6551 133.457 94.7385 133.289 94.7511 133.108C94.7637 132.928 94.7045 132.75 94.5864 132.613C94.4654 132.479 94.2975 132.397 94.1177 132.385C93.9379 132.372 93.7602 132.429 93.6215 132.544L93.6227 132.543Z" fill="white"/>
<path d="M148.979 82.7241C148.355 82.1824 147.697 81.6813 147.009 81.2238L146.963 81.1942L146.849 81.1227L146.619 80.9778C146.426 80.8585 146.231 80.744 146.035 80.6329C145.68 80.4308 145.32 80.2408 144.955 80.063C144.213 79.7008 143.448 79.3863 142.665 79.1215L142.589 79.0951L142.479 79.0596L142.219 78.9791C142.014 78.9175 141.806 78.8582 141.6 78.8035C141.194 78.6956 140.787 78.6012 140.377 78.5202C139.933 78.4332 139.485 78.3601 139.037 78.3052C138.813 78.277 138.588 78.253 138.362 78.2333L137.99 78.2048L137.908 78.1991L137.725 78.1904C137.367 78.1745 137.005 77.9548 137 77.5605C136.99 77.2254 137.253 76.8136 137.63 76.836C141.121 76.9854 144.512 78.0457 147.466 79.9116C148.31 80.447 149.114 81.044 149.871 81.6978C149.998 81.8195 150.073 81.9854 150.081 82.1611C150.089 82.3368 150.029 82.5089 149.914 82.6416C149.798 82.7743 149.636 82.8576 149.461 82.8741C149.286 82.8905 149.111 82.839 148.973 82.7301L148.979 82.7241Z" fill="white"/>
<path d="M147.749 74.0556C147.651 73.9705 147.544 73.8964 147.439 73.8198L147.279 73.7084C147.105 73.5868 147.396 73.7808 147.217 73.6651C147.006 73.5324 146.793 73.4067 146.571 73.2905C146.35 73.1744 146.126 73.071 145.897 72.9735C145.777 72.9241 145.657 72.8769 145.535 72.8321L145.352 72.7666C145.151 72.6979 145.477 72.8033 145.272 72.7416C144.797 72.5962 144.31 72.4902 143.817 72.4246C143.688 72.4075 143.56 72.3938 143.43 72.3825C143.43 72.3825 143.225 72.3741 143.347 72.3758L143.146 72.3626C142.889 72.351 142.627 72.3603 142.367 72.3761C142.194 72.3758 142.027 72.3097 141.901 72.1912C141.774 72.0726 141.698 71.9105 141.686 71.7377C141.675 71.5648 141.73 71.394 141.84 71.26C141.949 71.126 142.106 71.0387 142.278 71.0157C144.574 70.8844 146.839 71.5981 148.645 73.0222C148.781 73.1416 148.864 73.3098 148.877 73.4903C148.89 73.6708 148.83 73.849 148.712 73.986C148.591 74.1196 148.423 74.2013 148.244 74.2141C148.064 74.2268 147.886 74.1697 147.747 74.0545L147.749 74.0556Z" fill="white"/>
<path d="M24.6933 44.4923L24.8725 44.5131L24.9605 44.5243L25.0837 44.5419L25.2261 44.5627C25.4405 44.5979 25.6549 44.6363 25.8661 44.6795C26.2928 44.767 26.7131 44.8737 27.1269 44.9995C27.5408 45.1254 27.9376 45.2657 28.3173 45.4203L28.4773 45.4891L28.5125 45.5051L28.8085 45.6379C29.0165 45.7355 29.2213 45.8363 29.4245 45.9419C29.5021 45.9872 29.5878 46.0168 29.6767 46.0289C29.7657 46.0411 29.8562 46.0356 29.943 46.0128C30.0298 45.99 30.1113 45.9503 30.1828 45.896C30.2543 45.8417 30.3144 45.7738 30.3597 45.6963C30.405 45.6188 30.4346 45.5331 30.4467 45.4441C30.4589 45.3552 30.4534 45.2647 30.4306 45.1779C30.4078 45.091 30.3681 45.0095 30.3138 44.938C30.2595 44.8665 30.1917 44.8064 30.1141 44.7611C28.4227 43.8808 26.5814 43.3251 24.6853 43.1227C24.3269 43.0843 23.9845 43.4651 24.0005 43.8075C24.0058 43.9873 24.0797 44.1583 24.207 44.2854C24.3344 44.4124 24.5055 44.4859 24.6853 44.4907L24.6933 44.4923Z" fill="white"/>
<path d="M28.6492 34.3707C30.4986 36.8669 32.493 39.2524 34.6221 41.5147C35.2151 42.1472 35.8205 42.7686 36.4381 43.3787C36.498 43.454 36.5731 43.5158 36.6586 43.56C36.7441 43.6043 36.8379 43.63 36.934 43.6354C37.0301 43.6409 37.1262 43.6259 37.2161 43.5916C37.306 43.5573 37.3877 43.5044 37.4557 43.4364C37.5238 43.3683 37.5767 43.2867 37.611 43.1968C37.6453 43.1069 37.6602 43.0107 37.6548 42.9146C37.6493 42.8186 37.6236 42.7247 37.5794 42.6392C37.5351 42.5538 37.4734 42.4786 37.3981 42.4187C35.2564 40.2866 33.2407 38.0316 31.3612 35.6651C30.822 34.9867 30.3692 34.3979 29.838 33.6827C29.6252 33.3963 29.2364 33.2219 28.902 33.4379C28.6188 33.6203 28.422 34.0667 28.6572 34.3739L28.6492 34.3707Z" fill="white"/>
<path d="M39.565 31.0273C40.1922 32.4449 40.7789 33.9105 41.325 35.4241C41.8711 36.9377 42.3645 38.471 42.805 40.0241C42.8552 40.197 42.9716 40.3431 43.1288 40.4309C43.286 40.5187 43.4715 40.541 43.645 40.493C43.8186 40.4451 43.9663 40.3307 44.0561 40.1746C44.1459 40.0186 44.1707 39.8334 44.125 39.6593C43.4265 37.2046 42.5949 34.7898 41.6338 32.4257C41.349 31.7313 41.0535 31.0353 40.7474 30.3377C40.6018 30.0081 40.0978 29.9073 39.8114 30.0913C39.6587 30.1865 39.5482 30.3364 39.5024 30.5104C39.4566 30.6843 39.479 30.8692 39.565 31.0273Z" fill="white"/>
<path d="M50.2637 35.8849L50.5213 38.9393C50.5501 39.2945 50.8141 39.6417 51.2045 39.6241C51.5501 39.6081 51.9213 39.3217 51.8893 38.9393L51.6317 35.8849C51.6013 35.5297 51.3389 35.1841 50.9469 35.2017C50.6029 35.2177 50.2317 35.5041 50.2637 35.8849Z" fill="white"/>
<path d="M127.514 38.1766C126.295 40.5152 124.564 42.5574 122.459 44.1412C116.365 48.8431 111.697 49.2279 108.964 51.1115C108.509 51.4355 108.444 51.7437 108.129 51.4318C107.815 51.1198 108.311 50.7779 108.524 50.5179C109.731 48.9173 111.783 41.6913 114.819 37.5985C116.438 35.221 118.611 33.2727 121.136 31.9366C123.114 30.9944 126.984 29.8592 128.54 31.3778C130.097 32.8963 127.875 37.3414 127.514 38.1766Z" fill="#08BC3F"/>
<path d="M124.227 60.2312C122.33 60.4855 120.418 60.4512 118.556 60.1296C115.652 59.6355 112.698 59.4099 109.73 59.4554C109.02 59.5142 116.189 53.5967 120.145 51.1926C122.866 49.5463 127.726 47.7273 131.55 49.3783C133.347 50.1054 134.745 51.0524 135.14 52.401C135.651 54.0273 132.103 59.0208 124.227 60.2312Z" fill="#08BC3F"/>
<path d="M127.514 38.1766C126.295 40.5152 124.564 42.5574 122.459 44.1412C116.365 48.8431 111.697 49.2279 108.964 51.1115C108.509 51.4355 108.444 51.7437 108.129 51.4318C107.815 51.1198 108.311 50.7779 108.524 50.5179C109.731 48.9173 111.783 41.6913 114.819 37.5985C116.438 35.221 118.611 33.2727 121.136 31.9366C123.114 30.9944 126.984 29.8592 128.54 31.3778C130.097 32.8963 127.875 37.3414 127.514 38.1766Z" fill="#07A136"/>
<path d="M124.227 60.2312C122.33 60.4855 120.418 60.4512 118.556 60.1296C115.652 59.6355 112.698 59.4099 109.73 59.4554C109.02 59.5142 116.189 53.5967 120.145 51.1926C122.866 49.5463 127.726 47.7273 131.55 49.3783C133.347 50.1054 134.745 51.0524 135.14 52.401C135.651 54.0273 132.103 59.0208 124.227 60.2312Z" fill="#07A136"/>
<path d="M122.115 68.6104C119.111 68.9822 116.103 68.4368 113.483 67.045C109.191 64.685 106.778 65.0474 106.778 65.0474C106.714 64.6752 107.427 63.9596 107.088 64.0184C108.909 63.4453 110.652 62.6198 112.266 61.5663C114.74 59.8665 117.734 57.4306 124.371 58.2346C125.437 58.3659 130.899 60.0685 130.5 63.0232C130.1 65.978 125.197 67.9991 122.115 68.6104Z" fill="#08BC3F"/>
<path d="M110.055 31.0769C107.206 34.1191 105.38 37.9759 104.853 42.0611C104.641 44.8514 104.625 47.6451 104.804 50.4209C104.596 51.0867 109.441 48.0032 114.508 42.1935C116.659 39.8564 118.063 36.9306 118.525 33.8233C118.681 32.6285 118.996 28.543 116.708 27.6285C114.419 26.7139 110.803 30.3061 110.055 31.0769Z" fill="#08BC3F"/>
<path d="M94.5091 41.8116C93.765 44.4474 93.7888 47.2125 94.5776 49.7689C95.1945 51.8416 95.983 53.8517 96.9351 55.7784C97.2696 55.9138 97.4419 56.399 97.585 56.0414C99.5935 54.0734 101.185 51.7161 102.255 49.1242C103.307 46.6092 103.917 43.9449 104.057 41.2546C103.984 36.7929 101.867 34.3894 100.169 34.4988C97.7157 34.6948 95.4544 38.6853 94.5091 41.8116Z" fill="#08BC3F"/>
<path d="M127.336 40.6442C124.699 40.9684 122.149 41.9135 119.892 43.403C113.481 47.8498 111.931 52.6127 109.406 54.846C108.825 55.3609 108.03 57.1514 109.132 56.3395C112.182 54.111 115.805 54.5613 117.74 54.6054C121.082 54.7178 124.41 53.6753 127.178 51.6493C132.755 47.6502 133.771 43.7098 133.182 42.4211C132.392 40.7395 128.926 40.4217 127.336 40.6442Z" fill="#08BC3F"/>
<path d="M109.204 63.7668C106.027 64.0279 102.889 64.7869 99.9026 66.0164C104.19 62.5166 109.058 59.8346 114.251 58.1101C121.866 55.5013 130.409 53.5795 130.409 53.5795C124.597 54.3243 118.848 55.6522 113.249 57.5432C110.04 58.619 106.888 59.8837 103.811 61.3306C104.299 60.824 104.843 60.2936 105.443 59.6825C114.534 50.6645 128.638 44.079 128.638 44.079C128.638 44.079 113.894 50.4054 106.496 57.2691C104.98 58.6754 102.546 61.0377 100.021 63.3749C100.477 62.1628 102.269 58.1671 107.126 52.9996C112.509 47.3175 125.77 33.7887 125.873 33.6803C125.976 33.5719 112.494 46.1569 105.9 53.0574C103.967 55.0914 101.605 57.5983 99.5847 59.8857C101.178 57.3909 103.251 53.9936 105.975 49.5555C109.387 43.6618 112.26 37.4827 114.558 31.0986C111.896 37.0014 108.936 42.7732 105.691 48.3906C102.997 52.8222 100.013 57.0755 96.7611 61.1209C97.1678 59.4502 97.5796 57.2738 98.1141 54.5006C99.0864 49.0038 99.5407 43.4482 99.4707 37.9092C99.1637 43.1566 98.4877 48.3911 97.4479 53.5731C95.6414 61.8682 94.95 63.2621 93.0647 65.731C90.3647 69.2554 94.1379 72.4789 97.3618 69.6398C99.7071 67.5878 102.998 65.1914 110.036 64.5189C117.933 63.7554 126.556 63.8857 126.556 63.8857C120.812 63.29 115.002 63.2502 109.204 63.7668Z" fill="#08BC3F"/>
<path d="M109.204 63.7668C106.027 64.0279 102.889 64.7869 99.9026 66.0164C104.19 62.5166 109.058 59.8346 114.251 58.1101C121.866 55.5013 130.409 53.5795 130.409 53.5795C124.597 54.3243 118.848 55.6522 113.249 57.5432C110.04 58.619 106.888 59.8837 103.811 61.3306C104.299 60.824 104.843 60.2936 105.443 59.6825C114.534 50.6645 128.638 44.079 128.638 44.079C128.638 44.079 113.894 50.4054 106.496 57.2691C104.98 58.6754 102.546 61.0377 100.021 63.3749C100.477 62.1628 102.269 58.1671 107.126 52.9996C112.509 47.3175 125.77 33.7887 125.873 33.6803C125.976 33.5719 112.494 46.1569 105.9 53.0574C103.967 55.0914 101.605 57.5983 99.5847 59.8857C101.178 57.3909 103.251 53.9936 105.975 49.5555C109.387 43.6618 112.26 37.4827 114.558 31.0986C111.896 37.0014 108.936 42.7732 105.691 48.3906C102.997 52.8222 100.013 57.0755 96.7611 61.1209C97.1678 59.4502 97.5796 57.2738 98.1141 54.5006C99.0864 49.0038 99.5407 43.4482 99.4707 37.9092C99.1637 43.1566 98.4877 48.3911 97.4479 53.5731C95.6414 61.8682 94.95 63.2621 93.0647 65.731C90.3647 69.2554 94.1379 72.4789 97.3618 69.6398C99.7071 67.5878 102.998 65.1914 110.036 64.5189C117.933 63.7554 126.556 63.8857 126.556 63.8857C120.812 63.29 115.002 63.2502 109.204 63.7668Z" fill="#2FC65D"/>
<path d="M33.5099 55.5724C30.3049 63.7722 32.6061 71.2994 39.0807 75.1607C46.3744 79.485 52.1389 79.8068 57.9511 75.4568C64.5026 70.5236 33.5099 55.5724 33.5099 55.5724Z" fill="#08BC3F"/>
<path d="M33.4052 55.6558C30.2269 63.0901 32.574 70.2305 39.0938 74.2122C46.4383 78.6739 52.228 79.3204 58.0428 75.6242C64.5972 71.4299 33.4052 55.6558 33.4052 55.6558Z" fill="#07A136"/>
<path d="M52.184 78.5816C51.1523 78.7571 49.6377 77.9145 48.7022 77.4735C47.7667 77.0326 46.997 76.0056 45.984 75.5718C44.3988 74.8869 42.1093 75.5 41.2417 73.9309C40.6584 72.8371 41.2551 71.3655 40.8893 70.1674C40.3169 68.4719 38.9119 68.9013 38.4948 67.1463C38.0019 65.0599 40.1857 63.9195 39.9722 61.7668C39.8469 60.5323 38.9316 59.1886 40.0717 57.5466C40.5559 56.8493 42.1551 56.3381 42.7858 55.792C43.6032 55.0888 43.5686 54.2912 44.2163 53.4442C45.0902 52.32 45.8598 51.8799 48.5078 52.382C50.0563 52.6755 50.5516 52.8058 51.6974 51.5776C53.1314 50.0424 53.9826 50.3099 54.6779 50.7271C55.5664 51.2731 55.7809 51.7482 56.6698 52.204C58.0225 52.8877 59.2609 51.7277 60.4408 52.8394C61.6208 53.9512 61.203 55.3034 62.0171 56.7293C62.4779 57.5215 63.375 57.8946 63.9292 58.6271C64.6566 59.5854 65.0863 60.7257 65.1676 61.9134C65.3427 64.0861 64.975 66.2677 64.0958 68.2729C61.8735 73.8143 57.3115 77.7115 52.184 78.5816Z" fill="#08BC3F"/>
<path d="M52.2544 77.7981C51.2183 77.9007 49.6919 77.0141 48.7496 76.5414C47.8072 76.0686 47.0287 75.0535 46.0084 74.5828C44.4118 73.8405 42.1137 74.2791 41.2341 72.7469C40.6425 71.6801 41.2351 70.329 40.8617 69.1772C40.2782 67.5437 38.8681 67.863 38.4404 66.183C37.9349 64.1859 40.1242 63.2438 39.8991 61.2012C39.7672 60.0297 38.8408 58.7071 39.9787 57.2284C40.4619 56.6005 42.0667 56.2159 42.6979 55.7395C43.5161 55.1263 43.4775 54.3722 44.1243 53.6131C44.9972 52.6064 45.7685 52.2384 48.4323 52.873C49.9901 53.2441 50.4886 53.3972 51.6341 52.309C53.068 50.9489 53.9247 51.253 54.6256 51.6887C55.5212 52.2576 55.7391 52.7185 56.6347 53.2024C57.9976 53.9295 59.2366 52.9112 60.4279 54.0313C61.6193 55.1513 61.2059 56.4007 62.031 57.7947C62.4981 58.5696 63.4015 58.976 63.9621 59.7004C64.6978 60.6482 65.1352 61.7494 65.2227 62.8742C65.4092 64.9332 65.0503 66.9677 64.1764 68.8047C61.9698 73.8937 57.4036 77.2902 52.2544 77.7981Z" fill="#07A136"/>
<path d="M41.9716 46.865C42.949 46.283 44.077 45.9832 45.2235 46.0007C46.432 46.097 47.5446 46.7645 48.7454 46.8457C50.6438 46.9378 52.8055 45.5641 54.2564 46.7449C55.2751 47.57 55.1816 49.1645 56.0368 50.1392C57.2618 51.5295 58.5529 50.6481 59.6379 52.1431C60.9306 53.9325 59.0998 55.7517 60.1359 57.6979C60.7191 58.8067 62.179 59.7468 61.6109 61.685C61.3664 62.4963 59.9117 63.5274 59.4583 64.2625C58.8799 65.2001 59.2249 65.9165 58.863 66.9529C58.3831 68.3123 57.7518 68.9863 54.8276 69.4308C53.098 69.6857 52.5552 69.7357 51.8341 71.2819C50.925 73.2185 49.9482 73.2588 49.0655 73.104C47.9505 72.9029 47.5184 72.5321 46.4495 72.414C44.7996 72.2328 43.9547 73.7484 42.3148 73.146C40.5435 72.4602 40.6126 71.0988 39.2308 70.0462C38.4589 69.4631 37.3895 69.4277 36.5396 68.927C35.4539 68.3022 34.5804 67.3825 34.0268 66.2814C32.941 64.1162 32.4338 61.7205 32.5519 59.315C32.8325 54.5616 37.0056 49.4511 41.9716 46.865Z" fill="#08BC3F"/>
<path d="M54.6507 58.852C54.4122 58.6758 54.1528 58.528 53.878 58.4118C53.556 58.2454 53.2227 58.1005 52.8805 57.9781C52.4378 57.7982 51.9859 57.6402 51.5266 57.505C50.3317 57.1347 49.1028 56.8767 47.857 56.7345C46.3273 56.5758 44.7848 56.5682 43.2535 56.7119C41.7221 56.8691 40.2115 57.1794 38.7457 57.6376C37.5516 58.0142 36.3969 58.4998 35.297 59.0877C34.8749 59.3163 34.4649 59.5653 34.0686 59.834C33.7583 60.0173 33.4619 60.222 33.1818 60.4466C32.9242 60.6149 32.6866 60.8106 32.4735 61.0299C32.5274 61.0979 33.5547 60.2829 35.4351 59.3517C36.535 58.805 37.6808 58.3501 38.8601 57.9918C40.3065 57.5709 41.7892 57.2785 43.2901 57.1183C44.7963 56.9905 46.3114 56.998 47.8161 57.1406C49.0439 57.2691 50.2586 57.4965 51.4475 57.8206C53.4442 58.357 54.6192 58.9572 54.6507 58.852Z" fill="#11142C"/>
<path d="M53.2875 51.4875C52.8183 51.4599 52.3483 51.5267 51.9069 51.6839C49.7189 52.296 47.8304 53.6511 46.5858 55.5021C46.3055 55.8646 46.103 56.2781 45.9904 56.718C46.8689 55.4928 47.918 54.3915 49.1076 53.4456C50.3967 52.6013 51.8045 51.9418 53.2875 51.4875Z" fill="#11142C"/>
<path d="M50.2084 66.3541C49.6028 66.0322 48.9719 65.7574 48.3216 65.5323C46.784 64.9627 45.3473 64.1636 44.0635 63.164C42.8415 62.106 42.0173 60.6831 41.7208 59.1199C41.6364 58.4636 41.6061 57.8018 41.6304 57.1408C41.5386 57.3031 41.4822 57.4821 41.4649 57.6666C41.3842 58.1649 41.3815 58.6722 41.4571 59.1713C41.6821 60.8338 42.5192 62.3611 43.8139 63.4712C45.1279 64.5025 46.6229 65.2949 48.2271 65.8102C48.8651 66.0611 49.5295 66.2435 50.2084 66.3541Z" fill="#11142C"/>
<path d="M41.2978 67.7691C41.2981 67.7014 40.7178 67.5255 39.8912 67.0098C38.8302 66.2768 37.9157 65.3621 37.1927 64.3106C36.4463 63.2734 35.8621 62.1348 35.4588 60.9316C35.1536 60.0047 35.0947 59.4251 35.0327 59.4248C34.9602 59.9637 35.013 60.5116 35.187 61.0281C35.5226 62.2919 36.0886 63.4872 36.8582 64.5573C37.6079 65.6507 38.5918 66.5742 39.7426 67.2649C40.2079 67.5596 40.7434 67.7332 41.2978 67.7691Z" fill="#11142C"/>
<path d="M41.4671 51.317C41.0036 51.4238 40.5675 51.6214 40.1853 51.8975C39.2109 52.5029 38.3713 53.2918 37.7163 54.2176C37.0618 55.1481 36.6251 56.2066 36.4368 57.3184C36.3302 57.7713 36.3278 58.2413 36.4296 58.6952C36.5636 58.2617 36.6669 57.8198 36.7388 57.3726C37.0034 56.3263 37.4545 55.3329 38.0717 54.4375C39.5243 52.3306 41.5595 51.4303 41.4671 51.317Z" fill="#11142C"/>
<path d="M44.1133 56.9938C40.0882 57.2961 36.3308 58.5466 33.4484 60.5432C36.5623 59.0241 41.4467 57.7739 45.0268 57.7593C48.814 57.8333 52.5612 58.3417 56.1212 59.2645C52.6143 57.5402 48.3643 56.7365 44.1133 56.9938Z" fill="#07A136"/>
<path d="M46.1794 47.2019C46.1794 47.2019 46.0257 46.9604 45.5616 46.7926C44.8919 46.5937 44.1709 46.6356 43.5304 46.9105C41.4906 47.7633 39.6415 48.9936 38.0863 50.5326C36.5167 52.0643 35.2515 53.8638 34.3539 55.8408C34.0888 56.4388 33.8654 57.0535 33.6855 57.6807C33.6006 57.9077 33.5523 58.146 33.5423 58.3872C33.6043 58.3875 33.8961 57.426 34.6168 55.9549C35.5695 54.0502 36.8379 52.3104 38.3716 50.8048C39.9063 49.3029 41.6987 48.0719 43.6685 47.167C44.2507 46.8908 44.9115 46.8119 45.5453 46.943C45.7619 47.0166 45.9737 47.1031 46.1794 47.2019Z" fill="white"/>
<path d="M53.74 47.9159C53.7865 47.9161 53.6874 47.6071 53.2936 47.3193C52.7713 46.978 52.1344 46.843 51.513 46.9419C50.9184 47.0455 50.3509 47.2626 49.8434 47.5807C49.4624 47.8196 49.2522 47.9991 49.2752 48.0443C49.2982 48.0896 49.5699 48.0007 49.9738 47.8296C50.4827 47.5982 51.0202 47.4314 51.573 47.3334C52.1009 47.2521 52.6419 47.331 53.1219 47.5592C53.5162 47.7417 53.6933 47.9532 53.74 47.9159Z" fill="white"/>
<path d="M58.8782 53.6065C58.9247 53.6067 58.7561 53.2523 58.3164 52.8514C57.742 52.3366 57.0289 51.9907 56.26 51.8537C55.491 51.7167 54.6978 51.7944 53.9726 52.0777C53.4211 52.3007 53.1951 52.5478 53.1949 52.5854C54.1579 52.2501 55.1857 52.1266 56.2039 52.2241C57.1931 52.4787 58.1084 52.9518 58.8782 53.6065Z" fill="white"/>
<path d="M78.858 87.2616C77.638 90.8281 77.165 94.6076 77.4687 98.3648C77.5584 99.4672 77.7112 100.564 77.9263 101.648C77.9941 101.915 78.1643 102.145 78.3999 102.287C78.6356 102.429 78.9178 102.473 79.1855 102.408C79.4502 102.337 79.6772 102.166 79.8188 101.932C79.9605 101.697 80.0058 101.417 79.9454 101.149C79.5014 98.9397 79.3572 96.6805 79.5167 94.4326C79.554 93.8738 79.6098 93.3128 79.682 92.7567C79.7016 92.6124 79.7212 92.4681 79.7431 92.3245C79.765 92.1809 79.7627 92.1802 79.7562 92.28C79.7769 92.2098 79.7781 92.1364 79.7918 92.0641C79.8403 91.7782 79.8912 91.4931 79.9491 91.21C80.1788 90.0716 80.4837 88.9496 80.8616 87.8515C80.9367 87.5875 80.9054 87.3046 80.7743 87.0634C80.6432 86.8223 80.4228 86.6421 80.1604 86.5615C79.8961 86.4895 79.6141 86.5226 79.3736 86.6537C79.133 86.7848 78.9525 87.0039 78.8697 87.2651L78.858 87.2616Z" fill="#09AD3D"/>
<path d="M78.5774 101.906C78.2078 100.016 77.8062 98.0973 76.9595 96.36C76.1127 94.6227 74.7702 93.0574 72.9853 92.3208C72.7885 92.2157 72.5616 92.1813 72.3425 92.2231C72.1453 92.3005 71.9819 92.4452 71.8814 92.6317C71.2779 93.5757 71.3772 94.8106 71.6877 95.8813C72.129 97.3109 72.9081 98.6131 73.9592 99.6779C75.0102 100.743 76.3022 101.539 77.7259 101.998" fill="#09AD3D"/>
<path d="M79.5877 101.656C78.8823 98.0048 77.8 93.9572 74.4057 91.8794C73.4808 91.3145 72.2028 90.7221 71.3045 91.6912C70.5863 92.4718 70.3351 93.6187 70.4313 94.6569C70.5837 96.5153 71.4408 98.2607 72.6006 99.7035C73.8621 101.248 75.5446 102.394 77.4442 103.002C77.7042 103.065 77.9786 103.025 78.2104 102.892C78.4422 102.758 78.6136 102.54 78.6892 102.283C78.7648 102.027 78.7387 101.751 78.6163 101.513C78.494 101.275 78.2847 101.093 78.032 101.005C77.8541 100.953 77.6773 100.888 77.5043 100.819L77.2473 100.716C76.9607 100.601 77.4376 100.812 77.1618 100.678C76.8274 100.515 76.5019 100.334 76.1868 100.136C75.8953 99.9533 75.6142 99.7542 75.345 99.5399C75.5268 99.6825 75.2884 99.4902 75.2684 99.4716C75.1992 99.4131 75.129 99.3491 75.0681 99.288C74.9317 99.1639 74.7973 99.0328 74.6737 98.8997C74.4351 98.6558 74.2112 98.3979 74.0032 98.1274C73.9845 98.1219 73.8039 97.8627 73.9355 98.0465L73.7768 97.8166C73.6659 97.6491 73.5586 97.4777 73.4575 97.3029C73.2768 96.9956 73.1157 96.6771 72.9751 96.3495C72.9751 96.3495 72.8613 96.0794 72.9155 96.2149C72.9697 96.3504 72.8617 96.0694 72.8667 96.0784C72.7906 95.8704 72.7213 95.6566 72.6657 95.4393C72.6204 95.2734 72.5836 95.1048 72.5591 94.9374C72.5401 94.8377 72.5225 94.7333 72.512 94.631C72.5328 94.8279 72.5071 94.4922 72.5061 94.4868C72.5013 94.2833 72.5077 94.0797 72.5254 93.877C72.5146 94.0518 72.5206 93.8934 72.5316 93.8559C72.5695 93.7272 72.6067 93.6008 72.6446 93.472C72.7246 93.2005 72.5443 93.6053 72.6784 93.3573C72.7246 93.2712 72.7755 93.1877 72.8309 93.1072L72.7754 93.1748C72.9111 93.0596 72.8546 93.0786 72.61 93.2355C72.5521 93.2368 72.4943 93.2342 72.4368 93.2277C72.4691 93.2042 72.6708 93.2966 72.7072 93.32C73.0006 93.4293 72.5354 93.2211 72.81 93.3681C72.9973 93.4665 73.1852 93.5625 73.3629 93.6759C73.5407 93.7893 73.6624 93.8683 73.806 93.9768C73.886 94.0334 73.9629 94.0916 74.0385 94.1546C73.8707 94.0162 74.1143 94.2252 74.1263 94.2364C74.4189 94.4986 74.6917 94.7821 74.9424 95.0846C75.0472 95.2121 75.1491 95.3413 75.2479 95.4722C75.1256 95.3089 75.3155 95.5709 75.3228 95.5807C75.3781 95.6606 75.4321 95.7451 75.4844 95.8267C75.6967 96.1596 75.8898 96.5044 76.063 96.8593C76.1721 97.0847 76.2752 97.3135 76.3699 97.5448C76.3699 97.5448 76.4947 97.8639 76.43 97.6948C76.4698 97.793 76.5058 97.8952 76.5425 97.995C76.697 98.4322 76.8342 98.8762 76.9542 99.3269C77.1883 100.268 77.3758 101.204 77.5672 102.16C77.6349 102.428 77.8053 102.658 78.0415 102.8C78.2778 102.943 78.5607 102.986 78.8287 102.921C79.0932 102.849 79.3197 102.678 79.4609 102.443C79.6021 102.209 79.647 101.928 79.5863 101.661L79.5877 101.656Z" fill="#09AD3D"/>
<path d="M73.2885 120.367C70.3282 117.836 68.1212 114.539 66.9093 110.837C66.0723 108.263 65.7824 105.291 67.1883 102.978C68.3406 101.069 70.5474 99.8977 72.7702 99.812C74.9931 99.7263 77.2073 100.638 78.8726 102.117C80.2027 100.192 82.0598 98.5664 84.2836 97.8297C86.5074 97.0931 89.1113 97.346 90.9657 98.7797C92.9683 100.323 93.8149 102.925 94.2537 105.417C95.1383 110.577 94.331 116.533 90.2952 119.864C88.05 121.719 85.1261 122.501 82.2721 123.08C79.3668 123.67 75.703 123.794 74.1325 121.284" fill="#F96632"/>
<path d="M74.0454 119.654C73.2605 118.984 72.5257 118.257 71.8467 117.48C71.5119 117.097 71.1916 116.702 70.8859 116.295C70.8656 116.268 70.6411 115.968 70.7505 116.115L70.5245 115.794C70.3771 115.578 70.2304 115.359 70.0897 115.137C69.5445 114.278 69.0612 113.382 68.6436 112.455C68.5355 112.217 68.4336 111.976 68.3463 111.737C68.321 111.676 68.2957 111.615 68.2734 111.552C68.2686 111.569 68.3213 111.683 68.2686 111.569C68.2159 111.454 68.1666 111.284 68.1164 111.152C67.9374 110.655 67.7782 110.15 67.6466 109.638C67.5033 109.093 67.3944 108.539 67.3207 107.98C67.3134 107.927 67.3062 107.874 67.3012 107.822L67.2992 107.786C67.2896 107.646 67.2776 107.505 67.2704 107.365C67.2552 107.089 67.2507 106.81 67.261 106.533C67.2712 106.257 67.2859 106.017 67.3185 105.759C67.3254 105.736 67.3523 105.515 67.3321 105.644C67.312 105.773 67.3576 105.557 67.3535 105.528C67.3798 105.378 67.4116 105.227 67.4496 105.081C67.5052 104.849 67.5726 104.62 67.6515 104.395C67.6894 104.266 67.7467 104.14 67.8017 104.014C67.7879 104.061 67.7203 104.178 67.8093 103.988C67.8498 103.911 67.8873 103.836 67.925 103.768C68.0386 103.563 68.1633 103.365 68.2985 103.173C68.3677 103.077 68.4385 102.983 68.5116 102.89C68.3829 103.051 68.5816 102.817 68.6323 102.766C68.782 102.602 68.9412 102.448 69.1092 102.303C69.1984 102.225 69.2891 102.15 69.3839 102.079C69.4176 102.051 69.4537 102.023 69.4891 101.998C69.311 102.136 69.5403 101.962 69.5629 101.946C69.9498 101.696 70.3549 101.475 70.7748 101.285C70.6276 101.336 70.9168 101.218 70.7748 101.285L70.9006 101.238C71.0142 101.198 71.1264 101.162 71.241 101.127C71.4695 101.06 71.6985 101.008 71.9352 100.955C72.0671 100.931 72.2016 100.914 72.3329 100.892C72.1719 100.903 72.4641 100.869 72.3329 100.892C72.406 100.885 72.4798 100.877 72.5546 100.873C72.8606 100.851 73.1678 100.85 73.474 100.869C73.614 100.877 73.7557 100.889 73.8937 100.904L74.1046 100.93C73.9556 100.909 74.1351 100.939 74.1912 100.956C74.5027 101.014 74.8108 101.09 75.1142 101.182C76.2151 101.525 77.2359 102.086 78.1158 102.831C78.2271 102.943 78.3621 103.029 78.5109 103.083C78.6596 103.136 78.8185 103.155 78.9757 103.14C79.133 103.124 79.2847 103.073 79.4199 102.991C79.555 102.909 79.6701 102.798 79.7568 102.666C79.8758 102.495 79.9995 102.325 80.1248 102.158L80.3331 101.892C80.2231 102.032 80.4059 101.809 80.4414 101.766C80.7249 101.436 81.0256 101.121 81.3422 100.823C81.6583 100.527 81.9937 100.252 82.338 99.9892C82.4672 99.8873 82.2204 100.069 82.3545 99.9763L82.4728 99.8941C82.5527 99.8388 82.6342 99.7865 82.7127 99.7358C82.9014 99.6133 83.0951 99.4999 83.2883 99.3966C83.4815 99.2932 83.6575 99.2051 83.8436 99.1175L84.139 98.9781C84.139 98.9781 84.2926 98.9139 84.1938 98.956C84.0949 98.9981 84.2768 98.9245 84.2936 98.9193C84.7062 98.7682 85.1308 98.6524 85.563 98.5732C85.6765 98.5507 85.7886 98.5328 85.9023 98.5179L86.0483 98.4973C86.0037 98.502 85.8682 98.513 86.0693 98.5035C86.2705 98.4941 86.5277 98.4757 86.757 98.4745C86.9863 98.4734 87.1789 98.4843 87.3926 98.5014L87.684 98.5313L87.8283 98.5509C87.6746 98.5285 87.8119 98.546 87.8868 98.5681C88.3155 98.6523 88.7355 98.776 89.1414 98.9375C89.2023 98.9554 89.4042 99.0555 89.2444 98.9678C89.3472 99.0159 89.4471 99.0656 89.5485 99.1184C89.7476 99.2246 89.9407 99.3418 90.1269 99.4693C90.2076 99.5235 90.2876 99.5802 90.3645 99.6384C90.3903 99.646 90.544 99.7803 90.4455 99.7004C90.3469 99.6205 90.4734 99.7264 90.4837 99.7346C90.6448 99.8786 90.7998 100.026 90.9497 100.182C91.0996 100.338 91.2158 100.479 91.3402 100.635C91.3661 100.668 91.5087 100.858 91.4567 100.784C91.4047 100.71 91.4958 100.841 91.509 100.866L91.6117 101.018C91.8378 101.371 92.0396 101.739 92.2158 102.119L92.3314 102.374L92.4024 102.548C92.4024 102.548 92.4666 102.702 92.4258 102.598C92.3851 102.495 92.4412 102.641 92.4462 102.65L92.5105 102.829C92.5488 102.932 92.5842 103.036 92.6196 103.141C92.8798 103.953 93.0808 104.784 93.221 105.625C93.2569 105.832 93.2904 106.037 93.3209 106.245L93.3668 106.581C93.3741 106.634 93.4083 106.924 93.389 106.748C93.4375 107.188 93.4726 107.627 93.4943 108.066C93.5428 108.966 93.5319 109.869 93.4619 110.768C93.4455 110.979 93.4236 111.192 93.4002 111.401C93.389 111.499 93.3762 111.595 93.3626 111.693L93.343 111.837C93.3177 112.035 93.3603 111.778 93.3258 111.895C93.253 112.324 93.1725 112.753 93.0685 113.175C92.9646 113.597 92.8486 114.008 92.7033 114.416C92.6454 114.612 92.5664 114.803 92.4921 114.995C92.4653 115.086 92.422 115.172 92.3865 115.259L92.3123 115.433C92.268 115.532 92.2848 115.526 92.3123 115.433C91.9582 116.196 91.5265 116.922 91.024 117.597C90.9664 117.672 90.9095 117.744 90.8496 117.818C90.9745 117.661 90.7829 117.897 90.7494 117.933C90.6063 118.1 90.4545 118.261 90.2987 118.419C89.9929 118.727 89.6676 119.015 89.3248 119.282L89.2061 119.374C89.1872 119.386 89.0194 119.507 89.1121 119.443L89.0578 119.48L88.9341 119.563C88.741 119.692 88.5446 119.815 88.3442 119.934C87.9554 120.159 87.5555 120.363 87.1461 120.548C86.9486 120.64 86.7509 120.724 86.5608 120.808L86.4216 120.866C86.5716 120.806 86.4216 120.866 86.388 120.877L86.0579 120.996C85.6288 121.146 85.1959 121.283 84.7591 121.407C83.87 121.654 82.9663 121.863 82.0572 122.048C81.6516 122.13 81.2482 122.204 80.8317 122.262L80.5519 122.297C80.5519 122.297 80.3859 122.317 80.4989 122.304L80.3989 122.316C80.1819 122.336 79.9609 122.352 79.7378 122.375C79.3145 122.398 78.8902 122.397 78.4669 122.372C78.2689 122.362 78.0706 122.345 77.8737 122.322C77.8339 122.311 77.5811 122.28 77.6976 122.299L77.6601 122.288L77.4416 122.244C77.0601 122.16 76.6869 122.043 76.3266 121.892C76.5014 121.964 76.3594 121.902 76.2746 121.862C76.1898 121.822 76.1007 121.77 76.0163 121.72L75.8022 121.583L75.6653 121.487C75.6442 121.48 75.5047 121.358 75.605 121.441C75.7052 121.524 75.4835 121.326 75.4573 121.303L75.2801 121.119L75.1141 120.922C75.0899 120.892 74.9906 120.772 75.1141 120.922L75.0154 120.774C74.8792 120.538 74.6573 120.363 74.3959 120.286C74.1344 120.209 73.8534 120.236 73.611 120.36C73.1566 120.633 72.8816 121.283 73.1975 121.765C75.4542 125.27 80.2069 124.609 83.6857 123.817C85.6232 123.37 87.5712 122.784 89.2991 121.779C91.0188 120.787 92.4571 119.372 93.4779 117.668C95.5159 114.262 95.8768 110.108 95.4078 106.241C95.1942 104.375 94.7505 102.486 93.896 100.793C93.0169 98.9776 91.4781 97.5666 89.5939 96.8476C85.6947 95.4045 81.4879 97.2869 78.9341 100.302C78.5927 100.71 78.2676 101.123 77.9706 101.545L79.6116 101.379C77.7085 99.7047 75.2117 98.5956 72.6377 98.7509C71.5149 98.8084 70.4164 99.0983 69.4116 99.6024C68.4067 100.106 67.5175 100.814 66.8002 101.679C65.2079 103.632 64.9483 106.242 65.3133 108.656C65.659 110.938 66.5597 113.174 67.6906 115.173C68.952 117.41 70.5933 119.41 72.541 121.083C72.9464 121.434 73.591 121.56 74.0111 121.127C74.3733 120.76 74.4951 120.036 74.0547 119.657L74.0454 119.654Z" fill="#F96632"/>
<path d="M82.9613 102.897C83.3478 102.617 83.76 102.373 84.1925 102.171C84.2275 102.156 84.5799 102.013 84.3879 102.086C84.5076 102.042 84.6266 102.001 84.7496 101.964C84.9625 101.899 85.1786 101.846 85.3971 101.803C85.4347 101.797 85.8142 101.743 85.5988 101.766C85.7249 101.752 85.8591 101.746 85.9778 101.74C86.2007 101.735 86.4191 101.753 86.6395 101.765C86.7621 101.78 86.7621 101.78 86.6395 101.765L86.8222 101.801C86.9276 101.832 87.037 101.849 87.1431 101.877L87.4567 101.97C87.5012 101.983 87.8535 102.142 87.6351 102.037C87.8312 102.131 88.0205 102.239 88.2017 102.359C88.2357 102.382 88.5365 102.613 88.363 102.468C88.4579 102.547 88.5485 102.632 88.6345 102.721C88.721 102.807 88.7993 102.904 88.8813 102.997C89.0198 103.157 88.8239 102.881 88.943 103.081C89.0095 103.192 89.0766 103.301 89.137 103.416C89.1529 103.448 89.3096 103.797 89.2343 103.612C89.3146 103.824 89.3798 104.041 89.4295 104.262C89.458 104.39 89.4818 104.517 89.5049 104.646C89.5093 104.683 89.5592 105.066 89.539 104.867C89.5897 105.36 89.5987 105.856 89.6102 106.353C89.6079 106.489 89.6325 106.625 89.6826 106.752C89.7328 106.879 89.8075 106.995 89.9024 107.094C89.9974 107.192 90.1108 107.27 90.2361 107.325C90.3614 107.379 90.4962 107.408 90.6328 107.411C90.7694 107.413 90.9052 107.388 91.0322 107.338C91.1593 107.288 91.2753 107.213 91.3735 107.118C91.4718 107.023 91.5503 106.91 91.6047 106.785C91.6591 106.659 91.6883 106.525 91.6906 106.388C91.6818 104.526 91.4721 102.508 90.0256 101.167C89.3168 100.529 88.4632 100.072 87.5387 99.8379C86.6142 99.6034 85.6465 99.5974 84.7192 99.8206C83.7274 100.05 82.7909 100.474 81.9638 101.067C81.5208 101.379 81.2363 101.957 81.5503 102.472C81.8136 102.908 82.4864 103.223 82.9547 102.885L82.9613 102.897Z" fill="#FF983B"/>
<path d="M90.49 111.41C90.6873 111.468 90.8973 111.466 91.0935 111.405C91.2897 111.344 91.4634 111.225 91.5925 111.066C91.7216 110.906 91.8004 110.711 91.8189 110.506C91.8373 110.301 91.7947 110.096 91.6963 109.915C91.5979 109.735 91.4482 109.587 91.2661 109.492C91.084 109.397 90.8777 109.357 90.6733 109.379C90.4689 109.401 90.2755 109.483 90.1177 109.615C89.9598 109.746 89.8446 109.922 89.7865 110.119C89.7126 110.384 89.7448 110.666 89.8762 110.907C90.0076 111.148 90.2278 111.329 90.49 111.41Z" fill="#FF983B"/>
<path d="M72.2271 92.5969C72.5302 92.6633 72.8282 92.751 73.1189 92.8595L73.3271 92.9386C73.5173 93.0098 73.239 92.8923 73.3552 92.9468C73.4714 93.0014 73.646 93.091 73.7972 93.1736C74.0547 93.318 74.3019 93.48 74.537 93.6585C74.5628 93.6661 74.7421 93.8257 74.6426 93.7405C74.5431 93.6552 74.7215 93.8095 74.7391 93.8274C74.8626 93.935 74.9793 94.0482 75.0923 94.1654C75.2931 94.3795 75.4815 94.6048 75.6567 94.8403C75.728 94.935 75.5743 94.7143 75.6789 94.8773L75.8242 95.1007C75.9013 95.2277 75.9753 95.3563 76.044 95.4859C76.1127 95.6155 76.1776 95.7491 76.2372 95.8836C76.2372 95.8836 76.3401 96.1302 76.2902 96.0061C76.2402 95.882 76.3269 96.1059 76.3348 96.1311C76.435 96.4386 76.5125 96.753 76.5665 97.0718C76.6338 97.3389 76.8038 97.5687 77.0397 97.711C77.2755 97.8533 77.558 97.8967 77.8257 97.8317C78.0898 97.7595 78.316 97.5885 78.4575 97.3541C78.5989 97.1197 78.6448 96.8398 78.5856 96.5725C78.306 95.1251 77.6115 93.7901 76.5869 92.7302C75.5622 91.6702 74.2515 90.9311 72.8143 90.6027C72.2823 90.4918 71.6653 90.7298 71.5236 91.3062C71.3965 91.8156 71.6563 92.4797 72.2271 92.5969V92.5969Z" fill="#08BC3F"/>
<path d="M116.014 83.4279C114.886 82.6532 114.336 81.2652 114.625 79.9193C114.641 79.8182 114.688 79.7246 114.758 79.6504C115.003 79.4273 115.348 79.7512 115.573 79.9946C115.974 80.4181 116.531 80.6543 117.111 80.6465C117.316 80.6233 117.522 80.6306 117.725 80.668C117.983 80.7597 118.189 80.9584 118.291 81.2138C118.57 81.8212 118.415 82.5412 117.913 82.9781C117.411 83.4151 116.682 83.4631 116.128 83.0958" fill="#FF983B"/>
<path d="M116.301 82.9318L116.182 82.8498C116.049 82.7597 116.265 82.9237 116.146 82.8202C116.085 82.7678 116.025 82.7154 115.968 82.6589C115.91 82.6025 115.856 82.546 115.802 82.4855C115.77 82.4492 115.74 82.4116 115.709 82.3753C115.669 82.3255 115.678 82.339 115.709 82.3753C115.689 82.3497 115.67 82.3242 115.652 82.2973C115.561 82.1649 115.478 82.0266 115.405 81.8833C115.384 81.8389 115.364 81.7959 115.344 81.7488C115.276 81.6144 115.367 81.8187 115.335 81.73C115.303 81.6413 115.261 81.5338 115.232 81.4329C115.187 81.2781 115.152 81.1205 115.127 80.9611C115.15 81.1036 115.127 80.945 115.127 80.9221C115.127 80.8737 115.12 80.8253 115.118 80.7783C115.118 80.6815 115.118 80.5847 115.118 80.4879C115.118 80.3911 115.128 80.3279 115.136 80.2473C115.122 80.3911 115.136 80.2311 115.146 80.2083C115.154 80.1612 115.163 80.1142 115.175 80.0739C115.175 80.0604 115.203 79.973 115.203 79.9717C115.263 80.0295 114.916 80.1585 115.015 80.1343C114.998 80.1343 114.831 80.1169 114.882 80.1343C114.932 80.1518 114.91 80.1343 114.846 80.1142C114.873 80.1276 114.899 80.1429 114.924 80.1599C115.051 80.2271 114.855 80.0886 114.964 80.1881L115.036 80.2567C115.108 80.3252 115.17 80.3992 115.243 80.4677C115.403 80.6236 115.582 80.759 115.776 80.871C116.176 81.0984 116.626 81.2192 117.086 81.2219C117.197 81.2219 117.308 81.2098 117.421 81.2084C117.404 81.2084 117.6 81.2192 117.529 81.2084C117.459 81.1977 117.618 81.2353 117.618 81.2353C117.496 81.191 117.628 81.2515 117.649 81.2649C117.622 81.2394 117.565 81.2152 117.649 81.2649C117.676 81.2904 117.762 81.3993 117.686 81.2945C117.725 81.3469 117.753 81.4047 117.786 81.4598C117.801 81.4854 117.82 81.5579 117.786 81.4531C117.8 81.4988 117.817 81.5418 117.829 81.5875C117.841 81.6332 117.849 81.6789 117.858 81.722C117.858 81.7004 117.852 81.6023 117.858 81.7099C117.864 81.8039 117.864 81.8982 117.858 81.9922C117.858 81.9693 117.882 81.8752 117.858 81.9801C117.844 82.0405 117.83 82.1024 117.81 82.1615C117.81 82.1615 117.753 82.304 117.789 82.2261C117.825 82.1481 117.742 82.3107 117.734 82.3255C117.71 82.3659 117.684 82.4035 117.658 82.4438C117.725 82.339 117.646 82.4546 117.629 82.4721C117.612 82.4895 117.563 82.5379 117.528 82.5702C117.479 82.6119 117.493 82.6025 117.528 82.5702L117.468 82.6105C117.435 82.6307 117.399 82.6482 117.364 82.6697C117.307 82.6979 117.305 82.6966 117.364 82.6697L117.273 82.7019C117.243 82.7113 117.212 82.7208 117.181 82.7275C117.151 82.7342 116.955 82.7584 117.098 82.749C117.002 82.7544 116.906 82.7544 116.81 82.749C116.658 82.7423 116.919 82.7799 116.771 82.7409C116.726 82.7288 116.679 82.7194 116.638 82.7046C116.617 82.6979 116.481 82.6334 116.597 82.6925C116.539 82.663 116.483 82.632 116.43 82.5984C116.158 82.4417 115.812 82.5331 115.652 82.8041C115.501 83.0783 115.591 83.4237 115.856 83.5878C116.802 84.1718 118.037 83.906 118.664 82.9829C118.95 82.532 119.059 81.9899 118.97 81.4625C118.895 80.9665 118.595 80.4395 118.135 80.211C117.829 80.0591 117.521 80.0564 117.187 80.0685C117.123 80.0685 117.054 80.0685 116.995 80.0685C116.971 80.0685 116.836 80.0523 116.89 80.0604C116.943 80.0685 116.868 80.0604 116.862 80.0537L116.76 80.0322C116.7 80.0174 116.643 79.9999 116.585 79.9798L116.511 79.9529C116.534 79.9609 116.603 79.9986 116.503 79.9529C116.457 79.93 116.41 79.9072 116.363 79.8803C116.317 79.8534 116.274 79.8279 116.23 79.7983C116.186 79.7687 116.173 79.7593 116.145 79.7378C116.191 79.7727 116.169 79.7566 116.145 79.7284C115.965 79.5454 115.776 79.3726 115.577 79.2108C115.338 79.0237 115.027 78.9564 114.732 79.028C114.396 79.1437 114.15 79.4373 114.093 79.7916C113.745 81.3767 114.393 83.0153 115.728 83.9225C115.999 84.0808 116.346 83.9889 116.505 83.7169C116.656 83.4424 116.566 83.096 116.301 82.9318Z" fill="#FF983B"/>
<path d="M78.9857 54.4279C80.1142 53.6532 80.664 52.2652 80.3754 50.9193C80.3587 50.8182 80.3123 50.7246 80.2422 50.6504C79.997 50.4273 79.6519 50.7512 79.4268 50.9946C79.0263 51.4181 78.4692 51.6543 77.8891 51.6465C77.6845 51.6233 77.4775 51.6306 77.2749 51.668C77.0173 51.7597 76.8111 51.9584 76.7086 52.2138C76.4303 52.8212 76.5847 53.5412 77.0871 53.9781C77.5894 54.4151 78.318 54.4631 78.8725 54.0958" fill="#FF983B"/>
<path d="M78.6993 53.9318L78.8179 53.8498C78.9511 53.7597 78.7352 53.9237 78.8538 53.8202C78.9151 53.7678 78.9751 53.7154 79.0324 53.6589C79.0897 53.6025 79.1443 53.546 79.1976 53.4855C79.2296 53.4492 79.2602 53.4116 79.2909 53.3753C79.3308 53.3255 79.3215 53.339 79.2909 53.3753C79.3108 53.3497 79.3295 53.3242 79.3482 53.2973C79.4392 53.1649 79.5216 53.0266 79.5947 52.8833C79.616 52.8389 79.636 52.7959 79.6559 52.7488C79.7239 52.6144 79.6333 52.8187 79.6653 52.73C79.6972 52.6413 79.7386 52.5338 79.7679 52.4329C79.813 52.2781 79.8482 52.1205 79.8731 51.9611C79.8505 52.1036 79.8731 51.945 79.8731 51.9221C79.8731 51.8737 79.8798 51.8253 79.8825 51.7783C79.8825 51.6815 79.8825 51.5847 79.8825 51.4879C79.8825 51.3911 79.8718 51.3279 79.8638 51.2473C79.8785 51.3911 79.8638 51.2311 79.8545 51.2083C79.8465 51.1612 79.8372 51.1142 79.8252 51.0739C79.8252 51.0604 79.7972 50.973 79.7972 50.9717C79.7372 51.0295 80.0836 51.1585 79.9851 51.1343C80.0024 51.1343 80.1689 51.1169 80.1183 51.1343C80.0677 51.1518 80.0903 51.1343 80.1543 51.1142C80.1271 51.1276 80.1008 51.1429 80.0757 51.1599C79.9491 51.2271 80.1449 51.0886 80.0357 51.1881L79.9637 51.2567C79.8918 51.3252 79.8305 51.3992 79.7572 51.4677C79.5965 51.6236 79.4175 51.759 79.2242 51.871C78.8243 52.0984 78.3735 52.2192 77.9145 52.2219C77.8025 52.2219 77.692 52.2098 77.5787 52.2084C77.596 52.2084 77.4002 52.2192 77.4708 52.2084C77.5414 52.1977 77.3815 52.2353 77.3815 52.2353C77.5041 52.191 77.3722 52.2515 77.3509 52.2649C77.3775 52.2394 77.4348 52.2152 77.3509 52.2649C77.3242 52.2904 77.2376 52.3993 77.3136 52.2945C77.2749 52.3469 77.2469 52.4047 77.2136 52.4598C77.199 52.4854 77.1803 52.5579 77.2136 52.4531C77.2003 52.4988 77.183 52.5418 77.171 52.5875C77.159 52.6332 77.151 52.6789 77.1417 52.722C77.1417 52.7004 77.1483 52.6023 77.1417 52.7099C77.1357 52.8039 77.1357 52.8982 77.1417 52.9922C77.1417 52.9693 77.1177 52.8752 77.1417 52.9801C77.1563 53.0405 77.1696 53.1024 77.1896 53.1615C77.1896 53.1615 77.2469 53.304 77.211 53.2261C77.175 53.1481 77.2576 53.3107 77.2656 53.3255C77.2896 53.3659 77.3162 53.4035 77.3415 53.4438C77.2749 53.339 77.3535 53.4546 77.3708 53.4721C77.3882 53.4895 77.4375 53.5379 77.4721 53.5702C77.5214 53.6119 77.5068 53.6025 77.4721 53.5702L77.5321 53.6105C77.5654 53.6307 77.6014 53.6482 77.636 53.6697C77.6933 53.6979 77.6946 53.6966 77.636 53.6697L77.7266 53.7019C77.7572 53.7113 77.7879 53.7208 77.8185 53.7275C77.8492 53.7342 78.045 53.7584 77.9025 53.749C77.9983 53.7544 78.0944 53.7544 78.1903 53.749C78.3422 53.7423 78.081 53.7799 78.2289 53.7409C78.2742 53.7288 78.3209 53.7194 78.3622 53.7046C78.3835 53.6979 78.5194 53.6334 78.4035 53.6925C78.4608 53.663 78.5167 53.632 78.57 53.5984C78.8416 53.4417 79.1876 53.5331 79.3482 53.8041C79.4989 54.0783 79.4091 54.4237 79.1443 54.5878C78.1976 55.1718 76.9634 54.906 76.3356 53.9829C76.0499 53.532 75.9411 52.9899 76.0304 52.4625C76.105 51.9665 76.4048 51.4395 76.8645 51.211C77.171 51.0591 77.4788 51.0564 77.8132 51.0685C77.8772 51.0685 77.9464 51.0685 78.0051 51.0685C78.0291 51.0685 78.1636 51.0523 78.1103 51.0604C78.057 51.0685 78.1317 51.0604 78.1383 51.0537L78.2396 51.0322C78.2995 51.0174 78.3568 50.9999 78.4155 50.9798L78.4887 50.9529C78.4661 50.9609 78.3968 50.9986 78.4967 50.9529C78.5434 50.93 78.59 50.9072 78.6366 50.8803C78.6833 50.8534 78.7259 50.8279 78.7699 50.7983C78.8139 50.7687 78.8272 50.7593 78.8552 50.7378C78.8085 50.7727 78.8312 50.7566 78.8552 50.7284C79.0348 50.5454 79.2242 50.3726 79.4228 50.2108C79.6623 50.0237 79.973 49.9564 80.2675 50.028C80.6042 50.1437 80.8502 50.4373 80.9071 50.7916C81.2552 52.3767 80.6067 54.0153 79.2722 54.9225C79.0012 55.0808 78.6545 54.9889 78.4954 54.7169C78.3438 54.4424 78.4337 54.096 78.6993 53.9318Z" fill="#FF983B"/>
<path d="M54.0749 91.3384C52.707 91.2899 51.4985 90.4133 51.0202 89.1225C50.9801 89.0283 50.9691 88.9243 50.9884 88.8241C51.0757 88.5043 51.5407 88.5927 51.8612 88.6772C52.4264 88.8199 53.0233 88.7205 53.5087 88.4028C53.669 88.2734 53.8475 88.1686 54.0386 88.0915C54.3052 88.0307 54.5858 88.0878 54.8093 88.2484C55.37 88.6118 55.6258 89.3023 55.4362 89.9405C55.2465 90.5787 54.6573 91.01 53.9924 90.9974" fill="#FF983B"/>
<path d="M54.0506 90.7661L53.9066 90.7605C53.7458 90.7559 54.0159 90.7786 53.8603 90.7548C53.7805 90.7434 53.7018 90.7313 53.6231 90.7144C53.5445 90.6975 53.4681 90.6792 53.3907 90.6567C53.3442 90.6432 53.2982 90.6279 53.2528 90.6137C53.1924 90.5931 53.2075 90.5995 53.2528 90.6137C53.2223 90.6028 53.1928 90.5913 53.1627 90.5786C53.0148 90.5157 52.8711 90.4431 52.7325 90.3614C52.6908 90.3353 52.6508 90.3098 52.6087 90.2808C52.4793 90.2038 52.6653 90.3276 52.5907 90.2699C52.5162 90.2122 52.4236 90.1435 52.3448 90.0742C52.2237 89.9677 52.1095 89.8535 52.0029 89.7324C52.0984 89.8405 51.9942 89.7188 51.982 89.6995C51.956 89.6586 51.9245 89.6214 51.897 89.5831C51.8451 89.5014 51.7931 89.4197 51.7412 89.338C51.6893 89.2563 51.6644 89.1973 51.6279 89.1249C51.6927 89.2542 51.6193 89.1113 51.6149 89.087C51.5964 89.043 51.579 88.9983 51.5675 88.9579C51.5603 88.9465 51.5371 88.8577 51.5363 88.8566C51.6179 88.8732 51.3948 89.168 51.465 89.0947C51.4504 89.104 51.3005 89.1785 51.3526 89.1661C51.4047 89.1537 51.3762 89.1511 51.3114 89.1684C51.3415 89.1651 51.3719 89.1639 51.4022 89.1648C51.5451 89.1537 51.3056 89.1418 51.4511 89.1672L51.5486 89.1865C51.6461 89.2057 51.7375 89.2353 51.8361 89.2538C52.0553 89.2992 52.279 89.3175 52.5023 89.3084C52.9618 89.2858 53.407 89.1459 53.7959 88.902C53.8903 88.842 53.9772 88.7724 54.0721 88.7105C54.0574 88.7198 54.2285 88.6239 54.1631 88.6527C54.0978 88.6815 54.2529 88.6275 54.2529 88.6275C54.1257 88.6558 54.2694 88.6361 54.2946 88.636C54.2584 88.6287 54.1971 88.639 54.2946 88.636C54.3308 88.6433 54.4623 88.6887 54.342 88.6409C54.4027 88.6645 54.4573 88.6983 54.515 88.7269C54.5411 88.7406 54.5958 88.7919 54.5114 88.7212C54.5472 88.7527 54.5849 88.7797 54.6195 88.8118C54.6541 88.844 54.6854 88.8783 54.7163 88.9096C54.7048 88.8914 54.6465 88.8122 54.7098 88.8993C54.7653 88.9755 54.8159 89.055 54.8613 89.1376C54.849 89.1183 54.8188 89.026 54.8548 89.1274C54.8748 89.1863 54.8968 89.2456 54.9116 89.3063C54.9116 89.3063 54.9397 89.4573 54.9282 89.3722C54.9168 89.2871 54.9343 89.4687 54.9355 89.4854C54.9369 89.5323 54.9346 89.5784 54.9348 89.626C54.9348 89.5018 54.9305 89.6415 54.9252 89.6656C54.92 89.6896 54.9043 89.7569 54.8924 89.8027C54.8731 89.8643 54.8805 89.8485 54.8924 89.8027L54.8634 89.8689C54.8461 89.9038 54.8251 89.9378 54.8074 89.9746C54.7742 90.0291 54.7724 90.0287 54.8074 89.9746L54.7483 90.0504C54.7274 90.0748 54.7066 90.0991 54.6844 90.1213C54.6621 90.1434 54.5098 90.2688 54.6251 90.1844C54.547 90.2404 54.4659 90.2919 54.3822 90.3388C54.2503 90.4146 54.491 90.3063 54.3452 90.3527C54.3005 90.3668 54.2561 90.3839 54.2133 90.3935C54.1917 90.3993 54.0424 90.4177 54.1719 90.4055C54.1077 90.4112 54.0439 90.4152 53.9809 90.4154C53.6676 90.4287 53.4246 90.6915 53.4345 91.0063C53.4543 91.3186 53.7153 91.5619 54.0269 91.5584C55.1391 91.5435 56.0381 90.6573 56.073 89.5414C56.0722 89.0077 55.8733 88.4918 55.5151 88.0946C55.186 87.7159 54.6504 87.432 54.1398 87.4856C53.7997 87.5218 53.5385 87.6846 53.2627 87.8742C53.2087 87.9085 53.1503 87.9457 53.1008 87.9771C53.0805 87.99 52.9583 88.0485 53.0076 88.0268C53.0569 88.005 52.9896 88.0382 52.9804 88.0361L52.8834 88.0723C52.8249 88.0919 52.7671 88.1079 52.7068 88.1223L52.6306 88.139C52.654 88.1336 52.7327 88.1282 52.6238 88.1432C52.5722 88.149 52.5206 88.1547 52.4668 88.157C52.413 88.1593 52.3633 88.1606 52.3104 88.1593C52.2574 88.1579 52.2411 88.1571 52.2059 88.1539C52.2641 88.1584 52.2363 88.157 52.2009 88.146C51.9512 88.0879 51.6986 88.0437 51.4443 88.0136C51.1418 87.9841 50.8434 88.0941 50.6332 88.3124C50.4111 88.5906 50.361 88.9704 50.503 89.2999C51.0593 90.8244 52.4855 91.8596 54.0984 91.9096C54.412 91.8977 54.6554 91.6343 54.6438 91.3193C54.6245 91.0063 54.3629 90.7622 54.0506 90.7661Z" fill="#FF983B"/>
<path d="M110.008 87.5906C109.383 87.8676 108.749 88.1317 108.133 88.4252C107.815 88.5533 107.534 88.7579 107.315 89.0209C107.049 89.3668 106.982 89.8253 107.137 90.2326C107.409 90.9329 108.297 91.254 108.99 91.0958C109.647 90.9443 110.209 90.5231 110.539 89.9355C110.869 89.348 110.936 88.6486 110.724 88.009C110.569 87.6616 110.169 87.4969 109.814 87.6347C109.46 87.7725 109.276 88.1642 109.397 88.525C109.418 88.5706 109.433 88.6189 109.442 88.6686C109.447 88.6811 109.415 88.4997 109.418 88.5741C109.42 88.5991 109.424 88.6238 109.43 88.6481C109.434 88.6912 109.439 88.7343 109.441 88.7765C109.439 88.8015 109.439 88.8266 109.441 88.8515C109.434 88.8329 109.455 88.6833 109.441 88.7781C109.428 88.8728 109.41 88.9604 109.394 89.0526C109.378 89.1448 109.421 88.9651 109.418 88.9679C109.409 88.9913 109.401 89.0154 109.394 89.0399C109.377 89.0862 109.357 89.1332 109.335 89.1776C109.313 89.222 109.282 89.2664 109.266 89.3121C109.266 89.3121 109.354 89.1809 109.311 89.2353C109.296 89.2556 109.283 89.2785 109.269 89.2982C109.255 89.3179 109.216 89.369 109.188 89.4031C109.16 89.4372 109.033 89.5672 109.127 89.4769C109.221 89.3867 109.105 89.4854 109.083 89.514L108.979 89.592C108.943 89.6165 108.902 89.636 108.868 89.662C109.005 89.5548 108.992 89.5993 108.938 89.622L108.73 89.7031C108.618 89.7467 108.899 89.6768 108.752 89.6946L108.62 89.7116C108.514 89.728 108.665 89.7105 108.684 89.7191C108.65 89.7111 108.616 89.7071 108.581 89.7072C108.553 89.7039 108.526 89.6962 108.498 89.6928C108.429 89.684 108.571 89.7146 108.572 89.7161C108.523 89.692 108.472 89.671 108.42 89.6533C108.551 89.7494 108.315 89.6029 108.42 89.6533C108.405 89.6413 108.391 89.6251 108.377 89.6147C108.5 89.6974 108.459 89.7079 108.418 89.647C108.376 89.5862 108.492 89.7972 108.456 89.7181C108.451 89.7004 108.444 89.6832 108.436 89.6668C108.494 89.7464 108.467 89.8249 108.465 89.7414C108.465 89.7414 108.457 89.9237 108.466 89.809C108.469 89.7883 108.485 89.7103 108.46 89.8257C108.435 89.9411 108.509 89.7763 108.432 89.8906C108.555 89.7746 108.354 90.0048 108.432 89.8906C108.334 89.9789 108.46 89.8797 108.482 89.8532C108.504 89.8268 108.575 89.7989 108.614 89.7658C108.614 89.7658 108.465 89.8434 108.535 89.8094L108.606 89.7726C108.665 89.7496 108.723 89.7182 108.783 89.6931C109.36 89.4349 109.939 89.1791 110.518 88.9219C110.866 88.7671 111.03 88.3669 110.892 88.0124C110.755 87.6579 110.363 87.4741 110.002 87.5946L110.008 87.5906Z" fill="#FF983B"/>
</svg>
