<svg width="160" height="160" viewBox="0 0 160 160" fill="none" xmlns="http://www.w3.org/2000/svg">
<path d="M83.9981 6.70825H83.9965C42.0467 6.70825 8.03967 40.7153 8.03967 82.665V82.6666C8.03967 124.616 42.0467 158.623 83.9965 158.623H83.9981C125.948 158.623 159.955 124.616 159.955 82.6666V82.665C159.955 40.7153 125.948 6.70825 83.9981 6.70825Z" fill="#11142C"/>
<path d="M156.138 88.3832C155.639 84.9208 152.778 82.2728 149.738 80.532C146.698 78.7912 143.322 77.636 140.534 75.5256C134.847 71.2264 132.556 63.7464 127.61 58.612C120.026 50.7416 107.961 49.8248 97.8856 45.588C86.836 40.948 78.1144 32.1976 69.6968 23.668C66.9624 20.892 64.1768 18.0472 62.516 14.5272C61.1384 11.5992 60.4888 8.15124 58.0712 6.00244C40.8445 25.3742 23.7048 44.8195 6.65198 64.3384C5.89279 65.209 5.33061 66.2332 5.00393 67.3411C4.67724 68.4491 4.59376 69.6145 4.75918 70.7576C5.68398 77.1736 7.09838 80.9192 9.13678 84.5576C11.8328 89.3576 14.8648 93.9976 18.5224 98.124C21.6584 101.655 25.2776 104.81 29.4552 107.012C35.9 110.407 43.3208 111.372 50.1784 113.83C58.7514 116.917 66.3208 122.283 72.0728 129.35C78.74 137.567 91.604 148.903 99.1752 156.298C100.028 157.13 101.03 157.967 102.215 157.999C103.495 158.033 104.582 157.14 105.537 156.294C125.076 138.991 134.497 119.209 151.318 99.252C153.961 96.1272 156.724 92.4312 156.138 88.3832Z" fill="#73ACFF"/>
<path d="M156.793 88.2022C156.121 83.9974 152.473 81.1622 148.929 79.3174C146.873 78.2454 144.722 77.3526 142.725 76.1702C140.867 75.0581 139.211 73.6366 137.831 71.967C135.141 68.767 133.287 64.967 130.882 61.567C128.586 58.2687 125.573 55.5336 122.068 53.567C114.829 49.5158 106.45 48.3094 98.8118 45.247C90.2134 41.7958 82.9942 35.7526 76.3942 29.3846C73.0566 26.1638 69.6342 22.9174 66.6054 19.4006C65.1094 17.6614 63.7846 15.7734 62.8662 13.663C62.031 11.743 61.4614 9.70464 60.4134 7.88224C59.9173 7.00703 59.2897 6.21323 58.5526 5.52864C58.295 5.29184 57.847 5.24544 57.5926 5.52864C49.7515 14.3425 41.9275 23.1745 34.1206 32.0246C26.3137 40.8748 18.527 49.7398 10.7606 58.6198L7.86459 61.9222C6.9974 62.9142 6.0294 63.8726 5.3254 64.991C3.9686 67.1414 3.8662 69.4822 4.2534 71.9206C4.919 76.0998 6.04699 80.159 8.01819 83.9206C10.4125 88.4973 13.2627 92.8205 16.5254 96.8246C19.7606 100.778 23.5318 104.383 27.9654 106.965C32.495 109.602 37.5958 110.93 42.6166 112.276C47.5334 113.594 52.327 115.105 56.815 117.556C61.0372 119.855 64.9036 122.755 68.2934 126.164C69.8934 127.764 71.2966 129.524 72.7734 131.242C74.1174 132.81 75.5206 134.327 76.9494 135.818C83.2646 142.407 90.0598 148.511 96.655 154.813C98.0646 156.159 99.5846 158.189 101.58 158.609C103.98 159.113 105.913 156.911 107.5 155.461C111.383 151.892 115.045 148.089 118.468 144.076C125.015 136.436 130.748 128.161 136.548 119.949C139.532 115.722 142.541 111.511 145.684 107.399C147.326 105.249 149.01 103.13 150.733 101.042C152.349 99.0902 154.055 97.1814 155.3 94.9622C156.42 92.9558 157.129 90.7094 156.833 88.4022C156.724 87.5478 155.365 87.5366 155.477 88.4022C156.129 93.5014 151.825 97.5702 148.884 101.177C145.645 105.149 142.564 109.245 139.564 113.399C133.785 121.399 128.305 129.615 122.215 137.383C119.13 141.317 115.89 145.132 112.434 148.743C110.622 150.617 108.757 152.439 106.841 154.207C105.893 155.079 104.953 156.063 103.865 156.767C102.745 157.484 101.685 157.444 100.615 156.665C99.783 156.061 99.0758 155.257 98.3366 154.546C97.6411 153.877 96.9425 153.211 96.2406 152.548C94.6822 151.071 93.1185 149.599 91.5494 148.132C88.2006 144.985 84.8566 141.831 81.5926 138.596C78.631 135.657 75.7014 132.663 73.031 129.453C70.0742 125.897 66.8678 122.681 63.1254 119.943C59.3489 117.185 55.2081 114.965 50.8214 113.345C46.0134 111.565 40.9622 110.583 36.0902 109.005C31.1718 107.405 26.7446 105.005 22.8822 101.559C19.0198 98.1126 15.7958 93.9863 12.9862 89.6487C10.6582 86.055 8.39899 82.3222 7.0854 78.2214C6.40877 76.0431 5.89903 73.8164 5.5606 71.5606C5.3558 70.2806 5.255 69.0326 5.591 67.7558C5.91586 66.5795 6.51085 65.4953 7.3286 64.5894C14.871 55.911 22.4539 47.2678 30.0774 38.6598C37.6753 30.0294 45.2902 21.414 52.9222 12.8134L58.5494 6.47904H57.5894C59.143 7.90624 59.9382 9.84864 60.6742 11.7814C61.4582 13.8438 62.2918 15.8294 63.5542 17.6582C66.143 21.4262 69.6342 24.5894 72.8534 27.8006C79.271 34.1846 86.0758 40.431 94.183 44.607C101.642 48.447 109.999 49.727 117.69 52.9494C121.428 54.5174 124.951 56.647 127.677 59.6854C130.453 62.7798 132.335 66.535 134.647 69.9606C135.767 71.6118 136.977 73.2118 138.41 74.6006C140.01 76.1558 141.892 77.3398 143.879 78.3494C147.669 80.2694 152.132 81.8694 154.439 85.7094C154.969 86.5887 155.322 87.5624 155.481 88.5766C155.623 89.423 156.93 89.0582 156.793 88.2022Z" fill="#73ACFF"/>
<path d="M103.601 93.5992C107.831 92.9197 111.871 91.3585 115.458 89.0168C115.962 88.6872 116.482 88.3096 116.7 87.7496C116.86 87.3368 116.834 86.8792 116.807 86.4376C116.548 82.3842 116.289 78.3282 116.031 74.2696C115.921 72.5352 115.762 70.676 114.662 69.332C113.862 68.3544 112.666 67.796 111.516 67.2696C108.423 65.8568 105.222 64.4328 101.823 64.324C95.4233 64.1176 89.0457 68.5848 82.9849 66.5224C79.8649 65.4616 77.3273 62.756 74.0441 62.4648C72.0297 62.2872 70.0665 63.0616 68.1929 63.8216L58.0585 67.9352C55.8393 68.836 53.5657 69.7496 51.1785 69.8552C48.7913 69.9608 46.2089 69.1192 44.8617 67.1352C44.0905 66.0008 43.7513 64.5608 42.7417 63.6344C40.7481 61.804 37.5625 62.9656 34.8905 62.532C31.7193 62.0184 29.4505 59.2584 27.6185 56.62C25.4937 53.5672 23.5203 50.4146 21.6985 47.1624C16.6777 52.8797 11.6643 58.6024 6.65846 64.3304C5.89704 65.2013 5.33307 66.2266 5.00524 67.336C4.67742 68.4455 4.5935 69.6127 4.75926 70.7576C5.68406 77.1736 7.09846 80.9192 9.13686 84.5576C11.8329 89.3576 14.8649 93.9976 18.5225 98.124C21.6585 101.655 25.2777 104.81 29.4553 107.012C35.9001 110.407 43.3209 111.372 50.1785 113.83C55.4919 115.741 60.4435 118.537 64.8233 122.102C70.2073 121.871 75.5913 121.351 80.9561 120.831C82.1241 120.719 83.3849 120.564 84.2361 119.756C85.2921 118.751 85.3561 117.094 86.0905 115.834C87.6585 113.161 91.7353 112.988 93.5049 110.444C95.9897 106.871 92.2409 101.614 94.1849 97.7208C95.7801 94.5272 100.071 94.1624 103.601 93.5992Z" fill="#FFB72C"/>
<path d="M103.782 94.2534C106.183 93.8624 108.529 93.1912 110.774 92.2534C111.859 91.8023 112.918 91.2912 113.946 90.7222C114.882 90.2006 115.962 89.6582 116.726 88.8918C117.604 88.0102 117.516 86.9254 117.442 85.7734C117.356 84.4091 117.269 83.0448 117.182 81.6806C117.012 79.0294 116.862 76.3766 116.673 73.727C116.513 71.5062 116.033 69.3494 114.159 67.9478C113.236 67.2614 112.156 66.8166 111.119 66.3478C109.999 65.8454 108.879 65.3558 107.742 64.9302C105.502 64.0966 103.137 63.5462 100.734 63.6502C98.4409 63.7542 96.2041 64.3414 94.0009 64.9462C91.8841 65.527 89.7449 66.1718 87.5481 66.343C85.3994 66.5325 83.2428 66.0804 81.3513 65.0438C79.4969 64.039 77.7721 62.7414 75.7353 62.1126C73.3353 61.3734 70.9625 61.999 68.6953 62.8934C66.1833 63.887 63.6889 64.9222 61.1865 65.9334C58.7865 66.9046 56.4057 68.0134 53.9097 68.7078C51.8297 69.2822 49.5225 69.4598 47.5177 68.4966C46.6381 68.0972 45.8877 67.4599 45.3513 66.6566C44.7945 65.7878 44.4745 64.7862 43.8793 63.9366C42.6233 62.151 40.6137 61.8374 38.5689 61.8966C36.5241 61.9558 34.5977 62.1206 32.7641 61.0422C30.9769 59.9878 29.6313 58.3014 28.4441 56.631C26.9561 54.5334 25.5641 52.3654 24.2265 50.1638C23.5609 49.063 22.9129 47.9504 22.2825 46.8262C22.0793 46.463 21.5049 46.3606 21.2185 46.6886C16.6894 51.8459 12.1651 57.007 7.64566 62.1718C6.64086 63.327 5.53206 64.4262 4.87126 65.8198C4.26632 67.0731 3.96902 68.4526 4.00405 69.8438C4.04885 71.319 4.38646 72.8278 4.67766 74.271C4.92566 75.4982 5.21846 76.7174 5.57686 77.9174C7.05526 82.8918 9.83126 87.415 12.7113 91.6854C16.0713 96.6454 20.0041 101.306 24.8361 104.892C27.2028 106.636 29.7839 108.068 32.5161 109.154C35.3417 110.292 38.2761 111.108 41.2185 111.897C44.1609 112.685 47.1289 113.452 50.0041 114.484C52.8177 115.494 55.5317 116.763 58.1113 118.274C59.3838 119.021 60.6222 119.821 61.8265 120.674C62.4201 121.095 63.0073 121.527 63.5865 121.975C63.8713 122.196 64.1705 122.532 64.4921 122.693C64.8425 122.868 65.3401 122.764 65.7193 122.745C69.1145 122.585 72.5049 122.308 75.8905 121.999C77.5833 121.844 79.2755 121.684 80.9673 121.519C82.2473 121.393 83.5929 121.228 84.6025 120.356C85.5801 119.511 85.8697 118.229 86.2889 117.065C86.6456 116.063 87.3374 115.215 88.2473 114.665C90.0537 113.511 92.3129 112.959 93.7417 111.266C95.3145 109.402 95.1817 106.996 94.8281 104.729C94.4873 102.565 93.7449 100.005 94.8489 97.943C95.9257 95.9318 98.2809 95.2422 100.366 94.8262C101.5 94.599 102.649 94.4454 103.793 94.2646C104.652 94.127 104.287 92.8246 103.431 92.9558C100.273 93.4566 96.3305 93.727 94.2009 96.4662C91.9081 99.4166 93.4249 103.121 93.6873 106.434C93.8105 108.007 93.5961 109.573 92.4073 110.709C91.2409 111.82 89.6281 112.343 88.2377 113.101C86.7305 113.922 85.6137 114.997 85.0137 116.629C84.7081 117.461 84.5337 118.423 83.9385 119.114C83.3433 119.805 82.3529 120.007 81.4761 120.113C75.9657 120.773 70.3833 121.193 64.8361 121.434L65.3161 121.633C62.4698 119.316 59.3847 117.309 56.1129 115.647C52.7865 113.969 49.2921 112.724 45.7129 111.713C42.1337 110.701 38.5129 109.857 35.0041 108.641C31.5197 107.465 28.2426 105.746 25.2937 103.549C19.3481 99.0694 14.8169 92.8694 11.0537 86.5142C9.56246 83.9958 8.17366 81.447 7.23926 78.663C6.75299 77.1946 6.35442 75.6986 6.04566 74.183C5.68726 72.463 5.22646 70.6134 5.40566 68.8486C5.58966 66.9766 6.52566 65.527 7.73526 64.1478C9.10912 62.5744 10.4846 61.0022 11.8617 59.431C14.6137 56.2875 17.3678 53.1462 20.1241 50.007L22.1769 47.647L21.1113 47.5094C22.3721 49.7558 23.7054 51.9595 25.1113 54.1206C26.3577 56.0326 27.6153 57.9846 29.1321 59.6966C30.4409 61.1734 32.0441 62.487 33.9737 63.0294C35.9033 63.5718 37.9097 63.1366 39.8825 63.2646C40.7977 63.3238 41.7209 63.567 42.3817 64.239C43.1033 64.9718 43.4345 66.007 43.9177 66.895C44.8777 68.6694 46.5945 69.8182 48.5401 70.2838C50.7145 70.8038 52.9577 70.4566 55.0585 69.7846C57.4793 69.0102 59.8169 67.9478 62.1689 66.9926C64.6265 65.9958 67.0697 64.9494 69.5497 64.0086C70.7225 63.5638 71.9497 63.1622 73.2153 63.119C74.2867 63.1007 75.3484 63.325 76.3209 63.775C78.2169 64.6102 79.8617 65.9158 81.7609 66.7574C83.6927 67.5936 85.8103 67.9075 87.9017 67.6678C92.3257 67.2262 96.4537 65.1526 100.916 65.0006C103.316 64.919 105.639 65.5526 107.86 66.4166C109.012 66.8646 110.138 67.3766 111.262 67.8918C112.212 68.327 113.21 68.7782 113.948 69.5414C115.524 71.1734 115.338 73.943 115.473 76.0374C115.64 78.6923 115.809 81.3472 115.98 84.0022L116.1 85.8822C116.135 86.4486 116.298 87.1846 115.974 87.6934C115.738 88.063 115.316 88.3046 114.958 88.5366C114.433 88.8736 113.9 89.1936 113.358 89.4966C111.315 90.6401 109.144 91.5391 106.89 92.175C105.752 92.4949 104.597 92.7497 103.43 92.9382C102.561 93.087 102.926 94.3926 103.782 94.2534Z" fill="#FFB72C"/>
<path d="M23.9596 57.6213C24.4636 55.9093 23.2156 54.0805 21.6172 53.2853C20.4177 52.6914 19.0529 52.5194 17.7436 52.7973C17.26 52.9048 16.7899 53.0658 16.342 53.2773C13.1132 56.9573 9.88705 60.6405 6.66358 64.3269C5.9017 65.1983 5.33712 66.2241 5.00849 67.3339C4.67987 68.4438 4.59496 69.6116 4.75958 70.7573V70.8053C4.81532 71.1886 5.01601 71.5358 5.32026 71.7755C5.62451 72.0151 6.00912 72.1289 6.39478 72.0933C8.01558 71.9461 9.59478 71.1893 11.0348 70.3493C15.8028 67.5493 19.918 63.6725 23.1164 59.1621C23.4588 58.6869 23.7932 58.1861 23.9596 57.6213Z" fill="#F5A407"/>
<path d="M24.6135 57.8022C25.1367 55.9478 24.0503 54.111 22.5639 53.0614C20.8807 51.8742 18.5367 51.6966 16.6439 52.4214C16.3575 52.5302 16.0279 52.6294 15.8151 52.8582C15.6023 53.087 15.4295 53.2982 15.2359 53.5174C14.8679 53.9376 14.4994 54.3579 14.1303 54.7782L11.9111 57.2982C10.4178 58.9984 8.92764 60.7003 7.44071 62.4038C6.74151 63.2038 5.98311 63.9814 5.39911 64.8758C4.34234 66.5018 3.86176 68.4354 4.03431 70.367C4.07911 70.847 4.13511 71.3366 4.40711 71.7542C4.67838 72.176 5.08267 72.4953 5.55591 72.6614C6.05351 72.839 6.56391 72.7702 7.07271 72.687C7.56842 72.6029 8.05567 72.4749 8.52871 72.3045C9.52096 71.9421 10.4758 71.4845 11.3799 70.9382C13.0496 69.9538 14.6424 68.8445 16.1447 67.6198C19.1293 65.211 21.7457 62.3789 23.9111 59.2134C24.2162 58.7811 24.4546 58.3053 24.6183 57.8022C24.6639 57.628 24.6391 57.4429 24.5493 57.2869C24.4595 57.1309 24.3118 57.0165 24.1383 56.9686C23.964 56.9246 23.7795 56.9501 23.6236 57.0396C23.4678 57.1292 23.3529 57.2758 23.3031 57.4486C23.2823 57.5158 23.2599 57.5814 23.2375 57.6486C23.2375 57.6598 23.1879 57.767 23.2247 57.6806C23.1771 57.79 23.1236 57.8968 23.0647 58.0006C22.9511 58.207 22.8215 58.4054 22.6887 58.599C22.4327 58.9718 22.1655 59.3366 21.8887 59.6998C21.8215 59.7894 21.7543 59.879 21.6855 59.967L21.5847 60.1014C21.5063 60.2022 21.6791 59.9798 21.5463 60.1494C21.4135 60.319 21.2695 60.5014 21.1303 60.6758C20.8487 61.0256 20.5623 61.3702 20.2711 61.7094C19.103 63.0687 17.8447 64.3478 16.5047 65.5382C16.1698 65.8358 15.83 66.1275 15.4855 66.4134C15.3143 66.5558 15.1399 66.6966 14.9655 66.8374L14.7031 67.0454L14.5959 67.1286C14.5863 67.1366 14.4359 67.2534 14.5223 67.1862C13.8119 67.7312 13.0834 68.2507 12.3367 68.7446C11.5911 69.247 10.8055 69.727 10.0007 70.1574C9.1865 70.6233 8.31595 70.9831 7.41031 71.2278C7.17991 71.287 6.94791 71.3382 6.71271 71.3766L6.57191 71.3974C6.70151 71.3798 6.47271 71.4086 6.47111 71.4086C6.37351 71.4182 6.27751 71.4165 6.17991 71.4197C6.01031 71.4197 6.30791 71.4581 6.14631 71.4197L6.04231 71.3958C6.00092 71.3797 5.95873 71.3658 5.91591 71.3542C5.82791 71.3382 6.04231 71.431 5.91591 71.3542C5.87591 71.3302 5.66471 71.183 5.79111 71.2886C5.72561 71.2316 5.66312 71.1712 5.60391 71.1078C5.49191 70.9894 5.66151 71.2214 5.58471 71.0774C5.56711 71.0454 5.54631 71.0166 5.53031 70.9862C5.53031 70.9862 5.45511 70.8262 5.49511 70.9222C5.53511 71.0182 5.47431 70.8549 5.47431 70.8501C5.4499 70.7641 5.43172 70.6764 5.41991 70.5878C5.41991 70.6166 5.43431 70.7078 5.41991 70.5702C5.41191 70.5045 5.40391 70.439 5.39911 70.3734C5.35777 69.9383 5.35242 69.5005 5.38311 69.0646C5.38311 68.9573 5.40071 68.8486 5.41191 68.7446C5.41191 68.7542 5.43751 68.543 5.42471 68.6406C5.41191 68.7382 5.44231 68.5286 5.44071 68.5382C5.47431 68.3254 5.51751 68.1126 5.56871 67.8982C5.61991 67.6838 5.67911 67.4806 5.74791 67.2758C5.78151 67.1734 5.81671 67.071 5.85511 66.9702C5.87111 66.9286 5.88551 66.8886 5.90151 66.8486C5.91751 66.8086 5.97991 66.6646 5.93351 66.7702C6.10626 66.372 6.31065 65.9884 6.54471 65.623C6.66311 65.439 6.78791 65.2582 6.92231 65.0854C6.85831 65.167 6.92231 65.0854 6.93831 65.0678L7.06471 64.9078C7.14471 64.8134 7.22471 64.7206 7.30791 64.6278C10.109 61.4214 12.9143 58.2176 15.7239 55.0166C15.8988 54.815 16.0743 54.6144 16.2503 54.415L16.5127 54.1158C16.5895 54.0062 16.678 53.9053 16.7767 53.815C16.6983 53.8694 16.9063 53.7654 16.8935 53.7702C16.8807 53.775 16.8071 53.8054 16.9367 53.7558C17.0663 53.7062 17.1671 53.6678 17.2855 53.6294C17.5193 53.5515 17.7576 53.4879 17.9991 53.439L18.2055 53.4006C18.2215 53.4006 18.3383 53.3798 18.2327 53.4006C18.3463 53.3846 18.4631 53.375 18.5799 53.367C18.8122 53.3534 19.0452 53.3534 19.2775 53.367C19.3927 53.367 19.5095 53.3846 19.6247 53.3942C19.8471 53.415 19.5575 53.383 19.6871 53.4022L19.8583 53.4294C20.0873 53.4697 20.3138 53.5231 20.5367 53.5894C20.9272 53.697 21.2993 53.8625 21.6407 54.0806C21.7239 54.1318 21.8007 54.1862 21.8871 54.2406C21.9271 54.2678 21.9671 54.2982 22.0071 54.327C22.0983 54.3958 21.8887 54.2262 22.0327 54.3494C22.1767 54.4726 22.3303 54.6102 22.4679 54.7542C22.5351 54.8246 22.6007 54.8982 22.6647 54.975C22.6647 54.975 22.7831 55.1206 22.7223 55.0438C22.6615 54.967 22.7783 55.1206 22.7767 55.1174C22.8898 55.275 22.9919 55.4402 23.0823 55.6118C23.1271 55.6966 23.1687 55.7846 23.2071 55.871C23.1511 55.743 23.2071 55.8614 23.2071 55.895C23.2071 55.9286 23.2391 55.9846 23.2535 56.0294C23.3125 56.2083 23.3563 56.3919 23.3847 56.5782C23.3591 56.407 23.3847 56.6854 23.3847 56.7382V57.0198L23.3751 57.1318C23.3607 57.3158 23.4103 56.9958 23.3671 57.1766C23.3447 57.2694 23.3271 57.3638 23.2999 57.4566C23.2522 57.6301 23.2753 57.8155 23.3643 57.972C23.4533 58.1285 23.6008 58.2432 23.7743 58.291C23.9479 58.3387 24.1333 58.3155 24.2898 58.2266C24.4462 58.1376 24.561 57.9901 24.6087 57.8166L24.6135 57.8022Z" fill="#F5A407"/>
<path d="M58.379 85.2471C53.7283 87.2308 49.386 89.871 45.4846 93.0871C45.0046 93.4791 44.5246 93.8999 44.275 94.4631C43.987 95.1127 44.0526 95.8679 44.2558 96.5431C44.7598 98.2327 46.067 99.6103 47.6158 100.453C49.1646 101.297 50.9374 101.652 52.6974 101.759C55.1659 101.932 57.6423 101.565 59.955 100.685C62.0238 99.8743 63.883 98.6055 65.6718 97.2951C69.7779 94.2697 73.6165 90.8973 77.1454 87.2151C77.7854 86.5463 78.467 85.7031 78.2654 84.8007C78.1566 84.3207 77.8174 83.9431 77.4542 83.6215C76.3016 82.611 74.8269 82.0438 73.2942 82.0215" fill="#F5A407"/>
<path d="M58.036 84.6597C53.7766 86.4823 49.771 88.8486 46.1192 91.6997C45.6744 92.0469 45.2296 92.3973 44.8008 92.7621C44.3546 93.1091 43.9852 93.545 43.716 94.0421C43.1688 95.1829 43.4296 96.4517 43.9256 97.5621C44.8248 99.5653 46.7144 100.949 48.7336 101.679C49.8518 102.064 51.015 102.302 52.1944 102.389C53.3695 102.494 54.552 102.486 55.7256 102.365C56.9393 102.247 58.137 101.999 59.2984 101.628C60.436 101.25 61.5328 100.758 62.572 100.16C64.6408 98.9845 66.5448 97.5093 68.4104 96.0405C70.276 94.5717 72.0904 93.0277 73.8296 91.4133C74.6979 90.6122 75.5512 89.7925 76.3896 88.9541C76.8072 88.5365 77.2216 88.1157 77.6296 87.6869C78.0355 87.2921 78.381 86.8398 78.6552 86.3445C78.9595 85.7993 79.048 85.1598 78.9032 84.5525C78.7234 83.9968 78.3866 83.5051 77.9336 83.1365C77.0843 82.3858 76.0686 81.8478 74.9704 81.5669C74.4209 81.4282 73.8571 81.3535 73.2904 81.3445C73.1105 81.3445 72.9379 81.416 72.8107 81.5432C72.6835 81.6704 72.612 81.843 72.612 82.0229C72.612 82.2028 72.6835 82.3754 72.8107 82.5026C72.9379 82.6298 73.1105 82.7013 73.2904 82.7013C73.4232 82.7013 73.5544 82.7013 73.6856 82.7189C73.7512 82.7189 73.8168 82.7285 73.8824 82.7365C73.8712 82.7365 74.0856 82.7621 73.988 82.7477L74.0936 82.7653L74.2872 82.8021C74.4168 82.8277 74.5448 82.8581 74.6728 82.8917C74.9173 82.9561 75.1578 83.0352 75.3928 83.1285C75.4184 83.1397 75.5528 83.1957 75.444 83.1493C75.5032 83.1749 75.564 83.2021 75.6232 83.2309C75.7416 83.2869 75.86 83.3477 75.9752 83.4101C76.1961 83.5327 76.4097 83.6679 76.6152 83.8149C76.66 83.8469 76.7048 83.8789 76.748 83.9125C76.644 83.8325 76.8136 83.9669 76.8168 83.9701C76.9176 84.0517 77.0152 84.1381 77.108 84.2277C77.2003 84.3158 77.2879 84.4087 77.3704 84.5061C77.4968 84.6517 77.3192 84.4053 77.4168 84.5701C77.444 84.6149 77.4744 84.6581 77.5 84.7045C77.5256 84.7509 77.5496 84.7957 77.5704 84.8421C77.5144 84.7109 77.5848 84.9013 77.588 84.9157C77.5912 84.9301 77.6264 85.1349 77.6104 84.9845C77.6144 85.0463 77.6144 85.1083 77.6104 85.1701C77.6104 85.1957 77.58 85.3861 77.6104 85.2357C77.5997 85.2961 77.5859 85.3559 77.5688 85.4149C77.5512 85.4757 77.532 85.5349 77.5096 85.5941C77.5528 85.4789 77.5096 85.6069 77.4872 85.6357C77.4342 85.7423 77.3754 85.8459 77.3112 85.9461C77.2744 86.0021 77.2376 86.0565 77.1992 86.1061C77.1912 86.1173 77.0744 86.2661 77.1432 86.1813C76.7968 86.5941 76.4294 86.9887 76.0424 87.3637C75.2499 88.1733 74.4429 88.9674 73.6216 89.7461C71.9768 91.3045 70.2744 92.7978 68.5144 94.2261C66.8103 95.6466 65.0317 96.9754 63.1864 98.2069C62.2605 98.8198 61.2879 99.359 60.2776 99.8197C59.7951 100.033 59.301 100.219 58.7976 100.376C58.2576 100.548 57.7085 100.689 57.1528 100.799C56.876 100.856 56.596 100.904 56.316 100.946L56.132 100.973C56.2536 100.956 56.012 100.988 56.02 100.986L55.5784 101.034C55.0136 101.088 54.4456 101.116 53.8776 101.116C53.3096 101.116 52.7576 101.093 52.1944 101.044L51.7672 101L51.5544 100.975C51.6616 100.988 51.5112 100.975 51.4856 100.965C51.2136 100.925 50.9432 100.879 50.6744 100.823C50.1375 100.714 49.6091 100.567 49.0936 100.381C48.6236 100.212 48.1708 99.9972 47.7416 99.7413C47.5384 99.6213 47.3384 99.4917 47.1464 99.3541L47.0216 99.2629C46.8616 99.1445 47.1208 99.3461 46.9624 99.2197C46.8664 99.1413 46.7704 99.0597 46.6776 98.9813C46.4998 98.8257 46.33 98.6612 46.1688 98.4885C46.0904 98.4069 46.0088 98.3285 45.9432 98.2357L45.8248 98.0949C45.724 97.9733 45.8648 98.1541 45.78 98.0373C45.5007 97.6606 45.2635 97.2545 45.0728 96.8261C45.132 96.9637 45.0536 96.7765 45.0488 96.7621C45.0264 96.7061 45.0056 96.6485 44.9848 96.5893C44.9464 96.4805 44.9112 96.3685 44.8808 96.2565C44.8504 96.1445 44.8184 96.0117 44.796 95.8869C44.796 95.8869 44.764 95.6581 44.7784 95.7925C44.7784 95.7237 44.7656 95.6549 44.7624 95.5861C44.757 95.449 44.7597 95.3117 44.7704 95.1749C44.7848 94.9717 44.7336 95.2821 44.7848 95.0869C44.7992 95.0309 44.8088 94.9765 44.8248 94.9269C44.8408 94.8773 44.8568 94.8197 44.876 94.7669C44.836 94.8821 44.9144 94.6885 44.916 94.6837C44.9766 94.5672 45.0467 94.4558 45.1256 94.3509C45.0472 94.4565 45.1816 94.2885 45.1848 94.2837C45.228 94.2341 45.2728 94.1861 45.3192 94.1381C45.404 94.0517 45.4936 93.9685 45.5832 93.8869C45.7784 93.7109 45.9816 93.5461 46.1848 93.3813C47.859 92.0224 49.616 90.7687 51.4456 89.6277C53.3036 88.4672 55.2322 87.4235 57.22 86.5029C57.7181 86.2725 58.2184 86.0501 58.7208 85.8357C59.0488 85.6965 59.1464 85.1957 58.964 84.9077C58.7448 84.5669 58.3864 84.5157 58.036 84.6645V84.6597Z" fill="#F5A407"/>
<path d="M33.316 62.3415C34.8072 62.8695 36.4088 62.9367 37.972 63.0391C38.3512 63.0631 38.7304 63.0919 39.1096 63.1287C39.2616 63.1447 39.4152 63.1623 39.5672 63.1815C39.4168 63.1623 39.6584 63.1959 39.6888 63.2007L39.9304 63.2391C40.5627 63.344 41.1824 63.5134 41.78 63.7447L41.8392 63.7687C41.7624 63.7367 41.8776 63.7863 41.8952 63.7943L42.0856 63.8823C42.236 63.9559 42.3848 64.0423 42.5304 64.1223C42.676 64.2023 42.78 64.2823 42.9016 64.3639L42.996 64.4343C42.996 64.4343 42.916 64.3687 42.9752 64.4183C43.0344 64.4679 43.1112 64.5303 43.1784 64.5895C43.2888 64.6871 43.3928 64.7911 43.4984 64.8999C43.5528 64.9591 43.604 65.0199 43.6584 65.0807C43.6776 65.1031 43.6952 65.1271 43.7144 65.1511C43.62 65.0327 43.7304 65.1751 43.7416 65.1895C43.9026 65.42 44.0495 65.6599 44.1816 65.9079C44.7208 66.9079 45.1288 68.0663 46.036 68.8071C46.7032 69.338 47.534 69.6208 48.3864 69.6071C49.2024 69.6199 50.012 69.4615 50.828 69.4887C51.0076 69.4875 51.1794 69.4156 51.3064 69.2886C51.4333 69.1617 51.5052 68.9899 51.5064 68.8103C51.5028 68.6316 51.4301 68.4611 51.3037 68.3347C51.1772 68.2083 51.0068 68.1356 50.828 68.1319C50.1016 68.1079 49.388 68.2279 48.6584 68.2487C48.4888 68.2487 48.3208 68.2487 48.1512 68.2487H48.052C48.0344 68.2487 47.892 68.2327 47.9768 68.2487C48.0616 68.2647 47.9208 68.2391 47.9032 68.2359C47.8488 68.2263 47.796 68.2151 47.7432 68.2023C47.6904 68.1895 47.5944 68.1639 47.5208 68.1399L47.3944 68.0951C47.2904 68.0551 47.4728 68.1351 47.372 68.0839C47.2443 68.021 47.1213 67.9488 47.004 67.8679C46.9848 67.8551 46.8984 67.7863 46.9688 67.8439C47.0392 67.9015 46.9688 67.8439 46.9576 67.8327C46.9064 67.7879 46.8552 67.7431 46.7976 67.6951C46.6984 67.5991 46.6136 67.4935 46.5224 67.3911C46.6328 67.5143 46.4936 67.3511 46.4712 67.3207C46.4488 67.2903 46.4024 67.2199 46.3688 67.1607C46.2856 67.0343 46.2088 66.9047 46.1352 66.7719C45.8568 66.2775 45.6264 65.7575 45.3592 65.2583C45.0753 64.7056 44.7072 64.2004 44.268 63.7607C43.7985 63.3113 43.2579 62.9426 42.668 62.6695C41.4088 62.084 40.0504 61.8551 38.676 61.7432C37.82 61.6728 36.9608 61.6408 36.1064 61.5544C35.2807 61.4826 34.4667 61.3107 33.6824 61.0424C33.5083 60.9959 33.3228 61.0203 33.1665 61.1102C33.0103 61.2002 32.8961 61.3484 32.8488 61.5223C32.8053 61.6966 32.831 61.881 32.9205 62.0367C33.01 62.1925 33.1563 62.3074 33.3288 62.3575L33.316 62.3415Z" fill="#11142C"/>
<path d="M88.0105 57.314C88.9378 56.1703 89.4425 54.7417 89.4393 53.2692L88.2825 53.7492C88.8793 54.2692 89.4953 54.786 90.2617 55.0292C90.9641 55.2548 91.8168 55.2116 92.4296 54.7716C92.716 54.5636 92.8841 54.1716 92.6729 53.8436C92.4889 53.5588 92.0521 53.378 91.7449 53.6004C91.6878 53.6411 91.6285 53.6785 91.5672 53.7124C91.5416 53.7268 91.5144 53.7412 91.4888 53.7524C91.5592 53.7236 91.5576 53.722 91.4888 53.7524L91.3161 53.7972C91.1561 53.8356 91.4024 53.7972 91.2584 53.8052C91.1768 53.8052 91.0985 53.8052 91.0153 53.8052C90.9817 53.8052 90.8073 53.7764 90.9529 53.8052C90.8227 53.781 90.6944 53.7479 90.5688 53.706L90.4841 53.674C90.5385 53.6986 90.5289 53.6937 90.4553 53.6596C90.3929 53.6276 90.3321 53.5988 90.2713 53.5636C90.1403 53.491 90.0137 53.4109 89.8921 53.3236C89.8729 53.3092 89.7033 53.1828 89.7785 53.2404C89.7241 53.1988 89.6697 53.154 89.6185 53.1092C89.4921 53.0052 89.3704 52.8996 89.2472 52.7892C89.1509 52.6962 89.0295 52.6333 88.8979 52.6083C88.7663 52.5833 88.6302 52.5972 88.5064 52.6484C88.3839 52.6999 88.2791 52.7861 88.2049 52.8964C88.1307 53.0067 88.0903 53.1363 88.0889 53.2692C88.0889 53.4292 88.0889 53.5892 88.0761 53.7412L88.0569 53.9428C88.0473 54.0244 88.0457 54.0324 88.0569 53.962C88.0569 54.0068 88.0425 54.0516 88.0361 54.0964C87.985 54.3845 87.9128 54.6685 87.8201 54.946C87.7977 55.01 87.7753 55.0724 87.7513 55.1364C87.7273 55.2004 87.7193 55.2196 87.7017 55.2612C87.7225 55.2132 87.7241 55.2116 87.7017 55.2612C87.643 55.3956 87.579 55.5268 87.5097 55.6548C87.4345 55.794 87.3497 55.93 87.2681 56.0612L87.1545 56.2292C87.1289 56.266 87.1017 56.3012 87.0745 56.338L87.0569 56.3604C86.8361 56.6372 86.7657 57.0532 87.0569 57.3204C87.3017 57.5444 87.7801 57.6164 88.0169 57.3204L88.0105 57.314Z" fill="#D0E3FF"/>
<path d="M99.3178 57.2868C100.303 57.2868 101.22 56.7492 101.82 55.9844C102.47 55.1588 102.78 54.162 103.07 53.1636L102.075 53.5668C103.209 54.308 104.537 54.6976 105.892 54.6868C106.072 54.6868 106.245 54.6153 106.372 54.4881C106.499 54.3609 106.571 54.1883 106.571 54.0084C106.571 53.8285 106.499 53.6559 106.372 53.5287C106.245 53.4015 106.072 53.33 105.892 53.33C105.732 53.33 105.591 53.33 105.441 53.3188C105.359 53.3188 105.281 53.3076 105.198 53.2996C105.174 53.2996 104.982 53.2708 105.103 53.2884C104.817 53.2454 104.534 53.1829 104.257 53.1012C104.113 53.058 103.969 53.01 103.83 52.9572C103.809 52.9492 103.631 52.8788 103.734 52.922C103.67 52.8948 103.606 52.866 103.543 52.8356C103.272 52.7071 103.01 52.559 102.759 52.3924C102.387 52.1476 101.878 52.3924 101.763 52.7972C101.647 53.202 101.526 53.626 101.374 54.0292L101.311 54.1892C101.299 54.218 101.268 54.2868 101.299 54.2196C101.255 54.3156 101.212 54.4084 101.164 54.5012C101.065 54.6944 100.953 54.8804 100.828 55.058C100.799 55.1012 100.779 55.1204 100.828 55.0676C100.795 55.1076 100.763 55.1476 100.727 55.186C100.667 55.2564 100.601 55.3236 100.534 55.3876C100.505 55.4164 100.475 55.4436 100.443 55.4708C100.443 55.4708 100.308 55.5844 100.369 55.5364C100.43 55.4884 100.286 55.5956 100.287 55.594L100.185 55.6612C100.099 55.714 100.009 55.762 99.9178 55.8068C99.8634 55.8324 99.849 55.8292 99.9178 55.8068C99.8698 55.8228 99.8234 55.842 99.7754 55.8564C99.6874 55.882 99.5994 55.8996 99.5114 55.9188C99.5754 55.9044 99.5802 55.9188 99.5114 55.9188C99.4426 55.9188 99.3898 55.9188 99.329 55.9188C99.2372 55.9144 99.1455 55.9286 99.0594 55.9606C98.9733 55.9927 98.8946 56.0418 98.8281 56.1052C98.7616 56.1686 98.7086 56.2448 98.6725 56.3292C98.6363 56.4136 98.6176 56.5045 98.6176 56.5964C98.6176 56.6883 98.6363 56.7792 98.6725 56.8636C98.7086 56.9481 98.7616 57.0243 98.8281 57.0876C98.8946 57.151 98.9733 57.2002 99.0594 57.2322C99.1455 57.2643 99.2372 57.2785 99.329 57.274L99.3178 57.2868Z" fill="#D0E3FF"/>
<path d="M101.831 116.562C103.111 116.805 104.423 116.426 105.475 115.669C106.526 114.913 107.321 113.882 108.1 112.85L106.862 112.69C107.259 114.109 108.793 115.028 110.222 114.601C110.926 114.395 111.522 113.921 111.879 113.281C111.964 113.121 112.026 112.948 112.098 112.78C112.041 112.913 112.129 112.721 112.148 112.684C112.167 112.647 112.187 112.621 112.206 112.589C112.163 112.665 112.175 112.637 112.22 112.589C112.265 112.541 112.142 112.642 112.21 112.599C112.279 112.556 112.15 112.628 112.146 112.621C112.174 112.611 112.201 112.603 112.23 112.596C112.348 112.553 112.186 112.617 112.178 112.596C112.17 112.575 112.338 112.596 112.359 112.596C112.382 112.597 112.405 112.597 112.428 112.596C112.511 112.596 112.287 112.569 112.414 112.596C113.081 112.727 113.892 112.953 114.407 112.346C114.638 112.076 114.692 111.649 114.407 111.386C114.154 111.154 113.694 111.097 113.447 111.386C113.447 111.386 113.39 111.45 113.388 111.449C113.386 111.447 113.503 111.365 113.446 111.404C113.324 111.485 113.555 111.369 113.446 111.404C113.337 111.439 113.606 111.404 113.446 111.404C113.393 111.398 113.339 111.395 113.286 111.396C113.295 111.38 113.446 111.421 113.33 111.396L113.262 111.383L113.102 111.349C112.982 111.325 112.863 111.298 112.743 111.279C112.446 111.213 112.138 111.213 111.841 111.279C111.486 111.385 111.184 111.623 110.999 111.945C110.921 112.087 110.852 112.234 110.795 112.386C110.777 112.431 110.703 112.577 110.764 112.461C110.729 112.53 110.698 112.599 110.658 112.666C110.639 112.7 110.618 112.73 110.598 112.764C110.598 112.764 110.537 112.85 110.582 112.788C110.627 112.725 110.571 112.802 110.563 112.81C110.555 112.818 110.513 112.868 110.486 112.895C110.459 112.922 110.385 112.985 110.338 113.034C110.292 113.084 110.351 113.026 110.363 113.018L110.268 113.084C110.212 113.121 110.154 113.156 110.094 113.188C110.052 113.21 109.9 113.271 110.018 113.229C109.883 113.277 109.744 113.316 109.603 113.345C109.524 113.359 109.63 113.345 109.639 113.345C109.601 113.345 109.563 113.345 109.524 113.345C109.457 113.345 109.388 113.345 109.321 113.345C109.254 113.345 109.35 113.345 109.361 113.354L109.278 113.338C109.204 113.323 109.131 113.305 109.058 113.282L108.953 113.244C108.862 113.213 109.041 113.295 108.953 113.244C108.865 113.193 108.819 113.173 108.755 113.133C108.723 113.114 108.694 113.09 108.66 113.071C108.579 113.023 108.734 113.138 108.66 113.071C108.587 113.004 108.547 112.973 108.5 112.919L108.423 112.836C108.414 112.825 108.338 112.732 108.386 112.796C108.434 112.86 108.387 112.781 108.374 112.773C108.347 112.733 108.321 112.695 108.297 112.653C108.273 112.612 108.268 112.605 108.255 112.58C108.255 112.58 108.177 112.42 108.217 112.509C108.257 112.599 108.217 112.497 108.217 112.485C108.198 112.431 108.182 112.378 108.166 112.325C108.128 112.199 108.055 112.087 107.955 112.002C107.855 111.917 107.733 111.862 107.603 111.845C107.471 111.829 107.338 111.851 107.218 111.908C107.098 111.964 106.997 112.054 106.926 112.165C106.748 112.402 106.617 112.575 106.478 112.751C106.305 112.97 106.127 113.188 105.943 113.391C105.759 113.594 105.583 113.786 105.391 113.972C105.291 114.069 105.188 114.162 105.083 114.253C105.03 114.3 104.977 114.345 104.923 114.388L104.841 114.453C104.876 114.425 104.876 114.425 104.841 114.453C104.632 114.607 104.413 114.746 104.185 114.868C104.124 114.9 104.065 114.93 104.004 114.959C104.004 114.959 103.809 115.047 103.918 115.001C103.794 115.053 103.667 115.099 103.539 115.138C103.411 115.177 103.281 115.21 103.15 115.237C103.084 115.25 103.019 115.263 102.953 115.271C103.073 115.255 102.897 115.271 102.87 115.271C102.748 115.278 102.626 115.278 102.505 115.271C102.438 115.271 102.372 115.261 102.307 115.258C102.241 115.255 102.262 115.258 102.321 115.258C102.278 115.258 102.233 115.244 102.19 115.234C101.843 115.169 101.441 115.332 101.355 115.714C101.279 116.049 101.455 116.477 101.835 116.549L101.831 116.562Z" fill="#D0E3FF"/>
<path d="M35.1607 48.0387C36.4407 48.2819 37.7527 47.9027 38.8039 47.1459C39.8551 46.3891 40.6503 45.3587 41.4295 44.3267L40.1911 44.1667C40.5879 45.5859 42.1223 46.5043 43.5511 46.0771C44.2556 45.8719 44.851 45.3977 45.2087 44.7571C45.2935 44.5971 45.3559 44.4243 45.4279 44.2563C45.3703 44.3891 45.4583 44.1971 45.4775 44.1603C45.4967 44.1235 45.5159 44.0979 45.5351 44.0659C45.4919 44.1411 45.5047 44.1139 45.5495 44.0659C45.5943 44.0179 45.4711 44.1187 45.5399 44.0755C45.6087 44.0323 45.4791 44.1043 45.4759 44.0979C45.5031 44.0878 45.5309 44.0792 45.5591 44.0723C45.6775 44.0291 45.5159 44.0931 45.5079 44.0723C45.4999 44.0515 45.6679 44.0723 45.6887 44.0723C45.7116 44.0738 45.7346 44.0738 45.7575 44.0723C45.8407 44.0723 45.6167 44.0451 45.7431 44.0723C46.4103 44.2035 47.2215 44.4291 47.7367 43.8227C47.9671 43.5523 48.0215 43.1251 47.7367 42.8627C47.4839 42.6307 47.0231 42.5731 46.7767 42.8627C46.7767 42.8627 46.7191 42.9267 46.7175 42.9251C46.7159 42.9235 46.8327 42.8419 46.7751 42.8803C46.6535 42.9619 46.8839 42.8451 46.7751 42.8803C46.6663 42.9155 46.9351 42.8803 46.7751 42.8803C46.722 42.8744 46.6686 42.8717 46.6151 42.8723C46.6247 42.8563 46.7751 42.8979 46.6599 42.8723L46.5911 42.8595L46.4311 42.8259C46.3111 42.8019 46.1927 42.7747 46.0727 42.7555C45.7756 42.6891 45.4674 42.6891 45.1703 42.7555C44.815 42.8616 44.5138 43.0997 44.3287 43.4211C44.2501 43.5633 44.1817 43.7109 44.1239 43.8627C44.1063 43.9075 44.0327 44.0531 44.0935 43.9379C44.0583 44.0067 44.0279 44.0755 43.9879 44.1427C43.9687 44.1763 43.9479 44.2067 43.9271 44.2403C43.9271 44.2403 43.8663 44.3267 43.9111 44.2643C43.9559 44.2019 43.8999 44.2787 43.8919 44.2867C43.8839 44.2947 43.8423 44.3443 43.8151 44.3715C43.7879 44.3987 43.7143 44.4611 43.6679 44.5107C43.6215 44.5603 43.6807 44.5027 43.6919 44.4947L43.5975 44.5603C43.5413 44.598 43.483 44.6327 43.4231 44.6643C43.3815 44.6867 43.2295 44.7475 43.3479 44.7059C43.2121 44.754 43.0731 44.7925 42.9319 44.8211C42.8535 44.8355 42.9591 44.8211 42.9687 44.8211C42.9303 44.8211 42.8919 44.8211 42.8535 44.8211C42.7863 44.8211 42.7175 44.8211 42.6503 44.8211C42.5831 44.8211 42.6791 44.8211 42.6903 44.8307L42.6071 44.8147C42.5331 44.8 42.4599 44.7813 42.3879 44.7587L42.2823 44.7203C42.1911 44.6899 42.3703 44.7715 42.2823 44.7203C42.1943 44.6691 42.1479 44.6499 42.0839 44.6099C42.0519 44.5907 42.0231 44.5667 41.9895 44.5475C41.9079 44.4995 42.0631 44.6147 41.9895 44.5475C41.9159 44.4803 41.8759 44.4499 41.8295 44.3955L41.7527 44.3123C41.7431 44.3011 41.6679 44.2083 41.7159 44.2723C41.7639 44.3363 41.7159 44.2579 41.7031 44.2499C41.6759 44.2099 41.6503 44.1715 41.6263 44.1299C41.6023 44.0883 41.5975 44.0819 41.5847 44.0563C41.5847 44.0563 41.5063 43.8963 41.5463 43.9859C41.5863 44.0755 41.5463 43.9731 41.5463 43.9619C41.5271 43.9075 41.5111 43.8547 41.4951 43.8019C41.4576 43.6761 41.3845 43.5638 41.2845 43.4786C41.1846 43.3934 41.0621 43.339 40.9319 43.3219C40.8004 43.306 40.6671 43.3276 40.5473 43.3842C40.4276 43.4408 40.3263 43.5302 40.2551 43.6419C40.0775 43.8787 39.9463 44.0515 39.8071 44.2275C39.6343 44.4467 39.4567 44.6643 39.2727 44.8675C39.0887 45.0707 38.9127 45.2627 38.7207 45.4483C38.6199 45.5459 38.5175 45.6387 38.4119 45.7299C38.3591 45.7763 38.3063 45.8211 38.2519 45.8643L38.1703 45.9299C38.2055 45.9011 38.2055 45.9011 38.1703 45.9299C37.9619 46.0836 37.7427 46.2221 37.5143 46.3443C37.4535 46.3763 37.3943 46.4067 37.3335 46.4355C37.3335 46.4355 37.1383 46.5235 37.2471 46.4771C37.1231 46.5294 36.9966 46.5753 36.8679 46.6147C36.7399 46.6531 36.6103 46.6867 36.4791 46.7139C36.4135 46.7267 36.3479 46.7395 36.2823 46.7475C36.4023 46.7315 36.2263 46.7475 36.1991 46.7475C36.0776 46.7547 35.9558 46.7547 35.8343 46.7475C35.7671 46.7475 35.7015 46.7379 35.6359 46.7347C35.5703 46.7315 35.5911 46.7347 35.6503 46.7347C35.6071 46.7347 35.5623 46.7203 35.5191 46.7107C35.1719 46.6451 34.7703 46.8083 34.6839 47.1907C34.6087 47.5251 34.7847 47.9539 35.1639 48.0259L35.1607 48.0387Z" fill="#D0E3FF"/>
<path d="M117.322 119.581C118.57 119.634 119.617 118.812 120.286 117.821C120.588 117.35 120.851 116.854 121.071 116.34C121.34 115.758 121.607 115.176 121.871 114.594L120.807 114.732C121.683 115.559 122.826 116.044 124.03 116.101C125.233 116.158 126.417 115.783 127.367 115.042C127.647 114.823 127.614 114.311 127.367 114.082C127.068 113.808 126.708 113.848 126.407 114.082C126.532 113.984 126.369 114.106 126.343 114.124C126.29 114.16 126.236 114.196 126.183 114.231C126.09 114.288 125.993 114.343 125.894 114.391C125.836 114.42 125.778 114.445 125.719 114.472C125.66 114.5 125.686 114.488 125.754 114.458L125.652 114.498C125.548 114.538 125.442 114.572 125.332 114.602C125.222 114.632 125.1 114.664 124.982 114.687L124.791 114.72C124.91 114.7 124.817 114.72 124.751 114.72C124.511 114.745 124.269 114.75 124.028 114.736L123.868 114.725C123.804 114.725 123.708 114.706 123.828 114.725C123.7 114.706 123.572 114.684 123.446 114.653C123.211 114.6 122.982 114.527 122.759 114.436C122.87 114.48 122.77 114.436 122.719 114.415C122.668 114.394 122.62 114.367 122.57 114.341C122.456 114.282 122.345 114.217 122.238 114.146C122.191 114.116 122.145 114.085 122.1 114.053C122.081 114.039 121.94 113.924 122.06 114.024C121.962 113.94 121.863 113.864 121.77 113.767C121.484 113.487 120.894 113.496 120.705 113.903L119.98 115.487C119.77 115.974 119.531 116.449 119.265 116.908C119.198 117.016 119.129 117.124 119.055 117.228C119.004 117.305 118.945 117.378 118.881 117.445C118.802 117.535 118.719 117.62 118.631 117.701C118.583 117.744 118.535 117.788 118.484 117.828C118.558 117.768 118.473 117.828 118.441 117.858C118.345 117.926 118.244 117.988 118.14 118.044C118.084 118.075 118.026 118.102 117.967 118.127C118.057 118.09 117.967 118.127 117.921 118.14C117.811 118.175 117.699 118.203 117.585 118.224C117.724 118.197 117.532 118.224 117.513 118.224C117.449 118.228 117.386 118.228 117.322 118.224C117.143 118.226 116.971 118.298 116.844 118.424C116.717 118.551 116.645 118.723 116.644 118.903C116.648 119.082 116.72 119.252 116.847 119.378C116.973 119.505 117.144 119.578 117.322 119.581Z" fill="#D0E3FF"/>
<path d="M50.6519 51.058C51.8999 51.1108 52.9463 50.2884 53.6151 49.298C53.9173 48.8266 54.1801 48.331 54.4007 47.8164C54.6695 47.2351 54.9362 46.6532 55.2007 46.0708L54.1367 46.2084C55.0127 47.0354 56.1559 47.5213 57.3592 47.5782C58.5626 47.6352 59.7465 47.2593 60.6967 46.5188C60.9767 46.2996 60.9431 45.7876 60.6967 45.5588C60.3975 45.2852 60.0375 45.3252 59.7367 45.5588C59.8615 45.4612 59.6983 45.5828 59.6727 45.6004C59.6199 45.6372 59.5655 45.6724 59.5127 45.7076C59.4199 45.7652 59.3223 45.8196 59.2231 45.8676C59.1655 45.8964 59.1079 45.922 59.0487 45.9492C58.9895 45.9764 59.0151 45.9652 59.0839 45.9348L58.9815 45.9748C58.8775 46.0148 58.7719 46.0484 58.6615 46.0788C58.5511 46.1092 58.4295 46.1412 58.3111 46.1636L58.1207 46.1972C58.2391 46.1764 58.1463 46.1972 58.0807 46.1972C57.8404 46.2217 57.5986 46.2271 57.3575 46.2132L57.1975 46.202C57.1335 46.202 57.0375 46.1828 57.1575 46.202C57.0295 46.1828 56.9015 46.1604 56.7751 46.13C56.5407 46.0766 56.3111 46.0039 56.0887 45.9124C56.1991 45.9572 56.0999 45.9124 56.0487 45.8916C55.9975 45.8708 55.9495 45.8436 55.8999 45.818C55.7858 45.7585 55.6747 45.6934 55.5671 45.6228C55.5207 45.5924 55.4743 45.562 55.4295 45.53C55.4103 45.5156 55.2695 45.4004 55.3895 45.5012C55.2919 45.4164 55.1927 45.3412 55.0999 45.2436C54.8135 44.9636 54.2231 44.9732 54.0343 45.3796L53.3095 46.9636C53.0994 47.4509 52.8606 47.9254 52.5943 48.3844C52.5271 48.4932 52.4583 48.6004 52.3847 48.7044C52.3333 48.7821 52.275 48.8549 52.2103 48.922C52.1316 49.0116 52.0483 49.0971 51.9607 49.178C51.9127 49.2212 51.8647 49.2644 51.8135 49.3044C51.8871 49.2452 51.8023 49.3044 51.7703 49.3348C51.6741 49.403 51.5736 49.465 51.4695 49.5204C51.4135 49.5513 51.3558 49.5791 51.2967 49.6036C51.3863 49.5668 51.2967 49.6036 51.2503 49.6164C51.1402 49.6518 51.028 49.6801 50.9143 49.7012C51.0535 49.674 50.8615 49.7012 50.8423 49.7012C50.7789 49.7044 50.7153 49.7044 50.6519 49.7012C50.4724 49.7025 50.3006 49.7743 50.1736 49.9013C50.0466 50.0282 49.9748 50.2001 49.9735 50.3796C49.9772 50.5584 50.0498 50.7288 50.1763 50.8552C50.3027 50.9817 50.4731 51.0543 50.6519 51.058Z" fill="#D0E3FF"/>
<path d="M105.205 136.559C107.476 137.122 110.049 135.565 110.505 133.242L109.265 133.402C110.623 135.41 113.54 136.099 115.625 134.815C115.703 134.77 115.771 134.711 115.826 134.64C115.881 134.569 115.921 134.488 115.944 134.401C115.968 134.314 115.973 134.224 115.961 134.135C115.949 134.046 115.92 133.96 115.875 133.883C115.829 133.805 115.769 133.738 115.697 133.683C115.626 133.629 115.544 133.59 115.457 133.568C115.37 133.546 115.28 133.541 115.191 133.554C115.102 133.567 115.017 133.597 114.94 133.643C114.834 133.707 114.727 133.768 114.62 133.823C114.589 133.837 114.375 133.924 114.541 133.861L114.394 133.915C114.163 133.995 113.925 134.054 113.684 134.092C113.797 134.072 113.732 134.092 113.655 134.092L113.471 134.104C113.357 134.104 113.244 134.104 113.129 134.104C113.013 134.104 112.884 134.088 112.761 134.077C112.637 134.066 112.885 134.103 112.706 134.067L112.524 134.032C112.289 133.981 112.071 133.888 111.842 133.826C111.796 133.807 111.809 133.813 111.882 133.843C111.85 133.831 111.818 133.816 111.786 133.8C111.738 133.78 111.69 133.755 111.644 133.733C111.533 133.677 111.428 133.616 111.324 133.551C111.265 133.514 111.205 133.475 111.148 133.435C111.119 133.415 110.988 133.317 111.117 133.416C111.021 133.341 110.929 133.261 110.839 133.176C110.751 133.092 110.667 133.003 110.588 132.911C110.564 132.882 110.465 132.751 110.561 132.883C110.519 132.827 110.479 132.77 110.439 132.711C110.37 132.598 110.269 132.507 110.149 132.45C110.029 132.394 109.895 132.373 109.764 132.391C109.633 132.406 109.509 132.46 109.409 132.545C109.308 132.631 109.235 132.744 109.199 132.871C109.176 132.994 109.145 133.116 109.108 133.235C109.092 133.287 109.074 133.336 109.057 133.395C109.047 133.423 108.972 133.578 109.044 133.431C108.946 133.639 108.831 133.839 108.701 134.029C108.666 134.08 108.605 134.151 108.679 134.063L108.551 134.207C108.473 134.293 108.391 134.376 108.308 134.456C108.269 134.493 108.229 134.53 108.189 134.563C108.175 134.576 108.02 134.704 108.092 134.647C108.164 134.589 108.002 134.711 107.986 134.722C107.943 134.752 107.898 134.783 107.852 134.812C107.762 134.869 107.669 134.923 107.573 134.971C107.519 135 107.463 135.029 107.413 135.056C107.253 135.131 107.482 135.034 107.354 135.083C107.139 135.168 106.916 135.234 106.689 135.28C106.636 135.291 106.583 135.298 106.529 135.307C106.7 135.274 106.529 135.307 106.497 135.307C106.373 135.32 106.249 135.325 106.125 135.322C106.018 135.322 105.913 135.311 105.805 135.301C105.977 135.317 105.805 135.301 105.773 135.293C105.703 135.28 105.633 135.264 105.564 135.247C105.39 135.199 105.205 135.222 105.048 135.311C104.892 135.4 104.777 135.548 104.729 135.721C104.682 135.895 104.705 136.08 104.794 136.237C104.883 136.393 105.03 136.508 105.204 136.555L105.205 136.559Z" fill="#D0E3FF"/>
<path d="M96.6237 145.746C98.2445 145.669 99.9053 145.856 101.406 145.106C102.049 144.786 102.583 144.282 102.939 143.658C102.976 143.591 103.011 143.524 103.051 143.46C103.07 143.428 103.092 143.397 103.11 143.365C103.051 143.471 103.086 143.404 103.11 143.365C103.182 143.263 103.129 143.365 103.094 143.365C103.094 143.365 103.241 143.325 103.094 143.365C103.072 143.365 102.961 143.375 103.112 143.365H103.18C103.124 143.356 103.12 143.356 103.169 143.365C103.536 143.448 103.897 143.551 104.252 143.674C105.136 143.941 106.075 144.104 106.92 143.628C107.074 143.536 107.186 143.388 107.231 143.214C107.277 143.041 107.252 142.857 107.163 142.701C107.07 142.549 106.922 142.438 106.749 142.392C106.576 142.347 106.393 142.37 106.236 142.456L106.121 142.519C106.219 142.471 106.131 142.519 106.107 142.519C106.027 142.543 105.947 142.564 105.865 142.581C105.995 142.556 105.809 142.581 105.766 142.581C105.671 142.583 105.576 142.58 105.481 142.572C105.345 142.56 105.438 142.572 105.467 142.572L105.337 142.549C105.249 142.532 105.163 142.512 105.075 142.49C104.897 142.447 104.721 142.394 104.547 142.34C103.774 142.104 102.814 141.714 102.155 142.407C101.916 142.656 101.782 142.978 101.588 143.261C101.665 143.149 101.534 143.325 101.51 143.351C101.464 143.402 101.416 143.45 101.366 143.498L101.28 143.576C101.265 143.589 101.171 143.669 101.235 143.616C101.299 143.564 101.217 143.629 101.209 143.636C101.161 143.669 101.113 143.703 101.064 143.735C100.938 143.816 100.808 143.889 100.673 143.954L100.564 144.005C100.47 144.052 100.659 143.972 100.564 144.005C100.47 144.039 100.404 144.069 100.31 144.098C100.166 144.144 100.02 144.184 99.8733 144.218L99.6669 144.261C99.5485 144.284 99.4973 144.292 99.4237 144.3C98.4973 144.405 97.5645 144.343 96.6349 144.386C96.455 144.386 96.2824 144.458 96.1552 144.585C96.0279 144.712 95.9565 144.885 95.9565 145.064C95.9565 145.244 96.0279 145.417 96.1552 145.544C96.2824 145.671 96.455 145.743 96.6349 145.743L96.6237 145.746Z" fill="#D0E3FF"/>
<path d="M77.2808 51.1669C77.415 51.1669 77.5461 51.1271 77.6577 51.0525C77.7693 50.978 77.8562 50.872 77.9076 50.7481C77.9589 50.6241 77.9724 50.4877 77.9462 50.3561C77.92 50.2245 77.8554 50.1036 77.7605 50.0088C77.6656 49.9139 77.5448 49.8493 77.4132 49.8231C77.2816 49.7969 77.1452 49.8104 77.0212 49.8617C76.8972 49.913 76.7913 50 76.7167 50.1116C76.6422 50.2231 76.6024 50.3543 76.6024 50.4885C76.6045 50.6677 76.6766 50.8391 76.8034 50.9659C76.9302 51.0926 77.1015 51.1648 77.2808 51.1669Z" fill="#D0E3FF"/>
<path d="M81.487 48.4679C81.6212 48.4679 81.7525 48.4281 81.8641 48.3534C81.9757 48.2788 82.0626 48.1728 82.1139 48.0487C82.1652 47.9247 82.1786 47.7882 82.1523 47.6565C82.1259 47.5249 82.0612 47.404 81.9661 47.3092C81.8711 47.2144 81.7501 47.1499 81.6184 47.1239C81.4867 47.0979 81.3502 47.1116 81.2263 47.1632C81.1023 47.2148 80.9965 47.302 80.9222 47.4138C80.8478 47.5255 80.8083 47.6568 80.8086 47.7911C80.8111 47.9701 80.8834 48.141 81.0101 48.2675C81.1369 48.3939 81.308 48.4658 81.487 48.4679Z" fill="#D0E3FF"/>
<path d="M81.8316 53.1781C81.9658 53.1781 82.0971 53.1382 82.2087 53.0636C82.3203 52.989 82.4072 52.883 82.4585 52.7589C82.5098 52.6349 82.5232 52.4984 82.4969 52.3667C82.4705 52.2351 82.4058 52.1142 82.3107 52.0194C82.2157 51.9246 82.0947 51.8601 81.963 51.8341C81.8313 51.8081 81.6948 51.8218 81.5709 51.8734C81.4469 51.925 81.3411 52.0122 81.2668 52.124C81.1924 52.2357 81.1529 52.367 81.1532 52.5013C81.1557 52.6803 81.228 52.8512 81.3547 52.9777C81.4815 53.1041 81.6526 53.176 81.8316 53.1781Z" fill="#D0E3FF"/>
<path d="M102 72.9014C102.182 72.8486 102.363 72.8022 102.548 72.7638L102.827 72.7142C102.91 72.7014 102.92 72.6998 102.856 72.7142L102.996 72.6982C103.348 72.6616 103.701 72.6531 104.054 72.6726C104.37 72.6841 104.685 72.7292 104.992 72.807C105.359 72.8919 105.718 73.0081 106.065 73.1542C106.385 73.2918 106.825 73.007 106.9 72.6742C106.99 72.2774 106.777 71.9878 106.42 71.8406C104.899 71.2175 103.212 71.1306 101.635 71.5942C101.546 71.6151 101.462 71.6537 101.389 71.7077C101.315 71.7617 101.253 71.83 101.207 71.9085C101.16 71.9869 101.13 72.0739 101.118 72.1643C101.106 72.2547 101.112 72.3466 101.136 72.4346C101.161 72.5225 101.202 72.6047 101.259 72.6761C101.316 72.7476 101.386 72.8068 101.466 72.8504C101.546 72.894 101.635 72.921 101.725 72.9297C101.816 72.9385 101.908 72.9288 101.995 72.9014H102Z" fill="#11142C"/>
<path d="M53.9814 69.5814C54.1156 69.5814 54.2468 69.5416 54.3583 69.4671C54.4699 69.3925 54.5568 69.2866 54.6082 69.1626C54.6595 69.0387 54.673 68.9023 54.6468 68.7707C54.6206 68.6391 54.556 68.5182 54.4611 68.4233C54.3663 68.3284 54.2454 68.2638 54.1138 68.2376C53.9822 68.2115 53.8458 68.2249 53.7218 68.2762C53.5979 68.3276 53.4919 68.4146 53.4174 68.5261C53.3428 68.6377 53.303 68.7688 53.303 68.903C53.3051 69.0823 53.3773 69.2536 53.504 69.3804C53.6308 69.5072 53.8022 69.5793 53.9814 69.5814Z" fill="#11142C"/>
<path d="M94.6312 95.0072C93.5186 96.9073 92.9244 99.0662 92.908 101.268C92.8986 102.357 93.0342 103.443 93.3112 104.497C93.4584 105.057 93.644 105.606 93.8072 106.161C93.884 106.42 93.956 106.681 94.0168 106.945C94.0488 107.087 94.0792 107.233 94.1048 107.377C94.116 107.438 94.1256 107.498 94.1352 107.559C94.1448 107.62 94.1352 107.607 94.1352 107.559L94.1496 107.678C94.1757 107.939 94.1811 108.202 94.1656 108.465C94.1656 108.526 94.1608 108.586 94.1512 108.647C94.1512 108.687 94.1432 108.727 94.1384 108.767C94.148 108.687 94.148 108.686 94.1384 108.767C94.1144 108.886 94.0936 109.004 94.0616 109.119C94.0266 109.253 93.9833 109.385 93.932 109.514C93.988 109.372 93.9128 109.551 93.9048 109.569C93.8792 109.622 93.852 109.673 93.8232 109.729C93.7944 109.785 93.764 109.831 93.732 109.879C93.716 109.903 93.572 110.094 93.6648 109.978C93.5768 110.085 93.4811 110.185 93.3784 110.278C93.2518 110.405 93.1807 110.578 93.1807 110.758C93.1807 110.937 93.2518 111.11 93.3784 111.238C93.5074 111.362 93.6794 111.431 93.8584 111.431C94.0373 111.431 94.2094 111.362 94.3384 111.238C95.1384 110.514 95.4888 109.436 95.532 108.382C95.5768 107.231 95.212 106.114 94.8824 105.022C94.715 104.5 94.5746 103.97 94.4616 103.434C94.436 103.302 94.412 103.169 94.3912 103.036C94.38 102.969 94.3704 102.903 94.3608 102.836C94.3768 102.948 94.3608 102.836 94.3608 102.815C94.3256 102.526 94.3 102.234 94.2856 101.942C94.2597 101.424 94.2683 100.906 94.3112 100.39C94.3224 100.255 94.3352 100.121 94.3512 99.9864C94.3512 99.9864 94.38 99.7592 94.3608 99.9L94.3848 99.74C94.428 99.4616 94.4792 99.1848 94.5448 98.9112C94.6734 98.3402 94.8445 97.7797 95.0568 97.2344C95.1544 96.9832 95.2168 96.8264 95.3656 96.5304C95.5144 96.2344 95.6536 95.9688 95.8136 95.6984C95.9053 95.5416 95.9309 95.3548 95.8848 95.1791C95.8388 95.0034 95.7248 94.8532 95.568 94.7616C95.4112 94.6699 95.2244 94.6443 95.0487 94.6904C94.8731 94.7364 94.7229 94.8504 94.6312 95.0072Z" fill="#11142C"/>
<path d="M85.6267 113.935C85.6555 114.071 85.6811 114.209 85.7019 114.346C85.6763 114.186 85.7115 114.434 85.7131 114.463C85.7131 114.522 85.7243 114.581 85.7291 114.641C85.7467 114.919 85.7467 115.198 85.7291 115.476C85.7291 115.556 85.7179 115.636 85.7099 115.714C85.7099 115.764 85.6891 115.893 85.7099 115.772C85.6907 115.909 85.6667 116.047 85.6395 116.183C85.5809 116.466 85.5045 116.746 85.4107 117.02C85.3883 117.085 85.3643 117.15 85.3387 117.217C85.3387 117.236 85.2555 117.426 85.2843 117.357C85.3131 117.289 85.2315 117.476 85.2219 117.495C85.1931 117.559 85.1627 117.621 85.1307 117.684C85.0054 117.933 84.8649 118.174 84.7099 118.405L84.5899 118.577L84.5195 118.673L84.5339 118.653C84.4459 118.762 84.3579 118.869 84.2635 118.973C84.0695 119.187 83.861 119.387 83.6395 119.572C83.5129 119.699 83.4418 119.872 83.4418 120.052C83.4418 120.232 83.5129 120.404 83.6395 120.532C83.7689 120.655 83.9408 120.724 84.1195 120.724C84.2982 120.724 84.4701 120.655 84.5995 120.532C86.5883 118.869 87.4795 116.095 86.9403 113.577C86.8931 113.403 86.7789 113.254 86.6226 113.164C86.4664 113.074 86.2809 113.05 86.1067 113.097C85.9343 113.146 85.788 113.261 85.6985 113.416C85.6089 113.572 85.5832 113.756 85.6267 113.93V113.935Z" fill="#11142C"/>
<path d="M62.9158 28.2463L65.4843 32.5633C65.746 32.9922 66.1603 33.3062 66.644 33.4421C67.0122 33.5457 67.403 33.5368 67.7661 33.4164C68.1292 33.2961 68.4479 33.0698 68.6813 32.7667C68.9147 32.4637 69.052 32.0977 69.0756 31.7159C69.0993 31.3341 69.0081 30.954 68.8138 30.6245L66.2453 26.3075C65.9896 25.8713 65.5787 25.5477 65.0947 25.4015C64.7266 25.3006 64.3368 25.3118 63.975 25.4335C63.6132 25.5552 63.2959 25.7819 63.0635 26.0848C62.8312 26.3876 62.6943 26.7528 62.6705 27.1337C62.6466 27.5147 62.7367 27.8941 62.9294 28.2236L62.9158 28.2463Z" fill="#D0E3FF"/>
<path d="M79.5727 15.2538L78.6667 22.8776C78.6661 23.13 78.7154 23.38 78.8117 23.6133C78.908 23.8466 79.0494 24.0586 79.2279 24.2371C79.4064 24.4155 79.6184 24.557 79.8517 24.6533C80.0849 24.7496 80.335 24.7989 80.5874 24.7983C81.0965 24.7968 81.5847 24.595 81.9463 24.2366C82.283 23.8604 82.4825 23.3815 82.5126 22.8776L83.4186 15.2538C83.4193 15.0014 83.37 14.7513 83.2736 14.5181C83.1772 14.2849 83.0356 14.073 82.8568 13.8948C82.496 13.5352 82.0073 13.3333 81.4979 13.3333C80.9884 13.3333 80.4998 13.5352 80.1389 13.8948C79.8033 14.2712 79.6053 14.7503 79.5772 15.2538H79.5727Z" fill="#D0E3FF"/>
<path d="M98.5463 17.1608C97.7762 18.3688 96.9563 19.533 96.0866 20.6534L96.3855 20.2638C95.8691 20.9342 95.3301 21.5911 94.7774 22.2343C94.4295 22.6028 94.2295 23.0866 94.2157 23.5933C94.2191 24.1021 94.4206 24.5895 94.7774 24.9523C95.4977 25.6091 96.7932 25.7631 97.4954 24.9523C99.0854 23.1053 100.545 21.1497 101.862 19.0996C102.116 18.659 102.185 18.1364 102.057 17.6447C101.928 17.1531 101.611 16.7319 101.174 16.4722C100.731 16.2258 100.211 16.1599 99.7215 16.2882C99.2319 16.4165 98.8108 16.7292 98.5463 17.1608Z" fill="#D0E3FF"/>
<path d="M105.878 35.5027L107.527 33.1109C107.663 32.8955 107.74 32.6491 107.754 32.3952C107.81 32.1413 107.797 31.8771 107.718 31.6296C107.662 31.3857 107.543 31.1607 107.373 30.9773C107.239 30.7695 107.053 30.5995 106.834 30.4835C106.613 30.3551 106.369 30.2717 106.115 30.2383C105.862 30.2049 105.604 30.222 105.358 30.2887L104.905 30.4835C104.619 30.6491 104.382 30.8865 104.216 31.1721L102.567 33.5684C102.429 33.781 102.349 34.0263 102.336 34.2796C102.28 34.5335 102.293 34.7977 102.372 35.0452C102.527 35.5183 102.838 35.9244 103.256 36.1958C103.477 36.3244 103.721 36.4075 103.975 36.4402C104.228 36.4729 104.486 36.4544 104.732 36.386L105.185 36.1958C105.472 36.0274 105.71 35.7889 105.878 35.5027Z" fill="#D0E3FF"/>
<path fill-rule="evenodd" clip-rule="evenodd" d="M62.3055 68.3786C62.3055 54.8346 73.6236 43.8875 87.314 43.8875C101.043 43.8875 112.361 54.8346 112.361 68.3786C112.361 75.2036 109.879 81.5399 105.794 86.9104C101.286 92.8345 95.7313 97.9959 89.4785 102.047C88.0474 102.984 86.7558 103.054 85.1852 102.047C78.8967 97.9959 73.3416 92.8345 68.8731 86.9104C64.7847 81.5399 62.3055 75.2036 62.3055 68.3786ZM79.0719 69.1413C79.0719 73.6785 82.7743 77.2471 87.314 77.2471C91.8567 77.2471 95.5948 73.6785 95.5948 69.1413C95.5948 64.6393 91.8567 60.8971 87.314 60.8971C82.7743 60.8971 79.0719 64.6393 79.0719 69.1413Z" fill="#1574FF"/>
</svg>
