<svg width="24" height="24" viewBox="0 0 24 24" fill="none" xmlns="http://www.w3.org/2000/svg">
<path fill-rule="evenodd" clip-rule="evenodd" d="M22.0941 11.1994L23.1132 7.15001C24.158 2.82293 22.2959 0 18.3899 0H13.1571C12.8649 0 12.6022 0.0766134 12.3791 0.224293C12.3284 0.253341 12.2796 0.285822 12.2328 0.321677L12.2292 0.324103L12.2165 0.331753C12.152 0.365784 12.0904 0.405204 12.0318 0.449903L12.0284 0.452154C11.9976 0.470304 11.9674 0.489742 11.938 0.510454C11.9073 0.529426 11.8772 0.5497 11.8479 0.571271C11.8081 0.593726 11.7694 0.618292 11.7319 0.644941C11.7039 0.662307 11.6766 0.680756 11.6498 0.700278L11.6271 0.715051C11.5971 0.732579 11.5678 0.751319 11.5392 0.771259C11.4975 0.79666 11.4572 0.824448 11.4181 0.854591C11.4073 0.861057 11.3965 0.867683 11.3858 0.87447C11.3601 0.888665 11.3349 0.90373 11.3101 0.919659C11.2544 0.950973 11.2008 0.986416 11.1496 1.02591L11.1444 1.02941C11.1196 1.0443 11.0951 1.06004 11.0712 1.07661C11.0442 1.09301 11.0177 1.11042 10.9917 1.12883C10.9596 1.14879 10.9282 1.17019 10.8977 1.193L10.8953 1.19457C10.8647 1.21219 10.8348 1.23107 10.8055 1.25119C10.7685 1.27343 10.7325 1.29754 10.6976 1.3235C10.661 1.34435 10.6253 1.36698 10.5906 1.39139C10.5566 1.4124 10.5234 1.43502 10.4911 1.45922C10.4829 1.46463 10.4748 1.47013 10.4668 1.47572C10.455 1.4829 10.4433 1.49027 10.4317 1.49783C10.3835 1.52505 10.3369 1.55536 10.2921 1.58872C10.2676 1.6027 10.2435 1.61748 10.2199 1.63306C10.1752 1.65877 10.132 1.68716 10.0903 1.71817C10.0451 1.74402 10.0013 1.77261 9.959 1.8039C9.9475 1.81135 9.93609 1.81899 9.9248 1.82682C9.89933 1.84224 9.87434 1.85856 9.84985 1.87575C9.82467 1.89125 9.79997 1.90762 9.77577 1.92486C9.75985 1.93482 9.74412 1.94513 9.72859 1.95579C9.68584 1.98142 9.64444 2.00955 9.60446 2.04014C9.59593 2.04586 9.58746 2.05169 9.57904 2.05762L9.57572 2.05968C9.51481 2.09264 9.45648 2.13044 9.4009 2.17299L9.39158 2.17856C9.32637 2.21261 9.26403 2.25214 9.20478 2.29704L9.19218 2.30553C9.1594 2.32503 9.12741 2.346 9.09624 2.36841C9.08501 2.37551 9.07388 2.38279 9.06285 2.39024C9.02887 2.41021 8.99574 2.43173 8.96348 2.45479C8.93437 2.4731 8.9059 2.49258 8.87811 2.51324C8.84265 2.53341 8.80809 2.55527 8.77447 2.57879C8.74007 2.5999 8.70656 2.62265 8.67398 2.64701C8.63487 2.66937 8.59685 2.69379 8.55999 2.72022C8.54772 2.72791 8.53557 2.73581 8.52353 2.74393C8.48823 2.76475 8.45385 2.78726 8.42041 2.81143C8.40339 2.82226 8.38661 2.8335 8.37004 2.84514C8.35389 2.85509 8.33793 2.8654 8.32217 2.87607C8.28252 2.89945 8.24402 2.92495 8.20672 2.95256L8.20365 2.95457C8.16796 2.97489 8.13318 2.9969 8.09936 3.0206C8.06666 3.04068 8.03476 3.06223 8.00369 3.08525C7.9754 3.10128 7.94768 3.11837 7.92055 3.13652C7.87413 3.16371 7.82929 3.19381 7.78609 3.22678L7.7783 3.23204C7.75186 3.24778 7.72593 3.26448 7.70054 3.28212C7.66603 3.30303 7.63241 3.32557 7.59971 3.34972C7.56389 3.37001 7.52898 3.392 7.49503 3.41568C7.45922 3.43754 7.42437 3.46117 7.39052 3.48653C7.34818 3.51088 7.30712 3.53764 7.26742 3.56677C7.2504 3.57779 7.23361 3.58923 7.21704 3.60107C7.20063 3.61127 7.18442 3.62184 7.16841 3.63279C7.15498 3.64083 7.14168 3.64912 7.12852 3.65765C7.1062 3.67029 7.08423 3.6836 7.06262 3.69757C7.01468 3.72463 6.96837 3.75475 6.92379 3.78788C6.90665 3.799 6.88975 3.81053 6.87307 3.82248C6.86269 3.82904 6.8524 3.83575 6.84218 3.84261C6.80956 3.86171 6.77771 3.88224 6.74667 3.90419C6.71351 3.92471 6.68119 3.94674 6.64972 3.97028C6.61486 3.9903 6.58088 4.01195 6.5478 4.03521C6.51407 4.05601 6.4812 4.07838 6.44922 4.1023C6.41598 4.12137 6.38353 4.14193 6.3519 4.16395C6.31808 4.18456 6.28512 4.20674 6.25306 4.23047C6.21763 4.2505 6.18309 4.2722 6.14948 4.29555C6.11585 4.31601 6.08306 4.33802 6.05115 4.36156C6.00575 4.38712 5.9618 4.41542 5.91939 4.44642C5.91058 4.45215 5.90183 4.45798 5.89314 4.46392C5.87785 4.47297 5.86273 4.48234 5.84778 4.49202C5.79942 4.5194 5.75273 4.54989 5.70779 4.58345C5.6956 4.59143 5.68353 4.59962 5.67158 4.60801C5.6484 4.62228 5.62563 4.63728 5.60327 4.65302C5.58242 4.66589 5.56189 4.67936 5.5417 4.69343C5.51886 4.70736 5.49642 4.722 5.47437 4.73735C5.43284 4.76268 5.3926 4.79039 5.35372 4.82044L5.34825 4.82416C5.33786 4.83038 5.32755 4.83675 5.31732 4.84326C5.26691 4.87128 5.21829 4.90267 5.17156 4.93736C5.14847 4.95052 5.12576 4.9644 5.10344 4.97898C5.06535 5.00075 5.0283 5.02446 4.99232 5.05008C4.96453 5.06729 4.93732 5.08558 4.91072 5.10492C4.90161 5.11075 4.89257 5.1167 4.88359 5.12277C4.84827 5.14355 4.81386 5.16602 4.78039 5.19016C4.76252 5.2015 4.7449 5.2133 4.72752 5.22553C4.69458 5.24588 4.66245 5.26772 4.63118 5.29105C4.29984 5.50705 4.05458 5.87867 3.92741 6.38818L0.0696819 22.0936C-0.140886 22.9363 0.127548 23.4001 0.850872 23.4001H6.07648C7.66161 23.4001 9.15005 22.9351 10.429 22.0931C10.4551 22.0763 10.4812 22.0593 10.5071 22.0421C10.5445 22.018 10.5816 21.9936 10.6186 21.9688C10.671 21.9352 10.723 21.901 10.7747 21.8661C10.8351 21.8287 10.895 21.7905 10.9545 21.7515C11.0624 21.6838 11.1688 21.6134 11.2738 21.5405L11.3084 21.5178L11.3484 21.4918C11.3687 21.4789 11.3889 21.4659 11.409 21.4527C11.4703 21.4136 11.5311 21.3737 11.5914 21.3329C11.6126 21.3192 11.6337 21.3054 11.6548 21.2915C11.7317 21.2438 11.8079 21.1947 11.8834 21.1444C12.0032 21.0696 12.1213 20.9916 12.2376 20.9105L12.2617 20.8946C12.2822 20.8813 12.3025 20.868 12.3229 20.8546L12.3807 20.8169C12.4181 20.7928 12.4554 20.7684 12.4924 20.7437C12.5149 20.729 12.5373 20.7142 12.5597 20.6993C12.6106 20.6668 12.6611 20.6337 12.7113 20.6C12.8133 20.5373 12.914 20.4723 13.0134 20.4049C13.0676 20.3698 13.1214 20.3339 13.1749 20.2974L13.2133 20.2721C13.2352 20.2579 13.2571 20.2436 13.2788 20.2292C13.2985 20.2164 13.3181 20.2036 13.3376 20.1907L13.3741 20.167C13.3961 20.1529 13.4181 20.1386 13.4401 20.1243C13.5033 20.0847 13.5661 20.0442 13.6283 20.0028C13.7274 19.941 13.8253 19.877 13.9219 19.8109C13.9678 19.7814 14.0135 19.7515 14.0589 19.7211C14.1225 19.6802 14.1856 19.6385 14.2483 19.5958L14.2956 19.5653C14.4077 19.4955 14.5183 19.4229 14.6274 19.3475L14.681 19.3124C14.7191 19.2878 14.757 19.2629 14.7948 19.2376C14.8344 19.2122 14.8738 19.1864 14.913 19.1603L14.9543 19.1338C15.0412 19.0801 15.1273 19.0247 15.2124 18.9676C15.3086 18.907 15.4037 18.8442 15.4976 18.7794C15.5183 18.766 15.539 18.7525 15.5596 18.7389C15.6055 18.7093 15.6512 18.6791 15.6966 18.6485L15.7032 18.6441L15.7363 18.6226L15.7878 18.5885C15.8252 18.5647 15.8623 18.5406 15.8993 18.5162C15.9862 18.4623 16.0723 18.4067 16.1574 18.3494C16.2051 18.3187 16.2525 18.2875 16.2997 18.2557C16.3325 18.2341 16.3652 18.2122 16.3977 18.19L16.4283 18.17C16.459 18.1502 16.4895 18.1302 16.5199 18.11C16.5818 18.0707 16.6433 18.0305 16.7042 17.9894C16.7382 17.9674 16.7721 17.9452 16.8058 17.9227L16.838 17.9016C16.888 17.87 16.9377 17.8378 16.9871 17.8051C17.0662 17.7559 17.1446 17.7053 17.2222 17.6534C17.2758 17.6183 17.329 17.5825 17.3819 17.5461L17.4126 17.5257C17.4508 17.5013 17.4888 17.4766 17.5266 17.4516C17.5773 17.4194 17.6276 17.3867 17.6777 17.3533L17.7021 17.3373C17.7575 17.3024 17.8125 17.2669 17.8671 17.2306C17.9559 17.1754 18.0437 17.1184 18.1305 17.0597C20.0237 15.834 21.4653 13.7868 22.0941 11.1994Z" fill="#12142A"/>
<path d="M23.1132 7.1583L22.0901 11.2102C21.0405 15.5291 17.7261 18.3431 13.8265 18.3431H8.60254C7.87921 18.3431 7.60998 17.8784 7.82135 17.0316L11.6791 1.32626C11.8912 0.477013 12.4321 0.0107438 13.153 0.0107438H18.3859C22.2958 0.00829403 24.158 2.83123 23.1132 7.1583ZM16.9031 5.3512H15.5979L13.6859 13.0124H15.0096C16.1243 13.0124 16.9449 12.3289 17.2302 11.0436L18.1633 7.32244C18.4719 6.0355 18.0387 5.3512 16.8991 5.3512H16.9031Z" fill="#1574FF"/>
</svg>
