<svg width="32" height="32" viewBox="0 0 32 32" fill="none" xmlns="http://www.w3.org/2000/svg">
<path fill-rule="evenodd" clip-rule="evenodd" d="M29.4587 14.9325L30.8175 9.53328C32.2105 3.76388 29.7277 0 24.5198 0H17.5427C17.1518 0 16.8006 0.10283 16.5024 0.30102C16.4383 0.337944 16.3764 0.378998 16.3169 0.424117L16.3065 0.431124L16.2894 0.441441C16.202 0.487506 16.1185 0.540991 16.0392 0.60174C15.997 0.626517 15.9558 0.6531 15.9156 0.681468C15.8753 0.706364 15.836 0.73294 15.7976 0.761182C15.7439 0.791443 15.6918 0.824582 15.6412 0.860559C15.6034 0.88409 15.5664 0.909106 15.5303 0.935595C15.5204 0.941871 15.5107 0.948249 15.5009 0.954728C15.4651 0.97577 15.4299 0.998117 15.3954 1.02176C15.3357 1.05764 15.2779 1.09718 15.2222 1.14032C15.209 1.1482 15.1959 1.15625 15.1829 1.16448C15.1484 1.18348 15.1145 1.20364 15.0813 1.22497C15.0049 1.26778 14.9317 1.31639 14.8617 1.3707C14.8266 1.3916 14.7923 1.41376 14.7586 1.43716C14.7234 1.45864 14.6888 1.48141 14.655 1.50545C14.6133 1.53135 14.5726 1.55905 14.533 1.58855L14.5257 1.59334C14.4845 1.61711 14.4442 1.64259 14.4049 1.66976C14.3555 1.69955 14.3075 1.73184 14.261 1.76659C14.217 1.7917 14.1741 1.81874 14.1322 1.8477C14.082 1.87815 14.0332 1.9112 13.9858 1.94681C13.973 1.95533 13.9602 1.96403 13.9475 1.97291C13.9372 1.97932 13.9268 1.98584 13.9165 1.99247C13.8489 2.03024 13.7836 2.07256 13.721 2.11934C13.6903 2.13688 13.6601 2.15537 13.6304 2.17479C13.5698 2.20948 13.5111 2.24786 13.4545 2.28987C13.3911 2.32605 13.3298 2.36625 13.2708 2.41043C13.2613 2.41667 13.2518 2.423 13.2424 2.42943C13.2041 2.45229 13.1666 2.47665 13.13 2.50249C13.0951 2.52404 13.0609 2.54684 13.0275 2.5709C13.0072 2.5837 12.9872 2.59693 12.9674 2.6106C12.9145 2.64252 12.8631 2.67732 12.8134 2.71496C12.7988 2.72466 12.7843 2.73459 12.7699 2.74475L12.7639 2.74846C12.6845 2.79167 12.6084 2.84109 12.5357 2.89658L12.5262 2.90226C12.4394 2.94727 12.3564 2.99955 12.2775 3.05894L12.2533 3.07523C12.2075 3.1026 12.1628 3.13212 12.1193 3.16375C12.106 3.17231 12.0927 3.18106 12.0796 3.19C12.0399 3.21349 12.001 3.2386 11.963 3.26529C11.9193 3.29232 11.8766 3.32134 11.835 3.35232C11.7896 3.37827 11.7452 3.40629 11.702 3.43637C11.6549 3.46517 11.6091 3.49626 11.5645 3.52962C11.5124 3.55943 11.4618 3.59197 11.4127 3.62719C11.3974 3.63674 11.3823 3.64654 11.3673 3.65658C11.3185 3.6853 11.2709 3.71645 11.2247 3.74999C11.2023 3.76428 11.1802 3.7791 11.1584 3.79444C11.1365 3.80798 11.1148 3.82202 11.0934 3.83655C11.0438 3.86593 10.9955 3.89781 10.9486 3.93218L10.9314 3.94342C10.8849 3.97021 10.8395 3.99919 10.7953 4.03032C10.7545 4.05553 10.7146 4.08245 10.6758 4.11109C10.6379 4.13239 10.6008 4.15513 10.5645 4.17927C10.4993 4.21726 10.4364 4.25954 10.3759 4.30606C10.338 4.32845 10.3009 4.3523 10.2646 4.37759C10.2207 4.40434 10.1778 4.43308 10.136 4.46378C10.0838 4.4932 10.033 4.52533 9.98378 4.56016C9.93902 4.58789 9.8954 4.6177 9.85296 4.64957C9.7995 4.68036 9.74758 4.71401 9.69728 4.75051C9.67039 4.76774 9.64392 4.78573 9.61788 4.80448C9.59771 4.81709 9.57778 4.83012 9.55809 4.84358C9.5418 4.85333 9.52566 4.86336 9.50968 4.87365C9.47824 4.89132 9.44732 4.90998 9.41695 4.92961C9.35059 4.96705 9.28658 5.00888 9.22505 5.05503C9.20565 5.06775 9.18647 5.08087 9.16751 5.09439C9.15176 5.1043 9.13614 5.11447 9.12067 5.1249C9.07739 5.15033 9.03514 5.17767 8.99396 5.20688C8.95227 5.23275 8.91157 5.26042 8.87189 5.28988C8.8203 5.31924 8.77013 5.35126 8.72146 5.38592C8.68004 5.41181 8.63961 5.43949 8.60019 5.46894C8.55686 5.49375 8.51454 5.52044 8.47327 5.549C8.42433 5.57862 8.37674 5.6107 8.33054 5.64521C8.28966 5.66859 8.24968 5.69364 8.21063 5.72035C8.16089 5.7501 8.11253 5.78238 8.06559 5.81716C8.00854 5.84941 7.95323 5.88491 7.89973 5.92362C7.88424 5.93357 7.86889 5.94378 7.85368 5.95424C7.83605 5.96474 7.81859 5.97556 7.80131 5.98669C7.73283 6.02523 7.66685 6.06843 7.6035 6.11624C7.59376 6.12268 7.58406 6.12923 7.57443 6.13588C7.53855 6.15755 7.50339 6.18054 7.46896 6.20484C7.43841 6.22374 7.40838 6.24362 7.3789 6.26445C7.35209 6.28106 7.32568 6.29842 7.29969 6.31651C7.24605 6.34921 7.19402 6.38487 7.14369 6.42347L7.12641 6.43522C7.11494 6.44214 7.10354 6.44919 7.09222 6.45637C7.02398 6.49414 6.95819 6.53652 6.89499 6.58344C6.86601 6.59997 6.83748 6.61735 6.80942 6.63556C6.75659 6.66552 6.70526 6.69828 6.65548 6.73378C6.62017 6.75569 6.58557 6.77888 6.5517 6.80337C6.53602 6.81334 6.52049 6.82358 6.50509 6.83408C6.45867 6.86164 6.41344 6.89141 6.36944 6.92334C6.35049 6.93546 6.33175 6.94795 6.31322 6.96082C6.26323 6.99123 6.21464 7.02422 6.16751 7.05975C5.72945 7.34842 5.40513 7.84219 5.23651 8.51776L0.0929085 29.4581C-0.187846 30.5817 0.170063 31.2002 1.13449 31.2002H8.10192C10.2347 31.2002 12.2362 30.5689 13.9518 29.4267C14.0319 29.3757 14.1113 29.3235 14.1902 29.2703C14.2422 29.2367 14.294 29.2026 14.3455 29.168C14.4367 29.1118 14.5271 29.0543 14.6168 28.9953C14.7557 28.9078 14.8929 28.8171 15.0283 28.7231C15.0654 28.6989 15.1024 28.6745 15.1393 28.6498C15.25 28.5805 15.3595 28.5091 15.4678 28.4356C15.491 28.4205 15.5142 28.4053 15.5374 28.3901C15.6434 28.3243 15.7484 28.2567 15.8523 28.1872C16.0077 28.0902 16.1608 27.989 16.3116 27.8839L16.347 27.8606C16.3931 27.8308 16.439 27.8006 16.4847 27.7701L16.498 27.7613C16.5309 27.7402 16.5637 27.7189 16.5964 27.6974C16.6514 27.662 16.7061 27.6261 16.7606 27.5896C16.8207 27.5511 16.8806 27.5119 16.94 27.4721L16.9488 27.4663C17.0897 27.3796 17.2288 27.2896 17.366 27.1963C17.4228 27.1594 17.4793 27.1218 17.5354 27.0838C17.5733 27.0592 17.6111 27.0343 17.6487 27.0092C17.6877 26.9837 17.7265 26.958 17.7651 26.932L17.7768 26.9244L17.7961 26.9118C17.8323 26.8889 17.8682 26.8658 17.9041 26.8424C17.996 26.7851 18.0871 26.7264 18.1774 26.6662C18.3109 26.5829 18.4428 26.4965 18.573 26.4071C18.6261 26.373 18.6789 26.3383 18.7315 26.3032C18.8215 26.2456 18.9108 26.1867 18.9993 26.1263L19.0574 26.0888C19.2075 25.9955 19.3556 25.8983 19.5016 25.7974C19.5357 25.7753 19.5697 25.753 19.6036 25.7305C19.6374 25.7085 19.671 25.6864 19.7046 25.664C19.7751 25.6191 19.8451 25.5732 19.9147 25.5266C20.0398 25.4497 20.1635 25.3703 20.2858 25.2882C20.4114 25.209 20.5356 25.1271 20.6582 25.0425C20.701 25.0149 20.7436 24.9869 20.7861 24.9586C20.828 24.9313 20.8698 24.9036 20.9114 24.8757C20.9629 24.8425 21.0142 24.8089 21.0653 24.7748C21.1061 24.7486 21.1467 24.7222 21.1872 24.6956C21.3058 24.6223 21.4231 24.5466 21.5391 24.4686C21.6209 24.416 21.702 24.3623 21.7825 24.3075L21.834 24.2728C21.87 24.2495 21.9059 24.226 21.9416 24.2022C21.9718 24.1826 22.0018 24.1629 22.0318 24.143C22.1109 24.0926 22.1895 24.0412 22.2675 23.9887C22.3154 23.9578 22.3631 23.9265 22.4105 23.8948L22.4515 23.8679C22.5193 23.8251 22.5866 23.7815 22.6535 23.7371C22.7496 23.6773 22.8449 23.6159 22.9394 23.553C23.0161 23.5031 23.0923 23.4521 23.1678 23.4002L23.2306 23.3585C23.2795 23.3271 23.3281 23.2954 23.3766 23.2632C23.4376 23.2244 23.4983 23.185 23.5587 23.1449L23.5904 23.1242C23.6732 23.0722 23.7553 23.0191 23.8367 22.9649C23.9459 22.8968 24.0539 22.8266 24.1609 22.7545C26.6916 21.1212 28.6189 18.3882 29.4587 14.9325Z" fill="#1574FF"/>
<path d="M30.8176 9.54417L29.4535 14.9467C28.054 20.7052 23.6348 24.4571 18.4355 24.4571H11.4702C10.5058 24.4571 10.1468 23.8376 10.4287 22.7085L15.5722 1.76817C15.8551 0.63585 16.5763 0.0141623 17.5375 0.0141623H24.5146C29.7278 0.010896 32.2107 3.77478 30.8176 9.54417ZM22.5375 7.13472H20.7973L18.248 17.3496H20.0129C21.4992 17.3496 22.5932 16.4383 22.9737 14.7245L24.2178 9.76302C24.6293 8.04711 24.0517 7.13472 22.5322 7.13472H22.5375Z" fill="white"/>
</svg>
