<svg width="160" height="161" viewBox="0 0 160 161" fill="none" xmlns="http://www.w3.org/2000/svg">
<path d="M79.9984 4.5415H79.9968C38.0471 4.5415 4.04004 38.5485 4.04004 80.4983V80.4999C4.04004 122.45 38.0471 156.457 79.9968 156.457H79.9984C121.948 156.457 155.955 122.45 155.955 80.4999V80.4983C155.955 38.5485 121.948 4.5415 79.9984 4.5415Z" fill="#11142C"/>
<path d="M62.0801 122.671L62.9217 132.647C63.0321 133.961 63.1761 135.367 64.0049 136.388C65.2657 137.95 67.5681 138.052 69.5745 138.023C75.9841 137.94 82.4001 137.842 88.7889 137.3C90.2289 137.178 91.8289 136.959 92.7745 135.86C93.3281 135.22 93.5745 134.375 93.7345 133.546C94.0913 131.801 94.1809 130.012 94.2529 128.233C94.4395 123.575 94.5185 118.915 94.4897 114.255C94.4801 112.689 94.3297 110.871 93.0337 109.993C92.3457 109.526 91.4753 109.442 90.6465 109.385C81.7896 108.774 72.8937 109.688 64.3457 112.086" fill="#4490FF"/>
<path d="M78.9825 125.98C80.7825 121.98 81.2769 117.534 81.5425 113.158C81.6214 111.869 81.6828 110.58 81.7265 109.291C75.8475 109.563 70.0186 110.503 64.3521 112.092L62.0801 122.671C62.3606 125.996 62.6411 129.321 62.9217 132.647C63.0321 133.961 63.1761 135.367 64.0049 136.388C64.6849 137.23 65.6673 137.646 66.7425 137.847C72.0593 135.273 76.5777 131.324 78.9825 125.98Z" fill="#1574FF"/>
<path d="M60.6943 130.801C59.9235 134.546 59.9018 138.407 60.6303 142.161C60.8338 143.206 61.0971 144.239 61.4191 145.254C61.4429 145.34 61.4836 145.421 61.5387 145.492C61.5939 145.563 61.6625 145.622 61.7406 145.667C61.8186 145.711 61.9047 145.74 61.9938 145.751C62.0829 145.762 62.1733 145.755 62.2599 145.731C62.3464 145.707 62.4275 145.667 62.4983 145.612C62.5692 145.556 62.6285 145.488 62.6728 145.41C62.7172 145.332 62.7457 145.246 62.7568 145.157C62.7679 145.067 62.7613 144.977 62.7375 144.891C62.4601 144.017 62.2271 143.132 62.0383 142.235C61.9401 141.774 61.8548 141.311 61.7823 140.846C61.7071 140.379 61.6719 140.11 61.6223 139.63C61.4266 137.806 61.41 135.967 61.5727 134.14C61.5951 133.883 61.6223 133.623 61.6527 133.366C61.6671 133.243 61.6815 133.119 61.6975 132.996C61.7135 132.873 61.6751 133.156 61.7087 132.921C61.7199 132.847 61.7295 132.774 61.7407 132.7C61.8175 132.185 61.9087 131.673 62.0143 131.164C62.0863 130.815 61.9119 130.409 61.5343 130.324C61.1935 130.246 60.7711 130.427 60.6943 130.804V130.801Z" fill="#F96632"/>
<path d="M81.0687 85.4038C91.9247 83.8038 101.464 77.6518 111.298 72.783C112.504 72.1862 113.742 71.599 115.074 71.4118C116.405 71.2246 117.866 71.495 118.838 72.423C119.638 73.1894 120.019 74.3094 120.13 75.4118C120.458 78.6742 118.632 81.855 116.146 83.991C113.659 86.127 110.568 87.4086 107.536 88.6598C109.278 89.1654 110.949 90.119 111.992 91.6038C113.035 93.0886 113.347 95.1542 112.482 96.7494C111.146 99.2118 107.722 99.6518 105.006 98.9558C106.626 100.021 107.075 102.391 106.238 104.14C105.402 105.889 103.518 106.991 101.598 107.241C99.6783 107.49 97.7215 106.988 95.9535 106.191C96.7535 107.921 95.8495 110.159 94.1743 111.063C92.4991 111.967 90.3007 111.605 88.8255 110.401C89.6767 112.332 88.1535 114.689 86.1407 115.327C84.1279 115.965 81.9215 115.284 80.0911 114.234C78.2607 113.185 76.6527 111.773 74.7983 110.767" fill="#F96632"/>
<path d="M19.7119 145.756H140.283C141.163 145.756 141.165 144.39 140.283 144.39H19.7119C18.8319 144.39 18.8303 145.756 19.7119 145.756Z" fill="#E8F1FF"/>
<path d="M93.1791 67.9511C90.0639 66.2743 87.6287 61.4903 84.6047 59.6551C80.0159 56.8695 73.2863 58.5895 70.5951 63.2343C69.6847 64.8071 69.2143 66.5943 68.7967 68.3543C67.5535 73.6294 66.6925 78.9873 66.2207 84.3863C66.1423 85.2839 66.0607 86.2279 65.5551 86.9735C65.0255 87.7559 64.1151 88.1847 63.2623 88.5735L29.0767 104.212C28.4559 104.495 27.7967 104.786 27.1199 104.721C26.4799 104.66 25.9151 104.294 25.3807 103.935C21.6847 101.47 21.7247 93.0919 18.0303 90.6247C14.3855 94.7399 7.19988 104.927 3.95508 109.361C6.36308 112.287 10.5999 112.692 14.3663 113.11C17.2463 113.43 20.1103 113.886 22.9583 114.479C23.6879 114.639 24.4399 114.799 25.0383 115.241C25.6367 115.682 26.0159 116.316 26.4127 116.927C33.6959 128.18 48.3711 133.14 61.6559 131.399C71.3087 130.134 81.1327 125.098 85.1295 116.22C86.9295 112.22 87.4239 107.774 87.6895 103.398C88.1583 95.6935 87.9935 87.9671 87.8175 80.2503C87.7615 77.8311 87.7119 75.3607 88.4447 73.0503C89.1775 70.7399 90.8447 68.5927 93.1775 67.9463" fill="#FFB72C"/>
<path d="M85.8641 61.0745L64.6177 60.0201L71.5745 59.6169C71.582 58.1161 71.7974 56.6235 72.2145 55.1817C72.3167 54.7425 72.5055 54.328 72.7697 53.9625C73.3249 53.2713 74.2737 53.0585 75.1473 52.9081C78.3479 52.3578 81.5864 52.0567 84.8337 52.0073C85.3329 52.0073 85.8801 52.0153 86.2561 52.3417C86.5905 52.6313 86.7057 53.0953 86.7905 53.5305C87.1537 55.4025 88.2497 58.8313 88.1697 60.7305C88.1473 61.2505 86.8721 61.0505 85.8705 61.0713" fill="#4490FF"/>
<path d="M85.8643 60.3895L77.6003 59.9783L69.2931 59.5655L64.6195 59.3335V60.6999L71.5763 60.2983C71.7565 60.2942 71.9281 60.2207 72.0554 60.0931C72.1827 59.9655 72.2558 59.7937 72.2595 59.6135C72.2584 58.4926 72.3834 57.3752 72.6323 56.2823C72.6915 56.0231 72.7571 55.7639 72.8275 55.5079C72.8659 55.3719 72.9043 55.2359 72.9475 55.1015C72.9651 55.0471 72.9827 54.9943 73.0019 54.9415C73.0099 54.9175 73.0931 54.7143 73.0451 54.8215C73.0956 54.7112 73.1533 54.6043 73.2179 54.5015C73.2323 54.4791 73.3139 54.3607 73.2483 54.4487C73.2847 54.4008 73.3242 54.3554 73.3667 54.3127C73.4083 54.2711 73.4531 54.2327 73.4963 54.1911C73.5395 54.1495 73.5987 54.1143 73.4963 54.1911C73.6085 54.1098 73.7267 54.0371 73.8499 53.9735L73.9571 53.9223C74.1299 53.8359 73.8323 53.9607 74.0163 53.8967C74.1219 53.8599 74.2275 53.8231 74.3363 53.7911C74.5635 53.7239 74.7939 53.6727 75.0259 53.6311C75.5875 53.5223 76.1555 53.4375 76.7219 53.3527C77.8131 53.1927 78.9619 53.0535 80.1267 52.9495C81.2915 52.8455 82.4755 52.7687 83.6467 52.7287C84.2083 52.7095 84.7667 52.6951 85.3315 52.7111C85.3555 52.7111 85.4675 52.7239 85.3315 52.7111C85.3933 52.7198 85.4548 52.7315 85.5155 52.7463C85.5747 52.7607 85.6323 52.7799 85.6915 52.7991C85.5779 52.7607 85.6691 52.7895 85.6915 52.7991C85.7139 52.8087 85.8595 52.9239 85.7539 52.8311C85.799 52.8701 85.8408 52.913 85.8787 52.9591C85.7843 52.8439 85.8947 52.9975 85.9059 53.0167C85.9171 53.0359 85.9923 53.2039 85.9395 53.0695C86.065 53.4546 86.1602 53.8488 86.2243 54.2487C86.3075 54.6215 86.4003 54.9943 86.4915 55.3687C86.7059 56.2295 86.9251 57.0903 87.1123 57.9559C87.2179 58.4359 87.3139 58.9319 87.3859 59.4247L87.4003 59.5319C87.3731 59.3431 87.4003 59.5767 87.4099 59.6119C87.4211 59.7143 87.4323 59.8151 87.4403 59.9175C87.4595 60.1207 87.4707 60.3255 87.4707 60.5303V60.6615C87.4707 60.7495 87.4307 60.8103 87.4851 60.6215L87.5347 60.5095C87.5011 60.5671 87.5203 60.5431 87.5955 60.4375C87.5283 60.5079 87.7555 60.3367 87.6099 60.4135C87.6291 60.4039 87.7699 60.3703 87.6755 60.3815C87.6206 60.385 87.5667 60.3969 87.5155 60.4167L87.6099 60.4039L87.5155 60.4135L87.3667 60.4215C86.8611 60.4439 86.3555 60.3975 85.8499 60.4023C85.6742 60.4108 85.5085 60.4866 85.3872 60.6139C85.2658 60.7413 85.1982 60.9104 85.1982 61.0863C85.1982 61.2622 85.2658 61.4314 85.3872 61.5587C85.5085 61.686 85.6742 61.7618 85.8499 61.7703C86.3379 61.7703 86.8259 61.8055 87.3139 61.7911C87.7619 61.7783 88.2483 61.7223 88.5763 61.3831C88.9043 61.0439 88.8499 60.5031 88.8179 60.0647C88.7843 59.5847 88.7139 59.1047 88.6323 58.6247C88.3251 56.8487 87.7795 55.1255 87.4291 53.3591C87.3203 52.8167 87.1443 52.2519 86.7203 51.8695C86.2291 51.4279 85.5747 51.3319 84.9379 51.3335C83.6931 51.3335 82.4451 51.4039 81.2035 51.4935C79.9235 51.5863 78.6483 51.7186 77.3779 51.8903C76.7197 51.9778 76.0637 52.0749 75.4099 52.1815C74.8685 52.2533 74.3335 52.3672 73.8099 52.5223C73.2152 52.6941 72.6807 53.0295 72.2675 53.4903C71.8179 54.0343 71.6115 54.7063 71.4355 55.3783C71.0734 56.7661 70.8858 58.1937 70.8771 59.6279L71.5619 58.9447L64.6051 59.3479C64.4239 59.3479 64.2501 59.4199 64.122 59.548C63.9939 59.6761 63.9219 59.8499 63.9219 60.0311C63.9219 60.2123 63.9939 60.3861 64.122 60.5142C64.2501 60.6423 64.4239 60.7143 64.6051 60.7143L72.8723 61.1255L81.1795 61.5399L85.8515 61.7719C86.0324 61.7707 86.2056 61.6983 86.3337 61.5705C86.4618 61.4427 86.5346 61.2697 86.5363 61.0887C86.5322 60.9084 86.4587 60.7366 86.3312 60.609C86.2036 60.4814 86.0318 60.408 85.8515 60.4039L85.8643 60.3895Z" fill="#4490FF"/>
<path d="M81.3904 64.0456C81.2271 64.3747 81.1344 64.7344 81.1184 65.1016C81.1046 65.4184 81.1558 65.7348 81.2688 66.0312C81.3008 66.1453 81.3613 66.2494 81.4448 66.3336C81.5053 66.3984 81.5813 66.4469 81.6656 66.4744C81.762 66.5189 81.8678 66.5391 81.9738 66.5332C82.0798 66.5273 82.1827 66.4956 82.2736 66.4408C82.5042 66.2886 82.6767 66.0631 82.7632 65.8008C82.8341 65.5835 82.838 65.3499 82.7744 65.1304C82.7222 64.9593 82.6081 64.8138 82.4544 64.7224C82.295 64.6306 82.1057 64.6059 81.928 64.6536C81.7554 64.7028 81.6089 64.8176 81.52 64.9736C81.4284 65.133 81.4037 65.3223 81.4512 65.5C81.4581 65.5263 81.4634 65.553 81.4672 65.58L81.4432 65.3976C81.448 65.4374 81.448 65.4777 81.4432 65.5176L81.4688 65.3368C81.4609 65.3828 81.4481 65.4279 81.4304 65.4712L81.4992 65.3112C81.4825 65.3481 81.4615 65.383 81.4368 65.4152L81.544 65.2776C81.519 65.3084 81.4905 65.3363 81.4592 65.3608L81.5968 65.2536L81.5808 65.2664L82.584 65.6744C82.5299 65.5369 82.4923 65.3935 82.472 65.2472L82.496 65.428C82.476 65.2648 82.476 65.0999 82.496 64.9368L82.472 65.1192C82.494 64.9644 82.5348 64.8128 82.5936 64.668L82.5248 64.828C82.5376 64.7976 82.552 64.7688 82.5664 64.7384C82.6542 64.5776 82.6787 64.3899 82.6352 64.212C82.5857 64.0395 82.4709 63.8931 82.3152 63.804C82.2365 63.7579 82.1494 63.728 82.059 63.7162C81.9686 63.7044 81.8767 63.7108 81.7888 63.7352C81.703 63.7588 81.6227 63.7993 81.5527 63.8542C81.4827 63.9091 81.4242 63.9775 81.3808 64.0552L81.3904 64.0456Z" fill="black"/>
<path d="M93.2641 68.0359C91.9457 67.3254 90.7505 66.0598 89.5841 64.6982C88.8562 65.6135 88.2902 66.6466 87.9105 67.7526C87.3617 69.4551 87.4593 71.4407 88.5185 72.8807L88.5905 72.9751C89.3441 70.7399 90.9889 68.6599 93.2641 68.0359Z" fill="#F96632"/>
<path d="M116.665 65.8088C115.865 64.6504 114.313 64.3224 112.913 64.1624C111.344 63.9831 109.766 63.897 108.187 63.9048C107.693 63.9048 107.179 63.924 106.747 64.1528C106.083 64.5 105.745 65.2472 105.497 65.9544C104.809 67.9144 104.441 69.972 104.078 72.0168C103.449 75.5368 102.349 81.1752 101.577 85.3416C101.528 85.6083 101.533 85.8824 101.594 86.1468C101.655 86.4113 101.769 86.6605 101.93 86.879C102.09 87.0976 102.294 87.2808 102.529 87.4173C102.763 87.5538 103.023 87.6408 103.293 87.6728L110.021 88.4728C110.945 88.5816 111.876 88.3276 112.618 87.7643C113.359 87.2009 113.854 86.3721 113.997 85.452C114.857 79.9384 115.811 74.6232 117.017 69.78C117.342 68.452 117.44 66.9304 116.665 65.8088Z" fill="white"/>
<path d="M117.256 65.4599C116.507 64.4023 115.328 63.8855 114.087 63.6455C112.647 63.3671 111.149 63.2839 109.687 63.2375C108.947 63.2135 108.179 63.1623 107.447 63.2551C107.054 63.2926 106.672 63.4103 106.327 63.6007C106.021 63.789 105.756 64.0358 105.546 64.3271C105.144 64.8551 104.923 65.5047 104.717 66.1271C104.483 66.8375 104.288 67.5591 104.119 68.2855C103.799 69.6503 103.565 71.0327 103.319 72.4103C103.114 73.5511 102.899 74.6919 102.679 75.8311C102.199 78.3911 101.706 80.9431 101.226 83.4999C101.115 84.0871 100.984 84.6759 100.906 85.2599C100.795 85.9113 100.928 86.5807 101.28 87.1399C101.634 87.6797 102.168 88.0765 102.787 88.2599C103.002 88.314 103.221 88.3499 103.442 88.3671L107.184 88.8199L109.211 89.0599C109.554 89.1015 109.898 89.1559 110.242 89.1751C110.834 89.2019 111.426 89.1055 111.979 88.892C112.532 88.6786 113.035 88.3528 113.456 87.9351C113.886 87.5006 114.221 86.982 114.44 86.4119C114.683 85.7975 114.733 85.1143 114.835 84.4663C115.315 81.4887 115.824 78.5159 116.421 75.5591C116.704 74.149 117.009 72.7442 117.338 71.3447C117.643 70.0471 118.067 68.7223 117.911 67.3735C117.852 66.6918 117.627 66.0349 117.256 65.4599C117.162 65.3062 117.013 65.1946 116.839 65.1487C116.664 65.1028 116.479 65.126 116.322 65.2135C116.027 65.4039 115.861 65.8327 116.077 66.1495C116.159 66.2694 116.233 66.3951 116.298 66.5255C116.315 66.5607 116.371 66.6935 116.33 66.5863C116.36 66.6631 116.389 66.7463 116.413 66.8183C116.457 66.9562 116.493 67.0967 116.52 67.2391C116.52 67.2791 116.535 67.3207 116.543 67.3623C116.543 67.3703 116.557 67.4727 116.543 67.3943C116.528 67.3159 116.543 67.4199 116.543 67.4279C116.543 67.4807 116.552 67.5335 116.555 67.5879C116.575 67.8854 116.571 68.1839 116.544 68.4807C116.544 68.5559 116.53 68.6295 116.522 68.7047C116.522 68.7047 116.506 68.8167 116.522 68.7415C116.538 68.6663 116.522 68.7911 116.511 68.8103C116.485 68.9703 116.456 69.1303 116.423 69.2903C116.141 70.6007 115.797 71.8983 115.514 73.2087C114.911 76.0039 114.394 78.8167 113.914 81.6375C113.792 82.3565 113.674 83.0754 113.559 83.7943C113.453 84.4535 113.399 85.1511 113.205 85.7911C113.186 85.8519 113.165 85.9127 113.143 85.9735L113.103 86.0743C113.103 86.0743 113.152 85.9671 113.119 86.0375C113.058 86.1575 113 86.2791 112.931 86.3959C112.863 86.5127 112.803 86.5895 112.738 86.6855C112.672 86.7815 112.813 86.6023 112.747 86.6743C112.73 86.6935 112.714 86.7159 112.696 86.7367C112.651 86.7895 112.603 86.8423 112.555 86.8967C112.47 86.986 112.38 87.0709 112.287 87.1511C112.242 87.1895 112.165 87.2487 112.259 87.1783C112.203 87.2199 112.146 87.2615 112.088 87.2999C111.984 87.3703 111.879 87.4327 111.768 87.4919C111.714 87.5207 111.658 87.5479 111.608 87.5735C111.584 87.5863 111.56 87.5959 111.535 87.6071C111.618 87.5703 111.597 87.5831 111.527 87.6071C111.29 87.6926 111.046 87.7568 110.799 87.7991C110.72 87.8135 110.84 87.7991 110.845 87.7991C110.81 87.7991 110.773 87.8071 110.736 87.8087C110.672 87.8087 110.608 87.8183 110.544 87.8199C110.414 87.8247 110.284 87.8215 110.154 87.8103C110.042 87.8103 109.93 87.7863 109.818 87.7735L108.338 87.5991L104.2 87.1079C103.896 87.0727 103.589 87.0439 103.287 87.0007C103.447 87.0247 103.216 86.9783 103.168 86.9655C103.12 86.9527 103.048 86.9271 102.989 86.9063C103.127 86.9527 102.959 86.8903 102.911 86.8631C102.863 86.8359 102.805 86.7991 102.751 86.7671C102.728 86.7543 102.707 86.7367 102.685 86.7223C102.803 86.8023 102.727 86.7559 102.701 86.7319C102.615 86.6455 102.528 86.5719 102.45 86.4695C102.554 86.5943 102.45 86.4519 102.423 86.4167C102.395 86.3815 102.36 86.3127 102.333 86.2567C102.317 86.2263 102.303 86.1943 102.288 86.1623C102.288 86.1719 102.323 86.2759 102.309 86.2039C102.295 86.1319 102.266 86.0695 102.248 86.0039C102.231 85.9383 102.211 85.7783 102.231 85.9511C102.231 85.8967 102.219 85.8439 102.218 85.7911C102.215 85.7282 102.215 85.6652 102.218 85.6023C102.218 85.5783 102.229 85.4599 102.218 85.5543C102.207 85.6487 102.218 85.5223 102.227 85.5063C102.666 83.0791 103.141 80.6599 103.602 78.2375C104.037 75.9431 104.464 73.6471 104.882 71.3495C105.12 69.937 105.434 68.5382 105.821 67.1591C105.925 66.8103 106.035 66.4631 106.157 66.1191C106.2 65.9975 106.247 65.8759 106.295 65.7543C106.245 65.8759 106.317 65.7063 106.335 65.6695C106.368 65.5975 106.405 65.5255 106.442 65.4551C106.509 65.3319 106.584 65.2183 106.663 65.1031C106.706 65.0391 106.651 65.1175 106.645 65.1255C106.664 65.1047 106.682 65.0823 106.701 65.0599C106.751 65.0035 106.805 64.9501 106.861 64.8999C106.875 64.8855 106.971 64.8119 106.903 64.8615C106.834 64.9111 106.92 64.8519 106.928 64.8471C106.987 64.8094 107.047 64.7747 107.109 64.7431C107.179 64.7063 107.109 64.7431 107.099 64.7431C107.139 64.7271 107.183 64.7127 107.224 64.6999C107.31 64.6744 107.397 64.6536 107.485 64.6375C107.485 64.6375 107.599 64.6183 107.527 64.6375H107.57C107.648 64.6375 107.73 64.6247 107.807 64.6215C107.983 64.6135 108.16 64.6135 108.336 64.6135C108.704 64.6135 109.074 64.6135 109.442 64.6279C110.191 64.6471 110.941 64.6887 111.682 64.7511C112.061 64.7831 112.442 64.8199 112.821 64.8615L113.015 64.8839L113.13 64.8983C113.143 64.8983 113.24 64.9143 113.155 64.8983C113.071 64.8823 113.17 64.8983 113.181 64.8983L113.299 64.9159C113.378 64.9271 113.459 64.9399 113.533 64.9543C113.806 65.0009 114.077 65.0613 114.344 65.1351C114.475 65.1719 114.607 65.2119 114.736 65.2583C114.8 65.2807 114.863 65.3063 114.927 65.3303C114.991 65.3543 114.904 65.3207 114.896 65.3159C114.931 65.3319 114.967 65.3463 115 65.3639C115.122 65.4199 115.239 65.4807 115.354 65.5479C115.41 65.5815 115.466 65.6167 115.514 65.6535C115.562 65.6903 115.685 65.7783 115.579 65.6951C115.675 65.7706 115.767 65.8518 115.853 65.9383C115.899 65.9847 115.944 66.0327 115.987 66.0839L116.059 66.1719C116.043 66.1511 115.981 66.0663 116.059 66.1719C116.266 66.4631 116.664 66.6295 116.994 66.4167C117.301 66.2135 117.479 65.7799 117.256 65.4599Z" fill="white"/>
<path d="M67.1712 95.2759C68 102.285 64.8 109.21 60.5216 114.823C59.128 116.66 57.5904 118.409 55.68 119.7C54.1392 120.741 52.2368 121.46 50.4288 121.033C48.6208 120.605 47.1216 118.657 47.6928 116.887C46.8884 118.603 45.4721 119.956 43.7216 120.682C43.1056 120.935 42.424 121.105 41.7776 120.949C40.7392 120.698 40.0528 119.644 39.8992 118.586C39.7456 117.529 40.0112 116.46 40.2768 115.425C39.432 116.421 38.1152 117.116 36.8288 116.879C35.5424 116.642 34.4864 115.252 34.8976 114.012C32.5648 115.823 32.5264 119.581 34.2 122.012C35.8736 124.442 38.7728 125.746 41.648 126.421C44.5232 127.097 47.608 127.257 50.448 126.386C53.4256 125.474 55.9712 123.489 58.128 121.236C63.86 115.18 67.114 107.196 67.248 98.8583" fill="#F96632"/>
<path d="M52.5967 130.407C51.2923 134.071 50.794 137.973 51.1359 141.847C51.2357 142.963 51.4024 144.072 51.6351 145.169C51.6841 145.343 51.7999 145.492 51.9574 145.581C52.1149 145.671 52.3015 145.695 52.4767 145.649C52.6499 145.598 52.7966 145.481 52.8861 145.324C52.9756 145.168 53.0009 144.982 52.9567 144.807C52.762 143.914 52.6188 143.01 52.5279 142.1C52.3436 140.231 52.3576 138.348 52.5695 136.482C52.5823 136.373 52.5951 136.265 52.6095 136.162C52.6095 136.138 52.6319 135.985 52.6175 136.09C52.6175 136.042 52.6319 135.994 52.6383 135.946C52.6719 135.705 52.7103 135.466 52.7503 135.225C52.8287 134.767 52.9183 134.314 53.0191 133.861C53.2566 132.814 53.5574 131.783 53.9199 130.772C53.9666 130.597 53.9424 130.41 53.8526 130.253C53.7628 130.095 53.6145 129.979 53.4399 129.93C53.2648 129.887 53.0798 129.913 52.9231 130.002C52.7664 130.091 52.6501 130.237 52.5983 130.41L52.5967 130.407Z" fill="#F96632"/>
<path d="M105.197 69.6198L106.574 70.9462L106.373 70.4662C106.267 71.3558 106.161 72.127 106.017 73.039C105.873 73.951 105.725 74.8166 105.553 75.7014C105.382 76.5862 105.203 77.4422 105.005 78.3078C104.905 78.7398 104.75 79.1894 104.725 79.6343C104.707 79.8929 104.785 80.1491 104.942 80.3551C105.1 80.561 105.326 80.7029 105.581 80.7543C106.576 80.9831 107.593 81.1431 108.597 81.3367C108.947 81.4039 109.352 81.2375 109.438 80.8567C109.515 80.5191 109.336 80.0887 108.958 80.0167C107.971 79.8263 106.981 79.6503 105.997 79.4455L105.888 79.4215C105.736 79.3975 105.966 79.4775 105.993 79.4999L106.085 79.6599C106.085 79.7431 106.085 79.7591 106.085 79.7063C106.085 79.6535 106.104 79.5463 106.085 79.6855C106.126 79.4551 106.192 79.2279 106.245 79.0007C106.351 78.5302 106.458 78.0588 106.565 77.5862C106.977 75.6577 107.315 73.7158 107.577 71.7606C107.619 71.4545 107.659 71.1478 107.697 70.8406C107.721 70.7121 107.737 70.5823 107.745 70.4518C107.745 70.1782 107.585 70.007 107.401 69.831L106.163 68.6598C106.032 68.5553 105.866 68.5028 105.699 68.5123C105.531 68.5218 105.373 68.5927 105.254 68.7113C105.136 68.83 105.065 68.9882 105.055 69.1558C105.046 69.3233 105.098 69.4885 105.203 69.6198H105.197Z" fill="#1574FF"/>
<path d="M110.984 82.2104C111.119 82.2104 111.252 82.1702 111.364 82.0949C111.477 82.0196 111.565 81.9126 111.616 81.7873C111.668 81.6621 111.682 81.5243 111.655 81.3914C111.629 81.2586 111.563 81.1365 111.467 81.0408C111.371 80.9451 111.249 80.88 111.116 80.8538C110.983 80.8275 110.846 80.8413 110.72 80.8934C110.595 80.9455 110.489 81.0335 110.413 81.1463C110.338 81.2592 110.299 81.3917 110.299 81.5272C110.301 81.7079 110.374 81.8805 110.502 82.0081C110.63 82.1358 110.803 82.2084 110.984 82.2104Z" fill="#1574FF"/>
<path d="M111.854 78.2483C111.859 77.8872 111.795 77.5284 111.667 77.1907C111.602 77.0115 111.525 76.8355 111.448 76.6611L111.36 76.4643C111.344 76.4259 111.326 76.3891 111.31 76.3507C111.31 76.3507 111.24 76.1907 111.272 76.2627C111.304 76.3347 111.254 76.2211 111.248 76.2035L111.205 76.0899C111.181 76.0227 111.16 75.9555 111.139 75.8883C111.118 75.8211 111.102 75.7283 111.085 75.6563C111.075 75.6195 111.085 75.5331 111.085 75.6563C111.085 75.6051 111.085 75.5555 111.085 75.5059C111.085 75.4563 111.101 75.2675 111.085 75.3587C111.1 75.2593 111.121 75.161 111.149 75.0643C111.173 74.9715 111.2 74.8803 111.23 74.7891C111.23 74.7891 111.275 74.6883 111.246 74.7459C111.218 74.8035 111.246 74.7731 111.274 74.7075L111.242 74.7475C111.251 74.6947 111.296 74.6995 111.226 74.7475L111.32 74.6899C111.363 74.6627 111.416 74.6739 111.31 74.6899C111.346 74.6899 111.384 74.6675 111.419 74.6579L111.502 74.6387C111.525 74.6387 111.646 74.6179 111.554 74.6291C111.461 74.6403 111.582 74.6291 111.605 74.6291C111.659 74.6291 111.714 74.6291 111.765 74.6195H112.038C111.931 74.6195 112.118 74.6387 112.157 74.6467C112.262 74.6707 112.094 74.6099 112.178 74.6467L112.251 74.6867C112.355 74.7411 112.272 74.6979 112.251 74.6755C112.286 74.7049 112.319 74.7365 112.35 74.7699C112.366 74.7875 112.429 74.8803 112.384 74.8083C112.339 74.7363 112.397 74.8355 112.408 74.8547C112.419 74.8739 112.442 74.9203 112.461 74.9523C112.498 75.0195 112.448 74.9283 112.446 74.9187C112.464 74.9923 112.488 75.0643 112.506 75.1363C112.518 75.1827 112.506 75.2483 112.506 75.1219V75.2627C112.506 75.2627 112.474 75.4707 112.506 75.3587C112.485 75.4435 112.469 75.5267 112.442 75.6099C112.427 75.6499 112.413 75.6915 112.397 75.7315C112.408 75.7011 112.446 75.6307 112.384 75.7459C112.344 75.8227 112.302 75.9059 112.256 75.9747C112.232 76.0115 112.208 76.0483 112.182 76.0835C112.182 76.0835 112.077 76.2227 112.118 76.1731C112.16 76.1235 112.078 76.2179 112.067 76.2307C112.03 76.2739 111.992 76.3155 111.952 76.3587C111.811 76.5187 111.661 76.6595 111.523 76.8163C111.219 77.1612 110.964 77.5474 110.768 77.9635C110.618 78.2835 110.666 78.7155 111.013 78.8995C111.315 79.0595 111.787 79.0003 111.949 78.6531C112.038 78.4603 112.14 78.2743 112.256 78.0963C112.282 78.0563 112.307 78.0179 112.334 77.9795C112.322 77.9971 112.461 77.8195 112.408 77.8787C112.435 77.8451 112.568 77.6995 112.63 77.6291C112.946 77.3195 113.227 76.9773 113.47 76.6083C113.931 75.8387 114.056 74.8131 113.512 74.0483C113.373 73.8432 113.192 73.6692 112.983 73.537C112.773 73.4049 112.538 73.3175 112.293 73.2803C111.843 73.2077 111.383 73.2378 110.947 73.3683C110.697 73.4491 110.471 73.5902 110.289 73.7791C110.106 73.968 109.973 74.199 109.901 74.4515C109.733 74.9319 109.685 75.4459 109.76 75.9491C109.864 76.403 110.025 76.8418 110.24 77.2547C110.256 77.2931 110.272 77.3299 110.29 77.3683C110.371 77.5523 110.243 77.2419 110.315 77.4307C110.352 77.5251 110.387 77.6179 110.418 77.7155C110.448 77.8131 110.469 77.9059 110.49 78.0035C110.53 78.1811 110.49 77.9203 110.49 78.0275V78.2371C110.498 78.4128 110.574 78.5785 110.701 78.6998C110.829 78.8212 110.998 78.8888 111.174 78.8888C111.35 78.8888 111.519 78.8212 111.646 78.6998C111.773 78.5785 111.849 78.4128 111.858 78.2371L111.854 78.2483Z" fill="#1574FF"/>
<path d="M64.3199 85.6789L61.7598 87.5541C61.5182 87.7317 61.2543 87.9461 61.2271 88.2469C61.2329 88.4874 61.3217 88.7186 61.4782 88.9013C62.347 90.1589 63.379 91.3013 64.3486 92.4741C71.9983 101.804 75.5359 113.77 78.3951 125.49C78.5103 125.959 78.6431 126.46 79.0063 126.77C79.6559 127.335 80.6543 127.04 81.4399 126.69C82.6461 126.156 83.8213 125.555 84.9599 124.888C83.3167 117.676 81.2479 110.532 78.2207 103.781C75.1935 97.0309 71.1807 90.6613 65.9663 85.4245C65.6463 85.1045 65.0542 85.1445 64.323 85.6789" fill="#4490FF"/>
<path d="M63.979 85.0884L61.5246 86.8996C61.123 87.194 60.7134 87.5028 60.587 88.0196C60.4414 88.618 60.7934 89.1204 61.1246 89.578C61.7038 90.378 62.339 91.1428 62.9774 91.8996C63.2974 92.274 63.6174 92.6484 63.9198 93.0276C64.0526 93.1876 64.1854 93.3476 64.3166 93.5172C64.3806 93.6004 64.4462 93.6772 64.5118 93.7652L64.619 93.9028L64.683 93.986C66.774 96.7449 68.5927 99.7001 70.1134 102.81C70.5006 103.592 70.874 104.382 71.2334 105.18C71.4078 105.575 71.5806 105.97 71.7486 106.367C71.8382 106.575 71.7246 106.308 71.7758 106.429L71.843 106.589C71.8798 106.676 71.915 106.762 71.9502 106.848C72.0398 107.064 72.1278 107.28 72.2158 107.498C72.874 109.129 73.4809 110.779 74.0366 112.447C75.1566 115.772 76.1006 119.151 76.971 122.546C77.1844 123.399 77.3977 124.253 77.611 125.106C77.827 125.988 77.9966 126.959 78.8222 127.488C79.5774 127.968 80.563 127.799 81.3486 127.488C82.2686 127.114 83.1661 126.687 84.0366 126.208C84.4633 125.978 84.89 125.74 85.3166 125.493C85.4459 125.416 85.5469 125.299 85.6046 125.16C85.6622 125.021 85.6734 124.866 85.6366 124.72C84.9182 121.57 84.1214 118.437 83.1966 115.34C82.2718 112.242 81.2158 109.199 79.9998 106.221C78.8522 103.379 77.5363 100.608 76.059 97.922C74.6303 95.3291 73.0188 92.8412 71.2366 90.4772C70.323 89.2724 69.3678 88.0996 68.3566 86.9716C67.8638 86.4191 67.3598 85.8783 66.8446 85.3492C66.619 85.1172 66.3982 84.8436 66.1038 84.6964C65.7615 84.5341 65.3732 84.4968 65.0062 84.5908C64.6312 84.6855 64.2792 84.8547 63.971 85.0884C63.6814 85.2964 63.5134 85.6948 63.7262 86.0244C63.9118 86.3124 64.3502 86.4916 64.6606 86.2692C64.8206 86.1604 64.9806 86.074 65.1406 85.9796C65.2078 85.9412 65.1406 85.9796 65.1246 85.9796L65.2382 85.9396C65.3038 85.9188 65.4782 85.8964 65.3214 85.9076C65.3854 85.9037 65.4495 85.9037 65.5134 85.9076C65.5134 85.922 65.371 85.8708 65.4398 85.9076C65.4665 85.9187 65.4945 85.9268 65.523 85.9316C65.5934 85.9428 65.4542 85.9028 65.4542 85.9028C65.4792 85.9139 65.5028 85.9279 65.5246 85.9444C65.347 85.8116 65.5694 86.0068 65.6046 86.042C66.1081 86.5508 66.6004 87.0703 67.0814 87.6004C67.5625 88.1305 68.0398 88.6783 68.5134 89.2436C68.7438 89.5188 68.9694 89.7956 69.1934 90.074L69.5054 90.466C69.5646 90.5396 69.6222 90.6148 69.6814 90.69L69.7934 90.834C71.5504 93.1274 73.1442 95.5413 74.563 98.058C75.9953 100.594 77.2775 103.212 78.403 105.898C79.6174 108.805 80.667 111.78 81.5918 114.791C82.5166 117.802 83.3198 120.858 84.0398 123.927C84.1294 124.308 84.2174 124.688 84.3038 125.069L84.6238 124.298C83.7929 124.784 82.9449 125.237 82.0798 125.656C81.8782 125.754 81.675 125.85 81.4718 125.943L81.1518 126.09C81.1406 126.09 81.0046 126.156 81.083 126.122C81.1614 126.088 80.9806 126.162 80.9598 126.17C80.7909 126.236 80.6184 126.293 80.443 126.34C80.3502 126.364 80.2574 126.378 80.1646 126.399C80.0718 126.42 80.3246 126.399 80.131 126.399C80.0814 126.399 80.0302 126.399 79.9806 126.399C79.931 126.399 79.8798 126.399 79.8302 126.399C79.7806 126.399 79.707 126.373 79.8382 126.399C79.7614 126.381 79.6878 126.364 79.6142 126.341C79.7438 126.38 79.6302 126.341 79.5918 126.328C79.5487 126.305 79.5071 126.279 79.467 126.25C79.5982 126.346 79.3198 126.063 79.411 126.191C79.3643 126.122 79.3221 126.05 79.2846 125.976C79.2222 125.864 79.2638 125.94 79.275 125.976C79.2542 125.928 79.2382 125.877 79.2206 125.828C79.155 125.634 79.107 125.436 79.0606 125.237C78.8612 124.418 78.658 123.599 78.451 122.781C77.5998 119.477 76.6942 116.18 75.6366 112.941C74.5898 109.687 73.3464 106.499 71.9134 103.396C70.5081 100.347 68.8304 97.4318 66.9006 94.6852C65.8526 93.2116 64.7022 91.8276 63.5406 90.442C63.243 90.0852 62.9454 89.7252 62.6606 89.3556C62.6798 89.3812 62.7118 89.4228 62.6254 89.3108L62.5326 89.186C62.4622 89.0932 62.3934 89.0004 62.3246 88.906C62.1742 88.7187 62.0399 88.5191 61.923 88.3092C61.963 88.3908 61.9086 88.29 61.9134 88.274C61.9134 88.29 61.9134 88.3476 61.9022 88.37C61.9294 88.21 61.8558 88.4164 61.9022 88.3428C61.9486 88.2692 61.827 88.4132 61.9022 88.3428C61.9774 88.2724 62.0318 88.2132 62.1022 88.154C62.0126 88.2292 62.091 88.1636 62.1102 88.154L62.307 88.01L63.4846 87.1444L64.6622 86.2788C64.9502 86.0676 65.123 85.6772 64.9086 85.3444C64.7246 85.0596 64.2814 84.8644 63.9726 85.098L63.979 85.0884Z" fill="#4490FF"/>
<path d="M70.1074 101.484C71.0397 100.923 71.9757 100.367 72.9154 99.8165C73.3794 99.5456 73.8445 99.2763 74.3106 99.0085L74.9938 98.6181L75.3698 98.4053C75.4258 98.3733 75.4882 98.3445 75.541 98.3077L75.6098 98.2693C75.5075 98.3066 75.3972 98.3166 75.2898 98.2981L74.8802 97.9781L74.8946 97.9973L74.8258 97.4709V97.4981C74.765 97.8485 74.9202 98.2517 75.3058 98.3381C75.637 98.4149 76.0818 98.2389 76.1458 97.8581C76.1765 97.7334 76.1756 97.603 76.1432 97.4786C76.1108 97.3543 76.0479 97.24 75.9602 97.1461C75.8831 97.0716 75.791 97.0144 75.69 96.9783C75.589 96.9421 75.4815 96.9279 75.3746 96.9365C75.021 96.9509 74.6786 97.2213 74.3778 97.3909C73.8194 97.7109 73.2578 98.0309 72.7074 98.3509C71.6066 98.9909 70.5122 99.6395 69.4242 100.297C69.3446 100.341 69.2746 100.4 69.2183 100.472C69.1621 100.543 69.1207 100.626 69.0966 100.713C69.0725 100.801 69.0662 100.893 69.0781 100.983C69.09 101.073 69.1198 101.16 69.1657 101.239C69.2117 101.318 69.2729 101.386 69.3457 101.441C69.4186 101.495 69.5016 101.535 69.5899 101.557C69.6783 101.579 69.7701 101.583 69.8601 101.569C69.95 101.555 70.0363 101.523 70.1138 101.476L70.1074 101.484Z" fill="white"/>
<path d="M72.8244 107.585C74.9339 106.714 76.9234 105.576 78.7444 104.201L77.9156 103.127L77.7204 103.314C77.6159 103.445 77.5634 103.611 77.5729 103.778C77.5824 103.946 77.6532 104.104 77.7719 104.223C77.8905 104.341 78.0487 104.412 78.2163 104.422C78.3838 104.431 78.549 104.379 78.6804 104.274L78.8772 104.089C78.9928 103.97 79.0618 103.815 79.0715 103.65C79.0812 103.485 79.0309 103.322 78.93 103.191C78.7428 102.948 78.3204 102.807 78.0484 103.015C77.1751 103.679 76.2607 104.288 75.3108 104.837C74.8404 105.109 74.3604 105.366 73.8708 105.609C73.634 105.727 73.3945 105.841 73.1524 105.951C73.0212 106.012 72.89 106.071 72.7572 106.129L72.5588 106.217L72.4548 106.26C72.1268 106.397 71.8532 106.719 71.9748 107.1C72.0772 107.42 72.4548 107.725 72.8148 107.58L72.8244 107.585Z" fill="white"/>
<path d="M74.4581 104.702L74.4885 104.774L74.4197 104.614C74.5191 104.85 74.5874 105.099 74.6229 105.353L74.5973 105.172C74.5981 105.188 74.5981 105.203 74.5973 105.219C74.6025 105.398 74.6761 105.569 74.8032 105.696C74.9302 105.823 75.1009 105.897 75.2805 105.902C75.4605 105.901 75.6328 105.829 75.7605 105.702L75.8677 105.563C75.9293 105.459 75.9614 105.34 75.9605 105.219C75.9405 105.009 75.9036 104.801 75.8501 104.598C75.7912 104.398 75.7168 104.203 75.6277 104.015C75.5335 103.864 75.389 103.751 75.2197 103.695C75.1318 103.667 75.0378 103.662 74.9477 103.683C74.8569 103.686 74.7688 103.714 74.6933 103.764C74.5369 103.853 74.4218 103.999 74.3733 104.172L74.3477 104.355C74.348 104.476 74.3806 104.594 74.4421 104.699L74.4581 104.702Z" fill="white"/>
<path d="M78.0289 112.113C78.164 112.113 78.2961 112.073 78.4085 111.998C78.5208 111.923 78.6084 111.816 78.6601 111.691C78.7118 111.566 78.7253 111.429 78.699 111.296C78.6726 111.164 78.6075 111.042 78.512 110.947C78.4164 110.851 78.2947 110.786 78.1622 110.76C78.0297 110.733 77.8923 110.747 77.7674 110.799C77.6426 110.85 77.5359 110.938 77.4608 111.05C77.3858 111.163 77.3457 111.295 77.3457 111.43C77.3478 111.61 77.4204 111.783 77.5481 111.911C77.6758 112.038 77.8483 112.111 78.0289 112.113Z" fill="white"/>
<path d="M79.3858 117.031C79.5213 117.032 79.6539 116.992 79.7667 116.917C79.8795 116.842 79.9676 116.735 80.0196 116.61C80.0717 116.484 80.0855 116.347 80.0593 116.214C80.033 116.081 79.9679 115.959 79.8722 115.863C79.7765 115.767 79.6545 115.701 79.5216 115.675C79.3887 115.648 79.251 115.662 79.1257 115.714C79.0005 115.765 78.8935 115.853 78.8182 115.966C78.7428 116.078 78.7026 116.211 78.7026 116.346C78.7047 116.527 78.7773 116.7 78.9049 116.828C79.0326 116.956 79.2051 117.029 79.3858 117.031Z" fill="white"/>
<path d="M80.2336 120.93C80.3687 120.93 80.5006 120.89 80.6127 120.814C80.7249 120.739 80.8122 120.632 80.8637 120.508C80.9151 120.383 80.9284 120.245 80.9019 120.113C80.8753 119.98 80.8102 119.859 80.7145 119.764C80.6189 119.668 80.4972 119.603 80.3647 119.577C80.2322 119.551 80.0949 119.564 79.9702 119.616C79.8455 119.668 79.7389 119.755 79.6639 119.868C79.5889 119.98 79.5488 120.112 79.5488 120.247C79.5509 120.428 79.6238 120.601 79.7518 120.729C79.8798 120.856 80.0528 120.929 80.2336 120.93Z" fill="white"/>
<path d="M107.421 54.2919C107.755 50.4519 105.394 46.9319 102.851 44.0359C100.309 41.1399 97.3888 38.3687 96.192 34.7095C94.3168 28.9815 97.88 22.0695 103.63 20.2615C109.381 18.4535 116.254 22.1095 117.984 27.8823C119.392 32.5863 117.64 37.6839 115.115 41.8951C112.59 46.1063 109.28 49.8487 107.136 54.2599" fill="#1574FF"/>
<path d="M106.749 57.3802C106.444 57.2331 106.1 57.1874 105.768 57.2499C105.435 57.3124 105.131 57.4797 104.901 57.7274C104.682 57.9852 104.555 58.3082 104.539 58.646C104.523 58.9838 104.619 59.3173 104.813 59.5946C105.021 59.8604 105.314 60.0474 105.643 60.1247C105.972 60.2021 106.317 60.1652 106.622 60.0202C107.202 59.7242 107.512 59.0474 107.53 58.3962C107.541 58.0634 107.45 57.6794 107.15 57.5338" fill="#1574FF"/>
<path d="M107.093 56.7897C106.711 56.5975 106.282 56.5161 105.856 56.5548C105.43 56.5936 105.023 56.7509 104.682 57.0089C104.341 57.2811 104.088 57.6484 103.957 58.0643C103.825 58.4802 103.819 58.926 103.941 59.3449C104.071 59.7606 104.324 60.1269 104.667 60.3955C105.01 60.664 105.427 60.8222 105.861 60.8489C106.701 60.9241 107.503 60.4073 107.882 59.6729C108.101 59.2577 108.214 58.795 108.212 58.3257C108.202 57.7897 107.994 57.2057 107.493 56.9481C107.416 56.9028 107.33 56.8733 107.241 56.8611C107.152 56.8489 107.062 56.8544 106.975 56.8772C106.888 56.9 106.806 56.9397 106.735 56.994C106.663 57.0483 106.603 57.1162 106.558 57.1937C106.513 57.2713 106.483 57.3569 106.471 57.4459C106.459 57.5349 106.464 57.6253 106.487 57.7122C106.51 57.799 106.55 57.8805 106.604 57.952C106.658 58.0235 106.726 58.0836 106.804 58.1289L106.836 58.1465C106.895 58.1833 106.877 58.1689 106.784 58.1017C106.784 58.1017 106.828 58.1481 106.834 58.1513L106.772 58.0681C106.786 58.0873 106.797 58.1081 106.81 58.1289L106.842 58.1929C106.751 58.0329 106.805 58.1065 106.823 58.1689C106.823 58.1945 106.836 58.2185 106.84 58.2425C106.874 58.3801 106.831 58.0713 106.84 58.2121V58.3257V58.5177V58.5961C106.84 58.4137 106.853 58.5033 106.84 58.5705C106.813 58.7058 106.775 58.8385 106.725 58.9673C106.693 59.0553 106.804 58.8073 106.74 58.9305C106.724 58.9593 106.711 58.9897 106.695 59.0169C106.664 59.0722 106.631 59.1256 106.594 59.1769C106.549 59.2409 106.516 59.2233 106.62 59.1465C106.596 59.1688 106.575 59.1935 106.557 59.2201C106.509 59.2713 106.452 59.3145 106.397 59.3657C106.517 59.2377 106.466 59.3145 106.413 59.3497L106.348 59.3913L106.245 59.4457C106.181 59.4793 106.2 59.4265 106.306 59.4201C106.245 59.4335 106.185 59.4506 106.127 59.4713C106.104 59.4713 105.98 59.4953 106.109 59.4793C106.239 59.4633 106.077 59.4793 106.052 59.4793C105.99 59.4825 105.928 59.4825 105.866 59.4793C105.751 59.4793 105.933 59.4905 105.936 59.4889C105.899 59.4868 105.862 59.4798 105.826 59.4681C105.765 59.4521 105.708 59.4329 105.648 59.4137C105.589 59.3945 105.605 59.3625 105.708 59.4393C105.67 59.4167 105.631 59.397 105.591 59.3801C105.546 59.3468 105.499 59.3163 105.45 59.2889L105.53 59.3513C105.511 59.3353 105.492 59.3193 105.474 59.3017C105.456 59.2841 105.437 59.2681 105.42 59.2505C105.397 59.2209 105.372 59.1931 105.344 59.1673C105.434 59.2265 105.421 59.2761 105.383 59.2153C105.35 59.1457 105.311 59.0788 105.268 59.0153C105.343 59.0937 105.316 59.1385 105.285 59.0537C105.274 59.0233 105.264 58.9924 105.256 58.9609C105.239 58.9001 105.234 58.8345 105.216 58.7721C105.264 58.9321 105.231 58.8841 105.226 58.8201C105.226 58.7881 105.226 58.7545 105.226 58.7225C105.226 58.6905 105.226 58.6713 105.226 58.6457C105.236 58.4553 105.199 58.7529 105.226 58.6345C105.24 58.5705 105.252 58.5081 105.271 58.4457L105.295 58.3721C105.338 58.2425 105.236 58.4921 105.277 58.4105C105.319 58.3289 105.335 58.2953 105.37 58.2409C105.39 58.2157 105.408 58.1889 105.424 58.1609C105.357 58.2473 105.346 58.2633 105.391 58.2089L105.416 58.1801L105.498 58.1001L105.541 58.0633C105.581 58.0297 105.56 58.0457 105.477 58.1113C105.543 58.0857 105.607 58.0249 105.671 57.9929C105.694 57.9833 105.716 57.9721 105.738 57.9593C105.632 58.0025 105.613 58.0105 105.68 57.9849L105.752 57.9593C105.813 57.9401 105.874 57.9241 105.936 57.9113C105.999 57.8985 106.096 57.9113 105.906 57.9113H106.02C106.095 57.9113 106.18 57.9257 106.247 57.9209C106.087 57.9305 106.125 57.9017 106.197 57.9209C106.241 57.9293 106.284 57.94 106.327 57.9529L106.399 57.9753C106.512 58.0105 106.239 57.8985 106.41 57.9753C106.73 58.1353 107.164 58.0729 107.346 57.7305C107.506 57.4233 107.444 56.9625 107.1 56.7945L107.093 56.7897Z" fill="#1574FF"/>
<path d="M109.073 27.6311C107.432 26.8007 105.251 27.1975 104.032 28.5767C102.813 29.9559 102.697 32.1943 103.792 33.6727C104.886 35.1511 107.091 35.6871 108.728 34.8487C110.309 34.0391 111.155 32.1911 111.208 30.4135C111.233 29.5079 110.989 28.4583 110.173 28.0615" fill="white"/>
<path d="M109.419 27.041C108.56 26.6206 107.598 26.4525 106.647 26.5561C105.695 26.6598 104.793 27.031 104.043 27.6266C102.575 28.7994 102.024 30.905 102.552 32.6842C103.107 34.5498 104.792 35.7674 106.712 35.9178C108.632 36.0682 110.309 34.9434 111.163 33.2874C111.649 32.3479 111.901 31.3051 111.898 30.2474C111.89 29.1882 111.533 27.9818 110.522 27.4682C110.365 27.3803 110.179 27.3569 110.005 27.4028C109.831 27.4488 109.681 27.5606 109.587 27.7146C109.427 28.025 109.491 28.4762 109.832 28.649C109.911 28.6896 109.987 28.7355 110.059 28.7866C109.923 28.689 110.123 28.8602 110.152 28.8906C110.237 28.9738 110.16 28.8906 110.152 28.873C110.184 28.9146 110.213 28.9594 110.242 29.0042C110.288 29.0802 110.33 29.1587 110.367 29.2394C110.293 29.0874 110.399 29.3354 110.413 29.3818C110.44 29.4698 110.463 29.5594 110.482 29.6506C110.493 29.697 110.53 29.9706 110.512 29.801C110.522 29.8938 110.53 29.9866 110.535 30.0794C110.545 30.2676 110.545 30.4561 110.535 30.6442C110.527 30.7402 110.517 30.8378 110.507 30.9338C110.507 30.9642 110.487 31.0666 110.507 30.9338C110.498 30.9914 110.49 31.0506 110.48 31.1082C110.411 31.5023 110.304 31.8886 110.16 32.2618C110.146 32.2954 110.093 32.4218 110.151 32.2874L110.103 32.3946C110.063 32.481 110.019 32.569 109.973 32.6538C109.877 32.8327 109.77 33.0053 109.653 33.1706C109.629 33.2058 109.479 33.3978 109.571 33.2858C109.511 33.3594 109.45 33.4314 109.386 33.5018C109.252 33.6495 109.107 33.7875 108.954 33.9146C108.925 33.937 108.821 34.0106 108.935 33.9306L108.842 33.9978C108.763 34.0522 108.682 34.1034 108.6 34.1578C108.519 34.2122 108.44 34.2506 108.349 34.2938L108.25 34.3402C108.127 34.3994 108.351 34.3034 108.184 34.3658C108.022 34.4252 107.856 34.4733 107.687 34.5098C107.648 34.5178 107.367 34.5626 107.544 34.5418C107.445 34.553 107.346 34.5626 107.245 34.5674C107.071 34.576 106.897 34.5733 106.723 34.5594L106.587 34.5466C106.475 34.5466 106.747 34.5754 106.578 34.5466C106.479 34.529 106.379 34.5114 106.28 34.489C106.11 34.4492 105.943 34.3989 105.779 34.3386L105.651 34.289C105.549 34.249 105.799 34.3594 105.639 34.281C105.547 34.2378 105.456 34.1946 105.368 34.145C105.217 34.06 105.071 33.9665 104.93 33.865C104.781 33.7594 105.031 33.9578 104.895 33.8362L104.811 33.7658C104.73 33.6922 104.651 33.617 104.575 33.537C104.498 33.457 104.463 33.4154 104.415 33.353C104.391 33.3242 104.32 33.2218 104.403 33.3386C104.381 33.3082 104.357 33.2778 104.336 33.2458C104.217 33.0716 104.11 32.8893 104.016 32.7002C104.003 32.6762 103.965 32.5802 104.016 32.7002C103.999 32.6554 103.981 32.6106 103.965 32.5674C103.936 32.4858 103.909 32.4074 103.883 32.3226C103.858 32.2378 103.834 32.1402 103.813 32.0474C103.802 32.001 103.792 31.9546 103.784 31.9066C103.776 31.8586 103.747 31.6634 103.768 31.8346C103.747 31.6637 103.737 31.4917 103.736 31.3194C103.736 31.225 103.736 31.129 103.744 31.033C103.744 30.985 103.744 30.9386 103.755 30.8906C103.773 30.7082 103.739 30.9546 103.763 30.8154C103.791 30.6457 103.827 30.4774 103.872 30.3114C103.898 30.2202 103.927 30.129 103.959 30.0394C103.975 29.9946 103.994 29.9498 104.01 29.905C104.026 29.8602 104.023 29.8698 103.995 29.9354C104.011 29.9018 104.026 29.8666 104.042 29.8314C104.115 29.6763 104.199 29.5262 104.291 29.3818C104.343 29.3018 104.396 29.2234 104.451 29.1466C104.368 29.2586 104.451 29.1562 104.469 29.129C104.487 29.1018 104.557 29.0282 104.602 28.9786C104.647 28.929 104.735 28.8442 104.803 28.7802C104.845 28.7418 104.888 28.705 104.931 28.6682C104.975 28.6314 105.091 28.5466 104.97 28.6362C105.137 28.5139 105.312 28.4033 105.495 28.305C105.595 28.2506 105.698 28.2026 105.802 28.1578C105.674 28.2122 105.768 28.1722 105.802 28.1578C105.864 28.1354 105.925 28.1114 105.989 28.0906C106.195 28.0216 106.406 27.9681 106.619 27.9306L106.733 27.9114C106.573 27.9402 106.733 27.9114 106.776 27.9114C106.888 27.9002 107.002 27.8922 107.115 27.8906C107.324 27.8869 107.532 27.896 107.739 27.9178C107.579 27.9034 107.714 27.9178 107.754 27.9178L107.947 27.9546C108.04 27.9754 108.131 27.9978 108.223 28.0234C108.314 28.049 108.439 28.0938 108.543 28.1322C108.647 28.1706 108.562 28.1322 108.543 28.1322C108.611 28.161 108.68 28.1946 108.747 28.2282C109.067 28.3882 109.503 28.3242 109.683 27.9834C109.843 27.6746 109.779 27.217 109.439 27.0474L109.419 27.041Z" fill="white"/>
<path d="M87.6653 45.7797C88.1997 45.1466 88.6859 44.4743 89.1197 43.7685C89.2099 43.6116 89.2348 43.4255 89.189 43.2504C89.1432 43.0753 89.0304 42.9252 88.8749 42.8325C88.7174 42.7448 88.5322 42.7213 88.3578 42.7669C88.1833 42.8125 88.0333 42.9237 87.9389 43.0773C87.6496 43.5466 87.3362 44.0006 86.9997 44.4373L87.1053 44.2981C86.9725 44.4709 86.8349 44.6405 86.6941 44.8069C86.5714 44.9373 86.5003 45.1079 86.4941 45.2869C86.4941 45.4683 86.5661 45.6422 86.6941 45.7706C86.8222 45.899 86.996 45.9713 87.1773 45.9717C87.2667 45.9718 87.3553 45.954 87.4377 45.9194C87.5201 45.8848 87.5948 45.834 87.6573 45.7701L87.6653 45.7797Z" fill="white"/>
<path d="M90.3228 41.1398C90.458 41.1398 90.5901 41.0998 90.7024 41.0247C90.8148 40.9496 90.9023 40.8429 90.954 40.7181C91.0057 40.5932 91.0193 40.4559 90.9929 40.3233C90.9665 40.1908 90.9015 40.0691 90.8059 39.9735C90.7104 39.878 90.5887 39.8129 90.4561 39.7866C90.3236 39.7602 90.1862 39.7737 90.0614 39.8254C89.9366 39.8772 89.8299 39.9647 89.7548 40.0771C89.6797 40.1894 89.6396 40.3215 89.6396 40.4566C89.6413 40.6373 89.7138 40.8101 89.8416 40.9379C89.9694 41.0656 90.1422 41.1382 90.3228 41.1398Z" fill="white"/>
<path d="M93.3469 52.367C94.0932 51.8049 94.8751 51.2918 95.6877 50.831C95.8357 50.7352 95.9411 50.586 95.9819 50.4145C96.0227 50.243 95.9957 50.0623 95.9067 49.9101C95.8176 49.758 95.6733 49.646 95.5037 49.5976C95.3342 49.5492 95.1525 49.568 94.9965 49.6502C94.184 50.111 93.4026 50.6246 92.6573 51.1878C92.5054 51.2812 92.3919 51.426 92.3373 51.5958C92.3136 51.6826 92.3071 51.7732 92.3184 51.8625C92.3296 51.9517 92.3584 52.0379 92.4029 52.1161C92.4475 52.1942 92.5071 52.2628 92.5782 52.318C92.6493 52.3731 92.7305 52.4137 92.8173 52.4374C92.9052 52.4625 92.9973 52.4692 93.0879 52.4571C93.1785 52.445 93.2656 52.4143 93.3437 52.367H93.3469Z" fill="white"/>
<path d="M119.419 90.5796C119.527 90.947 119.611 91.3212 119.67 91.6996C119.67 91.7364 119.681 91.7748 119.688 91.8116C119.717 91.994 119.678 91.714 119.688 91.8276C119.697 91.9124 119.707 91.9972 119.715 92.082C119.733 92.2708 119.744 92.4612 119.75 92.65C119.761 93.0296 119.749 93.4095 119.713 93.7876C119.705 93.882 119.694 93.9764 119.683 94.0708C119.683 94.1028 119.664 94.2052 119.683 94.0596C119.683 94.0964 119.673 94.1348 119.667 94.1716C119.637 94.37 119.6 94.5652 119.558 94.7604C119.48 95.1235 119.381 95.4819 119.262 95.834C119.203 96.0052 119.141 96.1748 119.073 96.3428C119.056 96.3876 119.038 96.4308 119.019 96.4756C119.029 96.4516 119.073 96.3508 119.019 96.4756C118.965 96.6004 118.934 96.6676 118.889 96.762C118.729 97.0963 118.551 97.4216 118.355 97.7364C118.259 97.8964 118.158 98.0404 118.054 98.1876L117.904 98.394C117.797 98.5428 117.96 98.3268 117.889 98.4148L117.765 98.5748C117.506 98.8906 117.227 99.1889 116.929 99.4676C116.769 99.61 116.619 99.746 116.449 99.8772C116.422 99.8996 116.32 99.978 116.43 99.8932L116.294 99.9956C116.201 100.064 116.109 100.13 116.013 100.194C115.718 100.394 115.558 100.804 115.768 101.128C115.958 101.423 116.387 101.589 116.704 101.375C119.445 99.514 121.097 96.2772 121.112 92.9748C121.117 92.0478 120.987 91.1251 120.726 90.2356C120.678 90.0607 120.562 89.9122 120.405 89.8226C120.247 89.7331 120.06 89.7098 119.885 89.758C119.711 89.8061 119.562 89.9218 119.472 90.0794C119.383 90.2371 119.36 90.4239 119.408 90.5988L119.419 90.5796Z" fill="white"/>
<path d="M124.939 93.9542C124.962 94.2736 124.968 94.5941 124.958 94.9142C124.958 95.0646 124.944 95.2134 124.929 95.3638C124.929 95.4278 124.923 95.4918 124.91 95.5558L124.896 95.6838C124.907 95.607 124.905 95.6102 124.896 95.6918C124.805 96.2965 124.655 96.8909 124.448 97.4662C124.422 97.5366 124.396 97.607 124.369 97.6774C124.36 97.6998 124.262 97.935 124.315 97.8118C124.255 97.9494 124.193 98.0854 124.128 98.2198C123.995 98.4893 123.849 98.7521 123.691 99.007C123.611 99.135 123.531 99.2598 123.443 99.383C123.393 99.4534 123.344 99.5222 123.292 99.591C123.292 99.591 123.164 99.751 123.244 99.6582C123.044 99.9104 122.83 100.152 122.604 100.381C122.491 100.512 122.431 100.681 122.438 100.855C122.445 101.028 122.517 101.192 122.64 101.314C122.763 101.436 122.927 101.507 123.101 101.512C123.274 101.517 123.442 101.456 123.572 101.341C124.52 100.368 125.253 99.2073 125.724 97.9331C126.195 96.6589 126.393 95.3001 126.305 93.9446C126.28 93.5878 126.009 93.2438 125.622 93.2614C125.275 93.2758 124.91 93.5622 124.939 93.9446V93.9542Z" fill="white"/>
<path d="M11.2464 88.5925C12.1519 87.5237 13.0639 86.4485 14.1263 85.5285C14.2607 85.4133 14.3967 85.3013 14.5327 85.1909L14.5759 85.1573L14.6463 85.1029C14.7215 85.0469 14.7967 84.9909 14.8735 84.9429C15.153 84.7438 15.443 84.56 15.7423 84.3925C16.2911 84.0708 16.8841 83.8315 17.5023 83.6821C17.6879 83.6357 17.8751 83.5957 18.0655 83.5653L18.1647 83.5493C18.0463 83.5669 18.1951 83.5493 18.2175 83.5493C18.3183 83.5397 18.4191 83.5301 18.5199 83.5253C18.6991 83.5157 18.8799 83.5141 19.0591 83.5253C19.1599 83.5253 19.2607 83.5365 19.3615 83.5461L19.4623 83.5557C19.3311 83.5445 19.5423 83.5685 19.5503 83.5701C19.9023 83.6261 20.3023 83.4789 20.3919 83.0901C20.4655 82.7621 20.2911 82.3109 19.9119 82.2501C18.3615 82.0005 16.8367 82.3221 15.4319 83.0117C14.1103 83.6581 12.9599 84.6597 11.9407 85.7381C11.3631 86.3461 10.8207 86.9861 10.2783 87.6261C10.0479 87.8981 9.99195 88.3285 10.2783 88.5861C10.5327 88.8197 10.9984 88.8773 11.2464 88.5861V88.5925Z" fill="white"/>
<path d="M10.3774 80.0712C10.4478 79.9608 10.523 79.8504 10.5982 79.7416L10.7054 79.5944L10.7598 79.5208C10.8766 79.3608 10.7134 79.5768 10.7838 79.4888C10.9438 79.284 11.1198 79.0808 11.3022 78.8872C11.4846 78.6936 11.6862 78.4952 11.8894 78.3112C11.9886 78.2216 12.0894 78.1352 12.1902 78.052L12.3326 77.9352L12.4046 77.8792C12.3054 77.9576 12.4158 77.8712 12.4366 77.8552C12.8696 77.532 13.3282 77.2447 13.8078 76.996C13.9246 76.9352 14.043 76.8776 14.163 76.8216L14.323 76.7448L14.4078 76.708C14.5246 76.6568 14.3678 76.7224 14.4414 76.6936C14.6894 76.5992 14.9342 76.5032 15.1886 76.4248C15.4798 76.332 15.7742 76.2552 16.0734 76.1912C16.2222 76.1592 16.3726 76.132 16.523 76.108C16.563 76.108 16.7886 76.0728 16.6446 76.0888L16.8878 76.0616C17.2414 76.0248 17.5886 75.7736 17.571 75.3784C17.555 75.0392 17.2686 74.6552 16.8878 74.6936C14.4581 74.9405 12.1907 76.0276 10.4766 77.7672C9.99682 78.261 9.56799 78.8018 9.19663 79.3816C9.10629 79.5383 9.08116 79.7243 9.12666 79.8994C9.17215 80.0744 9.28462 80.2246 9.43983 80.3176C9.59759 80.4048 9.78288 80.4278 9.9572 80.3819C10.1315 80.336 10.2814 80.2247 10.3758 80.0712H10.3774Z" fill="white"/>
</svg>
