<svg width="24" height="24" viewBox="0 0 24 24" fill="none" xmlns="http://www.w3.org/2000/svg">
<path d="M12.0469 0C5.45166 0 0 5.35781 0 11.9531C0 18.5484 5.45166 24 12.0469 24C18.6421 24 24 18.5484 24 11.9531C24 5.35781 18.6421 0 12.0469 0Z" fill="#FEDB41"/>
<path d="M24 11.9531C24 18.5484 18.6421 24 12.0469 24V0C18.6421 0 24 5.35781 24 11.9531Z" fill="#FFCC33"/>
<path d="M12.0469 2.8125C7.01241 2.8125 2.8125 6.9187 2.8125 11.9531C2.8125 16.9875 7.01241 21.1875 12.0469 21.1875C17.0813 21.1875 21.1875 16.9875 21.1875 11.9531C21.1875 6.9187 17.0813 2.8125 12.0469 2.8125Z" fill="#FE9E1A"/>
<path d="M21.1875 11.9531C21.1875 16.9875 17.0813 21.1875 12.0469 21.1875V2.8125C17.0813 2.8125 21.1875 6.9187 21.1875 11.9531Z" fill="#EA840E"/>
<path d="M11.667 9.05446H11.7837H12.577H11.667ZM11.667 9.05446L11.6383 9.16759M11.667 9.05446L11.6383 9.16759M11.6383 9.16759L10.4726 13.7646L10.4253 13.9514M11.6383 9.16759L10.4253 13.9514M10.4253 13.9514H10.618M10.4253 13.9514H10.618M10.618 13.9514H11.425C11.7963 13.9514 12.1272 13.8388 12.3893 13.6138C12.65 13.39 12.8321 13.0642 12.9247 12.6551L13.4931 10.4243L13.4931 10.4243M10.618 13.9514L13.4931 10.4243M13.4931 10.4243L13.4934 10.4228M13.4931 10.4243L13.4934 10.4228M13.4934 10.4228C13.5912 10.0217 13.5821 9.67541 13.4192 9.42458M13.4934 10.4228L13.4192 9.42458M13.4192 9.42458C13.2516 9.16651 12.9524 9.05494 12.5794 9.05446L13.4192 9.42458ZM15.5964 12.6828L15.5961 12.6841C14.9704 15.2181 13.0029 16.85 10.7038 16.85H7.51894C7.32872 16.85 7.2388 16.7916 7.19569 16.7198C7.14636 16.6377 7.12727 16.4897 7.18808 16.25L7.18822 16.2494L9.53996 6.82626C9.53998 6.82617 9.54001 6.82608 9.54003 6.826C9.59895 6.59407 9.70041 6.42609 9.82605 6.31673C9.95043 6.20848 10.1071 6.15 10.2932 6.15L13.4834 6.15L13.4835 6.15C14.639 6.14929 15.4652 6.55768 15.9327 7.25381C16.4031 7.95439 16.5323 8.97878 16.22 10.2523C16.2199 10.2525 16.2199 10.2528 16.2198 10.253L15.5964 12.6828Z" fill="#FEDB41" stroke="#FE9E1A" stroke-width="0.3"/>
</svg>
