<svg id="svg"
    xmlns="http://www.w3.org/2000/svg"
    xmlns:xlink="http://www.w3.org/1999/xlink" width="400" height="400" viewBox="0, 0, 400,400" version="1.1">
    <g id="svgg">
        <path id="path0" d="M191.600 47.226 C 186.131 47.567,180.179 48.209,176.900 48.813 C 171.198 49.864,169.826 50.146,165.000 51.263 C 162.140 51.925,158.720 52.811,157.400 53.232 C 149.944 55.612,148.137 56.251,143.250 58.239 C 117.335 68.784,95.184 85.734,77.959 108.200 C 69.798 118.844,62.417 131.737,58.036 143.000 C 57.095 145.420,56.169 147.760,55.979 148.200 C 55.507 149.293,53.589 155.080,53.129 156.800 C 52.923 157.570,52.573 158.830,52.351 159.600 C 51.500 162.549,50.587 166.400,49.981 169.600 C 48.980 174.887,48.789 176.026,48.239 180.000 C 46.163 194.983,46.700 213.684,49.588 227.000 C 49.779 227.880,50.155 229.680,50.424 231.000 C 53.515 246.169,59.427 261.124,68.735 277.319 C 70.636 280.627,78.967 292.668,79.999 293.600 C 80.121 293.710,80.841 294.610,81.599 295.600 C 82.357 296.590,83.252 297.670,83.589 298.001 C 83.925 298.331,85.550 300.127,87.200 301.993 C 90.883 306.156,93.520 308.789,98.422 313.200 C 100.500 315.070,102.290 316.695,102.400 316.810 C 102.510 316.926,103.410 317.641,104.400 318.400 C 105.390 319.159,106.290 319.879,106.400 320.001 C 107.664 321.402,120.380 330.022,125.410 332.888 C 135.163 338.446,148.902 344.353,157.800 346.813 C 165.587 348.966,166.898 349.276,174.800 350.828 C 184.738 352.779,206.639 353.836,215.179 352.775 C 220.252 352.145,229.172 350.790,231.000 350.371 C 238.630 348.623,247.428 346.211,249.800 345.216 C 250.240 345.032,251.230 344.664,252.000 344.400 C 252.770 344.136,253.805 343.757,254.300 343.560 C 254.795 343.362,255.650 343.020,256.200 342.800 C 256.750 342.580,257.605 342.239,258.100 342.042 C 262.182 340.418,272.080 335.476,276.708 332.752 C 280.044 330.788,289.629 324.489,290.000 324.016 C 290.110 323.876,290.830 323.323,291.600 322.786 C 292.370 322.250,293.270 321.593,293.600 321.327 C 304.073 312.867,314.487 302.401,320.595 294.200 C 321.905 292.440,323.084 290.910,323.214 290.800 C 325.807 288.606,336.588 269.890,340.553 260.700 C 343.255 254.437,343.774 253.082,345.833 246.928 C 347.581 241.704,350.013 232.410,349.959 231.157 C 349.917 230.164,349.681 230.828,348.772 234.500 C 347.431 239.912,346.024 244.826,345.566 245.695 C 345.365 246.077,345.200 246.741,345.200 247.171 C 345.200 247.601,345.056 248.042,344.879 248.151 C 344.703 248.260,344.307 249.272,344.000 250.400 C 343.693 251.528,343.297 252.540,343.121 252.649 C 342.944 252.758,342.800 253.169,342.800 253.562 C 342.800 253.955,342.550 254.800,342.244 255.439 C 341.733 256.506,340.810 258.614,339.987 260.600 C 336.169 269.802,323.920 290.416,320.377 293.600 C 320.255 293.710,319.535 294.621,318.777 295.625 C 313.883 302.112,302.476 313.538,295.160 319.284 C 293.972 320.217,292.910 321.083,292.800 321.209 C 292.690 321.335,291.970 321.871,291.200 322.400 C 290.430 322.929,289.710 323.476,289.600 323.617 C 287.794 325.924,269.322 336.535,260.400 340.391 C 253.769 343.256,253.223 343.479,252.200 343.728 C 251.760 343.836,250.140 344.367,248.600 344.910 C 247.060 345.452,244.990 346.120,244.000 346.394 C 243.010 346.667,241.840 347.037,241.400 347.215 C 240.068 347.755,231.900 349.645,227.600 350.408 C 226.170 350.662,224.100 351.034,223.000 351.234 C 219.923 351.794,207.783 352.800,204.095 352.800 L 200.800 352.800 200.800 316.591 L 200.800 280.383 201.700 280.037 C 202.195 279.847,204.220 279.114,206.200 278.408 C 232.907 268.882,254.368 243.954,261.991 213.600 C 262.406 211.950,263.399 208.080,264.199 205.000 C 275.021 163.331,275.603 160.468,275.598 148.916 C 275.588 125.592,265.010 109.723,245.000 103.012 C 237.536 100.509,232.587 100.007,215.300 100.003 L 200.800 100.000 200.800 73.543 L 200.800 47.087 206.100 47.332 C 219.827 47.968,234.286 50.322,244.586 53.597 C 249.082 55.026,251.102 55.695,251.800 55.986 C 252.240 56.169,253.230 56.539,254.000 56.807 C 254.770 57.075,256.163 57.633,257.096 58.047 C 258.028 58.461,258.885 58.800,259.000 58.800 C 259.743 58.800,273.050 65.452,277.116 67.856 C 278.738 68.815,280.129 69.600,280.206 69.600 C 280.531 69.600,289.181 75.477,291.585 77.331 C 294.211 79.357,298.027 82.422,298.400 82.806 C 298.510 82.919,299.856 84.089,301.390 85.406 C 318.135 99.773,333.701 121.790,341.826 142.600 C 342.427 144.140,343.072 145.571,343.260 145.780 C 343.447 145.989,343.600 146.563,343.600 147.056 C 343.600 147.549,343.744 148.042,343.921 148.151 C 344.097 148.260,344.493 149.272,344.800 150.400 C 345.107 151.528,345.503 152.540,345.679 152.649 C 345.856 152.758,346.000 153.289,346.000 153.829 C 346.000 154.369,346.158 155.123,346.351 155.505 C 346.808 156.411,347.407 158.464,348.012 161.200 C 348.279 162.410,348.644 163.760,348.822 164.200 C 349.000 164.640,349.230 165.540,349.333 166.200 C 349.436 166.860,349.708 168.390,349.937 169.600 C 352.103 181.029,352.601 186.657,352.592 199.600 C 352.584 210.877,351.982 218.646,350.600 225.337 C 349.992 228.282,349.893 231.751,350.490 229.200 C 350.994 227.045,351.604 222.964,352.791 213.800 C 353.329 209.643,353.327 188.736,352.788 184.600 C 352.559 182.840,352.184 179.960,351.956 178.200 C 350.889 169.960,348.369 159.003,345.795 151.400 C 344.761 148.349,342.863 143.254,342.192 141.731 C 341.822 140.889,341.377 139.840,341.204 139.400 C 338.555 132.658,329.071 115.733,325.514 111.400 C 325.333 111.180,324.072 109.470,322.710 107.600 C 321.349 105.730,320.132 104.110,320.006 104.000 C 319.880 103.890,318.408 102.180,316.735 100.200 C 312.121 94.738,304.229 86.892,298.831 82.400 C 297.641 81.410,296.440 80.375,296.162 80.100 C 295.885 79.825,295.545 79.600,295.407 79.600 C 295.269 79.600,294.581 79.061,293.878 78.402 C 293.175 77.743,292.455 77.203,292.278 77.202 C 292.101 77.201,291.381 76.661,290.678 76.002 C 289.975 75.343,289.190 74.803,288.933 74.802 C 288.677 74.801,288.407 74.641,288.333 74.447 C 288.203 74.103,279.589 68.411,278.400 67.884 C 278.070 67.738,276.900 67.081,275.800 66.424 C 272.894 64.688,261.570 59.141,258.500 57.949 C 258.005 57.757,257.195 57.437,256.700 57.237 C 247.796 53.643,238.716 51.111,226.400 48.789 C 224.675 48.463,222.256 48.137,214.779 47.220 C 210.949 46.750,199.199 46.753,191.600 47.226 M230.400 105.220 C 248.450 106.857,260.651 114.477,266.605 127.830 C 268.154 131.305,268.521 132.509,270.068 139.200 C 270.746 142.133,270.747 156.512,270.069 160.000 C 269.791 161.430,269.373 163.590,269.140 164.800 C 268.440 168.441,264.931 182.485,258.796 206.200 C 256.247 216.057,256.122 216.504,255.217 219.000 C 254.739 220.320,254.048 222.300,253.681 223.400 C 252.095 228.159,246.374 238.849,242.502 244.290 C 229.599 262.424,211.982 273.693,190.600 277.488 C 185.349 278.421,123.234 278.594,122.320 277.679 C 121.032 276.389,121.795 272.882,133.788 225.000 C 140.345 198.820,145.851 176.770,146.024 176.000 C 146.196 175.230,146.716 173.160,147.179 171.400 C 147.642 169.640,148.185 167.480,148.385 166.600 C 148.585 165.720,148.943 164.280,149.180 163.400 C 149.417 162.520,149.798 160.990,150.025 160.000 C 150.803 156.619,152.364 150.360,155.214 139.200 C 155.860 136.670,157.584 129.740,159.044 123.800 C 162.565 109.478,163.746 107.193,168.473 105.561 C 170.978 104.696,221.551 104.417,230.400 105.220 M192.631 148.749 C 192.445 149.051,185.278 176.956,184.400 180.800 C 184.100 182.115,181.668 191.678,174.533 219.600 C 171.186 232.702,170.787 234.456,171.060 234.897 C 171.163 235.063,175.962 235.191,181.724 235.179 C 196.555 235.149,200.412 234.304,206.949 229.648 C 209.571 227.780,212.900 223.663,214.746 220.003 C 216.771 215.989,215.737 219.703,225.494 181.400 C 230.771 160.685,228.257 152.357,215.775 149.212 C 212.375 148.356,193.113 147.970,192.631 148.749 M216.995 154.729 C 224.159 157.996,225.042 163.912,220.769 180.000 C 219.863 183.410,218.960 186.875,218.761 187.700 C 218.237 189.875,217.619 192.382,217.182 194.100 C 216.972 194.925,216.637 196.275,216.437 197.100 C 216.080 198.579,213.824 207.281,212.670 211.637 C 211.041 217.780,207.965 222.737,203.861 225.834 C 202.575 226.805,201.360 227.499,201.161 227.376 C 200.951 227.246,200.800 211.799,200.800 190.338 L 200.800 153.522 207.900 153.671 C 214.247 153.804,215.212 153.916,216.995 154.729 " stroke="none" fill="#fb9c1c" fill-rule="evenodd"></path>
        <path id="path1" d="M179.803 0.276 C 177.825 0.363,176.034 0.606,175.823 0.817 C 175.612 1.028,174.216 1.200,172.720 1.200 C 171.173 1.200,170.000 1.373,170.000 1.600 C 170.000 1.822,168.933 2.000,167.600 2.000 C 166.267 2.000,165.200 2.178,165.200 2.400 C 165.200 2.620,164.221 2.800,163.024 2.800 C 161.827 2.800,160.736 2.980,160.600 3.200 C 160.464 3.420,159.733 3.600,158.976 3.600 C 158.219 3.600,157.600 3.780,157.600 4.000 C 157.600 4.220,156.700 4.400,155.600 4.400 C 154.500 4.400,153.600 4.580,153.600 4.800 C 153.600 5.020,152.880 5.200,152.000 5.200 C 151.120 5.200,150.400 5.380,150.400 5.600 C 150.400 5.820,149.669 6.000,148.776 6.000 C 147.796 6.000,147.251 6.158,147.400 6.400 C 147.544 6.633,147.145 6.800,146.447 6.800 C 145.787 6.800,145.136 6.980,145.000 7.200 C 144.864 7.420,144.234 7.600,143.600 7.600 C 142.966 7.600,142.336 7.780,142.200 8.000 C 142.064 8.220,141.453 8.400,140.843 8.400 C 140.233 8.400,139.610 8.524,139.459 8.675 C 139.307 8.826,138.872 9.001,138.492 9.064 C 136.125 9.457,135.200 9.733,135.200 10.045 C 135.200 10.240,134.671 10.400,134.024 10.400 C 133.377 10.400,132.736 10.580,132.600 10.800 C 132.464 11.020,132.003 11.200,131.576 11.200 C 131.149 11.200,130.800 11.380,130.800 11.600 C 130.800 11.820,130.260 12.000,129.600 12.000 C 128.940 12.000,128.400 12.180,128.400 12.400 C 128.400 12.620,128.128 12.800,127.795 12.800 C 127.462 12.800,126.832 12.980,126.395 13.200 C 125.958 13.420,125.242 13.780,124.805 14.000 C 124.368 14.220,123.648 14.400,123.205 14.400 C 122.762 14.400,122.400 14.580,122.400 14.800 C 122.400 15.020,122.040 15.200,121.600 15.200 C 121.160 15.200,120.800 15.380,120.800 15.600 C 120.800 15.820,120.535 16.000,120.212 16.000 C 119.889 16.000,118.983 16.360,118.200 16.800 C 117.417 17.240,116.421 17.600,115.988 17.600 C 115.555 17.600,115.200 17.780,115.200 18.000 C 115.200 18.220,114.840 18.400,114.400 18.400 C 113.960 18.400,113.600 18.580,113.600 18.800 C 113.600 19.020,113.240 19.200,112.800 19.200 C 112.360 19.200,112.000 19.368,112.000 19.574 C 112.000 19.780,111.370 20.176,110.600 20.454 C 109.830 20.733,109.200 21.105,109.200 21.280 C 109.200 21.456,108.840 21.600,108.400 21.600 C 107.960 21.600,107.600 21.780,107.600 22.000 C 107.600 22.220,107.240 22.400,106.800 22.400 C 106.360 22.400,106.000 22.559,106.000 22.753 C 106.000 22.948,105.685 23.207,105.300 23.329 C 104.363 23.626,102.272 24.902,101.906 25.400 C 101.744 25.620,101.609 25.668,101.606 25.506 C 101.599 25.154,98.422 26.752,97.668 27.488 C 97.375 27.774,96.970 27.905,96.768 27.780 C 96.565 27.655,96.400 27.743,96.400 27.976 C 96.400 28.209,96.164 28.400,95.875 28.400 C 95.587 28.400,94.964 28.760,94.492 29.200 C 94.020 29.640,93.547 30.000,93.441 30.000 C 93.114 30.000,85.809 34.981,85.667 35.300 C 85.593 35.465,85.278 35.600,84.967 35.600 C 84.655 35.600,84.400 35.738,84.400 35.906 C 84.400 36.074,83.680 36.656,82.800 37.200 C 81.920 37.744,81.200 38.326,81.200 38.494 C 81.200 38.662,81.022 38.800,80.805 38.800 C 80.433 38.800,79.385 39.560,78.184 40.700 C 77.894 40.975,77.556 41.200,77.433 41.200 C 77.166 41.200,75.823 42.256,74.530 43.482 C 74.019 43.967,73.600 44.272,73.600 44.160 C 73.600 44.048,72.835 44.673,71.900 45.549 C 70.965 46.426,70.061 47.151,69.891 47.162 C 69.721 47.173,68.134 48.581,66.364 50.291 C 64.594 52.001,62.886 53.459,62.568 53.530 C 62.250 53.602,62.093 53.827,62.219 54.030 C 62.344 54.234,62.156 54.400,61.800 54.400 C 61.444 54.400,61.264 54.580,61.400 54.800 C 61.536 55.020,61.412 55.202,61.124 55.204 C 60.836 55.206,60.150 55.782,59.600 56.485 C 59.050 57.188,58.173 58.131,57.651 58.581 C 55.273 60.632,54.400 61.558,54.400 62.027 C 54.400 62.306,54.289 62.422,54.152 62.286 C 53.894 62.027,52.800 62.941,52.800 63.416 C 52.800 63.567,51.613 64.914,50.163 66.409 C 48.712 67.905,47.227 69.531,46.863 70.022 C 46.498 70.513,45.837 71.306,45.392 71.783 C 44.948 72.261,43.960 73.450,43.196 74.426 C 42.432 75.402,41.491 76.549,41.104 76.975 C 40.717 77.402,40.400 77.921,40.400 78.129 C 40.400 78.336,40.076 78.797,39.681 79.153 C 39.286 79.509,38.525 80.430,37.992 81.200 C 37.458 81.970,36.702 82.949,36.311 83.375 C 35.920 83.802,35.600 84.365,35.600 84.626 C 35.600 84.888,35.329 85.327,34.998 85.601 C 33.874 86.535,27.154 97.049,24.262 102.400 C 22.373 105.895,16.210 118.211,15.373 120.163 C 13.316 124.960,12.416 127.349,12.597 127.531 C 12.710 127.643,12.522 128.045,12.179 128.423 C 11.837 128.801,11.528 129.491,11.493 129.955 C 11.458 130.420,11.311 130.800,11.167 130.800 C 10.918 130.800,9.893 133.974,10.004 134.400 C 10.033 134.510,9.788 135.117,9.460 135.750 C 9.132 136.382,8.958 137.147,9.074 137.450 C 9.191 137.752,9.086 138.000,8.843 138.000 C 8.599 138.000,8.400 138.439,8.400 138.976 C 8.400 139.513,8.220 140.064,8.000 140.200 C 7.780 140.336,7.600 140.851,7.600 141.344 C 7.600 141.837,7.451 142.411,7.270 142.620 C 6.951 142.986,6.448 144.609,5.600 148.000 C 4.527 152.294,4.319 153.088,3.973 154.228 C 3.768 154.904,3.600 155.838,3.600 156.305 C 3.600 156.771,3.420 157.264,3.200 157.400 C 2.980 157.536,2.800 158.436,2.800 159.400 C 2.800 160.364,2.608 161.272,2.373 161.417 C 2.138 161.562,1.995 162.250,2.055 162.946 C 2.115 163.642,2.037 164.417,1.881 164.668 C 1.541 165.218,0.969 168.808,0.377 174.108 C -0.196 179.235,0.089 225.904,0.708 228.200 C 0.945 229.080,1.341 231.150,1.589 232.800 C 1.837 234.450,2.229 236.340,2.461 237.000 C 2.693 237.660,2.859 238.771,2.831 239.470 C 2.802 240.168,2.964 240.854,3.189 240.994 C 3.415 241.133,3.600 241.856,3.600 242.600 C 3.600 243.344,3.780 244.064,4.000 244.200 C 4.220 244.336,4.400 245.146,4.400 246.000 C 4.400 246.854,4.580 247.664,4.800 247.800 C 5.020 247.936,5.200 248.566,5.200 249.200 C 5.200 249.834,5.380 250.464,5.600 250.600 C 5.820 250.736,6.000 251.218,6.000 251.671 C 6.000 252.396,7.146 256.344,8.012 258.600 C 8.181 259.040,8.718 260.750,9.205 262.400 C 9.692 264.050,10.251 265.571,10.446 265.780 C 10.640 265.989,10.800 266.453,10.800 266.812 C 10.800 268.785,20.525 290.081,24.676 297.200 C 25.254 298.190,25.930 299.360,26.178 299.800 C 26.558 300.472,27.763 302.509,29.803 305.926 C 30.888 307.744,37.205 316.887,37.591 317.200 C 37.727 317.310,38.271 318.030,38.800 318.800 C 39.329 319.570,40.086 320.491,40.481 320.847 C 40.876 321.203,41.200 321.675,41.200 321.897 C 41.200 322.119,41.920 323.066,42.800 324.000 C 43.680 324.934,44.400 325.818,44.400 325.963 C 44.400 326.285,46.121 328.298,49.690 332.150 C 53.341 336.089,54.399 337.342,54.400 337.724 C 54.400 337.902,54.580 337.936,54.800 337.800 C 55.020 337.664,55.200 337.752,55.200 337.995 C 55.200 338.238,55.650 338.886,56.200 339.436 C 56.750 339.986,57.200 340.314,57.200 340.164 C 57.200 339.795,59.586 342.521,59.594 342.900 C 59.597 343.065,59.900 343.200,60.267 343.200 C 60.633 343.200,60.822 343.311,60.686 343.448 C 60.376 343.758,61.385 344.800,61.995 344.800 C 62.244 344.800,62.336 344.980,62.200 345.200 C 62.064 345.420,62.244 345.600,62.600 345.600 C 62.956 345.600,63.136 345.780,63.000 346.000 C 62.864 346.220,62.988 346.404,63.276 346.408 C 63.564 346.413,65.286 347.853,67.102 349.608 C 68.918 351.364,70.512 352.800,70.645 352.800 C 70.866 352.800,71.521 353.347,73.641 355.300 C 74.058 355.685,74.405 355.865,74.412 355.700 C 74.419 355.535,74.591 355.685,74.795 356.034 C 74.999 356.382,75.938 357.192,76.883 357.833 C 77.827 358.473,78.690 359.097,78.800 359.218 C 78.910 359.339,79.630 359.877,80.400 360.414 C 81.910 361.465,82.981 362.308,83.816 363.100 C 84.106 363.375,84.536 363.600,84.771 363.600 C 85.007 363.600,85.200 363.780,85.200 364.000 C 85.200 364.220,85.374 364.400,85.587 364.400 C 86.022 364.400,90.576 367.418,91.775 368.500 C 92.201 368.885,93.056 369.424,93.675 369.697 C 94.294 369.971,94.800 370.331,94.800 370.498 C 94.800 370.664,95.070 370.800,95.400 370.800 C 95.730 370.800,96.000 370.946,96.000 371.125 C 96.000 371.304,96.630 371.698,97.400 372.000 C 98.170 372.302,98.800 372.675,98.800 372.828 C 98.800 372.981,99.835 373.592,101.100 374.186 C 105.027 376.030,105.200 376.126,105.200 376.468 C 105.200 376.650,105.560 376.800,106.000 376.800 C 106.440 376.800,106.800 376.980,106.800 377.200 C 106.800 377.420,107.160 377.600,107.600 377.600 C 108.040 377.600,108.401 377.735,108.403 377.900 C 108.407 378.265,110.349 379.200,111.103 379.200 C 111.402 379.200,111.536 379.380,111.400 379.600 C 111.264 379.820,111.398 380.000,111.697 380.000 C 112.451 380.000,114.393 380.935,114.397 381.300 C 114.399 381.465,114.760 381.600,115.200 381.600 C 115.640 381.600,116.000 381.780,116.000 382.000 C 116.000 382.220,116.343 382.400,116.762 382.400 C 117.181 382.400,118.216 382.746,119.062 383.170 C 119.908 383.593,121.185 384.177,121.900 384.467 C 122.615 384.758,123.200 385.131,123.200 385.298 C 123.200 385.464,123.526 385.600,123.925 385.600 C 124.324 385.600,125.395 385.960,126.306 386.400 C 127.216 386.840,128.133 387.200,128.343 387.200 C 128.553 387.200,129.416 387.541,130.262 387.958 C 131.108 388.374,132.610 388.946,133.600 389.227 C 134.590 389.509,135.571 389.888,135.780 390.070 C 135.989 390.251,136.574 390.400,137.080 390.400 C 137.586 390.400,138.000 390.588,138.000 390.818 C 138.000 391.047,138.225 391.201,138.500 391.159 C 139.358 391.028,142.407 391.688,142.632 392.053 C 142.751 392.244,143.366 392.400,144.000 392.400 C 144.634 392.400,145.264 392.580,145.400 392.800 C 145.536 393.020,146.177 393.200,146.824 393.200 C 147.471 393.200,148.000 393.380,148.000 393.600 C 148.000 393.820,148.619 394.000,149.376 394.000 C 150.133 394.000,150.864 394.180,151.000 394.400 C 151.136 394.620,151.856 394.800,152.600 394.800 C 153.344 394.800,154.064 394.980,154.200 395.200 C 154.336 395.420,155.157 395.600,156.024 395.600 C 156.891 395.600,157.600 395.780,157.600 396.000 C 157.600 396.220,158.511 396.400,159.624 396.400 C 160.737 396.400,161.546 396.563,161.423 396.763 C 161.300 396.963,162.144 397.228,163.299 397.354 C 169.045 397.977,169.828 398.100,170.180 398.437 C 170.389 398.637,171.769 398.800,173.247 398.800 C 175.040 398.800,175.989 398.966,176.100 399.300 C 176.337 400.010,225.485 400.034,225.923 399.324 C 226.093 399.049,227.345 398.812,228.894 398.762 C 230.366 398.714,231.476 398.523,231.361 398.337 C 231.247 398.152,232.233 398.000,233.553 398.000 C 234.873 398.000,236.064 397.820,236.200 397.600 C 236.336 397.380,237.211 397.200,238.144 397.200 C 239.077 397.200,240.011 397.030,240.220 396.821 C 240.429 396.613,241.365 396.398,242.300 396.343 C 243.235 396.288,244.000 396.099,244.000 395.922 C 244.000 395.745,244.720 395.600,245.600 395.600 C 246.480 395.600,247.200 395.420,247.200 395.200 C 247.200 394.980,247.819 394.800,248.576 394.800 C 249.333 394.800,250.064 394.620,250.200 394.400 C 250.336 394.180,251.157 394.000,252.024 394.000 C 252.891 394.000,253.600 393.820,253.600 393.600 C 253.600 393.380,254.140 393.200,254.800 393.200 C 255.460 393.200,256.000 393.020,256.000 392.800 C 256.000 392.580,256.525 392.400,257.167 392.400 C 257.808 392.400,258.393 392.226,258.467 392.013 C 258.540 391.800,259.199 391.580,259.930 391.525 C 260.662 391.470,261.343 391.292,261.443 391.130 C 261.544 390.968,261.892 390.937,262.218 391.062 C 262.544 391.187,263.033 391.122,263.305 390.917 C 263.577 390.712,264.610 390.314,265.600 390.033 C 266.590 389.752,267.713 389.360,268.095 389.161 C 268.477 388.962,269.017 388.799,269.295 388.798 C 269.573 388.797,270.678 388.351,271.752 387.807 C 272.825 387.262,273.860 386.913,274.052 387.032 C 274.243 387.150,274.400 387.057,274.400 386.824 C 274.400 386.591,274.760 386.400,275.200 386.400 C 275.640 386.400,276.000 386.220,276.000 386.000 C 276.000 385.780,276.458 385.600,277.017 385.600 C 277.576 385.600,278.420 385.240,278.892 384.800 C 279.364 384.360,280.167 384.000,280.675 384.000 C 281.184 384.000,281.601 383.865,281.603 383.700 C 281.607 383.341,283.544 382.400,284.280 382.400 C 284.566 382.400,284.800 382.220,284.800 382.000 C 284.800 381.780,285.351 381.600,286.024 381.600 C 286.737 381.600,287.144 381.433,287.000 381.200 C 286.864 380.980,286.998 380.800,287.297 380.800 C 288.051 380.800,289.993 379.865,289.997 379.500 C 289.999 379.335,290.320 379.200,290.712 379.200 C 291.103 379.200,291.683 378.840,292.000 378.400 C 292.317 377.960,292.897 377.600,293.288 377.600 C 293.680 377.600,294.000 377.420,294.000 377.200 C 294.000 376.980,294.360 376.800,294.800 376.800 C 295.240 376.800,295.600 376.620,295.600 376.400 C 295.600 376.180,295.960 376.000,296.400 376.000 C 296.840 376.000,297.200 375.820,297.200 375.600 C 297.200 375.380,297.474 375.200,297.808 375.200 C 298.142 375.200,299.087 374.776,299.908 374.258 C 300.729 373.740,301.541 373.296,301.714 373.272 C 301.887 373.248,302.307 372.950,302.647 372.611 C 302.986 372.271,303.421 372.089,303.612 372.208 C 303.803 372.326,304.155 372.057,304.394 371.611 C 304.633 371.165,305.148 370.800,305.539 370.800 C 305.929 370.800,306.636 370.440,307.108 370.000 C 307.580 369.560,308.114 369.200,308.295 369.200 C 308.476 369.200,308.883 368.840,309.200 368.400 C 309.517 367.960,310.031 367.600,310.341 367.600 C 310.652 367.600,311.197 367.284,311.553 366.897 C 311.909 366.511,312.695 365.940,313.300 365.630 C 313.905 365.319,314.400 364.915,314.400 364.732 C 314.400 364.550,314.613 364.400,314.874 364.400 C 315.135 364.400,315.720 364.053,316.174 363.630 C 316.628 363.206,317.268 362.801,317.596 362.730 C 317.924 362.658,318.671 362.105,319.257 361.500 C 319.842 360.895,320.519 360.400,320.760 360.400 C 321.002 360.400,321.200 360.220,321.200 360.000 C 321.200 359.780,321.386 359.600,321.613 359.600 C 321.841 359.600,322.543 359.072,323.174 358.427 C 323.804 357.782,324.424 357.357,324.551 357.484 C 324.678 357.611,324.894 357.420,325.032 357.060 C 325.171 356.699,325.445 356.504,325.642 356.626 C 325.839 356.748,326.000 356.567,326.000 356.224 C 326.000 355.881,326.152 355.600,326.339 355.600 C 326.525 355.600,327.088 355.244,327.590 354.808 C 328.092 354.373,328.705 354.132,328.952 354.272 C 329.198 354.413,329.281 354.395,329.134 354.232 C 328.988 354.069,329.617 353.275,330.530 352.468 C 331.444 351.661,332.854 350.325,333.664 349.500 C 334.474 348.675,335.291 348.000,335.480 348.000 C 335.668 348.000,336.104 347.685,336.449 347.300 C 336.793 346.915,337.454 346.342,337.916 346.027 C 338.379 345.712,338.666 345.307,338.555 345.127 C 338.444 344.947,338.588 344.792,338.876 344.781 C 339.164 344.771,339.933 344.089,340.584 343.266 C 341.236 342.442,342.442 341.236,343.266 340.584 C 344.089 339.933,344.771 339.164,344.781 338.876 C 344.792 338.588,344.980 338.464,345.200 338.600 C 345.420 338.736,345.600 338.627,345.600 338.357 C 345.600 338.088,345.868 337.582,346.195 337.234 C 346.523 336.885,347.701 335.610,348.815 334.400 C 349.928 333.190,351.281 331.735,351.820 331.167 C 352.359 330.598,352.800 330.002,352.800 329.841 C 352.800 329.680,353.691 328.680,354.779 327.620 C 355.868 326.560,356.650 325.583,356.516 325.450 C 356.383 325.316,356.842 324.664,357.537 324.000 C 358.232 323.336,358.800 322.615,358.800 322.397 C 358.800 322.178,358.980 322.000,359.200 322.000 C 359.420 322.000,359.600 321.802,359.600 321.560 C 359.600 321.319,360.140 320.617,360.800 320.000 C 361.460 319.383,362.000 318.591,362.000 318.240 C 362.000 317.888,362.180 317.600,362.400 317.600 C 362.620 317.600,362.800 317.330,362.800 317.000 C 362.800 316.670,362.980 316.400,363.200 316.400 C 363.420 316.400,363.600 316.130,363.600 315.800 C 363.600 315.470,363.750 315.200,363.932 315.200 C 364.115 315.200,364.519 314.705,364.830 314.100 C 365.140 313.495,365.711 312.709,366.097 312.353 C 366.484 311.997,366.800 311.452,366.800 311.141 C 366.800 310.831,367.160 310.317,367.600 310.000 C 368.040 309.683,368.400 309.208,368.400 308.945 C 368.400 308.682,368.542 308.407,368.715 308.333 C 369.032 308.199,370.924 305.136,371.947 303.100 C 372.251 302.495,372.668 302.000,372.874 302.000 C 373.079 302.000,373.143 301.831,373.015 301.625 C 372.888 301.418,373.012 301.103,373.292 300.925 C 374.036 300.449,374.865 298.828,374.590 298.384 C 374.460 298.173,374.543 298.000,374.776 298.000 C 375.009 298.000,375.200 297.640,375.200 297.200 C 375.200 296.760,375.380 296.400,375.600 296.400 C 375.820 296.400,376.000 296.080,376.000 295.688 C 376.000 295.297,376.360 294.717,376.800 294.400 C 377.240 294.083,377.600 293.503,377.600 293.112 C 377.600 292.720,377.735 292.399,377.900 292.397 C 378.265 292.393,379.200 290.451,379.200 289.697 C 379.200 289.398,379.380 289.264,379.600 289.400 C 379.828 289.541,380.000 289.196,380.000 288.600 C 380.000 288.004,380.172 287.659,380.400 287.800 C 380.620 287.936,380.800 287.772,380.800 287.436 C 380.800 287.099,381.160 286.183,381.600 285.400 C 382.040 284.617,382.400 283.621,382.400 283.188 C 382.400 282.755,382.580 282.400,382.800 282.400 C 383.020 282.400,383.200 282.040,383.200 281.600 C 383.200 281.160,383.380 280.800,383.600 280.800 C 383.820 280.800,384.000 280.440,384.000 280.000 C 384.000 279.560,384.180 279.200,384.400 279.200 C 384.620 279.200,384.800 278.660,384.800 278.000 C 384.800 277.340,384.980 276.800,385.200 276.800 C 385.420 276.800,385.600 276.440,385.600 276.000 C 385.600 275.560,385.735 275.199,385.900 275.197 C 386.301 275.193,387.200 273.219,387.200 272.344 C 387.200 271.961,387.380 271.536,387.600 271.400 C 387.820 271.264,388.000 270.713,388.000 270.176 C 388.000 269.639,388.191 269.200,388.424 269.200 C 388.657 269.200,388.759 269.058,388.652 268.884 C 388.476 268.600,388.841 267.600,390.096 264.927 C 390.322 264.447,390.404 263.787,390.278 263.460 C 390.153 263.133,390.295 262.772,390.594 262.658 C 390.906 262.538,391.051 262.117,390.934 261.670 C 390.822 261.241,390.926 260.769,391.165 260.622 C 391.404 260.474,391.600 259.744,391.600 259.000 C 391.600 258.256,391.780 257.536,392.000 257.400 C 392.220 257.264,392.400 256.713,392.400 256.176 C 392.400 255.639,392.580 255.200,392.800 255.200 C 393.020 255.200,393.200 254.559,393.200 253.776 C 393.200 252.929,393.362 252.453,393.600 252.600 C 393.844 252.751,394.000 252.137,394.000 251.024 C 394.000 250.021,394.180 249.200,394.400 249.200 C 394.620 249.200,394.800 248.570,394.800 247.800 C 394.800 247.030,394.980 246.400,395.200 246.400 C 395.420 246.400,395.600 245.500,395.600 244.400 C 395.600 243.300,395.780 242.400,396.000 242.400 C 396.220 242.400,396.400 241.781,396.400 241.024 C 396.400 240.267,396.580 239.536,396.800 239.400 C 397.020 239.264,397.200 238.184,397.200 237.000 C 397.200 235.816,397.380 234.736,397.600 234.600 C 397.820 234.464,398.000 233.373,398.000 232.176 C 398.000 230.979,398.180 230.000,398.400 230.000 C 398.624 230.000,398.800 228.893,398.800 227.480 C 398.800 226.011,399.006 224.754,399.295 224.465 C 400.141 223.619,399.992 174.400,399.144 174.400 C 398.955 174.400,398.800 173.151,398.800 171.624 C 398.800 170.097,398.620 168.736,398.400 168.600 C 398.180 168.464,398.000 167.499,398.000 166.456 C 398.000 165.413,397.837 164.389,397.637 164.180 C 397.437 163.971,397.172 162.900,397.048 161.800 C 396.530 157.221,396.301 156.000,395.960 156.000 C 395.762 156.000,395.600 155.201,395.600 154.224 C 395.600 153.247,395.420 152.336,395.200 152.200 C 394.980 152.064,394.800 151.243,394.800 150.376 C 394.800 149.509,394.620 148.800,394.400 148.800 C 394.180 148.800,394.000 148.069,394.000 147.176 C 394.000 146.196,393.842 145.651,393.600 145.800 C 393.361 145.947,393.200 145.463,393.200 144.600 C 393.200 143.737,393.039 143.253,392.800 143.400 C 392.567 143.544,392.400 143.137,392.400 142.424 C 392.400 141.751,392.245 141.200,392.056 141.200 C 391.867 141.200,391.611 140.225,391.488 139.034 C 391.365 137.843,391.034 136.448,390.752 135.934 C 390.469 135.420,390.197 134.820,390.145 134.600 C 390.094 134.380,389.873 133.615,389.654 132.900 C 389.435 132.185,389.378 131.597,389.528 131.594 C 389.678 131.591,389.566 131.439,389.280 131.258 C 388.994 131.076,388.731 130.539,388.695 130.064 C 388.659 129.589,388.488 129.200,388.315 129.200 C 388.142 129.200,388.000 128.851,388.000 128.424 C 388.000 127.997,387.820 127.536,387.600 127.400 C 387.380 127.264,387.200 126.803,387.200 126.376 C 387.200 125.949,387.020 125.600,386.800 125.600 C 386.580 125.600,386.400 125.060,386.400 124.400 C 386.400 123.740,386.220 123.200,386.000 123.200 C 385.780 123.200,385.600 122.855,385.600 122.433 C 385.600 122.012,385.422 121.607,385.203 121.533 C 384.985 121.460,384.766 120.905,384.716 120.300 C 384.666 119.695,384.517 119.200,384.384 119.200 C 384.095 119.200,382.400 115.532,382.400 114.905 C 382.400 114.664,382.265 114.407,382.100 114.333 C 381.668 114.141,380.000 110.828,380.000 110.162 C 380.000 109.853,379.820 109.600,379.600 109.600 C 379.380 109.600,379.200 109.330,379.200 109.000 C 379.200 108.670,379.020 108.400,378.800 108.400 C 378.580 108.400,378.400 108.040,378.400 107.600 C 378.400 107.160,378.220 106.800,378.000 106.800 C 377.780 106.800,377.600 106.440,377.600 106.000 C 377.600 105.560,377.420 105.200,377.200 105.200 C 376.980 105.200,376.800 104.840,376.800 104.400 C 376.800 103.960,376.620 103.600,376.400 103.600 C 376.180 103.600,376.000 103.317,376.000 102.971 C 376.000 102.626,375.730 102.073,375.400 101.743 C 375.070 101.413,374.800 100.796,374.800 100.371 C 374.800 99.947,374.658 99.600,374.484 99.600 C 374.310 99.600,373.652 98.582,373.022 97.338 C 372.392 96.095,371.538 94.738,371.124 94.324 C 370.710 93.910,370.458 93.430,370.564 93.258 C 370.670 93.086,370.407 92.693,369.979 92.385 C 369.550 92.076,369.200 91.543,369.200 91.200 C 369.200 90.857,368.840 90.317,368.400 90.000 C 367.960 89.683,367.600 89.143,367.600 88.800 C 367.600 88.457,367.240 87.917,366.800 87.600 C 366.360 87.283,366.000 86.827,366.000 86.587 C 366.000 86.347,365.644 85.769,365.209 85.301 C 364.773 84.834,364.368 84.217,364.309 83.930 C 364.249 83.643,363.705 82.929,363.100 82.343 C 362.495 81.758,362.000 81.068,362.000 80.811 C 362.000 80.280,360.807 78.964,360.786 79.471 C 360.779 79.652,360.452 79.122,360.060 78.293 C 359.667 77.465,359.224 76.910,359.073 77.060 C 358.923 77.210,358.799 77.078,358.798 76.767 C 358.797 76.455,358.267 75.635,357.620 74.945 C 356.973 74.255,356.554 73.580,356.688 73.445 C 356.823 73.310,356.633 73.200,356.267 73.200 C 355.900 73.200,355.600 73.039,355.600 72.842 C 355.600 72.526,355.090 71.885,352.621 69.100 C 352.279 68.715,352.000 68.298,352.000 68.174 C 352.000 68.050,351.100 67.071,350.000 66.000 C 348.900 64.929,348.000 63.847,348.000 63.597 C 348.000 62.986,346.958 61.975,346.648 62.286 C 346.511 62.422,346.400 62.223,346.400 61.843 C 346.400 61.463,346.220 61.264,346.000 61.400 C 345.780 61.536,345.600 61.356,345.600 61.000 C 345.600 60.644,345.465 60.421,345.300 60.504 C 345.135 60.588,343.715 59.339,342.145 57.728 C 340.575 56.118,339.405 54.797,339.545 54.794 C 339.685 54.791,339.350 54.551,338.800 54.261 C 338.250 53.972,337.845 53.524,337.900 53.267 C 337.955 53.010,337.719 52.800,337.376 52.800 C 337.033 52.800,336.864 52.620,337.000 52.400 C 337.136 52.180,336.952 52.000,336.592 52.000 C 336.232 52.000,335.246 51.280,334.400 50.400 C 333.554 49.520,332.658 48.800,332.408 48.800 C 332.158 48.800,332.064 48.620,332.200 48.400 C 332.336 48.180,332.259 48.000,332.028 48.000 C 331.798 48.000,331.232 47.685,330.771 47.300 C 328.970 45.796,328.445 45.379,327.637 44.812 C 327.177 44.488,326.800 43.983,326.800 43.688 C 326.800 43.394,326.654 43.243,326.476 43.353 C 326.297 43.463,325.532 43.024,324.776 42.378 C 324.019 41.731,323.254 41.201,323.076 41.201 C 322.898 41.200,322.864 41.020,323.000 40.800 C 323.136 40.580,322.965 40.400,322.620 40.400 C 322.275 40.400,321.428 39.860,320.737 39.200 C 320.046 38.540,319.318 38.000,319.119 38.000 C 318.920 38.000,318.181 37.461,317.478 36.802 C 316.775 36.143,316.015 35.603,315.788 35.602 C 315.562 35.601,315.117 35.240,314.800 34.800 C 314.483 34.360,313.943 34.000,313.600 34.000 C 313.257 34.000,312.717 33.640,312.400 33.200 C 312.083 32.760,311.503 32.400,311.112 32.400 C 310.720 32.400,310.400 32.250,310.400 32.068 C 310.400 31.885,309.908 31.480,309.306 31.168 C 308.304 30.648,307.496 30.075,306.246 29.000 C 305.990 28.780,305.517 28.541,305.194 28.468 C 304.872 28.395,304.474 28.125,304.310 27.868 C 304.146 27.611,304.004 27.580,303.993 27.800 C 303.983 28.020,303.710 27.851,303.387 27.424 C 303.064 26.996,302.800 26.799,302.800 26.986 C 302.800 27.172,302.485 27.062,302.100 26.742 C 301.715 26.422,300.680 25.809,299.800 25.380 C 298.920 24.951,298.140 24.465,298.067 24.300 C 297.993 24.135,297.588 24.000,297.167 24.000 C 296.745 24.000,296.400 23.820,296.400 23.600 C 296.400 23.380,296.040 23.200,295.600 23.200 C 295.160 23.200,294.800 23.020,294.800 22.800 C 294.800 22.580,294.440 22.400,294.000 22.400 C 293.560 22.400,293.200 22.220,293.200 22.000 C 293.200 21.780,292.840 21.600,292.400 21.600 C 291.960 21.600,291.600 21.420,291.600 21.200 C 291.600 20.980,291.330 20.800,291.000 20.800 C 290.670 20.800,290.400 20.620,290.400 20.400 C 290.400 20.180,290.147 20.000,289.838 20.000 C 289.172 20.000,285.859 18.332,285.667 17.900 C 285.593 17.735,285.188 17.600,284.767 17.600 C 284.345 17.600,284.000 17.420,284.000 17.200 C 284.000 16.980,283.640 16.800,283.200 16.800 C 282.760 16.800,282.400 16.620,282.400 16.400 C 282.400 16.180,281.860 16.000,281.200 16.000 C 280.540 16.000,280.000 15.820,280.000 15.600 C 280.000 15.380,279.640 15.200,279.200 15.200 C 278.760 15.200,278.400 15.020,278.400 14.800 C 278.400 14.580,278.040 14.400,277.600 14.400 C 277.160 14.400,276.800 14.220,276.800 14.000 C 276.800 13.780,276.260 13.600,275.600 13.600 C 274.940 13.600,274.400 13.440,274.400 13.245 C 274.400 13.049,273.815 12.778,273.100 12.642 C 272.385 12.507,271.350 12.162,270.800 11.876 C 270.250 11.590,268.945 11.117,267.900 10.826 C 266.855 10.535,266.000 10.128,266.000 9.923 C 266.000 9.718,265.668 9.606,265.261 9.675 C 264.855 9.744,264.198 9.530,263.800 9.200 C 263.402 8.870,263.060 8.657,263.039 8.727 C 262.948 9.026,258.800 8.264,258.800 7.948 C 258.800 7.757,258.249 7.600,257.576 7.600 C 256.863 7.600,256.456 7.433,256.600 7.200 C 256.749 6.959,256.212 6.800,255.247 6.800 C 254.367 6.800,253.536 6.620,253.400 6.400 C 253.264 6.180,252.713 6.000,252.176 6.000 C 251.639 6.000,251.200 5.820,251.200 5.600 C 251.200 5.380,250.300 5.200,249.200 5.200 C 248.100 5.200,247.200 5.020,247.200 4.800 C 247.200 4.580,246.480 4.400,245.600 4.400 C 244.720 4.400,244.000 4.220,244.000 4.000 C 244.000 3.780,243.089 3.600,241.976 3.600 C 240.729 3.600,240.048 3.447,240.200 3.200 C 240.352 2.953,239.671 2.800,238.424 2.800 C 237.311 2.800,236.400 2.620,236.400 2.400 C 236.400 2.174,235.267 2.000,233.800 2.000 C 232.333 2.000,231.200 1.826,231.200 1.600 C 231.200 1.373,230.027 1.200,228.480 1.200 C 226.868 1.200,225.561 1.001,225.270 0.710 C 224.786 0.226,188.775 -0.118,179.803 0.276 M214.779 47.220 C 222.256 48.137,224.675 48.463,226.400 48.789 C 238.716 51.111,247.796 53.643,256.700 57.237 C 257.195 57.437,258.005 57.757,258.500 57.949 C 261.570 59.141,272.894 64.688,275.800 66.424 C 276.900 67.081,278.070 67.738,278.400 67.884 C 279.589 68.411,288.203 74.103,288.333 74.447 C 288.407 74.641,288.677 74.801,288.933 74.802 C 289.190 74.803,289.975 75.343,290.678 76.002 C 291.381 76.661,292.101 77.201,292.278 77.202 C 292.455 77.203,293.175 77.743,293.878 78.402 C 294.581 79.061,295.269 79.600,295.407 79.600 C 295.545 79.600,295.885 79.825,296.162 80.100 C 296.440 80.375,297.641 81.410,298.831 82.400 C 304.229 86.892,312.121 94.738,316.735 100.200 C 318.408 102.180,319.880 103.890,320.006 104.000 C 320.132 104.110,321.349 105.730,322.710 107.600 C 324.072 109.470,325.333 111.180,325.514 111.400 C 329.071 115.733,338.555 132.658,341.204 139.400 C 341.377 139.840,341.822 140.889,342.192 141.731 C 342.863 143.254,344.761 148.349,345.795 151.400 C 348.369 159.003,350.889 169.960,351.956 178.200 C 352.184 179.960,352.559 182.840,352.788 184.600 C 353.327 188.736,353.329 209.643,352.791 213.800 C 351.549 223.391,350.995 227.066,350.411 229.600 C 348.367 238.473,347.615 241.344,346.169 245.800 C 343.923 252.724,343.432 254.026,340.553 260.700 C 336.588 269.890,325.807 288.606,323.214 290.800 C 323.084 290.910,321.905 292.440,320.595 294.200 C 314.487 302.401,304.073 312.867,293.600 321.327 C 293.270 321.593,292.370 322.250,291.600 322.786 C 290.830 323.323,290.110 323.876,290.000 324.016 C 289.629 324.489,280.044 330.788,276.708 332.752 C 272.080 335.476,262.182 340.418,258.100 342.042 C 257.605 342.239,256.750 342.580,256.200 342.800 C 255.650 343.020,254.795 343.362,254.300 343.560 C 253.805 343.757,252.770 344.136,252.000 344.400 C 251.230 344.664,250.240 345.032,249.800 345.216 C 247.428 346.211,238.630 348.623,231.000 350.371 C 229.172 350.790,220.252 352.145,215.179 352.775 C 206.639 353.836,184.738 352.779,174.800 350.828 C 166.898 349.276,165.587 348.966,157.800 346.813 C 148.902 344.353,135.163 338.446,125.410 332.888 C 120.380 330.022,107.664 321.402,106.400 320.001 C 106.290 319.879,105.390 319.159,104.400 318.400 C 103.410 317.641,102.510 316.926,102.400 316.810 C 102.290 316.695,100.500 315.070,98.422 313.200 C 93.520 308.789,90.883 306.156,87.200 301.993 C 85.550 300.127,83.925 298.331,83.589 298.001 C 83.252 297.670,82.357 296.590,81.599 295.600 C 80.841 294.610,80.121 293.710,79.999 293.600 C 78.967 292.668,70.636 280.627,68.735 277.319 C 59.427 261.124,53.515 246.169,50.424 231.000 C 50.155 229.680,49.779 227.880,49.588 227.000 C 46.700 213.684,46.163 194.983,48.239 180.000 C 48.789 176.026,48.980 174.887,49.981 169.600 C 50.587 166.400,51.500 162.549,52.351 159.600 C 52.573 158.830,52.923 157.570,53.129 156.800 C 53.589 155.080,55.507 149.293,55.979 148.200 C 56.169 147.760,57.095 145.420,58.036 143.000 C 62.417 131.737,69.798 118.844,77.959 108.200 C 95.184 85.734,117.335 68.784,143.250 58.239 C 148.137 56.251,149.944 55.612,157.400 53.232 C 158.720 52.811,162.140 51.925,165.000 51.263 C 169.826 50.146,171.198 49.864,176.900 48.813 C 185.942 47.147,206.977 46.263,214.779 47.220 M168.473 105.561 C 163.746 107.193,162.565 109.478,159.044 123.800 C 157.584 129.740,155.860 136.670,155.214 139.200 C 152.364 150.360,150.803 156.619,150.025 160.000 C 149.798 160.990,149.417 162.520,149.180 163.400 C 148.943 164.280,148.585 165.720,148.385 166.600 C 148.185 167.480,147.642 169.640,147.179 171.400 C 146.716 173.160,146.196 175.230,146.024 176.000 C 145.851 176.770,140.345 198.820,133.788 225.000 C 121.795 272.882,121.032 276.389,122.320 277.679 C 123.234 278.594,185.349 278.421,190.600 277.488 C 211.982 273.693,229.599 262.424,242.502 244.290 C 246.374 238.849,252.095 228.159,253.681 223.400 C 254.048 222.300,254.739 220.320,255.217 219.000 C 256.122 216.504,256.247 216.057,258.796 206.200 C 264.931 182.485,268.440 168.441,269.140 164.800 C 269.373 163.590,269.791 161.430,270.069 160.000 C 270.747 156.512,270.746 142.133,270.068 139.200 C 268.521 132.509,268.154 131.305,266.605 127.830 C 260.651 114.477,248.450 106.857,230.400 105.220 C 221.551 104.417,170.978 104.696,168.473 105.561 M215.775 149.212 C 228.257 152.357,230.771 160.685,225.494 181.400 C 218.222 209.948,217.346 213.341,216.558 216.000 C 215.283 220.301,210.465 227.144,206.949 229.648 C 200.412 234.304,196.555 235.149,181.724 235.179 C 175.962 235.191,171.163 235.063,171.060 234.897 C 170.787 234.456,171.186 232.702,174.533 219.600 C 181.668 191.678,184.100 182.115,184.400 180.800 C 185.278 176.956,192.445 149.051,192.631 148.749 C 193.113 147.970,212.375 148.356,215.775 149.212 " stroke="none" fill="#fcd53d" fill-rule="evenodd"></path>
        <path id="path2" d="M200.800 73.543 L 200.800 100.000 215.300 100.003 C 232.587 100.007,237.536 100.509,245.000 103.012 C 265.010 109.723,275.588 125.592,275.598 148.916 C 275.603 160.468,275.021 163.331,264.199 205.000 C 263.399 208.080,262.406 211.950,261.991 213.600 C 254.368 243.954,232.907 268.882,206.200 278.408 C 204.220 279.114,202.195 279.847,201.700 280.037 L 200.800 280.383 200.800 316.591 L 200.800 352.800 204.095 352.800 C 207.947 352.800,219.932 351.782,223.400 351.160 C 231.166 349.768,231.292 349.743,237.000 348.391 C 238.980 347.923,240.960 347.394,241.400 347.215 C 241.840 347.037,243.010 346.667,244.000 346.394 C 244.990 346.120,247.060 345.452,248.600 344.910 C 250.140 344.367,251.760 343.836,252.200 343.728 C 253.223 343.479,253.769 343.256,260.400 340.391 C 269.322 336.535,287.794 325.924,289.600 323.617 C 289.710 323.476,290.430 322.929,291.200 322.400 C 291.970 321.871,292.690 321.335,292.800 321.209 C 292.910 321.083,293.972 320.217,295.160 319.284 C 302.476 313.538,313.883 302.112,318.777 295.625 C 319.535 294.621,320.255 293.710,320.377 293.600 C 323.920 290.416,336.169 269.802,339.987 260.600 C 340.810 258.614,341.733 256.506,342.244 255.439 C 342.550 254.800,342.800 253.955,342.800 253.562 C 342.800 253.169,342.944 252.758,343.121 252.649 C 343.297 252.540,343.693 251.528,344.000 250.400 C 344.307 249.272,344.703 248.260,344.879 248.151 C 345.056 248.042,345.200 247.601,345.200 247.171 C 345.200 246.741,345.365 246.077,345.566 245.695 C 346.203 244.486,348.665 235.462,349.574 231.000 C 351.938 219.404,352.582 212.704,352.592 199.600 C 352.601 186.657,352.103 181.029,349.937 169.600 C 349.708 168.390,349.436 166.860,349.333 166.200 C 349.230 165.540,349.000 164.640,348.822 164.200 C 348.644 163.760,348.279 162.410,348.012 161.200 C 347.407 158.464,346.808 156.411,346.351 155.505 C 346.158 155.123,346.000 154.369,346.000 153.829 C 346.000 153.289,345.856 152.758,345.679 152.649 C 345.503 152.540,345.107 151.528,344.800 150.400 C 344.493 149.272,344.097 148.260,343.921 148.151 C 343.744 148.042,343.600 147.549,343.600 147.056 C 343.600 146.563,343.447 145.989,343.260 145.780 C 343.072 145.571,342.427 144.140,341.826 142.600 C 333.701 121.790,318.135 99.773,301.390 85.406 C 299.856 84.089,298.510 82.919,298.400 82.806 C 298.027 82.422,294.211 79.357,291.585 77.331 C 289.181 75.477,280.531 69.600,280.206 69.600 C 280.129 69.600,278.738 68.815,277.116 67.856 C 273.050 65.452,259.743 58.800,259.000 58.800 C 258.885 58.800,258.028 58.461,257.096 58.047 C 256.163 57.633,254.770 57.075,254.000 56.807 C 253.230 56.539,252.240 56.169,251.800 55.986 C 251.102 55.695,249.082 55.026,244.586 53.597 C 234.286 50.322,219.827 47.968,206.100 47.332 L 200.800 47.087 200.800 73.543 M200.800 190.338 C 200.800 211.799,200.951 227.246,201.161 227.376 C 201.360 227.499,202.575 226.805,203.861 225.834 C 207.965 222.737,211.041 217.780,212.670 211.637 C 213.824 207.281,216.080 198.579,216.437 197.100 C 216.637 196.275,216.972 194.925,217.182 194.100 C 217.619 192.382,218.237 189.875,218.761 187.700 C 218.960 186.875,219.863 183.410,220.769 180.000 C 226.263 159.314,223.667 154.001,207.900 153.671 L 200.800 153.522 200.800 190.338 " stroke="none" fill="#ec840c" fill-rule="evenodd"></path>
    </g>
</svg>
