<svg width="22" height="22" viewBox="0 0 22 22" fill="none" xmlns="http://www.w3.org/2000/svg">
<path fill-rule="evenodd" clip-rule="evenodd" d="M19.9593 7.95499L20.7276 8.72299C21.3358 9.32032 21.6666 10.131 21.6666 10.9843C21.6772 11.8377 21.3465 12.6494 20.7489 13.2563C20.7418 13.2641 20.7347 13.271 20.7276 13.2779C20.724 13.2813 20.7205 13.2848 20.7169 13.2883L19.9593 14.0457C19.6605 14.3443 19.4898 14.7497 19.4898 15.1774V16.275C19.4898 18.0457 18.0493 19.4867 16.278 19.4867H15.1789C14.7521 19.4867 14.3466 19.6563 14.0478 19.955L13.2795 20.723C12.65 21.3534 11.8283 21.6617 11.0067 21.6617C10.1851 21.6617 9.36345 21.3534 8.73389 20.7347L7.95494 19.955C7.65617 19.6563 7.25069 19.4867 6.82387 19.4867H5.7248C3.95349 19.4867 2.51297 18.0457 2.51297 16.275V15.1774C2.51297 14.7497 2.34224 14.3443 2.04347 14.035L1.27519 13.2777C0.0267354 12.0307 0.0160649 9.99232 1.26452 8.73472L2.04347 7.95499C2.34224 7.65632 2.51297 7.25099 2.51297 6.81366V5.72566C2.51297 3.95499 3.95349 2.51606 5.7248 2.51606H6.82387C7.25069 2.51606 7.65617 2.34432 7.95494 2.04566L8.72322 1.27766C9.97167 0.0200554 12.0097 0.0200555 13.2689 1.26806L14.0478 2.04566C14.3466 2.34432 14.7521 2.51606 15.1789 2.51606H16.278C18.0493 2.51606 19.4898 3.95499 19.4898 5.72566V6.82539C19.4898 7.25099 19.6605 7.65632 19.9593 7.95499ZM8.25375 14.675C8.50984 14.675 8.74459 14.579 8.91532 14.3977L14.4 8.91611C14.7628 8.55344 14.7628 7.95504 14.4 7.59237C14.0372 7.23077 13.4503 7.23077 13.0875 7.59237L7.60285 13.075C7.24005 13.4377 7.24005 14.035 7.60285 14.3977C7.77357 14.579 8.00833 14.675 8.25375 14.675ZM12.8101 13.7363C12.8101 14.2589 13.2262 14.6749 13.7491 14.6749C14.2613 14.6749 14.6774 14.2589 14.6774 13.7363C14.6774 13.2253 14.2613 12.8083 13.7491 12.8083C13.2262 12.8083 12.8101 13.2253 12.8101 13.7363ZM8.2644 7.32566C8.77659 7.32566 9.19274 7.74166 9.19274 8.25366C9.19274 8.77739 8.77659 9.19232 8.2644 9.19232C7.75222 9.19232 7.32539 8.77739 7.32539 8.25366C7.32539 7.74166 7.75222 7.32566 8.2644 7.32566Z" fill="#B455FF"/>
</svg>
