<svg width="12" height="14" viewBox="0 0 12 14" fill="none" xmlns="http://www.w3.org/2000/svg">
<path fill-rule="evenodd" clip-rule="evenodd" d="M0.333008 5.87867C0.333008 2.81209 2.8956 0.333496 5.99531 0.333496C9.10375 0.333496 11.6663 2.81209 11.6663 5.87867C11.6663 7.42396 11.1043 8.85858 10.1793 10.0745C9.15888 11.4158 7.90111 12.5845 6.48537 13.5018C6.16135 13.7138 5.86892 13.7298 5.51331 13.5018C4.0895 12.5845 2.83173 11.4158 1.82001 10.0745C0.89433 8.85858 0.333008 7.42396 0.333008 5.87867ZM4.12916 6.05133C4.12916 7.07863 4.96745 7.88661 5.9953 7.88661C7.02384 7.88661 7.87019 7.07863 7.87019 6.05133C7.87019 5.03203 7.02384 4.18472 5.9953 4.18472C4.96745 4.18472 4.12916 5.03203 4.12916 6.05133Z" fill="#00B35D"/>
</svg>
