<?xml version="1.0" encoding="UTF-8" standalone="no"?>
<svg width="20" height="21" viewBox="0 0 20 21" fill="none" version="1.1" id="svg15" sodipodi:docname="Announcement.svg" inkscape:version="1.1.2 (b8e25be8, 2022-02-05)"
   xmlns:inkscape="http://www.inkscape.org/namespaces/inkscape"
   xmlns:sodipodi="http://sodipodi.sourceforge.net/DTD/sodipodi-0.dtd"
   xmlns="http://www.w3.org/2000/svg"
   xmlns:svg="http://www.w3.org/2000/svg">
   <path id="path13" style="color:#000000;fill:#787c8f;stroke-linecap:round;stroke-linejoin:round;-inkscape-stroke:none" d="m 13.861328,6.7773437 a 0.75,0.75 0 0 0 -0.277344,1.0234375 c 0.961914,1.6804312 0.96098,3.7229708 0,5.3964848 a 0.75,0.75 0 0 0 0.277344,1.02539 0.75,0.75 0 0 0 1.023438,-0.277343 c 1.224418,-2.132284 1.223483,-4.7512874 0,-6.8886724 A 0.75,0.75 0 0 0 13.861328,6.7773437 Z m 2.591797,-2.0957031 a 0.75,0.75 0 0 0 -0.560547,0.1230469 0.75,0.75 0 0 0 -0.1875,1.0429687 c 1.94923,2.8060073 1.955459,6.4914818 0,9.3027348 a 0.75,0.75 0 0 0 0.1875,1.044921 0.75,0.75 0 0 0 1.042969,-0.1875 c 2.308737,-3.319141 2.300965,-7.7032779 0,-11.0156245 A 0.75,0.75 0 0 0 16.453125,4.6816406 Z M 8.2519531,4.0683594 C 7.6435332,4.2691404 7.1095525,4.6167689 6.6191406,4.9765625 6.1287287,5.3363561 5.6827339,5.7144572 5.3183594,5.9863281 4.9539848,6.258199 4.6280562,6.3727449 4.703125,6.3671875 4.1991937,6.4041662 3.8420167,6.386531 3.4375,6.4375 3.0329833,6.488469 2.5800578,6.6578823 2.1933594,6.9765625 1.6162421,7.4521681 1.4718341,8.126616 1.3945312,8.7480469 c -0.077303,0.6214308 -0.05973,1.2519571 -0.058594,1.7539061 -0.0012,0.501474 -0.018537,1.131898 0.058594,1.751953 0.077303,0.621436 0.2217531,1.293915 0.7988282,1.769532 0.386707,0.31868 0.8396247,0.488111 1.2441406,0.539062 0.4045159,0.05095 0.7617012,0.0353 1.265625,0.07227 -0.07498,-0.0056 0.2508622,0.107085 0.6152344,0.378906 0.3643722,0.27182 0.8103803,0.650022 1.3007812,1.009765 0.4904009,0.359744 1.0244561,0.709343 1.6328125,0.910157 0.6083565,0.200814 1.3482081,0.225724 1.9960939,-0.144532 a 0.750075,0.750075 0 0 0 0.0918,-0.0625 c 0.646414,-0.508373 0.962321,-1.301229 1.105469,-2.281249 0.143147,-0.980021 0.154296,-2.225794 0.154296,-3.945313 0,-1.7194744 -0.01115,-2.9653009 -0.154296,-3.9453125 -0.143149,-0.9800116 -0.459027,-1.7729041 -1.105469,-2.28125 a 0.750075,0.750075 0 0 0 -0.0918,-0.060547 C 9.6002002,3.8423703 8.8603731,3.8675783 8.2519531,4.0683594 Z M 8.7226563,5.4921875 C 9.0403513,5.3873468 9.2292455,5.4105719 9.4375,5.5117187 9.6785933,5.7170841 9.8488976,6.0044447 9.9609375,6.7714844 10.078222,7.574426 10.099609,8.7903678 10.099609,10.5 c 0,1.709677 -0.02139,2.925563 -0.1386715,3.728516 C 9.8490386,14.994599 9.678112,15.282852 9.4375,15.488281 9.2292555,15.58933 9.0404094,15.612701 8.7226563,15.507813 8.3753834,15.39318 7.9402338,15.133097 7.5058594,14.814453 7.0714849,14.495809 6.6367636,14.127251 6.2148437,13.8125 5.7929239,13.497749 5.4276594,13.184224 4.8125,13.138672 4.2368448,13.096441 3.8462984,13.102093 3.625,13.074219 3.4037016,13.046345 3.3530498,13.035806 3.1484375,12.867188 3.0915532,12.820304 2.9405546,12.532547 2.8828125,12.068359 2.8250704,11.604172 2.834754,11.024737 2.8359375,10.501953 a 0.750075,0.750075 0 0 0 0,-0.002 0.750075,0.750075 0 0 0 0,-0.002 C 2.834754,9.9753273 2.8250705,9.3958237 2.8828125,8.9316406 2.9405545,8.4674576 3.0915954,8.1816095 3.1484375,8.1347656 3.3530585,7.9661363 3.4037023,7.9536647 3.625,7.9257812 3.8462977,7.8978978 4.2368524,7.9055225 4.8125,7.8632812 5.4277483,7.8177339 5.7929263,7.5042585 6.2148437,7.1894531 6.6367612,6.8746477 7.071496,6.5061733 7.5058594,6.1875 7.9402228,5.8688267 8.3754468,5.606768 8.7226563,5.4921875 Z M 2.08504,10.5004 c -0.00232,1.0248 -0.04805,2.4224 0.58591,2.9449 0.59132,0.4873 1.0075,0.3617 2.08708,0.4409 1.08036,0.08 3.36043,3.2558 5.11814,2.2513 0.90673,-0.7131 0.97423,-2.2079 0.97423,-5.6371 0,-3.42911 -0.0675,-4.92395 -0.97423,-5.63698 C 8.11846,3.85814 5.83839,7.03466 4.75803,7.11464 3.67845,7.19386 3.26227,7.0683 2.67095,7.55561 2.03699,8.07806 2.08272,9.47573 2.08504,10.5004 Z" />
</svg>
