<?xml version="1.0" encoding="UTF-8" standalone="no"?>
<svg width="20" height="21" viewBox="0 0 20 21" fill="none" version="1.1" id="svg15" sodipodi:docname="Volume Up.svg" inkscape:version="1.1.2 (b8e25be8, 2022-02-05)"
   xmlns:inkscape="http://www.inkscape.org/namespaces/inkscape"
   xmlns:sodipodi="http://sodipodi.sourceforge.net/DTD/sodipodi-0.dtd"
   xmlns="http://www.w3.org/2000/svg"
   xmlns:svg="http://www.w3.org/2000/svg">
   <path id="path13" style="color:#000000;fill:#787c8f;stroke-linecap:round;stroke-linejoin:round;-inkscape-stroke:none" d="m 13.861328,6.7773437 a 0.75,0.75 0 0 0 -0.277344,1.0234375 c 0.961914,1.6804312 0.96098,3.7229708 0,5.3964848 a 0.75,0.75 0 0 0 0.277344,1.02539 0.75,0.75 0 0 0 1.023438,-0.277343 c 1.224418,-2.132284 1.223483,-4.7512874 0,-6.8886724 A 0.75,0.75 0 0 0 13.861328,6.7773437 Z m 2.591797,-2.0957031 a 0.75,0.75 0 0 0 -0.560547,0.1230469 0.75,0.75 0 0 0 -0.1875,1.0429687 c 1.949139,2.8060076 1.955367,6.4914818 0,9.3027348 a 0.75,0.75 0 0 0 0.1875,1.044921 0.75,0.75 0 0 0 1.042969,-0.1875 c 2.308629,-3.319141 2.300857,-7.7032782 0,-11.0156245 A 0.75,0.75 0 0 0 16.453125,4.6816406 Z M 8.2519531,4.0683594 C 7.6435326,4.2691404 7.1095521,4.6167688 6.6191406,4.9765625 6.1287292,5.3363562 5.6827331,5.7144573 5.3183594,5.9863281 4.9539856,6.258199 4.6280561,6.3727449 4.703125,6.3671875 4.1991937,6.4041662 3.8420173,6.3865311 3.4375,6.4375 3.0329827,6.4884689 2.580062,6.6578842 2.1933594,6.9765625 1.6162493,7.4521696 1.4718341,8.126616 1.3945312,8.7480469 c -0.077303,0.6214308 -0.061688,1.251951 -0.060547,1.7539061 -0.0012,0.50148 -0.016584,1.131898 0.060547,1.751953 0.077303,0.621436 0.2217604,1.293914 0.7988282,1.769532 0.3867112,0.318678 0.839624,0.488111 1.2441406,0.539062 0.4045166,0.05095 0.7617012,0.0353 1.265625,0.07227 -0.07498,-0.0056 0.250863,0.107085 0.6152344,0.378906 0.3643714,0.27182 0.8103808,0.650022 1.3007812,1.009765 0.4904004,0.359744 1.0244554,0.709343 1.6328125,0.910157 0.6083571,0.200814 1.3482065,0.225722 1.9960939,-0.144532 a 0.750075,0.750075 0 0 0 0.0918,-0.0625 c 0.646403,-0.508376 0.962324,-1.301231 1.105469,-2.281249 0.143144,-0.980019 0.154296,-2.225794 0.154296,-3.945313 0,-1.7194744 -0.01115,-2.9653027 -0.154296,-3.9453125 -0.143146,-0.9800098 -0.459038,-1.7729014 -1.105469,-2.28125 a 0.750075,0.750075 0 0 0 -0.0918,-0.060547 C 9.6001986,3.8423715 8.8603737,3.8675783 8.2519531,4.0683594 Z M 8.7226563,5.4921875 C 9.0403516,5.3873468 9.2292425,5.410571 9.4375,5.5117187 9.6785852,5.717082 9.8488995,6.004443 9.9609375,6.7714844 10.07822,7.5744278 10.099609,8.7903678 10.099609,10.5 c 0,1.709677 -0.02139,2.925561 -0.1386715,3.728516 C 9.8490405,14.9946 9.678104,15.282854 9.4375,15.488281 9.2292526,15.58933 9.0404097,15.612701 8.7226563,15.507813 8.375383,15.39318 7.9402331,15.133097 7.5058594,14.814453 7.0714857,14.495809 6.6367628,14.127251 6.2148437,13.8125 5.7929247,13.497749 5.4276595,13.184224 4.8125,13.138672 4.2368448,13.096441 3.8463003,13.102093 3.625,13.074219 3.4036997,13.046345 3.3530556,13.035808 3.1484375,12.867188 3.0915559,12.820306 2.9405546,12.532547 2.8828125,12.068359 2.8250704,11.604172 2.8327958,11.024731 2.8339844,10.501953 a 0.750075,0.750075 0 0 0 0,-0.002 0.750075,0.750075 0 0 0 0,-0.002 C 2.8327958,9.9753331 2.8250705,9.3958237 2.8828125,8.9316406 2.9405545,8.4674576 3.0915982,8.181608 3.1484375,8.1347656 3.3530643,7.9661344 3.4037004,7.9536648 3.625,7.9257812 3.8462996,7.8978977 4.2368524,7.9055225 4.8125,7.8632812 5.4277483,7.8177339 5.792927,7.5042586 6.2148437,7.1894531 6.6367605,6.8746477 7.0714967,6.5061731 7.5058594,6.1875 7.940222,5.8688269 8.3754465,5.606768 8.7226563,5.4921875 Z" />
</svg>
