<?xml version="1.0" encoding="UTF-8" standalone="no"?>
<svg width="24" height="24" viewBox="0 0 24 24" fill="none" version="1.1" id="svg13" sodipodi:docname="notif bell.svg" inkscape:version="1.1.2 (b8e25be8, 2022-02-05)"
   xmlns:inkscape="http://www.inkscape.org/namespaces/inkscape"
   xmlns:sodipodi="http://sodipodi.sourceforge.net/DTD/sodipodi-0.dtd"
   xmlns="http://www.w3.org/2000/svg"
   xmlns:svg="http://www.w3.org/2000/svg">
   <defs id="defs17" />
   <sodipodi:namedview id="namedview15" pagecolor="#ffffff" bordercolor="#666666" borderopacity="1.0" inkscape:pageshadow="2" inkscape:pageopacity="0.0" inkscape:pagecheckerboard="0" showgrid="false" inkscape:zoom="29.958333" inkscape:cx="12" inkscape:cy="12" inkscape:window-width="1872" inkscape:window-height="1147" inkscape:window-x="48" inkscape:window-y="25" inkscape:window-maximized="1" inkscape:current-layer="svg13" />
   <path id="path11" style="color:#000000;fill:#787c8f;stroke-linecap:round;stroke-linejoin:round;-inkscape-stroke:none" d="m 9.0175781,20.298828 a 0.75,0.75 0 0 0 -0.056641,1.060547 c 1.6358289,1.820596 4.3626779,1.800737 5.9843759,0 a 0.75,0.75 0 0 0 -0.05469,-1.058594 0.75,0.75 0 0 0 -1.058594,0.05469 c -1.1065,1.22866 -2.635437,1.2448 -3.753906,0 A 0.75,0.75 0 0 0 9.0175757,20.298831 Z M 12,1.25 c -4.4363208,0 -7.4316406,3.4404248 -7.4316406,6.6953125 0,1.6524255 -0.3602349,2.2593435 -0.8027344,3.0000005 C 3.3231255,11.685969 2.75,12.613149 2.75,14.220703 a 0.750075,0.750075 0 0 0 0.00195,0.06445 c 0.1452217,1.673365 1.1339406,2.927274 2.7050781,3.541016 1.5711376,0.613742 3.6922687,0.771484 6.5429689,0.771484 2.851667,0 4.972184,-0.160235 6.542969,-0.77539 1.570785,-0.615156 2.560323,-1.868498 2.705078,-3.53711 a 0.750075,0.750075 0 0 0 0.002,-0.06445 c 0,-1.60755 -0.573138,-2.534734 -1.015625,-3.27539 C 19.791888,10.204656 19.431641,9.5977415 19.431641,7.9453125 19.431641,4.6904104 16.436294,1.25 12,1.25 Z m 0,1.5 c 3.654098,0 5.931641,2.8882802 5.931641,5.1953125 0,1.9078574 0.548713,2.9879925 1.015625,3.7695315 0.460608,0.770989 0.787953,1.212907 0.796875,2.466797 -0.112135,1.212281 -0.552334,1.773918 -1.748047,2.242187 -1.206437,0.472469 -3.208567,0.673828 -5.996094,0.673828 -2.7875243,0 -4.7900291,-0.19879 -5.9960938,-0.669922 C 4.8085357,15.96078 4.3685486,15.400043 4.2558594,14.181641 4.2647808,12.927755 4.5921131,12.485833 5.0527344,11.714844 5.519659,10.933304 6.0683594,9.8531734 6.0683594,7.9453125 6.0683594,5.6382658 8.3458688,2.75 12,2.75 Z" />
</svg>
