<svg width="10" height="10" viewBox="0 0 10 10" fill="none"
    xmlns="http://www.w3.org/2000/svg">
    <path d="M2.53485 3.4775L3.75534 4.26419L4.97177 2.61776C4.99865 2.58134 5.03414 2.55165 5.07528 2.53117C5.11642 2.51069 5.16203 2.5 5.20831 2.5C5.25459 2.5 5.3002 2.51069 5.34134 2.53117C5.38248 2.55165 5.41797 2.58134 5.44485 2.61776L6.66128 4.26419L7.88177 3.4775C7.92796 3.44779 7.98198 3.43148 8.03745 3.4305C8.09292 3.42953 8.14752 3.44393 8.1948 3.472C8.24208 3.50007 8.28006 3.54064 8.30425 3.58891C8.32844 3.63718 8.33783 3.69114 8.33132 3.74441L7.85387 7.66858C7.84554 7.73692 7.81156 7.79993 7.75838 7.84566C7.70519 7.89139 7.63649 7.91666 7.56531 7.91667H2.85131C2.78013 7.91666 2.71143 7.89139 2.65824 7.84566C2.60506 7.79993 2.57107 7.73692 2.56275 7.66858L2.0853 3.74413C2.07885 3.69088 2.08829 3.63696 2.11251 3.58873C2.13672 3.54051 2.17471 3.49998 2.22197 3.47195C2.26924 3.44392 2.32381 3.42955 2.37925 3.43053C2.43469 3.43151 2.48868 3.44781 2.53485 3.4775ZM5.20831 6.23091C5.36245 6.23091 5.51028 6.1717 5.61927 6.06632C5.72826 5.96094 5.7895 5.81802 5.7895 5.66899C5.7895 5.51996 5.72826 5.37703 5.61927 5.27165C5.51028 5.16627 5.36245 5.10707 5.20831 5.10707C5.05417 5.10707 4.90634 5.16627 4.79735 5.27165C4.68835 5.37703 4.62712 5.51996 4.62712 5.66899C4.62712 5.81802 4.68835 5.96094 4.79735 6.06632C4.90634 6.1717 5.05417 6.23091 5.20831 6.23091Z" fill="#787c8f"/>
</svg>
