<svg width="24" height="24" viewBox="0 0 24 24" fill="none"
    xmlns="http://www.w3.org/2000/svg">
    <path d="M16.34 1.49988H7.67V2.49988H16.34V1.49988ZM7.67 1.49988C5.85361 1.49988 4.30059 2.14026 3.20267 3.28652C2.10653 4.43091 1.5 6.04149 1.5 7.91988H2.5C2.5 6.25826 3.03347 4.90884 3.92483 3.97824C4.81441 3.0495 6.09639 2.49988 7.67 2.49988V1.49988ZM1.5 7.91988V16.0909H2.5V7.91988H1.5ZM1.5 16.0909C1.5 17.9642 2.10678 19.572 3.20289 20.7148C4.30076 21.8595 5.85363 22.4999 7.67 22.4999V21.4999C6.09637 21.4999 4.81424 20.9502 3.92461 20.0227C3.03322 19.0933 2.5 17.7466 2.5 16.0909H1.5ZM7.67 22.4999H16.34V21.4999H7.67V22.4999ZM16.34 22.4999C18.1565 22.4999 19.7071 21.8594 20.8025 20.7144C21.8961 19.5713 22.5 17.9635 22.5 16.0909H21.5C21.5 17.7472 20.9689 19.0939 20.08 20.0231C19.1929 20.9503 17.9135 21.4999 16.34 21.4999V22.4999ZM22.5 16.0909V7.91988H21.5V16.0909H22.5ZM22.5 7.91988C22.5 6.0421 21.8964 4.43158 20.8028 3.28697C19.7073 2.14034 18.1565 1.49988 16.34 1.49988V2.49988C17.9135 2.49988 19.1928 3.04942 20.0797 3.97778C20.9686 4.90817 21.5 6.25765 21.5 7.91988H22.5Z" fill="#787c8f"/>
</svg>
