<svg width="24" height="24" viewBox="0 0 24 24" fill="none"
    xmlns="http://www.w3.org/2000/svg">
    <path fill-rule="evenodd" clip-rule="evenodd" d="M7.67 1.99988H16.34C19.73 1.99988 22 4.37988 22 7.91988V16.0909C22 19.6199 19.73 21.9999 16.34 21.9999H7.67C4.28 21.9999 2 19.6199 2 16.0909V7.91988C2 4.37988 4.28 1.99988 7.67 1.99988ZM11.4299 14.9899L16.1799 10.2399C16.5199 9.89987 16.5199 9.34987 16.1799 8.99987C15.8399 8.65987 15.2799 8.65987 14.9399 8.99987L10.8099 13.1299L9.05994 11.3799C8.71994 11.0399 8.15994 11.0399 7.81994 11.3799C7.47994 11.7199 7.47994 12.2699 7.81994 12.6199L10.1999 14.9899C10.3699 15.1599 10.5899 15.2399 10.8099 15.2399C11.0399 15.2399 11.2599 15.1599 11.4299 14.9899Z" fill="#787c8f"/>
</svg>
