<svg width="16" height="17" viewBox="0 0 16 17" fill="none"
    xmlns="http://www.w3.org/2000/svg">
    <path d="M8 1.83331C4.31334 1.83331 1.33334 4.81331 1.33334 8.49998C1.33334 12.1866 4.31334 15.1666 8 15.1666C11.6867 15.1666 14.6667 12.1866 14.6667 8.49998C14.6667 4.81331 11.6867 1.83331 8 1.83331ZM10.8667 11.3666C10.6067 11.6266 10.1867 11.6266 9.92667 11.3666L8 9.43998L6.07334 11.3666C5.81334 11.6266 5.39334 11.6266 5.13334 11.3666C4.87334 11.1066 4.87334 10.6866 5.13334 10.4266L7.06 8.49998L5.13334 6.57331C4.87334 6.31331 4.87334 5.89331 5.13334 5.63331C5.39334 5.37331 5.81334 5.37331 6.07334 5.63331L8 7.55998L9.92667 5.63331C10.1867 5.37331 10.6067 5.37331 10.8667 5.63331C11.1267 5.89331 11.1267 6.31331 10.8667 6.57331L8.94 8.49998L10.8667 10.4266C11.12 10.68 11.12 11.1066 10.8667 11.3666Z" fill="#787c8f"/>
</svg>
