<svg width="20" height="21" viewBox="0 0 20 21" fill="none"
    xmlns="http://www.w3.org/2000/svg">
    <path fill-rule="evenodd" clip-rule="evenodd" d="M16.4675 10.5008C16.4675 11.1787 17.0241 11.7303 17.7083 11.7303C18.0533 11.7303 18.3333 12.0078 18.3333 12.3496V14.5799C18.3333 16.4658 16.785 18 14.8816 18H5.11913C3.21579 18 1.66663 16.4658 1.66663 14.5799V12.3496C1.66663 12.0078 1.94663 11.7303 2.29163 11.7303C2.97663 11.7303 3.53329 11.1787 3.53329 10.5008C3.53329 9.84025 2.99913 9.34317 2.29163 9.34317C2.12579 9.34317 1.96746 9.27794 1.84996 9.16151C1.73246 9.04508 1.66663 8.88737 1.66663 8.72388L1.66829 6.42095C1.66829 4.53501 3.21663 3 5.11996 3H14.88C16.7833 3 18.3325 4.53501 18.3325 6.42095L18.3333 8.65204C18.3333 8.81553 18.2675 8.97407 18.1508 9.08967C18.0333 9.2061 17.875 9.27133 17.7083 9.27133C17.0241 9.27133 16.4675 9.82291 16.4675 10.5008ZM11.8766 11.04L12.8591 10.0921C13.03 9.92859 13.0891 9.68748 13.015 9.46453C12.9416 9.24159 12.75 9.08305 12.5183 9.05085L11.1608 8.85433L10.5533 7.63557C10.4491 7.42583 10.2375 7.29537 10.0016 7.29455H9.99997C9.76497 7.29455 9.5533 7.42501 9.44747 7.63474L8.83997 8.85433L7.48497 9.05002C7.2508 9.08305 7.05913 9.24159 6.98497 9.46453C6.91163 9.68748 6.9708 9.92859 7.1408 10.0921L8.1233 11.04L7.89163 12.3801C7.85163 12.6113 7.9458 12.8409 8.13747 12.9788C8.2458 13.0556 8.37163 13.0952 8.49913 13.0952C8.59663 13.0952 8.69497 13.0713 8.78497 13.0242L9.99997 12.3917L11.2125 13.0226C11.4225 13.134 11.6716 13.1167 11.8625 12.978C12.055 12.8409 12.1491 12.6113 12.1091 12.3801L11.8766 11.04Z" fill="#787c8f"/>
</svg>
