<svg width="20" height="21" viewBox="0 0 20 21" fill="none"
    xmlns="http://www.w3.org/2000/svg">
    <mask id="mask0_480_29636" style="mask-type:alpha" maskUnits="userSpaceOnUse" x="1" y="3" width="18" height="16">
        <path fill-rule="evenodd" clip-rule="evenodd" d="M1.66663 3H18.3333V18.1383H1.66663V3Z" fill="white"/>
    </mask>
    <g mask="url(#mask0_480_29636)">
        <path fill-rule="evenodd" clip-rule="evenodd" d="M2.91663 12.9825V14.6867C2.91663 15.275 3.14496 15.8275 3.56079 16.2433C3.97663 16.6592 4.52996 16.8883 5.11746 16.8883H14.8808C16.0941 16.8883 17.0825 15.9017 17.0833 14.6883V12.9817C16.0116 12.7042 15.2175 11.7283 15.2166 10.5708C15.2166 9.41333 16.0108 8.4375 17.0825 8.15917L17.0833 6.455C17.0841 5.24 16.0983 4.25083 14.8841 4.25H5.11996C3.90579 4.25 2.91746 5.2375 2.91663 6.45167V8.21583C3.32163 8.3125 3.69746 8.51167 4.00996 8.80333C4.48413 9.24583 4.75746 9.84583 4.78079 10.4942C4.78329 11.7158 3.98913 12.7025 2.91663 12.9825ZM14.8808 18.1383H5.11829C4.19579 18.1383 3.32913 17.78 2.67663 17.1275C2.02496 16.475 1.66663 15.6083 1.66663 14.6867V12.4367C1.66663 12.0917 1.94663 11.8117 2.29163 11.8117C2.97829 11.8108 3.53329 11.2542 3.53246 10.5708C3.52079 10.2225 3.38746 9.9325 3.15746 9.7175C2.92829 9.5025 2.63163 9.385 2.31329 9.4025C2.14079 9.40417 1.97913 9.345 1.85746 9.2275C1.73579 9.11 1.66663 8.94667 1.66663 8.7775V6.4525C1.66746 4.54833 3.21663 3 5.11996 3H14.88C16.7883 3.00083 18.335 4.5525 18.3333 6.45583V8.705C18.3333 9.05 18.0533 9.33 17.7083 9.33C17.0241 9.33 16.4666 9.88667 16.4666 10.57C16.4675 11.255 17.0241 11.8117 17.7083 11.8117C18.0533 11.8117 18.3333 12.0917 18.3333 12.4367V14.6867C18.3325 16.59 16.7833 18.1383 14.8808 18.1383Z" fill="#787c8f"/>
    </g>
    <path fill-rule="evenodd" clip-rule="evenodd" d="M8.41986 9.98452L8.84402 10.3979C9.07402 10.6237 9.17819 10.9454 9.12319 11.2595L9.02319 11.8412L9.54736 11.5654C9.82986 11.4145 10.169 11.4154 10.454 11.567L10.9749 11.8404L10.8749 11.2579C10.8224 10.9387 10.9274 10.6195 11.1549 10.3979L11.579 9.98452L10.9915 9.89952C10.6765 9.85368 10.4032 9.65535 10.2624 9.36785L9.99986 8.83702L9.73736 9.36868C9.59652 9.65535 9.32319 9.85368 9.00652 9.89952L8.41986 9.98452ZM11.3482 13.3229C11.1932 13.3229 11.0382 13.2854 10.8949 13.2095L9.99986 12.7404L9.10402 13.2104C8.77402 13.3829 8.38152 13.3554 8.08152 13.137C7.78069 12.9179 7.63319 12.5545 7.69569 12.1879L7.86652 11.1912L7.14236 10.4854C6.87652 10.2262 6.78152 9.84535 6.89569 9.49202C7.01069 9.13785 7.31069 8.88368 7.67819 8.83035L8.68152 8.68368L9.12902 7.77618C9.29319 7.44285 9.62652 7.23535 9.99986 7.23535C10.3715 7.23535 10.7057 7.44285 10.8699 7.77702L11.3182 8.68368L12.3199 8.83035C12.6882 8.88368 12.989 9.13785 13.1032 9.49202C13.2174 9.84535 13.1232 10.2262 12.8565 10.4862L12.1315 11.192L12.3032 12.1879C12.3657 12.5554 12.2174 12.9195 11.9157 13.1379C11.7457 13.2604 11.5474 13.3229 11.3482 13.3229Z" fill="#787c8f"/>
</svg>
