<svg width="16" height="16" viewBox="0 0 16 16" fill="none"
    xmlns="http://www.w3.org/2000/svg">
    <path fill-rule="evenodd" clip-rule="evenodd" d="M11.583 2.54605L10.4704 11.4463H2.42712C2.32872 11.4463 2.244 11.408 2.17887 11.3343C2.11375 11.2605 2.08634 11.1717 2.09856 11.074L2.21991 10.1045H0.529812C0.237219 10.1045 0 9.8673 0 9.5747C0 9.28211 0.237219 9.04489 0.529844 9.04486H3.22125C3.51384 9.04486 3.75106 8.80764 3.75106 8.51505C3.75106 8.22245 3.51384 7.98523 3.22125 7.98523H2.86034C2.65997 7.98523 2.50691 7.81183 2.53178 7.61298L2.6105 6.97908H2.31775C2.02516 6.97908 1.78794 6.74186 1.78794 6.44926C1.78794 6.15664 2.02516 5.91942 2.31775 5.91942H5.45672C5.74931 5.91942 5.98653 5.6822 5.98653 5.38961C5.98653 5.09702 5.74931 4.8598 5.45672 4.8598H3.25153C3.15312 4.8598 3.06841 4.82158 3.00328 4.7478C2.93816 4.67401 2.91075 4.5852 2.92297 4.48755L3.07994 3.23345H1.66372C1.37109 3.23345 1.13387 2.99627 1.13387 2.70364C1.13387 2.41105 1.37112 2.17383 1.66372 2.17383H11.2544C11.3528 2.17383 11.4375 2.21205 11.5026 2.28583C11.5678 2.35961 11.5952 2.44839 11.583 2.54605ZM14.7427 4.27277H12.4345L11.5378 11.4463H15.5105L15.9966 7.55676C15.999 7.53795 16.0001 7.52776 16 7.52617C15.9997 7.52361 15.998 7.51717 15.9946 7.50676L14.9957 4.39108C14.9864 4.36211 14.9659 4.33739 14.9374 4.31905C14.8912 4.28933 14.8246 4.27277 14.7427 4.27277ZM11.9217 12.5059H14.4365C14.4373 12.5261 14.4378 12.5466 14.4378 12.5676C14.4378 12.9152 14.2969 13.2299 14.0692 13.4577C13.8414 13.6854 13.5268 13.8263 13.1791 13.8263C12.8315 13.8263 12.5168 13.6854 12.2891 13.4577C12.0613 13.2299 11.9205 12.9152 11.9205 12.5676C11.9205 12.5466 11.9209 12.5261 11.9217 12.5059ZM3.61694 12.5059H6.13165C6.1325 12.5261 6.13294 12.5466 6.13297 12.5676C6.13297 12.9152 5.99212 13.2299 5.76437 13.4577C5.53662 13.6854 5.22194 13.8263 4.87431 13.8263C4.52669 13.8263 4.21203 13.6854 3.98428 13.4577C3.75653 13.2299 3.61566 12.9152 3.61566 12.5676C3.61566 12.5466 3.61606 12.5261 3.61694 12.5059ZM8.74156 8.51508C8.74156 8.22248 8.50434 7.98526 8.21172 7.98526H5.63234C5.33975 7.98526 5.10253 8.22248 5.10253 8.51508C5.10253 8.80767 5.33975 9.04489 5.63234 9.04489H8.21172C8.50434 9.04489 8.74156 8.80767 8.74156 8.51508Z" fill="#787c8f"/>
</svg>
