<?xml version="1.0" encoding="UTF-8" standalone="no"?>
<svg width="24" height="24" viewBox="0 0 24 24" fill="none" version="1.1" id="svg143" sodipodi:docname="Document.svg" inkscape:version="1.1.2 (b8e25be8, 2022-02-05)"
   xmlns:inkscape="http://www.inkscape.org/namespaces/inkscape"
   xmlns:sodipodi="http://sodipodi.sourceforge.net/DTD/sodipodi-0.dtd"
   xmlns="http://www.w3.org/2000/svg"
   xmlns:svg="http://www.w3.org/2000/svg">
   <path id="Stroke 4" style="color:#000000;clip-rule:evenodd;fill:#787c8f;fill-rule:evenodd;stroke-linecap:round;stroke-linejoin:round;-inkscape-stroke:none" d="m 15.908203,2 c 0,0 -1.919098,9.531e-4 -3.839844,0.00195 C 10.147614,2.00295 8.1414167,2.0039 8.21875,2.0039 a 0.750075,0.750075 0 0 0 -0.00391,0 C 6.6713115,2.01341 5.3340922,2.5439179 4.4101524,3.5039 3.4862165,4.4638883 3,5.8181815 3,7.3574219 v 9.1953121 c 0,1.546632 0.4884421,2.907449 1.4199219,3.869141 0.9314798,0.961692 2.2802357,1.488281 3.8359375,1.488281 a 0.750075,0.750075 0 0 0 0.00195,0 c 0,0 1.9172706,-0.0012 3.8378906,-0.002 1.920621,-7.5e-4 3.900802,-0.002 3.84961,-0.002 a 0.750075,0.750075 0 0 0 0.0059,0 c 1.543618,-0.0095 2.880545,-0.537866 3.804687,-1.498047 0.924143,-0.960181 1.410157,-2.316138 1.410157,-3.855469 V 7.3574219 C 21.166016,5.8107 20.675872,4.4499241 19.744141,3.4882813 18.812409,2.5266384 17.463905,2 15.908203,2 Z m 0,1.5 c 1.228296,0 2.133999,0.3853945 2.759766,1.03125 0.625766,0.6458555 0.998047,1.5888965 0.998047,2.8261719 v 9.1953121 c 0,1.230667 -0.369379,2.169386 -0.990235,2.814453 -0.620856,0.645068 -1.517996,1.031571 -2.734375,1.039063 -0.06778,2e-6 -1.927031,0.0012 -3.845703,0.002 -1.920621,7.5e-4 -3.8398436,0.002 -3.8398436,0.002 -1.2282955,0 -2.1322939,-0.385443 -2.7578125,-1.03125 C 4.8725282,18.733099 4.5,17.7901 4.5,16.552734 V 7.3574219 C 4.5,6.126665 4.8696756,5.1877351 5.4902344,4.5429687 6.1096843,3.8993545 7.0055953,3.5127389 8.21875,3.5039063 c 0.089333,0 1.928864,-9.532e-4 3.849609,-0.00195 C 13.989105,3.5009531 15.908203,3.5 15.908203,3.5 Z M 8.4960938,7.109375 a 0.75,0.75 0 0 0 -0.7500001,0.75 0.75,0.75 0 0 0 0.7500001,0.75 h 2.7558592 a 0.75,0.75 0 0 0 0.75,-0.75 0.75,0.75 0 0 0 -0.75,-0.75 z m 0,4.177734 a 0.75,0.75 0 0 0 -0.7500001,0.75 0.75,0.75 0 0 0 0.7500001,0.75 h 7.2207032 a 0.75,0.75 0 0 0 0.75,-0.75 0.75,0.75 0 0 0 -0.75,-0.75 z m 0,4.185547 a 0.75,0.75 0 0 0 -0.7500001,0.75 0.75,0.75 0 0 0 0.7500001,0.75 h 7.2207032 a 0.75,0.75 0 0 0 0.75,-0.75 0.75,0.75 0 0 0 -0.75,-0.75 z" />
</svg>
