<?xml version="1.0" encoding="UTF-8" standalone="no"?>
<svg width="20" height="20" viewBox="0 0 20 20" fill="none" version="1.1" id="svg15" sodipodi:docname="Edit.svg" inkscape:version="1.1.2 (b8e25be8, 2022-02-05)"
   xmlns:inkscape="http://www.inkscape.org/namespaces/inkscape"
   xmlns:sodipodi="http://sodipodi.sourceforge.net/DTD/sodipodi-0.dtd"
   xmlns="http://www.w3.org/2000/svg"
   xmlns:svg="http://www.w3.org/2000/svg">
   <defs id="defs19" />
   <path id="path13" style="color:#000000;fill:#787c8f;stroke-linecap:round;stroke-linejoin:round;-inkscape-stroke:none" d="M 8.6484375,5.2675781 A 0.75,0.75 0 0 0 8.1542969,5.5585937 0.75,0.75 0 0 0 8.3027344,6.609375 L 12.357422,9.6523438 A 0.75,0.75 0 0 0 13.40625,9.5019531 0.75,0.75 0 0 0 13.257813,8.453125 L 9.203125,5.4101562 A 0.75,0.75 0 0 0 8.6484375,5.2675781 Z m 2.7480465,-2.4375 c -0.833612,0.118877 -1.6224222,0.5537393 -2.1640621,1.2753906 0,0 -4.175766,5.5632554 -5.625,7.4941403 a 0.750075,0.750075 0 0 0 0,0.002 C 1.8435599,13.9528 3.4765625,16.748093 3.4765625,16.748093 a 0.750075,0.750075 0 0 0 0.484375,0.359375 c 0,0 3.1505059,0.765812 4.8984375,-1.564453 1.429347,-1.903595 5.626953,-7.49614 5.626953,-7.49614 C 15.569675,6.6034832 15.275714,4.5327546 13.832031,3.4492188 13.109987,2.9076854 12.230097,2.7112012 11.396484,2.8300781 Z m 0.210938,1.4746094 c 0.450536,-0.06425 0.926264,0.045284 1.324219,0.34375 0.794715,0.5964625 0.95212,1.7031009 0.355468,2.4980469 0,0 -4.1979822,5.5930456 -5.6269528,7.4960936 -0.9496214,1.265994 -2.5056628,1.091836 -3,1.017578 C 4.4459289,15.211269 3.8366014,13.793042 4.8066406,12.5 6.2557437,10.569289 10.433594,5.0058594 10.433594,5.0058594 10.731953,4.6083418 11.156886,4.3689379 11.607422,4.3046875 Z M 11.113281,15.505859 a 0.75,0.75 0 0 0 -0.75,0.75 0.75,0.75 0 0 0 0.75,0.75 h 5.314453 a 0.75,0.75 0 0 0 0.75,-0.75 0.75,0.75 0 0 0 -0.75,-0.75 z" />
</svg>
