<?xml version="1.0" encoding="UTF-8" standalone="no"?>
<svg width="24" height="25" viewBox="0 0 24 25" fill="none" version="1.1" id="svg13" sodipodi:docname="Heart.svg" inkscape:version="1.1.2 (b8e25be8, 2022-02-05)"
   xmlns:inkscape="http://www.inkscape.org/namespaces/inkscape"
   xmlns:sodipodi="http://sodipodi.sourceforge.net/DTD/sodipodi-0.dtd"
   xmlns="http://www.w3.org/2000/svg"
   xmlns:svg="http://www.w3.org/2000/svg">
   <defs id="defs17" />
   <sodipodi:namedview id="namedview15" pagecolor="#ffffff" bordercolor="#666666" borderopacity="1.0" inkscape:pageshadow="2" inkscape:pageopacity="0.0" inkscape:pagecheckerboard="0" showgrid="false" inkscape:zoom="28.76" inkscape:cx="11.995828" inkscape:cy="12.5" inkscape:window-width="1871" inkscape:window-height="1147" inkscape:window-x="49" inkscape:window-y="25" inkscape:window-maximized="1" inkscape:current-layer="svg13" />
   <path id="path11" style="color:#000000;fill:#787c8f;stroke-linecap:round;stroke-linejoin:round;-inkscape-stroke:none" d="m 16.230469,6.4863281 a 0.75,0.75 0 0 0 -0.94336,0.4824219 0.75,0.75 0 0 0 0.482422,0.9453125 c 0.783986,0.2535133 1.333716,0.9481859 1.400391,1.7695313 a 0.75,0.75 0 0 0 0.808594,0.6855472 0.75,0.75 0 0 0 0.685546,-0.8085941 C 18.548737,8.1398945 17.58648,6.9248142 16.230469,6.4863281 Z M 9.5273438,2.84375 C 8.4770321,2.6661215 7.3825956,2.7357668 6.3398437,3.0722656 4.3713998,3.706399 2.9969527,5.1308759 2.3046875,6.828125 1.6124223,8.5253741 1.5704931,10.491301 2.1582031,12.326172 a 0.750075,0.750075 0 0 0 0,0.002 c 0.941812,2.931294 3.3287658,5.342295 5.4511719,7.066406 2.1224061,1.724112 4.03125,2.761719 4.03125,2.761719 a 0.750075,0.750075 0 0 0 0.720703,0 c 0,0 1.92021,-1.053665 4.048828,-2.785156 2.128222,-1.73117 4.516948,-4.138456 5.431641,-7.044922 v -0.002 C 22.428481,10.4894 22.381825,8.522646 21.6875,6.8261719 20.992938,5.1291181 19.618677,3.7063481 17.650391,3.0722656 a 0.750075,0.750075 0 0 0 -0.002,0 C 15.719834,2.4534009 13.631441,2.8481731 12.001953,3.90625 11.233703,3.4137088 10.416232,2.9940785 9.5273438,2.84375 Z m -0.25,1.4804687 C 10.095045,4.46259 10.878059,4.7922715 11.548828,5.296875 a 0.750075,0.750075 0 0 0 0.910156,-0.00586 C 13.699657,4.3317325 15.589281,3.9872644 17.189453,4.5 c 1.548711,0.4989164 2.563641,1.5563431 3.111328,2.8945312 0.547687,1.3381882 0.59601,2.9599878 0.111328,4.4746098 a 0.750075,0.750075 0 0 0 0,0.0039 c -0.755683,2.402803 -2.929887,4.692979 -4.947265,6.333984 -1.828189,1.487112 -3.172345,2.220846 -3.466797,2.386719 C 11.704117,20.429341 10.37684,19.709086 8.5566406,18.230469 6.5465358,16.597584 4.3701238,14.309841 3.5859375,11.869141 3.1006486,10.354035 3.1476258,8.7325241 3.6933594,7.3945312 4.239093,6.0565384 5.2522287,4.9988655 6.8007812,4.5 7.6080276,4.2394994 8.4596422,4.1858475 9.2773438,4.3242187 Z" />
</svg>
