<svg id="svg"
    xmlns="http://www.w3.org/2000/svg"
    xmlns:xlink="http://www.w3.org/1999/xlink" width="400" height="400" viewBox="0, 0, 400,400">
    <path id="path0" d="M186.417 54.021 C 73.070 64.011,14.485 196.022,82.670 287.795 C 144.776 371.387,273.439 364.227,326.415 274.231 C 386.738 171.754,305.232 43.548,186.417 54.021 M213.302 77.385 C 316.532 90.211,360.110 214.063,287.086 287.086 C 213.956 360.217,89.199 316.059,77.377 212.859 C 68.572 135.998,136.905 67.893,213.302 77.385 M190.025 114.098 C 162.371 119.048,134.084 155.030,150.148 164.824 C 157.428 169.262,165.068 166.200,169.591 157.031 C 184.502 126.807,226.831 131.770,232.886 164.453 C 235.423 178.150,230.730 186.642,212.732 200.925 C 192.171 217.241,184.026 234.802,194.506 240.221 C 201.977 244.085,209.333 239.794,216.069 227.644 C 219.045 222.276,224.513 216.392,240.308 201.563 C 252.406 190.203,256.250 182.490,256.250 169.574 C 256.250 135.272,223.765 108.060,190.025 114.098 M194.470 265.058 C 188.463 269.106,186.648 275.470,190.058 280.530 C 195.387 288.439,204.028 288.644,209.694 280.997 C 216.419 271.921,203.836 258.746,194.470 265.058 " stroke="none" fill="#787c8f" fill-rule="evenodd"></path>
</svg>
