<svg width="20" height="20" viewBox="0 0 20 20" fill="none"
    xmlns="http://www.w3.org/2000/svg">
    <path d="M9.99984 1.66663C14.6023 1.66663 18.3332 5.39746 18.3332 9.99996C18.3332 14.6025 14.6023 18.3333 9.99984 18.3333C5.67819 18.3333 2.12507 15.0439 1.70753 10.8321C1.66213 10.3741 2.0396 9.99996 2.49984 9.99996C2.96007 9.99996 3.32771 10.3749 3.38455 10.8316C3.79395 14.1209 6.59981 16.6666 9.99984 16.6666C13.6815 16.6666 16.6665 13.6816 16.6665 9.99996C16.6665 6.31829 13.6815 3.33329 9.99984 3.33329C7.70817 3.33329 5.6865 4.48913 4.48734 6.24996H5.83317C6.29341 6.24996 6.6665 6.62306 6.6665 7.08329C6.6665 7.54353 6.29341 7.91663 5.83317 7.91663H2.49984C2.0396 7.91663 1.6665 7.54353 1.6665 7.08329V3.74996C1.6665 3.28972 2.0396 2.91663 2.49984 2.91663C2.96007 2.91663 3.33317 3.28972 3.33317 3.74996V4.99996C4.85317 2.97496 7.274 1.66663 9.99984 1.66663ZM9.99984 5.83329C10.4601 5.83329 10.8332 6.20639 10.8332 6.66663V9.65413L12.9462 11.7671C13.2717 12.0927 13.2717 12.6206 12.9462 12.9461C12.6205 13.2718 12.0925 13.2717 11.767 12.946L9.1665 10.3441V6.66663C9.1665 6.20639 9.5396 5.83329 9.99984 5.83329Z" fill="#787c8f"/>
    <path fill-rule="evenodd" clip-rule="evenodd" d="M4.17219 6.41663L4.34958 6.15615C5.57849 4.35164 7.65076 3.16663 9.99984 3.16663C13.7736 3.16663 16.8332 6.22625 16.8332 9.99996C16.8332 13.7737 13.7736 16.8333 9.99984 16.8333C6.51468 16.8333 3.63881 14.2238 3.21916 10.8522C3.17108 10.4659 2.86346 10.1666 2.49984 10.1666C2.12671 10.1666 1.8388 10.4668 1.87338 10.8157C2.28256 14.943 5.76472 18.1666 9.99984 18.1666C14.5103 18.1666 18.1665 14.5104 18.1665 9.99996C18.1665 5.48951 14.5103 1.83329 9.99984 1.83329C7.3286 1.83329 4.95631 3.11519 3.46646 5.10001L3.1665 5.49963V3.74996C3.1665 3.38177 2.86803 3.08329 2.49984 3.08329C2.13165 3.08329 1.83317 3.38177 1.83317 3.74996V7.08329C1.83317 7.45148 2.13165 7.74996 2.49984 7.74996H5.83317C6.20136 7.74996 6.49984 7.45148 6.49984 7.08329C6.49984 6.7151 6.20136 6.41663 5.83317 6.41663H4.17219ZM10.6665 9.72316V6.66663C10.6665 6.29844 10.368 5.99996 9.99984 5.99996C9.63165 5.99996 9.33317 6.29844 9.33317 6.66663V10.2751L11.8849 12.8282C12.1453 13.0888 12.5678 13.0888 12.8283 12.8283C13.0888 12.5678 13.0888 12.1455 12.8283 11.885L10.6665 9.72316ZM9.1665 10.3441V6.66663C9.1665 6.20639 9.5396 5.83329 9.99984 5.83329C10.4601 5.83329 10.8332 6.20639 10.8332 6.66663V9.65413L12.9462 11.7671C13.2717 12.0927 13.2717 12.6206 12.9462 12.9461C12.6205 13.2718 12.0925 13.2717 11.767 12.946L9.1665 10.3441ZM3.33317 3.74996C3.33317 3.28972 2.96007 2.91663 2.49984 2.91663C2.0396 2.91663 1.6665 3.28972 1.6665 3.74996V7.08329C1.6665 7.54353 2.0396 7.91663 2.49984 7.91663H5.83317C6.29341 7.91663 6.6665 7.54353 6.6665 7.08329C6.6665 6.62306 6.29341 6.24996 5.83317 6.24996H4.48734C4.5256 6.19378 4.56469 6.13822 4.60461 6.08329C5.81578 4.41655 7.78128 3.33329 9.99984 3.33329C13.6815 3.33329 16.6665 6.31829 16.6665 9.99996C16.6665 13.6816 13.6815 16.6666 9.99984 16.6666C6.59981 16.6666 3.79395 14.1209 3.38455 10.8316C3.32771 10.3749 2.96007 9.99996 2.49984 9.99996C2.0396 9.99996 1.66213 10.3741 1.70753 10.8321C2.12507 15.0439 5.67819 18.3333 9.99984 18.3333C14.6023 18.3333 18.3332 14.6025 18.3332 9.99996C18.3332 5.39746 14.6023 1.66663 9.99984 1.66663C7.37158 1.66663 5.02688 2.88297 3.49984 4.78528C3.44315 4.8559 3.38758 4.92747 3.33317 4.99996V3.74996Z" fill="#787c8f"/>
</svg>
