<?xml version="1.0" encoding="UTF-8" standalone="no"?>
<svg width="24" height="24" viewBox="0 0 24 24" fill="none" version="1.1" id="svg11" sodipodi:docname="Home.svg" inkscape:version="1.1.2 (b8e25be8, 2022-02-05)"
   xmlns:inkscape="http://www.inkscape.org/namespaces/inkscape"
   xmlns:sodipodi="http://sodipodi.sourceforge.net/DTD/sodipodi-0.dtd"
   xmlns="http://www.w3.org/2000/svg"
   xmlns:svg="http://www.w3.org/2000/svg">
   <path id="path9" style="color:#000000;fill:#787c8f;stroke-linecap:round;stroke-linejoin:round;-inkscape-stroke:none" d="m 11.986328,1.2519531 c -0.863023,0 -1.727482,0.2813818 -2.439453,0.8457032 a 0.750075,0.750075 0 0 0 -0.00195,0.00195 L 2.9921875,7.3574219 3.0097656,7.3457031 C 2.2269066,7.938894 1.7596893,8.8595221 1.75,9.8398438 a 0.750075,0.750075 0 0 0 0,0.00781 V 18.5625 c 0,2.308314 1.9033575,4.1875 4.2226562,4.1875 h 1.9238282 c 0.87636,0 1.5051261,-0.642669 1.765625,-1.4375 A 0.75,0.75 0 0 0 9.90625,20.771484 v -3.066406 c -9.6e-6,-0.3725 0.291337,-0.667359 0.679688,-0.669922 h 2.880859 c 0.390324,0 0.683594,0.295538 0.683594,0.669922 v 3.076172 c -3.22e-4,1.065563 0.871681,1.94409 1.935546,1.96875 a 0.750075,0.750075 0 0 0 0.01758,0 h 1.923828 C 20.346619,22.75 22.25,20.870819 22.25,18.5625 V 9.8378906 a 0.750075,0.750075 0 0 0 0,-0.00977 C 22.23665,8.8504462 21.772638,7.9324415 20.994141,7.3378906 l -6.56836,-5.2382812 a 0.750075,0.750075 0 0 0 -0.002,-0.00195 C 13.711857,1.5333349 12.849352,1.2519531 11.986328,1.2519531 Z m 0,1.4960938 c 0.532725,0 1.065032,0.1759829 1.50586,0.5253906 l 6.578124,5.2460938 a 0.750075,0.750075 0 0 0 0.01172,0.00977 c 0.4165,0.3180838 0.660918,0.8020153 0.667968,1.318355 V 18.5625 c 0,1.489477 -1.205935,2.6875 -2.722656,2.6875 h -1.90625 c -0.273533,-0.0063 -0.470782,-0.209714 -0.470703,-0.46875 v -3.076172 c 0,-1.193214 -0.990719,-2.169922 -2.183594,-2.169922 h -2.886719 a 0.750075,0.750075 0 0 0 -0.0039,0 c -1.1874079,0.0078 -2.1699524,0.982224 -2.169922,2.169922 v 3.023438 a 0.75,0.75 0 0 0 -0.017578,0.04297 c 0,0.269053 -0.2081022,0.478516 -0.4921875,0.478516 H 5.9726562 C 4.4558989,21.25 3.25,20.051983 3.25,18.5625 V 9.8554688 C 3.25509,9.3404119 3.4973827,8.8567438 3.9140625,8.5410156 a 0.750075,0.750075 0 0 0 0.017578,-0.013672 L 10.478516,3.2734375 c 0.440827,-0.3494077 0.975087,-0.5253906 1.507812,-0.5253906 z" />
</svg>
