<svg id="svg"
    xmlns="http://www.w3.org/2000/svg"
    xmlns:xlink="http://www.w3.org/1999/xlink" width="400" height="400" viewBox="0, 0, 400,400">
    <g id="svgg">
        <path id="path0" d="M179.432 37.999 C 68.902 51.294,3.843 172.894,53.895 272.635 C 107.358 379.172,252.700 394.975,327.121 302.344 C 418.743 188.301,324.988 20.491,179.432 37.999 M204.478 61.691 C 225.726 71.337,248.438 134.787,248.438 184.500 L 248.438 188.281 199.883 188.281 L 151.328 188.281 151.868 178.711 C 155.522 113.926,183.323 52.088,204.478 61.691 M153.240 76.012 C 139.473 102.779,130.529 139.397,128.297 178.125 L 127.734 187.891 94.336 188.094 C 55.943 188.328,60.274 189.479,61.782 179.447 C 69.219 129.998,101.953 88.973,149.219 69.865 C 153.730 68.041,157.525 66.648,157.650 66.771 C 157.776 66.893,155.791 71.051,153.240 76.012 M257.525 72.754 C 300.820 91.665,333.593 136.322,338.732 183.407 L 339.266 188.298 305.766 188.094 L 272.266 187.891 271.728 178.516 C 269.413 138.192,259.814 99.873,245.403 73.438 C 243.647 70.215,242.205 67.320,242.198 67.004 C 242.186 66.355,247.064 68.185,257.525 72.754 M128.272 221.484 C 130.605 262.123,140.257 300.475,154.875 327.187 C 158.776 334.314,159.123 334.175,148.382 329.792 C 100.464 310.237,66.935 266.659,61.286 216.593 L 60.734 211.702 94.234 211.906 L 127.734 212.109 128.272 221.484 M248.132 221.289 C 244.556 284.700,217.294 346.661,196.471 338.708 C 175.468 330.687,155.007 276.813,151.868 221.267 L 151.328 211.719 200.000 211.719 L 248.672 211.719 248.132 221.289 M339.059 213.477 C 338.994 249.976,307.898 298.818,271.008 320.363 C 262.313 325.441,242.188 334.406,242.188 333.201 C 242.188 333.023,244.260 328.849,246.793 323.924 C 260.392 297.483,269.719 259.574,271.518 223.438 C 271.785 218.066,272.140 213.232,272.306 212.695 C 272.541 211.934,279.934 211.719,305.835 211.719 L 339.063 211.719 339.059 213.477 " stroke="none" fill="#787c8f" fill-rule="evenodd"></path>
    </g>
</svg>
