<?xml version="1.0" encoding="UTF-8" standalone="no"?>
<svg width="24" height="24" viewBox="0 0 24 24" fill="none" version="1.1" id="svg14" sodipodi:docname="Lock.svg" inkscape:version="1.1.2 (b8e25be8, 2022-02-05)"
   xmlns:inkscape="http://www.inkscape.org/namespaces/inkscape"
   xmlns:sodipodi="http://sodipodi.sourceforge.net/DTD/sodipodi-0.dtd"
   xmlns="http://www.w3.org/2000/svg"
   xmlns:svg="http://www.w3.org/2000/svg">
   <path id="Stroke 5" style="color:#000000;fill:#787c8f;stroke-linecap:round;stroke-linejoin:round;-inkscape-stroke:none" d="m 11.863281,13.453125 a 0.75,0.75 0 0 0 -0.75,0.75 v 2.220703 a 0.75,0.75 0 0 0 0.75,0.75 0.75,0.75 0 0 0 0.75,-0.75 v -2.220703 a 0.75,0.75 0 0 0 -0.75,-0.75 z M 8.0429688,8.6269531 C 5.543754,8.6269531 3.5,10.669674 3.5,13.169922 v 4.287109 C 3.5,19.957279 5.5437659,22 8.0429688,22 h 7.6406252 c 2.499203,0 4.541015,-2.042721 4.541015,-4.542969 v -4.287109 c 0,-2.500248 -2.0418,-4.5429689 -4.541015,-4.5429689 z m 0,1.4999999 h 7.6406252 c 1.688781,0 3.041015,1.353221 3.041015,3.042969 v 4.287109 c 0,1.689748 -1.352222,3.042969 -3.041015,3.042969 H 8.0429688 C 6.3541758,20.5 5,19.146779 5,17.457031 V 13.169922 C 5,11.480174 6.3541877,10.126953 8.0429688,10.126953 Z M 11.873047,2 C 8.9556747,1.9883159 6.5655042,4.3588675 6.5527344,7.2773437 a 0.750075,0.750075 0 0 0 0,0.00391 v 0.019531 2.1464844 a 0.75,0.75 0 0 0 0.75,0.7499999 0.75,0.75 0 0 0 0.75,-0.7499999 V 7.3007812 7.2851562 7.28125 C 8.0640921,5.1742672 9.7627361,3.4907798 11.869141,3.5 a 0.750075,0.750075 0 0 0 0.0039,0 c 2.107506,0 3.800781,1.6932748 3.800781,3.8007812 v 2.1464844 a 0.75,0.75 0 0 0 0.75,0.7500004 0.75,0.75 0 0 0 0.75,-0.7500004 V 7.3007812 C 17.173828,4.3829576 14.792579,2.0010851 11.875,2 Z" />
</svg>
