<?xml version="1.0" encoding="UTF-8" standalone="no"?>
<svg width="32" height="32" viewBox="0 0 32 32" fill="none" version="1.1" id="svg134" sodipodi:docname="Logo.svg" inkscape:version="1.1.2 (b8e25be8, 2022-02-05)"
   xmlns:inkscape="http://www.inkscape.org/namespaces/inkscape"
   xmlns:sodipodi="http://sodipodi.sourceforge.net/DTD/sodipodi-0.dtd"
   xmlns="http://www.w3.org/2000/svg"
   xmlns:svg="http://www.w3.org/2000/svg">
   <defs id="defs138" />
   <sodipodi:namedview id="namedview136" pagecolor="#ffffff" bordercolor="#666666" borderopacity="1.0" inkscape:pageshadow="2" inkscape:pageopacity="0.0" inkscape:pagecheckerboard="0" showgrid="false" inkscape:zoom="22.46875" inkscape:cx="8.5229485" inkscape:cy="16.511822" inkscape:window-width="1570" inkscape:window-height="1022" inkscape:window-x="48" inkscape:window-y="25" inkscape:window-maximized="0" inkscape:current-layer="svg134" />
   <path id="path148" fill="#787c8f" d="m 30.8176,9.5443 -1.3641,5.4025 c -1.3995,5.7585 -5.8187,9.5104 -11.018,9.5104 h -6.9653 c -0.9644,0 -1.3234,-0.6195 -1.0415,-1.7486 L 15.5722,1.76829 c 0.2829,-1.132318 1.0041,-1.7540056 1.9653,-1.7540056 h 6.9771 C 29.7278,0.011018 32.2107,3.7749 30.8176,9.5443 Z M 22.5375,7.13485 H 20.7973 L 18.248,17.3497 h 1.7649 c 1.4863,0 2.5803,-0.9113 2.9608,-2.625 L 24.2178,9.76314 C 24.6293,8.04724 24.0517,7.13485 22.5322,7.13485 Z m 6.9212,7.79765 1.3588,-5.39922 C 32.2105,3.76388 29.7277,0 24.5198,0 h -6.9771 c -0.3909,0 -0.7421,0.10283 -1.0403,0.30102 -0.0641,0.036924 -0.126,0.077978 -0.1855,0.123097 L 16.3065,0.431124 16.2894,0.441441 C 16.202,0.487506 16.1185,0.540991 16.0392,0.60174 15.997,0.626517 15.9558,0.6531 15.9156,0.681468 15.8753,0.706364 15.836,0.73294 15.7976,0.761182 15.7439,0.791443 15.6918,0.824582 15.6412,0.860559 15.6034,0.88409 15.5664,0.909106 15.5303,0.935595 15.5204,0.941871 15.5107,0.948249 15.5009,0.954728 15.4651,0.97577 15.4299,0.998117 15.3954,1.02176 15.3357,1.05764 15.2779,1.09718 15.2222,1.14032 15.209,1.1482 15.1959,1.15625 15.1829,1.16448 c -0.0345,0.019 -0.0684,0.03916 -0.1016,0.06049 -0.0764,0.04281 -0.1496,0.09142 -0.2196,0.14573 -0.0351,0.0209 -0.0694,0.04306 -0.1031,0.06646 -0.0352,0.02148 -0.0698,0.04425 -0.1036,0.06829 -0.0417,0.0259 -0.0824,0.0536 -0.122,0.0831 L 14.5257,1.59334 C 14.4845,1.61711 14.4442,1.64259 14.4049,1.66976 14.3555,1.69955 14.3075,1.73184 14.261,1.76659 14.217,1.7917 14.1741,1.81874 14.1322,1.8477 14.082,1.87815 14.0332,1.9112 13.9858,1.94681 13.973,1.95533 13.9602,1.96403 13.9475,1.97291 13.9372,1.97932 13.9268,1.98584 13.9165,1.99247 13.8489,2.03024 13.7836,2.07256 13.721,2.11934 13.6903,2.13688 13.6601,2.15537 13.6304,2.17479 13.5698,2.20948 13.5111,2.24786 13.4545,2.28987 13.3911,2.32605 13.3298,2.36625 13.2708,2.41043 13.2613,2.41667 13.2518,2.423 13.2424,2.42943 13.2041,2.45229 13.1666,2.47665 13.13,2.50249 13.0951,2.52404 13.0609,2.54684 13.0275,2.5709 c -0.0203,0.0128 -0.0403,0.02603 -0.0601,0.0397 -0.0529,0.03192 -0.1043,0.06672 -0.154,0.10436 -0.0146,0.0097 -0.0291,0.01963 -0.0435,0.02979 l -0.006,0.00371 C 12.6845,2.79167 12.6084,2.84109 12.5357,2.89658 L 12.5262,2.90226 C 12.4394,2.94727 12.3564,2.99955 12.2775,3.05894 L 12.2533,3.07523 C 12.2075,3.1026 12.1628,3.13212 12.1193,3.16375 12.106,3.17231 12.0927,3.18106 12.0796,3.19 12.0399,3.21349 12.001,3.2386 11.963,3.26529 11.9193,3.29232 11.8766,3.32134 11.835,3.35232 11.7896,3.37827 11.7452,3.40629 11.702,3.43637 11.6549,3.46517 11.6091,3.49626 11.5645,3.52962 11.5124,3.55943 11.4618,3.59197 11.4127,3.62719 11.3974,3.63674 11.3823,3.64654 11.3673,3.65658 11.3185,3.6853 11.2709,3.71645 11.2247,3.74999 11.2023,3.76428 11.1802,3.7791 11.1584,3.79444 11.1365,3.80798 11.1148,3.82202 11.0934,3.83655 11.0438,3.86593 10.9955,3.89781 10.9486,3.93218 l -0.0172,0.01124 c -0.0465,0.02679 -0.0919,0.05577 -0.1361,0.0869 -0.0408,0.02521 -0.0807,0.05213 -0.1195,0.08077 -0.0379,0.0213 -0.075,0.04404 -0.1113,0.06818 C 10.4993,4.21726 10.4364,4.25954 10.3759,4.30606 10.338,4.32845 10.3009,4.3523 10.2646,4.37759 10.2207,4.40434 10.1778,4.43308 10.136,4.46378 10.0838,4.4932 10.033,4.52533 9.98378,4.56016 9.93902,4.58789 9.8954,4.6177 9.85296,4.64957 9.7995,4.68036 9.74758,4.71401 9.69728,4.75051 9.67039,4.76774 9.64392,4.78573 9.61788,4.80448 9.59771,4.81709 9.57778,4.83012 9.55809,4.84358 9.5418,4.85333 9.52566,4.86336 9.50968,4.87365 9.47824,4.89132 9.44732,4.90998 9.41695,4.92961 9.35059,4.96705 9.28658,5.00888 9.22505,5.05503 9.20565,5.06775 9.18647,5.08087 9.16751,5.09439 9.15176,5.1043 9.13614,5.11447 9.12067,5.1249 9.07739,5.15033 9.03514,5.17767 8.99396,5.20688 8.95227,5.23275 8.91157,5.26042 8.87189,5.28988 8.8203,5.31924 8.77013,5.35126 8.72146,5.38592 8.68004,5.41181 8.63961,5.43949 8.60019,5.46894 8.55686,5.49375 8.51454,5.52044 8.47327,5.549 8.42433,5.57862 8.37674,5.6107 8.33054,5.64521 8.28966,5.66859 8.24968,5.69364 8.21063,5.72035 8.16089,5.7501 8.11253,5.78238 8.06559,5.81716 8.00854,5.84941 7.95323,5.88491 7.89973,5.92362 7.88424,5.93357 7.86889,5.94378 7.85368,5.95424 7.83605,5.96474 7.81859,5.97556 7.80131,5.98669 7.73283,6.02523 7.66685,6.06843 7.6035,6.11624 7.59376,6.12268 7.58406,6.12923 7.57443,6.13588 7.53855,6.15755 7.50339,6.18054 7.46896,6.20484 7.43841,6.22374 7.40838,6.24362 7.3789,6.26445 7.35209,6.28106 7.32568,6.29842 7.29969,6.31651 7.24605,6.34921 7.19402,6.38487 7.14369,6.42347 L 7.12641,6.43522 C 7.11494,6.44214 7.10354,6.44919 7.09222,6.45637 7.02398,6.49414 6.95819,6.53652 6.89499,6.58344 6.86601,6.59997 6.83748,6.61735 6.80942,6.63556 6.75659,6.66552 6.70526,6.69828 6.65548,6.73378 6.62017,6.75569 6.58557,6.77888 6.5517,6.80337 6.53602,6.81334 6.52049,6.82358 6.50509,6.83408 6.45867,6.86164 6.41344,6.89141 6.36944,6.92334 6.35049,6.93546 6.33175,6.94795 6.31322,6.96082 6.26323,6.99123 6.21464,7.02422 6.16751,7.05975 5.72945,7.34842 5.40513,7.84219 5.23651,8.51776 L 0.0929085,29.4581 C -0.187846,30.5817 0.170063,31.2002 1.13449,31.2002 h 6.96743 c 2.13278,0 4.13428,-0.6313 5.84988,-1.7735 0.0801,-0.051 0.1595,-0.1032 0.2384,-0.1564 0.052,-0.0336 0.1038,-0.0677 0.1553,-0.1023 0.0912,-0.0562 0.1816,-0.1137 0.2713,-0.1727 0.1389,-0.0875 0.2761,-0.1782 0.4115,-0.2722 0.0371,-0.0242 0.0741,-0.0486 0.111,-0.0733 0.1107,-0.0693 0.2202,-0.1407 0.3285,-0.2142 0.0232,-0.0151 0.0464,-0.0303 0.0696,-0.0455 0.106,-0.0658 0.211,-0.1334 0.3149,-0.2029 0.1554,-0.097 0.3085,-0.1982 0.4593,-0.3033 l 0.0354,-0.0233 c 0.0461,-0.0298 0.092,-0.06 0.1377,-0.0905 l 0.0133,-0.0088 c 0.0329,-0.0211 0.0657,-0.0424 0.0984,-0.0639 0.055,-0.0354 0.1097,-0.0713 0.1642,-0.1078 0.0601,-0.0385 0.12,-0.0777 0.1794,-0.1175 l 0.0088,-0.0058 c 0.1409,-0.0867 0.28,-0.1767 0.4172,-0.27 0.0568,-0.0369 0.1133,-0.0745 0.1694,-0.1125 0.0379,-0.0246 0.0757,-0.0495 0.1133,-0.0746 0.039,-0.0255 0.0778,-0.0512 0.1164,-0.0772 l 0.0117,-0.0076 0.0193,-0.0126 c 0.0362,-0.0229 0.0721,-0.046 0.108,-0.0694 0.0919,-0.0573 0.183,-0.116 0.2733,-0.1762 0.1335,-0.0833 0.2654,-0.1697 0.3956,-0.2591 0.0531,-0.0341 0.1059,-0.0688 0.1585,-0.1039 0.09,-0.0576 0.1793,-0.1165 0.2678,-0.1769 l 0.0581,-0.0375 c 0.1501,-0.0933 0.2982,-0.1905 0.4442,-0.2914 0.0341,-0.0221 0.0681,-0.0444 0.102,-0.0669 0.0338,-0.022 0.0674,-0.0441 0.101,-0.0665 0.0705,-0.0449 0.1405,-0.0908 0.2101,-0.1374 0.1251,-0.0769 0.2488,-0.1563 0.3711,-0.2384 0.1256,-0.0792 0.2498,-0.1611 0.3724,-0.2457 0.0428,-0.0276 0.0854,-0.0556 0.1279,-0.0839 0.0419,-0.0273 0.0837,-0.055 0.1253,-0.0829 0.0515,-0.0332 0.1028,-0.0668 0.1539,-0.1009 0.0408,-0.0262 0.0814,-0.0526 0.1219,-0.0792 0.1186,-0.0733 0.2359,-0.149 0.3519,-0.227 0.0818,-0.0526 0.1629,-0.1063 0.2434,-0.1611 l 0.0515,-0.0347 c 0.036,-0.0233 0.0719,-0.0468 0.1076,-0.0706 0.0302,-0.0196 0.0602,-0.0393 0.0902,-0.0592 0.0791,-0.0504 0.1577,-0.1018 0.2357,-0.1543 0.0479,-0.0309 0.0956,-0.0622 0.143,-0.0939 l 0.041,-0.0269 c 0.0678,-0.0428 0.1351,-0.0864 0.202,-0.1308 0.0961,-0.0598 0.1914,-0.1212 0.2859,-0.1841 0.0767,-0.0499 0.1529,-0.1009 0.2284,-0.1528 l 0.0628,-0.0417 c 0.0489,-0.0314 0.0975,-0.0631 0.146,-0.0953 0.061,-0.0388 0.1217,-0.0782 0.1821,-0.1183 l 0.0317,-0.0207 c 0.0828,-0.052 0.1649,-0.1051 0.2463,-0.1593 0.1092,-0.0681 0.2172,-0.1383 0.3242,-0.2104 2.5307,-1.6333 4.458,-4.3663 5.2978,-7.822 z" />
</svg>
