<svg width="16" height="16" viewBox="0 0 16 16" fill="none"
    xmlns="http://www.w3.org/2000/svg">
    <path fill-rule="evenodd" clip-rule="evenodd" d="M6.46378 1.78872L9.99363 3.55364L14.2809 1.71643C14.3012 1.70773 14.3233 1.70421 14.3453 1.70618C14.3673 1.70814 14.3885 1.71554 14.4069 1.7277C14.4253 1.73986 14.4404 1.7564 14.4509 1.77584C14.4613 1.79529 14.4668 1.8172 14.4668 1.83928V11.7874C14.4668 12.2408 14.1966 12.6505 13.7799 12.8291L10.4897 14.2392C10.1833 14.3705 9.83462 14.3603 9.53644 14.2112L6.64264 12.7643C6.23925 12.5626 5.76751 12.5487 5.35296 12.7263L1.71931 14.2835C1.69902 14.2922 1.67689 14.2957 1.6549 14.2937C1.63292 14.2917 1.61176 14.2843 1.59334 14.2722C1.57491 14.26 1.55979 14.2435 1.54934 14.224C1.53889 14.2046 1.53343 14.1827 1.53345 14.1606V4.21247C1.53345 3.7591 1.80363 3.34936 2.22034 3.17077L5.5105 1.7607C5.81692 1.62938 6.16561 1.63963 6.46378 1.78872ZM10.4668 4.36605V13.2332L13.5334 11.9192V3.05199L10.4668 4.36605ZM6.46678 11.6329L9.53345 13.1662V4.367L6.46678 2.83367V11.6329ZM2.46678 12.9479L5.53345 11.6338V2.76665L2.46678 4.08072V12.9479Z" fill="#787c8f"/>
</svg>
