<?xml version="1.0" encoding="UTF-8" standalone="no"?>
<svg width="20" height="20" viewBox="0 0 20 20" fill="none" version="1.1" id="svg142" sodipodi:docname="Note.svg" inkscape:version="1.1.2 (b8e25be8, 2022-02-05)"
   xmlns:inkscape="http://www.inkscape.org/namespaces/inkscape"
   xmlns:sodipodi="http://sodipodi.sourceforge.net/DTD/sodipodi-0.dtd"
   xmlns="http://www.w3.org/2000/svg"
   xmlns:svg="http://www.w3.org/2000/svg">
   <defs id="defs146" />
   <path id="path140" style="color:#000000;fill:#787c8f;stroke-linecap:round;stroke-linejoin:round;-inkscape-stroke:none" d="m 13.003906,4.2714844 a 0.75,0.75 0 0 0 -1.058593,0.064453 0.75,0.75 0 0 0 0.06445,1.0605469 L 15.005856,8.048828 A 0.75,0.75 0 0 0 16.064453,7.984375 0.75,0.75 0 0 0 16,6.9257812 Z M 14.78125,2.34375 c -0.704211,0.042786 -1.392023,0.3524953 -1.892578,0.9179688 0,0 -3.6413139,4.1110162 -4.904297,5.5390625 C 6.3721666,10.620202 7.5292969,13.015625 7.5292969,13.015625 a 0.750075,0.750075 0 0 0 0.453125,0.394531 c 0,0 2.5212421,0.842542 4.1191411,-0.96289 1.24592,-1.406737 4.906249,-5.5390629 4.906249,-5.5390629 C 18.008988,5.7771828 17.901348,4.0265093 16.771484,3.0253906 16.206088,2.5249034 15.485461,2.3009636 14.78125,2.34375 Z m 0.08984,1.4882813 c 0.317227,-0.019257 0.642455,0.08533 0.904297,0.3164062 0.523535,0.4638798 0.573198,1.2416469 0.109375,1.765625 0,0 -3.660574,4.1326015 -4.90625,5.5390625 -0.72114,0.8148 -1.743486,0.660606 -2.1835941,0.570313 C 8.6468525,11.599482 8.3708417,10.626172 9.1074219,9.7949219 10.369436,8.367971 14.011719,4.2558594 14.011719,4.2558594 14.243663,3.9938337 14.553256,3.8513248 14.871094,3.8320313 Z M 10,1.5410156 c -2.97375,0 -5.1361553,0.4896622 -6.5527344,1.90625 C 2.0306866,4.8638535 1.5410156,7.0262209 1.5410156,10 c 0,2.973755 0.4896708,5.136154 1.90625,6.552734 1.4165793,1.416581 3.5789844,1.90625 6.5527344,1.90625 2.973803,0 5.136139,-0.489669 6.552734,-1.90625 1.416595,-1.41658 1.90625,-3.578979 1.90625,-6.552734 a 0.75,0.75 0 0 0 -0.75,-0.75 0.75,0.75 0 0 0 -0.75,0.75 c 0,2.807039 -0.474419,4.49982 -1.466796,5.492188 C 14.49981,16.484555 12.807091,16.958984 10,16.958984 c -2.8070342,0 -4.4998216,-0.47443 -5.4921875,-1.466796 C 3.5154466,14.499821 3.0410156,12.807039 3.0410156,10 c 0,-2.8070651 0.4744309,-4.4998153 1.4667969,-5.4921875 C 5.5001785,3.5154403 7.1929658,3.0410156 10,3.0410156 a 0.75,0.75 0 0 0 0.75,-0.75 0.75,0.75 0 0 0 -0.75,-0.75 z" />
</svg>
