<svg width="21" height="20" viewBox="0 0 21 20" fill="none"
    xmlns="http://www.w3.org/2000/svg">
    <path d="M5.67472 3.68667L13.6409 7.38527L11.5104 8.33131C10.9041 8.61002 10.0873 8.60159 9.48941 8.33974L3.13157 5.46013C3.53578 4.86883 4.12527 4.37918 4.84945 4.0582L5.67472 3.68667ZM16.1504 4.0582L12.4536 2.41177C11.8379 2.14022 11.1726 2 10.4999 2C9.82729 2 9.162 2.14022 8.54628 2.41177L7.20734 3.00283L15.1651 6.69315L17.8683 5.46032C17.4641 4.86883 16.8746 4.37906 16.1504 4.0582ZM2.6095 6.60844C2.5348 6.88936 2.49798 7.17905 2.5 7.46978V12.5703C2.5 14.0312 3.40106 15.3401 4.84945 15.9819L8.55468 17.6285C8.9708 17.8197 9.41395 17.945 9.86835 18V9.75821C9.56146 9.70696 9.2618 9.61905 8.97574 9.49637L2.6095 6.60844ZM18.3903 6.60844L12.0241 9.49637C11.7381 9.61905 11.4384 9.70696 11.1315 9.75821V18C11.5884 17.9439 12.0341 17.8186 12.4536 17.6285L16.1504 15.9818C17.5988 15.3401 18.4998 14.0311 18.4998 12.5703V7.46978C18.5019 7.17905 18.465 6.88936 18.3903 6.60844Z" fill="#787c8f"/>
</svg>
