<?xml version="1.0" encoding="UTF-8" standalone="no"?>
<svg width="24" height="24" viewBox="0 0 24 24" fill="none" version="1.1" id="svg15" sodipodi:docname="Paper.svg" inkscape:version="1.1.2 (b8e25be8, 2022-02-05)"
   xmlns:inkscape="http://www.inkscape.org/namespaces/inkscape"
   xmlns:sodipodi="http://sodipodi.sourceforge.net/DTD/sodipodi-0.dtd"
   xmlns="http://www.w3.org/2000/svg"
   xmlns:svg="http://www.w3.org/2000/svg">
   <path id="Stroke 7" style="color:#000000;fill:#787c8f;stroke-linecap:round;stroke-linejoin:round;-inkscape-stroke:none" d="m 8.8867188,10.855469 a 0.75,0.75 0 0 0 -0.75,0.75 0.75,0.75 0 0 0 0.75,0.75 h 3.3574222 a 0.75,0.75 0 0 0 0.75,-0.75 0.75,0.75 0 0 0 -0.75,-0.75 z m 0.00195,3.753906 a 0.75,0.75 0 0 0 -0.75,0.75 0.75,0.75 0 0 0 0.75,0.75 h 5.4003911 a 0.75,0.75 0 0 0 0.75,-0.75 0.75,0.75 0 0 0 -0.75,-0.75 z M 14.474609,2 a 0.75,0.75 0 0 0 -0.75,0.75 v 2.9082031 c 0,1.8242236 1.49227,3.3210335 3.316407,3.3261719 a 0.750075,0.750075 0 0 0 0.002,0 h 2.755859 a 0.75,0.75 0 0 0 0.75,-0.75 0.75,0.75 0 0 0 -0.75,-0.75 h -2.753906 -0.002 c -1.014931,-0.0039 -1.81836,-0.8110546 -1.81836,-1.8261719 V 2.75 A 0.75,0.75 0 0 0 14.474609,2 Z M 8.0839844,2.0117188 C 5.6056531,2.0043271 3.5603569,3.9946656 3.5019531,6.4726562 A 0.750075,0.750075 0 0 0 3.5,6.4902344 V 17.203125 l 0.00195,-0.01563 c -0.054819,2.518086 1.9563891,4.621721 4.4746094,4.677734 a 0.750075,0.750075 0 0 0 0.015625,0 c 0.014871,0 0.054499,0.002 0.1171875,0 h 7.9648441 a 0.750075,0.750075 0 0 0 0.0293,-0.002 c 2.49011,-0.101079 4.467056,-2.171535 4.449218,-4.664062 V 8.0371094 A 0.750075,0.750075 0 0 0 20.34375,7.5175781 L 15.279297,2.2421875 A 0.750075,0.750075 0 0 0 14.738281,2.0117188 H 8.0878906 Z m -0.00195,1.5 a 0.750075,0.750075 0 0 0 0.00195,0 h 6.3339846 l 4.634765,4.828125 v 8.8632812 a 0.750075,0.750075 0 0 0 0,0.0059 c 0.01216,1.699469 -1.31188,3.08733 -3.009765,3.15625 H 8.0839844 a 0.750075,0.750075 0 0 0 -0.023437,0 c 5.113e-4,-1.6e-5 -0.025428,1.06e-4 -0.050781,0 C 6.3019901,20.327248 4.9628188,18.928613 5,17.220703 a 0.750075,0.750075 0 0 0 0,-0.01758 V 6.5078125 C 5.0395648,4.8291353 6.4021581,3.5052577 8.0820313,3.5117188 Z" />
</svg>
