<svg width="14" height="14" viewBox="0 0 14 14" fill="none"
    xmlns="http://www.w3.org/2000/svg">
    <path fill-rule="evenodd" clip-rule="evenodd" d="M2.04166 6.01865C2.04166 3.3354 4.28393 1.16663 6.99617 1.16663C9.71607 1.16663 11.9583 3.3354 11.9583 6.01865C11.9583 7.37078 11.4666 8.62608 10.6572 9.69005C9.7643 10.8637 8.66376 11.8862 7.42498 12.6889C7.14146 12.8744 6.88559 12.8884 6.57443 12.6889C5.32859 11.8862 4.22805 10.8637 3.34279 9.69005C2.53282 8.62608 2.04166 7.37078 2.04166 6.01865ZM5.3633 6.16973C5.3633 7.06862 6.0968 7.7756 6.99617 7.7756C7.89614 7.7756 8.6367 7.06862 8.6367 6.16973C8.6367 5.27784 7.89614 4.53644 6.99617 4.53644C6.0968 4.53644 5.3633 5.27784 5.3633 6.16973Z" fill="#787c8f"/>
</svg>
