<?xml version="1.0" encoding="UTF-8" standalone="no"?>
<svg width="16" height="17" viewBox="0 0 16 17" fill="none" version="1.1" id="svg13" sodipodi:docname="Location.svg" inkscape:version="1.1.2 (b8e25be8, 2022-02-05)"
   xmlns:inkscape="http://www.inkscape.org/namespaces/inkscape"
   xmlns:sodipodi="http://sodipodi.sourceforge.net/DTD/sodipodi-0.dtd"
   xmlns="http://www.w3.org/2000/svg"
   xmlns:svg="http://www.w3.org/2000/svg">
   <defs id="defs17" />
   <path id="path11" style="color:#000000;clip-rule:evenodd;fill:#787c8f;fill-rule:evenodd;stroke-linecap:round;stroke-linejoin:round;-inkscape-stroke:none" d="m 8,1.0839844 c -3.5305775,0 -6.4160156,2.8478191 -6.4160156,6.3515625 0,2.2771138 1.3122613,4.3335111 2.6875,5.8515621 0.6876193,0.759026 1.3983682,1.383507 2.0195312,1.833985 0.3105815,0.225239 0.5980363,0.407127 0.8632813,0.542969 C 7.4195418,15.799904 7.6259796,15.916016 8,15.916016 c 0.3740204,0 0.5804433,-0.116118 0.8457031,-0.251953 0.2652599,-0.135836 0.5507131,-0.317733 0.8613282,-0.542969 0.6212297,-0.450472 1.3337687,-1.074962 2.0214847,-1.833985 1.37543,-1.518045 2.6875,-3.5744009 2.6875,-5.8515621 C 14.416016,3.9316871 11.530604,1.0839844 8,1.0839844 Z m 0,1.5 c 2.72909,0 4.916016,2.1677884 4.916016,4.8515625 0,1.6747248 -1.067117,3.4843261 -2.298828,4.8437501 -0.615856,0.679712 -1.2647829,1.247319 -1.7910161,1.628906 C 8.5630553,14.098996 8.3305675,14.24186 8.1621094,14.328125 7.9936513,14.41439 7.8523594,14.416016 8,14.416016 c 0.1476406,0 0.00632,-0.0016 -0.1621094,-0.08789 C 7.6694587,14.241865 7.4349548,14.098993 7.171875,13.908203 6.6457154,13.526623 5.9985769,12.959006 5.3828125,12.279297 4.1512838,10.919879 3.0839844,9.1103191 3.0839844,7.4355469 3.0839844,4.7516564 5.2709438,2.5839844 8,2.5839844 Z m 0,2.203125 c -1.4408287,0 -2.6386719,1.1651439 -2.6386719,2.6015625 0,1.4359657 1.1978432,2.6015625 2.6386719,2.6015625 1.440352,0 2.638672,-1.1656017 2.638672,-2.6015625 C 10.638672,5.9522582 9.440352,4.7871094 8,4.7871094 Z m 0,1.5 c 0.6453659,0 1.1386719,0.4916382 1.1386719,1.1015625 0,0.6088571 -0.493306,1.1015625 -1.1386719,1.1015625 -0.6464292,0 -1.1386719,-0.4927103 -1.1386719,-1.1015625 C 6.8613281,6.7787525 7.3535708,6.2871094 8,6.2871094 Z" />
</svg>
