<?xml version="1.0" encoding="UTF-8" standalone="no"?>
<svg width="22" height="22" viewBox="0 0 22 22" fill="none" version="1.1" id="svg103" sodipodi:docname="plus.svg" inkscape:version="1.1.2 (b8e25be8, 2022-02-05)"
   xmlns:inkscape="http://www.inkscape.org/namespaces/inkscape"
   xmlns:sodipodi="http://sodipodi.sourceforge.net/DTD/sodipodi-0.dtd"
   xmlns="http://www.w3.org/2000/svg"
   xmlns:svg="http://www.w3.org/2000/svg">
   <defs id="defs107" />
   <path d="M14.6667 11.9166H11.9167V14.6666C11.9167 15.1708 11.5042 15.5833 11 15.5833C10.4959 15.5833 10.0834 15.1708 10.0834 14.6666V11.9166H7.33337C6.82921 11.9166 6.41671 11.5041 6.41671 11C6.41671 10.4958 6.82921 10.0833 7.33337 10.0833H10.0834V7.33331C10.0834 6.82915 10.4959 6.41665 11 6.41665C11.5042 6.41665 11.9167 6.82915 11.9167 7.33331V10.0833H14.6667C15.1709 10.0833 15.5834 10.4958 15.5834 11C15.5834 11.5041 15.1709 11.9166 14.6667 11.9166Z" fill="#787c8f" id="path101" />
</svg>
