<svg width="22" height="22" viewBox="0 0 22 22" fill="none"
    xmlns="http://www.w3.org/2000/svg">
    <path d="M11 1.83333C5.94 1.83333 1.83333 5.94 1.83333 11C1.83333 16.06 5.94 20.1667 11 20.1667C16.06 20.1667 20.1667 16.06 20.1667 11C20.1667 5.94 16.06 1.83333 11 1.83333ZM14.6667 11.9167H11.9167V14.6667C11.9167 15.1708 11.5042 15.5833 11 15.5833C10.4958 15.5833 10.0833 15.1708 10.0833 14.6667V11.9167H7.33333C6.82917 11.9167 6.41667 11.5042 6.41667 11C6.41667 10.4958 6.82917 10.0833 7.33333 10.0833H10.0833V7.33333C10.0833 6.82917 10.4958 6.41667 11 6.41667C11.5042 6.41667 11.9167 6.82917 11.9167 7.33333V10.0833H14.6667C15.1708 10.0833 15.5833 10.4958 15.5833 11C15.5833 11.5042 15.1708 11.9167 14.6667 11.9167Z" fill="#787c8f"/>
</svg>
