<?xml version="1.0" encoding="UTF-8" standalone="no"?>
<svg width="24" height="24" viewBox="0 0 24 24" fill="none" version="1.1" id="svg13" sodipodi:docname="Profile.svg" inkscape:version="1.1.2 (b8e25be8, 2022-02-05)"
   xmlns:inkscape="http://www.inkscape.org/namespaces/inkscape"
   xmlns:sodipodi="http://sodipodi.sourceforge.net/DTD/sodipodi-0.dtd"
   xmlns="http://www.w3.org/2000/svg"
   xmlns:svg="http://www.w3.org/2000/svg">
   <defs id="defs17" />
   <path id="path11" style="color:#000000;clip-rule:evenodd;fill:#787c8f;fill-rule:evenodd;stroke-linecap:round;stroke-linejoin:round;-inkscape-stroke:none" d="m 11.984375,2.0996094 c -2.9234226,0 -5.3094632,2.385282 -5.3105469,5.3085937 -0.00988,2.9155849 2.3605369,5.3025859 5.2753909,5.3124999 a 0.71435644,0.71435644 0 0 0 0.0039,0 h 0.03125 c 2.924233,0 5.310547,-2.386503 5.310547,-5.3105468 0,-2.9240349 -2.386494,-5.3105468 -5.310547,-5.3105468 z m 0,1.4296875 c 2.152142,0 3.880859,1.7287194 3.880859,3.8808593 0,2.1521515 -1.728897,3.8808598 -3.880859,3.8808598 h -0.0293 -0.002 C 9.8117347,11.282661 8.0962558,9.5549126 8.1035156,7.4121094 a 0.71435644,0.71435644 0 0 0 0,-0.00195 c 0,-2.1519542 1.7286712,-3.8808593 3.8808594,-3.8808593 z m 0,11.0664061 c -1.971629,0 -3.8162132,0.136423 -5.2734375,0.625 -0.7286121,0.244289 -1.3713726,0.579368 -1.859375,1.085938 -0.4880024,0.506569 -0.7871094,1.205031 -0.7871094,1.966796 0,0.760648 0.2958294,1.456135 0.78125,1.964844 0.4854207,0.50871 1.1258676,0.850292 1.8535156,1.097656 1.4552962,0.494729 3.3019123,0.634766 5.2851563,0.634766 1.971657,0 3.816464,-0.13629 5.273437,-0.625 0.728487,-0.244355 1.371495,-0.579427 1.859375,-1.085937 0.487881,-0.506511 0.78711,-1.20524 0.78711,-1.966797 0,-0.760424 -0.295949,-1.456203 -0.78125,-1.964844 -0.485301,-0.508641 -1.125993,-0.848267 -1.853516,-1.095703 -1.455046,-0.494873 -3.301902,-0.636719 -5.285156,-0.636719 z m 0,1.5 c 1.905242,0 3.645158,0.16294 4.802734,0.556641 0.578789,0.19685 1.000552,0.447445 1.251953,0.710937 0.251402,0.263493 0.365235,0.519663 0.365235,0.929688 0,0.408941 -0.1151,0.664068 -0.367188,0.925781 -0.252087,0.261713 -0.675422,0.510383 -1.255859,0.705078 -1.160874,0.38939 -2.900936,0.546875 -4.796875,0.546875 -1.905362,0 -3.6429775,-0.163045 -4.8007813,-0.556641 C 6.6046919,19.717265 6.1811414,19.466643 5.9296875,19.203125 5.6782336,18.939607 5.5644531,18.683739 5.5644531,18.273437 c 0,-0.409183 0.1150419,-0.664042 0.3671875,-0.925781 0.2521456,-0.261739 0.6753028,-0.510429 1.2558594,-0.705078 1.1611131,-0.389297 2.900848,-0.546875 4.796875,-0.546875 z" />
</svg>
