<svg id="svg"
    xmlns="http://www.w3.org/2000/svg"
    xmlns:xlink="http://www.w3.org/1999/xlink" width="400" height="400" viewBox="0, 0, 400,400">
    <g id="svgg">
        <path id="path0" d="M191.779 6.192 C 176.248 8.667,167.731 13.633,150.781 30.092 C 135.368 45.060,136.241 44.712,112.500 45.379 C 85.643 46.133,76.146 49.471,62.859 62.824 C 49.307 76.444,46.105 85.468,45.372 112.109 C 44.707 136.307,45.090 135.337,30.092 150.781 C 11.090 170.349,5.958 180.816,5.958 200.000 C 5.958 219.153,11.429 230.364,29.427 248.089 C 38.109 256.640,40.197 259.165,42.347 263.714 L 44.912 269.141 45.429 287.891 C 46.187 315.368,49.632 324.797,63.879 338.395 C 76.730 350.660,86.419 353.921,112.109 354.628 C 136.165 355.289,135.455 355.018,150.000 369.137 C 170.223 388.769,180.853 393.998,200.391 393.924 C 219.512 393.851,229.746 388.818,249.219 369.908 C 264.652 354.921,263.690 355.302,287.891 354.599 C 314.954 353.812,324.815 350.274,338.010 336.616 C 350.837 323.339,353.858 314.468,354.606 287.891 C 355.288 263.669,354.881 264.693,370.084 249.039 C 403.119 215.027,403.385 185.085,370.950 151.857 C 354.857 135.371,355.244 136.310,354.587 112.109 C 353.837 84.451,350.356 75.034,335.831 61.370 C 323.035 49.333,313.351 46.121,287.500 45.340 C 263.494 44.615,264.529 45.009,250.391 31.215 C 228.638 9.992,212.136 2.947,191.779 6.192 M156.641 135.055 C 163.575 138.223,166.817 143.794,166.254 151.575 C 165.056 168.132,142.120 171.858,135.075 156.641 C 128.947 143.405,143.353 128.986,156.641 135.055 M256.647 135.051 C 264.787 138.749,268.609 148.734,264.910 156.641 C 263.913 158.773,246.733 176.432,210.826 212.233 L 158.203 264.701 153.904 265.569 C 140.342 268.307,129.696 255.467,135.167 242.969 C 137.173 238.386,238.435 137.431,243.359 135.104 C 247.308 133.239,252.612 133.217,256.647 135.051 M259.249 236.241 C 272.410 245.361,266.001 265.903,250.003 265.879 C 232.906 265.853,227.153 243.382,242.188 235.351 C 247.192 232.678,254.671 233.068,259.249 236.241 " stroke="none" fill="#787c8f" fill-rule="evenodd"></path>
    </g>
</svg>
