<?xml version="1.0" encoding="UTF-8" standalone="no"?>
<svg
   width="24"
   height="24"
   viewBox="0 0 24 24"
   fill="none"
   version="1.1"
   id="svg17"
   sodipodi:docname="Promo.svg"
   inkscape:version="1.1.2 (b8e25be8, 2022-02-05)"
   xmlns:inkscape="http://www.inkscape.org/namespaces/inkscape"
   xmlns:sodipodi="http://sodipodi.sourceforge.net/DTD/sodipodi-0.dtd"
   xmlns="http://www.w3.org/2000/svg"
   xmlns:svg="http://www.w3.org/2000/svg">
  <defs
     id="defs21" />
  <sodipodi:namedview
     id="namedview19"
     pagecolor="#ffffff"
     bordercolor="#666666"
     borderopacity="1.0"
     inkscape:pageshadow="2"
     inkscape:pageopacity="0.0"
     inkscape:pagecheckerboard="0"
     showgrid="false"
     inkscape:zoom="29.958333"
     inkscape:cx="10.264256"
     inkscape:cy="12"
     inkscape:window-width="1872"
     inkscape:window-height="1147"
     inkscape:window-x="48"
     inkscape:window-y="25"
     inkscape:window-maximized="1"
     inkscape:current-layer="svg17" />
  <path
     id="path9"
     style="color:#000000;fill:#787c8f;stroke-linecap:round;stroke-linejoin:round;-inkscape-stroke:none"
     d="m 11.992188,2.0039063 c -0.772408,0.00217 -1.543593,0.298094 -2.1269536,0.8847656 L 9.1503906,3.6035156 C 8.8657698,3.8854514 8.4824915,4.0449219 8.0839844,4.0449219 H 7.0566406 a 0.750075,0.750075 0 0 0 -0.00195,0 C 5.6080327,4.0460801 4.5483569,5.1562198 4.265625,6.5234375 A 0.75,0.75 0 0 0 4.0449219,7.0566406 v 1.0234375 c 0,0.3998391 -0.1569218,0.7818617 -0.4394531,1.0664063 l -0.71875,0.71875 -0.00781,0.00781 c -3.2e-5,3.19e-5 -0.00334,0.00521 -0.00391,0.00586 -1.1655379,1.1734846 -1.1597573,3.0923296 0.013672,4.2578126 l 0.7167969,0.716797 c 0.2818023,0.283141 0.4394531,0.663992 0.4394531,1.0625 v 1.03125 c 0,1.654122 1.3575963,3.009765 3.0117187,3.009765 h 1.0253907 c 0.4001493,6.71e-4 0.7821517,0.16044 1.0644531,0.441406 l 0.71875,0.716797 0.00781,0.0098 0.00391,0.002 a 0.750075,0.750075 0 0 0 0.00195,0.002 c 1.1736457,1.164373 3.0923297,1.157804 4.2578127,-0.01563 l 0.716797,-0.714844 c 0.282722,-0.281385 0.663992,-0.441406 1.0625,-0.441406 h 1.03125 c 1.654122,0 3.011718,-1.355643 3.011718,-3.009765 V 15.91809 c 0,-0.399345 0.15807,-0.77978 0.439453,-1.0625 l 0.71875,-0.71875 0.0078,-0.0098 h 0.002 a 0.750075,0.750075 0 0 0 0,-0.002 c 1.166254,-1.172873 1.161435,-3.091103 -0.0098,-4.2578124 l -0.002,-0.00195 -0.716797,-0.7167969 -0.002,-0.00195 c -0.280524,-0.2835128 -0.4375,-0.6640399 -0.4375,-1.0625 V 7.0566406 c 0,-1.6551983 -1.357596,-3.0117187 -3.011718,-3.0117187 h -1.029297 c -0.39846,0 -0.778578,-0.1565647 -1.0625,-0.4375 l -0.002,-0.00195 -0.716797,-0.71875 A 0.750075,0.750075 0 0 0 14.125,2.8769531 C 13.538339,2.2936027 12.764595,2.0017362 11.992188,2.0039063 Z M 2.875,9.8789063 C 2.86674,9.8883663 2.806992,9.9546103 2.806641,9.9550783 2.8064535,9.9553283 2.720813,10.105219 2.720704,10.105469 2.7205938,10.105719 2.65625,10.406 2.65625,10.40625 Z m 9.121094,-6.3847657 c 0.385341,-0.00108 0.770974,0.1476638 1.070312,0.4453125 a 0.750075,0.750075 0 0 0 0.03125,0.029297 l 0.697266,0.6992187 a 0.750075,0.750075 0 0 0 0.002,0.00195 c 0.563876,0.5598862 1.32644,0.875 2.121094,0.875 h 1.029297 c 0.843875,0 1.511718,0.6669196 1.511718,1.5117187 v 1.0273438 c 0,0.7946541 0.314699,1.5567994 0.875,2.1210937 a 0.750075,0.750075 0 0 0 0.002,0.002 l 0.71875,0.720703 a 0.750075,0.750075 0 0 0 0.002,0.002 c 0.598855,0.595475 0.602909,1.538244 0.0078,2.136718 l -0.0098,0.0098 -0.71875,0.71875 a 0.750075,0.750075 0 0 0 -0.002,0.002 c -0.560615,0.563279 -0.875,1.32644 -0.875,2.121094 v 1.029297 c 0,0.843875 -0.667843,1.509765 -1.511718,1.509765 h -1.03125 c -0.795492,0 -1.557817,0.31634 -2.121094,0.876953 a 0.750075,0.750075 0 0 0 -0.002,0.002 l -0.71875,0.71875 a 0.750075,0.750075 0 0 0 -0.002,0.002 c -0.593861,0.597909 -1.536313,0.601423 -2.134766,0.0098 l -0.002,-0.002 h -0.002 l -0.0078,-0.0098 -0.71875,-0.71875 a 0.750075,0.750075 0 0 0 -0.002,-0.002 C 9.6413803,18.772952 8.8778338,18.458361 8.0839844,18.457031 a 0.750075,0.750075 0 0 0 -0.00195,0 H 7.0566406 c -0.843875,0 -1.5117187,-0.66589 -1.5117187,-1.509765 v -1.03125 c 0,-0.795492 -0.3167564,-1.558236 -0.8769532,-2.121094 L 3.9492188,13.074219 a 0.750075,0.750075 0 0 0 -0.00195,-0.002 C 3.3486966,12.47775 3.3449927,11.53406 3.9394531,10.935547 a 0.750075,0.750075 0 0 0 0,-0.002 c -1.32e-5,1.3e-5 0.00187,-0.0019 0.00195,-0.002 A 0.750075,0.750075 0 0 0 4.15625,10.40625 c 0,-2.5e-4 -0.062609,0.301031 -0.0625,0.300781 1.094e-4,-2.5e-4 -0.086125,0.148688 -0.085937,0.148438 3.352e-4,-4.47e-4 -0.049171,0.05713 -0.060547,0.07031 a 0.750075,0.750075 0 0 0 0.00195,0 l 0.7187499,-0.720703 a 0.750075,0.750075 0 0 0 0.00195,-0.002 c 0.5594678,-0.5634546 0.875,-1.3268871 0.875,-2.1230469 V 7.0566406 c 0,-0.843875 0.6675189,-1.5110428 1.5117187,-1.5117187 h 1.0273438 c 0.7954916,0 1.5577154,-0.3169366 2.1210936,-0.875 a 0.750075,0.750075 0 0 0 0.0039,-0.00391 l 0.71875,-0.71875 a 0.750075,0.750075 0 0 0 0.002,-0.00195 C 11.227326,3.645985 11.610752,3.4952206 11.996094,3.4941406 Z M 9.4960938,8.5 a 1,1 0 0 0 -1,1 1,1 0 0 0 1,1 h 0.00781 a 1,1 0 0 0 1.0000002,-1 1,1 0 0 0 -1.0000002,-1 z m 5.0000002,5 a 1,1 0 0 0 -1,1 1,1 0 0 0 1,1 h 0.0078 a 1,1 0 0 0 1,-1 1,1 0 0 0 -1,-1 z m 0.07617,-4.8183594 a 0.75,0.75 0 0 0 -0.53125,0.2207032 L 8.9003906,14.041016 a 0.75,0.75 0 0 0 0,1.060547 0.75,0.75 0 0 0 1.0625,0 L 15.101563,9.9628906 a 0.75,0.75 0 0 0 0,-1.0605468 0.75,0.75 0 0 0 -0.529297,-0.2207032 z" />
</svg>
