<?xml version="1.0" encoding="UTF-8" standalone="no"?>
<svg width="12" height="12" viewBox="0 0 12 12" fill="none" version="1.1" id="svg176" sodipodi:docname="Check.svg" inkscape:version="1.1.2 (b8e25be8, 2022-02-05)"
   xmlns:inkscape="http://www.inkscape.org/namespaces/inkscape"
   xmlns:sodipodi="http://sodipodi.sourceforge.net/DTD/sodipodi-0.dtd"
   xmlns="http://www.w3.org/2000/svg"
   xmlns:svg="http://www.w3.org/2000/svg">
   <defs id="defs180" />
   <path id="path190" fill="#787c8f" d="M 9.36866,3.44527 9.31313,3.391 C 9.00751,3.11963 8.55688,3.13773 8.2706,3.44527 L 5.05999,6.8943 3.7292,5.46469 c -0.30417,-0.32677 -0.79388,-0.32677 -1.09805,0 -0.30833,0.33122 -0.30833,0.87123 0,1.20245 l 1.67094,1.79504 c 0.41954,0.45069 1.09627,0.45069 1.5158,0 L 9.36866,4.64772 C 9.65771,4.33721 9.67578,3.84318 9.42286,3.50972 Z M 12,6 A 6,6 0 0 1 6,12 6,6 0 0 1 0,6 6,6 0 0 1 6,0 6,6 0 0 1 12,6 Z" />
</svg>
