<?xml version="1.0" encoding="UTF-8" standalone="no"?>
<svg width="16" height="17" viewBox="0 0 16 17" fill="none" version="1.1" id="svg13" sodipodi:docname="Search.svg" inkscape:version="1.1.2 (b8e25be8, 2022-02-05)"
   xmlns:inkscape="http://www.inkscape.org/namespaces/inkscape"
   xmlns:sodipodi="http://sodipodi.sourceforge.net/DTD/sodipodi-0.dtd"
   xmlns="http://www.w3.org/2000/svg"
   xmlns:svg="http://www.w3.org/2000/svg">
   <defs id="defs17" />
   <sodipodi:namedview id="namedview15" pagecolor="#ffffff" bordercolor="#666666" borderopacity="1.0" inkscape:pageshadow="2" inkscape:pageopacity="0.0" inkscape:pagecheckerboard="0" showgrid="false" inkscape:zoom="42.294118" inkscape:cx="8.0034771" inkscape:cy="8.5" inkscape:window-width="1872" inkscape:window-height="1147" inkscape:window-x="48" inkscape:window-y="25" inkscape:window-maximized="1" inkscape:current-layer="svg13" />
   <path id="path11" style="color:#000000;fill:#787c8f;stroke-linecap:round;stroke-linejoin:round;-inkscape-stroke:none" d="m 12.011719,12.074219 a 0.75,0.75 0 0 0 -0.53125,0.21875 0.75,0.75 0 0 0 0.002,1.060547 l 2.349609,2.34375 a 0.75,0.75 0 0 0 1.060547,0 0.75,0.75 0 0 0 -0.002,-1.0625 l -2.349609,-2.341797 a 0.75,0.75 0 0 0 -0.529297,-0.21875 z M 7.84375,1.6015625 c -3.714821,0 -6.7421875,3.0273665 -6.7421875,6.7421875 0,3.714821 3.0273665,6.742188 6.7421875,6.742188 3.714821,0 6.742188,-3.027367 6.742188,-6.742188 0,-3.714821 -3.027367,-6.7421875 -6.742188,-6.7421875 z m 0,1.5 c 2.904162,0 5.242188,2.3380259 5.242188,5.2421875 0,2.904162 -2.338026,5.242188 -5.242188,5.242188 -2.9041616,0 -5.2421875,-2.338026 -5.2421875,-5.242188 0,-2.9041616 2.3380259,-5.2421875 5.2421875,-5.2421875 z" />
</svg>
