<svg id="svg"
    xmlns="http://www.w3.org/2000/svg"
    xmlns:xlink="http://www.w3.org/1999/xlink" width="400" height="416.40625" viewBox="0, 0, 400,416.40625">
    <g id="svgg">
        <path id="path0" d="M288.340 46.943 C 254.541 53.574,233.677 84.222,238.549 120.082 L 239.208 124.929 194.390 147.334 L 149.571 169.739 144.477 164.645 C 104.921 125.089,37.927 152.481,37.944 208.203 C 37.961 263.621,102.790 291.207,143.279 253.024 L 149.600 247.063 194.666 269.599 L 239.732 292.134 238.842 295.091 C 232.730 315.375,244.333 345.213,263.709 359.040 C 315.709 396.147,383.514 339.469,356.303 281.641 C 337.619 241.932,282.561 233.648,253.880 266.231 L 250.681 269.865 205.737 247.397 L 160.792 224.929 161.451 220.082 C 162.285 213.942,162.298 202.569,161.477 196.484 L 160.845 191.797 205.701 169.393 L 250.557 146.989 254.771 151.298 C 290.690 188.025,352.337 169.462,361.484 119.165 C 369.179 76.845,330.516 38.668,288.340 46.943 M313.535 73.389 C 337.838 82.825,345.246 113.952,327.804 133.351 C 307.883 155.508,271.231 146.475,263.698 117.551 C 256.150 88.576,285.550 62.524,313.535 73.389 M113.535 173.389 C 137.838 182.825,145.246 213.952,127.804 233.351 C 107.883 255.508,71.231 246.475,63.698 217.551 C 56.150 188.576,85.550 162.524,113.535 173.389 M313.535 273.389 C 337.838 282.825,345.246 313.952,327.804 333.351 C 307.883 355.508,271.231 346.475,263.698 317.551 C 256.150 288.576,285.550 262.524,313.535 273.389 " stroke="none" fill="#787c8f" fill-rule="evenodd"></path>
    </g>
</svg>
