<?xml version="1.0" encoding="UTF-8" standalone="no"?>
<svg width="24" height="24" viewBox="0 0 24 24" fill="none" version="1.1" id="svg146" sodipodi:docname="Shield Done.svg" inkscape:version="1.1.2 (b8e25be8, 2022-02-05)"
   xmlns:inkscape="http://www.inkscape.org/namespaces/inkscape"
   xmlns:sodipodi="http://sodipodi.sourceforge.net/DTD/sodipodi-0.dtd"
   xmlns="http://www.w3.org/2000/svg"
   xmlns:svg="http://www.w3.org/2000/svg">
   <path id="Stroke 3" style="color:#000000;fill:#787c8f;stroke-linecap:round;stroke-linejoin:round;-inkscape-stroke:none" d="m 15.175781,9.1191406 a 0.75,0.75 0 0 0 -0.53125,0.2207032 L 11.279297,12.707031 9.9160156,11.34375 a 0.75,0.75 0 0 0 -1.0605468,0 0.75,0.75 0 0 0 0,1.060547 l 1.8925782,1.894531 a 0.750075,0.750075 0 0 0 1.060547,0 l 3.898437,-3.90039 a 0.75,0.75 0 0 0 0,-1.0605474 0.75,0.75 0 0 0 -0.53125,-0.21875 z M 11.984375,2 C 11.485361,2 11.002011,2.1473943 10.294922,2.3496094 9.5878325,2.5518245 8.7494236,2.8234626 7.921875,3.1152344 7.0943264,3.4070062 6.2797775,3.7187867 5.6191406,4.0019531 5.2888222,4.1435363 4.9977216,4.2768802 4.7539062,4.4042969 4.5100909,4.5317135 4.3297176,4.6172056 4.1191406,4.828125 3.9093242,5.0379415 3.7021333,5.3529067 3.6113281,5.703125 3.520523,6.0533433 3.5039037,6.4195467 3.5,6.9414062 3.49219,7.9851254 3.5625,9.6872603 3.5625,12.878906 c 0,3.501495 2.1189405,5.911495 4.1484375,7.373047 2.029497,1.461552 4.0566405,2.072266 4.0566405,2.072266 a 0.750075,0.750075 0 0 0 0.433594,0 c 0,0 2.027134,-0.610714 4.05664,-2.072266 2.029507,-1.461552 4.148438,-3.87155 4.148438,-7.373047 0,-3.1916457 0.07018,-4.8938878 0.0625,-5.9374998 C 20.464912,6.4196003 20.44798,6.055155 20.357422,5.7050781 20.266864,5.3550012 20.059163,5.0380192 19.849609,4.828125 19.63913,4.6176459 19.460671,4.5316875 19.216797,4.4042969 18.972923,4.2769063 18.679988,4.14353 18.349609,4.0019531 17.688853,3.7187994 16.874485,3.4070035 16.046875,3.1152344 15.219265,2.8234652 14.380934,2.5518235 13.673828,2.3496094 12.966722,2.1473952 12.483389,2 11.984375,2 Z m 0,1.5 c 0.004,0 0.611076,0.1004802 1.277344,0.2910156 0.666267,0.1905355 1.48372,0.4570041 2.287109,0.7402344 0.803389,0.2832303 1.595821,0.5860137 2.210938,0.8496094 0.307558,0.1317978 0.571327,0.2540627 0.761718,0.3535156 0.190391,0.099453 0.324058,0.2107761 0.267578,0.1542969 0.09795,0.098105 0.0869,0.074327 0.117188,0.1914062 0.03029,0.1170789 0.05896,0.3922289 0.0625,0.8730469 0.0071,0.9616361 -0.0625,2.7124336 -0.0625,5.925781 0,2.902497 -1.716948,4.855305 -3.523437,6.15625 -1.63314,1.176107 -3.09972,1.672143 -3.398438,1.769531 C 11.685659,20.707299 10.219068,20.211263 8.5859375,19.035156 6.7794583,17.734211 5.0625,15.781405 5.0625,12.878906 5.0625,9.6655586 4.9928074,7.9146539 5,6.953125 5.0035963,6.4723606 5.0341334,6.1970156 5.0644531,6.0800781 5.0947729,5.9631407 5.0834574,5.9868551 5.1816406,5.8886719 5.1248135,5.9455914 5.2589625,5.8338019 5.4492187,5.734375 5.639475,5.6349481 5.9015103,5.5126509 6.2089844,5.3808594 6.8239325,5.1172763 7.6166071,4.8144776 8.4199219,4.53125 9.2232366,4.2480224 10.040786,3.9815501 10.707031,3.7910156 11.373277,3.6004811 11.98039,3.5 11.984375,3.5 Z" />
</svg>
