<?xml version="1.0" encoding="UTF-8" standalone="no"?>
<svg width="24" height="24" viewBox="0 0 24 24" fill="none" version="1.1" id="svg17" sodipodi:docname="Sort 1.svg" inkscape:version="1.1.2 (b8e25be8, 2022-02-05)"
   xmlns:inkscape="http://www.inkscape.org/namespaces/inkscape"
   xmlns:sodipodi="http://sodipodi.sourceforge.net/DTD/sodipodi-0.dtd"
   xmlns="http://www.w3.org/2000/svg"
   xmlns:svg="http://www.w3.org/2000/svg">
   <defs id="defs21" />
   <sodipodi:namedview id="namedview19" pagecolor="#ffffff" bordercolor="#666666" borderopacity="1.0" inkscape:pageshadow="2" inkscape:pageopacity="0.0" inkscape:pagecheckerboard="0" showgrid="false" inkscape:zoom="29.958333" inkscape:cx="11.98331" inkscape:cy="12" inkscape:window-width="1871" inkscape:window-height="1147" inkscape:window-x="49" inkscape:window-y="25" inkscape:window-maximized="1" inkscape:current-layer="svg17" />
   <path id="path15" style="color:#000000;clip-rule:evenodd;fill:#787c8f;fill-rule:evenodd;stroke-linecap:round;stroke-linejoin:round;-inkscape-stroke:none" d="m 17.636719,13.457031 c -1.708081,0 -3.113281,1.393646 -3.113281,3.097656 0,1.703942 1.4052,3.095704 3.113281,3.095704 1.707527,0 3.113281,-1.392032 3.113281,-3.095704 0,-1.70374 -1.405754,-3.097656 -3.113281,-3.097656 z m 0,1.5 c 0.90247,0 1.613281,0.709999 1.613281,1.597656 0,0.887526 -0.710811,1.595704 -1.613281,1.595704 -0.903517,0 -1.613282,-0.708448 -1.613282,-1.595704 0,-0.887387 0.709765,-1.597656 1.613282,-1.597656 z M 6.3632812,3.75 C 4.6557681,3.75 3.25,5.1417038 3.25,6.8457031 c 0,1.7040062 1.4057681,3.0976563 3.1132812,3.0976563 1.7075202,0 3.1132813,-1.3936501 3.1132813,-3.0976563 C 9.4765625,5.1417038 8.0708014,3.75 6.3632812,3.75 Z m 0,1.5 c 0.9024573,0 1.6132813,0.708405 1.6132813,1.5957031 0,0.8873113 -0.710824,1.5976563 -1.6132813,1.5976563 C 5.4608371,8.4433594 4.75,7.7330144 4.75,6.8457031 4.75,5.958405 5.4608371,5.25 6.3632812,5.25 Z m 6.7773438,0.9003906 a 0.75,0.75 0 0 0 -0.75,0.75 0.75,0.75 0 0 0 0.75,0.75 h 6.300781 a 0.75,0.75 0 0 0 0.75,-0.75 0.75,0.75 0 0 0 -0.75,-0.75 z M 4.0292969,15.84375 a 0.75,0.75 0 0 0 -0.75,0.75 0.75,0.75 0 0 0 0.75,0.75 h 6.3007811 a 0.75,0.75 0 0 0 0.75,-0.75 0.75,0.75 0 0 0 -0.75,-0.75 z" />
</svg>
