<svg id="svg"
    xmlns="http://www.w3.org/2000/svg"
    xmlns:xlink="http://www.w3.org/1999/xlink" width="400" height="400" viewBox="0, 0, 400,400">
    <path id="path0" d="M188.627 55.535 C 113.489 60.965,60.012 118.833,55.017 200.119 L 54.553 207.660 50.731 210.268 C 40.100 217.522,38.281 223.317,38.281 249.928 C 38.281 285.261,45.839 295.312,72.409 295.312 L 78.125 295.313 78.125 244.562 C 78.125 176.248,79.800 164.394,92.816 140.625 C 146.835 41.971,293.174 62.217,318.700 171.875 C 321.552 184.128,321.875 192.916,321.875 258.286 L 321.875 321.875 259.100 321.875 L 196.325 321.875 193.750 323.633 C 186.549 328.548,186.691 337.817,194.051 343.311 C 196.189 344.907,196.798 344.922,259.237 344.922 L 322.266 344.922 326.953 343.037 C 340.086 337.756,344.603 328.950,345.136 307.585 L 345.502 292.904 348.372 291.440 C 359.444 285.791,361.277 280.281,361.575 251.745 C 361.908 219.885,360.570 215.926,346.599 207.422 C 345.556 206.787,345.171 204.370,344.547 194.531 C 340.137 125.022,294.517 71.342,228.401 57.869 C 221.910 56.546,200.889 54.425,198.047 54.806 C 197.617 54.864,193.378 55.192,188.627 55.535 M190.625 100.487 C 146.110 106.156,109.771 139.022,101.967 180.670 C 97.996 201.860,101.909 207.375,115.625 199.917 C 145.428 183.712,170.195 151.840,179.231 118.063 C 181.639 109.062,181.327 109.311,183.992 114.254 C 202.353 148.304,237.482 173.957,275.786 181.285 C 296.702 185.287,300.761 182.708,296.013 168.434 C 281.540 124.924,234.894 94.849,190.625 100.487 M143.750 201.246 C 127.110 208.453,131.989 233.039,150.065 233.066 C 164.212 233.087,171.630 216.378,162.229 205.670 C 157.648 200.453,149.876 198.592,143.750 201.246 M243.750 201.246 C 227.110 208.453,231.989 233.039,250.065 233.066 C 264.212 233.087,271.630 216.378,262.229 205.670 C 257.648 200.453,249.876 198.592,243.750 201.246 " stroke="none" fill="#787c8f" fill-rule="evenodd"></path>
</svg>
