<?xml version="1.0" encoding="UTF-8" standalone="no"?>
<svg width="16" height="16" viewBox="0 0 16 16" fill="none" version="1.1" id="svg130" sodipodi:docname="trash.svg" inkscape:version="1.1.2 (b8e25be8, 2022-02-05)"
   xmlns:inkscape="http://www.inkscape.org/namespaces/inkscape"
   xmlns:sodipodi="http://sodipodi.sourceforge.net/DTD/sodipodi-0.dtd"
   xmlns="http://www.w3.org/2000/svg"
   xmlns:svg="http://www.w3.org/2000/svg">
   <defs id="defs134" />
   <sodipodi:namedview id="namedview132" pagecolor="#ffffff" bordercolor="#666666" borderopacity="1.0" inkscape:pageshadow="2" inkscape:pageopacity="0.0" inkscape:pagecheckerboard="0" showgrid="false" inkscape:zoom="44.9375" inkscape:cx="6.1752434" inkscape:cy="9.1126565" inkscape:window-width="1296" inkscape:window-height="969" inkscape:window-x="48" inkscape:window-y="25" inkscape:window-maximized="0" inkscape:current-layer="svg130" />
   <path id="path128" style="color:#000000;fill:#787c8f;stroke-linecap:round;stroke-linejoin:round;-inkscape-stroke:none" d="m 6.7421875,1.0839844 c -0.721064,0 -1.3639227,0.4906022 -1.5507813,1.1894531 a 0.750075,0.750075 0 0 0 -0.00977,0.046875 l -0.162105,0.8085938 c -0.033334,0.16645 -0.1719557,0.28125 -0.3417968,0.28125 a 0.75,0.75 0 0 0 -0.75,0.7499999 0.75,0.75 0 0 0 0.75,0.75 c 0.8768378,0 1.6404943,-0.6274391 1.8125,-1.4863281 l 0.1523437,-0.765625 c 0.01382,-0.047164 0.049771,-0.074219 0.099609,-0.074219 h 2.8222656 c 0.049823,0 0.08382,0.027049 0.097656,0.074219 l 0.1523437,0.765625 c 0.172057,0.8588941 0.9356746,1.4863281 1.8124996,1.4863281 a 0.75,0.75 0 0 0 0.75,-0.75 0.75,0.75 0 0 0 -0.75,-0.7499999 c -0.169774,0 -0.308454,-0.1148052 -0.341797,-0.28125 L 11.123047,2.3203125 a 0.750075,0.750075 0 0 0 -0.0098,-0.046875 C 10.926432,1.5746228 10.285517,1.0839844 9.5644531,1.0839844 Z M 2.5,3.4101563 a 0.75,0.75 0 0 0 -0.75,0.7499999 0.75,0.75 0 0 0 0.75,0.75 h 11.304688 a 0.75,0.75 0 0 0 0.75,-0.75 0.75,0.75 0 0 0 -0.75,-0.7499999 z m 0.8613281,2.1542968 a 0.75,0.75 0 0 0 -0.6875,0.8085938 c 0,0 0.3590028,4.4652111 0.5742188,6.4082031 0.063954,0.579108 0.2903834,1.118052 0.6972656,1.505859 0.4068822,0.387808 0.9698241,0.589511 1.5585937,0.601563 1.7497676,0.03683 3.5003193,0.03536 5.2480468,0.0039 0.598915,-0.01094 1.169979,-0.20359 1.587891,-0.591797 0.417912,-0.388207 0.651772,-0.938027 0.716797,-1.52539 0.213933,-1.92683 0.574218,-6.4023441 0.574218,-6.4023441 a 0.75,0.75 0 0 0 -0.6875,-0.8085938 0.75,0.75 0 0 0 -0.808593,0.6875 c 0,0 -0.362294,4.5034079 -0.56836,6.3593749 -0.03498,0.315936 -0.131506,0.483401 -0.246093,0.589844 -0.114588,0.106443 -0.28062,0.185649 -0.595704,0.191406 -1.7308685,0.03115 -3.4619038,0.03441 -5.1894528,-0.002 -0.2905694,-0.0059 -0.4429051,-0.08286 -0.5546875,-0.1894 C 4.8686864,13.09463 4.7723273,12.923525 4.7382812,12.615234 4.5308176,10.742231 4.1699219,6.2519531 4.1699219,6.2519531 a 0.75,0.75 0 0 0 -0.8085938,-0.6875 z" />
</svg>
