<svg width="20" height="21" viewBox="0 0 20 21" fill="none"
    xmlns="http://www.w3.org/2000/svg">
    <path fill-rule="evenodd" clip-rule="evenodd" d="M11.333 7.30852C10.988 7.30852 10.708 7.02852 10.708 6.68352V4.66602C10.708 4.32102 10.988 4.04102 11.333 4.04102C11.678 4.04102 11.958 4.32102 11.958 4.66602V6.68352C11.958 7.02852 11.678 7.30852 11.333 7.30852Z" fill="#787c8f"/>
    <path fill-rule="evenodd" clip-rule="evenodd" d="M11.333 18.2366C10.988 18.2366 10.708 17.9566 10.708 17.6116V15.9258C10.708 15.5799 10.988 15.3008 11.333 15.3008C11.678 15.3008 11.958 15.5799 11.958 15.9258V17.6116C11.958 17.9566 11.678 18.2366 11.333 18.2366Z" fill="#787c8f"/>
    <path fill-rule="evenodd" clip-rule="evenodd" d="M11.333 13.6874C10.988 13.6874 10.708 13.4074 10.708 13.0624V9.04492C10.708 8.69992 10.988 8.41992 11.333 8.41992C11.678 8.41992 11.958 8.69992 11.958 9.04492V13.0624C11.958 13.4074 11.678 13.6874 11.333 13.6874Z" fill="#787c8f"/>
    <mask id="mask0_480_29463" style="mask-type:alpha" maskUnits="userSpaceOnUse" x="0" y="3" width="19" height="16">
        <path fill-rule="evenodd" clip-rule="evenodd" d="M0.833313 3.83301H18.75V18.4161H0.833313V3.83301Z" fill="#787c8f"/>
    </mask>
    <g mask="url(#mask0_480_29463)">
        <path fill-rule="evenodd" clip-rule="evenodd" d="M2.08331 13.4613V15.0772C2.08331 16.2288 3.03581 17.1663 4.20665 17.1663H15.3766C16.5475 17.1663 17.5 16.2288 17.5 15.0772V13.4613C16.4575 13.1872 15.6858 12.2438 15.6858 11.1255C15.6858 10.0063 16.4566 9.06384 17.5 8.78967L17.4991 7.17217C17.4991 6.02051 16.5466 5.08301 15.3758 5.08301H4.20748C3.03665 5.08301 2.08415 6.02051 2.08415 7.17217L2.08331 8.85384C3.13915 9.11301 3.89748 10.018 3.89748 11.1255C3.89748 12.2438 3.12581 13.1872 2.08331 13.4613ZM15.3766 18.4163H4.20665C2.34665 18.4163 0.833313 16.918 0.833313 15.0772V12.9172C0.833313 12.5722 1.11331 12.2922 1.45831 12.2922C2.11415 12.2922 2.64748 11.7688 2.64748 11.1255C2.64748 10.5005 2.13581 10.0288 1.45831 10.0288C1.29248 10.0288 1.13331 9.96301 1.01665 9.84551C0.899146 9.72884 0.833313 9.56884 0.833313 9.40384L0.834146 7.17217C0.834146 5.33134 2.34748 3.83301 4.20748 3.83301H15.3758C17.2358 3.83301 18.7491 5.33134 18.7491 7.17217L18.75 9.33384C18.75 9.49884 18.6841 9.65884 18.5666 9.77551C18.45 9.89301 18.2908 9.95884 18.125 9.95884C17.4691 9.95884 16.9358 10.4822 16.9358 11.1255C16.9358 11.7688 17.4691 12.2922 18.125 12.2922C18.47 12.2922 18.75 12.5722 18.75 12.9172V15.0772C18.75 16.918 17.2366 18.4163 15.3766 18.4163Z" fill="#787c8f"/>
    </g>
</svg>
