<svg width="20" height="21" viewBox="0 0 20 21" fill="none"
    xmlns="http://www.w3.org/2000/svg">
    <path fill-rule="evenodd" clip-rule="evenodd" d="M18.156 9.28252C18.0432 9.39213 17.8901 9.45476 17.7289 9.45476C17.1325 9.45476 16.6489 9.92452 16.6489 10.4961C16.6489 11.0715 17.1269 11.5389 17.7176 11.5452C18.0505 11.5483 18.3333 11.7738 18.3333 12.0972V14.1054C18.3333 15.7957 16.923 17.1666 15.1821 17.1666H12.5548C12.2832 17.1666 12.0632 16.9529 12.0632 16.6891V14.9979C12.0632 14.6691 11.7972 14.4107 11.4587 14.4107C11.1283 14.4107 10.8543 14.6691 10.8543 14.9979V16.6891C10.8543 16.9529 10.6343 17.1666 10.3635 17.1666H4.81786C3.08511 17.1666 1.66667 15.7965 1.66667 14.1054V12.0972C1.66667 11.7738 1.94955 11.5483 2.2824 11.5452C2.87395 11.5389 3.35106 11.0715 3.35106 10.4961C3.35106 9.94018 2.88362 9.5174 2.27112 9.5174C2.10993 9.5174 1.9568 9.45476 1.84397 9.34515C1.73114 9.23554 1.66667 9.08679 1.66667 8.9302V6.90241C1.66667 5.21441 3.08833 3.83331 4.82592 3.83331H10.3635C10.6343 3.83331 10.8543 4.04705 10.8543 4.3109V6.31521C10.8543 6.63621 11.1283 6.90241 11.4587 6.90241C11.7972 6.90241 12.0632 6.63621 12.0632 6.31521V4.3109C12.0632 4.04705 12.2832 3.83331 12.5548 3.83331H15.1821C16.923 3.83331 18.3333 5.20344 18.3333 6.89458V8.86757C18.3333 9.02415 18.2689 9.17291 18.156 9.28252ZM11.4587 12.8918C11.7972 12.8918 12.0632 12.6256 12.0632 12.3046V9.17291C12.0632 8.85191 11.7972 8.58571 11.4587 8.58571C11.1283 8.58571 10.8543 8.85191 10.8543 9.17291V12.3046C10.8543 12.6256 11.1283 12.8918 11.4587 12.8918Z" fill="#787c8f"/>
</svg>
