<svg width="20" height="21" viewBox="0 0 20 21" fill="none"
    xmlns="http://www.w3.org/2000/svg">
    <path d="M6.04414 15.912L6.64747 16.2645C7.66492 16.8579 8.82213 17.1694 9.99997 17.167C11.3185 17.167 12.6074 16.776 13.7038 16.0435C14.8001 15.3109 15.6546 14.2697 16.1592 13.0515C16.6638 11.8334 16.7958 10.4929 16.5385 9.19972C16.2813 7.90652 15.6464 6.71863 14.714 5.78628C13.7817 4.85393 12.5938 4.21899 11.3006 3.96176C10.0074 3.70452 8.66692 3.83654 7.44875 4.34113C6.23057 4.84571 5.18938 5.7002 4.45684 6.79652C3.7243 7.89285 3.3333 9.18178 3.3333 10.5003C3.3333 11.697 3.64747 12.8445 4.23664 13.8537L4.5883 14.457L4.04414 16.4578L6.04414 15.912ZM1.66997 18.8337L2.79664 14.6937C2.05425 13.421 1.66422 11.9737 1.66664 10.5003C1.66664 5.89783 5.39747 2.16699 9.99997 2.16699C14.6025 2.16699 18.3333 5.89783 18.3333 10.5003C18.3333 15.1028 14.6025 18.8337 9.99997 18.8337C8.52729 18.836 7.08052 18.4463 5.8083 17.7045L1.66997 18.8337ZM6.99247 6.59033C7.10414 6.58199 7.21664 6.58199 7.3283 6.58699C7.3733 6.59033 7.4183 6.59533 7.4633 6.60033C7.5958 6.61533 7.74164 6.69616 7.7908 6.80783C8.03914 7.37116 8.2808 7.93866 8.51414 8.50783C8.5658 8.63449 8.53497 8.79699 8.43664 8.95533C8.36901 9.06239 8.29585 9.16586 8.21747 9.26533C8.1233 9.38616 7.9208 9.60783 7.9208 9.60783C7.9208 9.60783 7.8383 9.70616 7.86997 9.82866C7.88164 9.87533 7.91997 9.94283 7.95497 9.99949L8.00414 10.0787C8.21747 10.4345 8.50414 10.7953 8.85414 11.1353C8.95414 11.232 9.05164 11.3312 9.15664 11.4237C9.54664 11.7678 9.9883 12.0487 10.465 12.257L10.4691 12.2587C10.54 12.2895 10.5758 12.3062 10.6791 12.3503C10.7308 12.372 10.7841 12.3912 10.8383 12.4053C10.8943 12.4196 10.9532 12.4169 11.0077 12.3976C11.0621 12.3783 11.1096 12.3433 11.1441 12.297C11.7475 11.5662 11.8025 11.5187 11.8075 11.5187V11.5203C11.8494 11.4812 11.8992 11.4516 11.9535 11.4333C12.0078 11.4151 12.0655 11.4086 12.1225 11.4145C12.1725 11.4178 12.2233 11.427 12.27 11.4478C12.7125 11.6503 13.4366 11.9662 13.4366 11.9662L13.9216 12.1837C14.0033 12.2228 14.0775 12.3153 14.08 12.4045C14.0833 12.4603 14.0883 12.5503 14.0691 12.7153C14.0425 12.9312 13.9775 13.1903 13.9125 13.3262C13.868 13.4189 13.8089 13.5038 13.7375 13.5778C13.6534 13.6661 13.5613 13.7465 13.4625 13.8178C13.4283 13.8435 13.3935 13.8685 13.3583 13.8928C13.2547 13.9586 13.1482 14.0198 13.0391 14.0762C12.8246 14.1901 12.5876 14.2556 12.345 14.2678C12.1908 14.2762 12.0366 14.2878 11.8816 14.2795C11.875 14.2795 11.4083 14.207 11.4083 14.207C10.2235 13.8954 9.1278 13.3115 8.2083 12.502C8.01997 12.3362 7.8458 12.1578 7.66747 11.9803C6.9258 11.2428 6.3658 10.447 6.0258 9.69533C5.85178 9.3264 5.75778 8.92483 5.74997 8.51699C5.74654 8.01103 5.91193 7.51838 6.21997 7.11699C6.2808 7.03866 6.3383 6.95699 6.43747 6.86283C6.5433 6.76283 6.60997 6.70949 6.68247 6.67283C6.77887 6.62452 6.88402 6.59617 6.99164 6.58949L6.99247 6.59033Z" fill="#787c8f"/>
</svg>
